$MeshFormat
4.1 0 8
$EndMeshFormat
$PhysicalNames
5
1 2 "inlet"
1 3 "outlet"
1 4 "noflux"
2 1 "k11"
2 6 "Vugs"
$EndPhysicalNames
$Entities
13 13 2 0
1 30 8 0 0 
2 20 11 0 0 
3 10 25 0 0 
4 12 46 0 0 
5 25 57 0 0 
6 44 54 0 0 
7 53 42 0 0 
8 52 22 0 0 
9 41 10 0 0 
12 0 0 0 0 
13 0 77 0 0 
14 66 77 0 0 
15 66 0 0 0 
1 20 8 0 30 11 0 0 2 1 -2 
2 10 11 0 20 25 0 0 2 2 -3 
3 10 25 0 12 46 0 0 2 3 -4 
4 12 46 0 25 57 0 0 2 4 -5 
5 25 54 0 44 57 0 0 2 5 -6 
6 44 42 0 53 54 0 0 2 6 -7 
7 52 22 0 53 42 0 0 2 7 -8 
8 41 10 0 52 22 0 0 2 8 -9 
9 30 8 0 41 10 0 0 2 9 -1 
12 0 0 0 0 77 0 1 3 2 12 -13 
13 0 77 0 66 77 0 1 4 2 13 -14 
14 66 0 0 66 77 0 1 2 2 14 -15 
15 0 0 0 66 0 0 1 4 2 15 -12 
11 10 8 0 53 57 0 1 6 9 1 2 3 4 5 6 7 8 9 
1000 0 0 0 66 77 0 1 1 13 1 2 3 4 5 6 7 8 9 -15 -14 -13 -12 
$EndEntities
$Nodes
19 31 1 31
0 1 0 1
1
30 8 0
0 2 0 1
2
20 11 0
0 3 0 1
3
10 25 0
0 4 0 1
4
12 46 0
0 5 0 1
5
25 57 0
0 6 0 1
6
44 54 0
0 7 0 1
7
53 42 0
0 8 0 1
8
52 22 0
0 9 0 1
9
41 10 0
0 12 0 1
10
0 0 0
0 13 0 1
11
0 77 0
0 14 0 1
12
66 77 0
0 15 0 1
13
66 0 0
1 12 0 2
14
15
0 25.66666666664392 0
0 51.33333333333744 0
1 13 0 1
16
32.99999999990993 77 0
1 14 0 2
17
18
66 51.333333333412 0
66 25.66666666670557 0
1 15 0 1
19
33.00000000001238 0 0
2 11 0 5
20
21
22
23
24
36.98842304935065 23.56433212246171 0
32.33693461709007 41.80058590823707 0
24.6745923780764 24.33594050029232 0
42.73258865784177 35.2561103828389 0
20.67478225858805 36.66667070689029 0
2 1000 0 7
25
26
27
28
29
30
31
11.13024282560906 60.20971302428021 0
5.5 36.99999999999534 0
7.604796880902727 12.71771205778766 0
54.8185778379213 60.49614350706489 0
53.56277226446774 9.601715317341661 0
44.1514159675125 65.84513027296046 0
54.45464445948032 51.95736921011922 0
$EndNodes
$Elements
6 60 1 60
1 12 1 3
1 10 14 
2 14 15 
3 15 11 
1 13 1 2
4 11 16 
5 16 12 
1 14 1 3
6 12 17 
7 17 18 
8 18 13 
1 15 1 2
9 13 19 
10 19 10 
2 11 2 17
11 9 1 20 
12 1 2 22 
13 20 1 22 
14 7 8 23 
15 5 6 21 
16 3 4 24 
17 5 21 24 
18 6 7 23 
19 21 20 22 
20 4 5 24 
21 21 6 23 
22 2 3 22 
23 8 9 20 
24 21 22 24 
25 20 21 23 
26 8 20 23 
27 22 3 24 
2 1000 2 33
28 2 27 10 
29 15 25 11 
30 18 29 13 
31 8 29 18 
32 12 28 17 
33 15 26 4 
34 6 30 5 
35 12 30 28 
36 14 27 3 
37 9 29 8 
38 5 30 16 
39 5 25 4 
40 4 25 15 
41 9 1 19 
42 3 26 14 
43 17 31 7 
44 7 31 6 
45 6 31 28 
46 28 31 17 
47 28 30 6 
48 4 26 3 
49 19 29 9 
50 16 30 12 
51 13 29 19 
52 14 26 15 
53 19 1 2 
54 3 27 2 
55 19 2 10 
56 16 25 5 
57 18 7 8 
58 17 7 18 
59 10 27 14 
60 11 25 16 
$EndElements
