$MeshFormat
4.1 0 8
$EndMeshFormat
$PhysicalNames
5
1 2 "inlet"
1 3 "outlet"
1 4 "noflux"
1 6 "SmallFract"
2 1 "k11"
$EndPhysicalNames
$Entities
12 8 5 0
1 30 8 0 0 
5 25 15 0 0 
12 0 0 0 0 
13 0 77 0 0 
14 66 77 0 0 
15 66 0 0 0 
16 40 25 0 0 
17 35 40 0 0 
18 5 10 0 0 
19 15 21 0 0 
20 55 60 0 0 
21 45 68 0 0 
12 0 0 0 0 77 0 2 3 6 2 12 -13 
13 0 77 0 66 77 0 2 4 6 2 13 -14 
14 66 0 0 66 77 0 2 2 6 2 14 -15 
15 0 0 0 66 0 0 1 4 2 15 -12 
16 25 8 0 30 15 0 0 2 5 -1 
18 35 25 0 40 40 0 0 2 16 -17 
20 5 10 0 15 21 0 0 2 18 -19 
22 45 60 0 55 68 0 0 2 20 -21 
11 25 8 0 30 15 0 0 2 16 -16 
12 35 25 0 40 40 0 0 2 18 -18 
13 5 10 0 15 21 0 0 2 20 -20 
14 45 60 0 55 68 0 0 2 22 -22 
1000 0 0 0 66 77 0 1 1 12 16 -16 18 -18 20 -20 22 -22 -15 -14 -13 -12 
$EndEntities
$Nodes
21 60 1 60
0 1 0 1
1
30 8 0
0 5 0 1
2
25 15 0
0 12 0 1
3
0 0 0
0 13 0 1
4
0 77 0
0 14 0 1
5
66 77 0
0 15 0 1
6
66 0 0
0 16 0 1
7
40 25 0
0 17 0 1
8
35 40 0
0 18 0 1
9
5 10 0
0 19 0 1
10
15 21 0
0 20 0 1
11
55 60 0
0 21 0 1
12
45 68 0
1 12 0 2
13
14
0 25.66666666664392 0
0 51.33333333333744 0
1 13 0 1
15
32.99999999990993 77 0
1 14 0 2
16
17
66 51.333333333412 0
66 25.66666666670557 0
1 15 0 1
18
33.00000000001238 0 0
1 16 0 1
19
27.49999999999885 11.50000000000161 0
1 18 0 1
20
37.50000000002478 32.49999999992566 0
1 20 0 1
21
10 15.5 0
1 22 0 1
22
49.99999999999999 64 0
2 1000 0 38
23
24
25
26
27
28
29
30
31
32
33
34
35
36
37
38
39
40
41
42
43
44
45
46
47
48
49
50
51
52
53
54
55
56
57
58
59
60
13.31173161250791 13.63323137493797 0
12.80422471819445 37.84169420763961 0
21.68502961835621 60.03570332753062 0
49.1480640089891 10.85055127831615 0
54.00779727095044 38.50000000005878 0
19.34147014522997 15.26550490189407 0
17.69601612064365 8.283381823910393 0
21.98056084029985 20.07700352661342 0
27.87439665909381 19.68914032247695 0
25.33783139123915 25.4378042424334 0
32.33864360609789 25.55169709454862 0
34.38799383412939 17.96304820242872 0
29.65663539816926 32.42732429201718 0
26.75957860685573 40.09699606060028 0
29.7452314049257 48.45144951504713 0
40.01552444999355 47.78055606501032 0
35.0829533808885 56.16596044991053 0
44.18935444730894 54.38036001545968 0
44.66147019241535 31.73972672333753 0
43.32634769410465 39.92913880395859 0
49.36686243695274 24.76724313063084 0
48.28686934585311 47.46715795658476 0
42.73301858109537 60.84465040757225 0
50.96410161513775 70.3301270189222 0
33.7063358096406 63.97960387584696 0
21.14863653957825 31.44038107444478 0
41.98142077587528 17.97341000990389 0
36.71650176050773 11.11706490844645 0
29.33335788100706 15.45239848643483 0
31.68257212316694 12.37003422504646 0
19.46453672983356 24.86948522860756 0
50.65415627457183 53.52941773700653 0
12.86901239317734 27.96898241537061 0
7.736860279185585 22.58012701892219 0
55.3480612569539 49.29181255445422 0
23.57023055941815 11.35271243677566 0
48.7775664804079 58.62058146249995 0
18.33229710626328 47.33488146324565 0
$EndNodes
$Elements
5 118 1 118
1 12 1 3
1 3 13 
2 13 14 
3 14 4 
1 13 1 2
4 4 15 
5 15 5 
1 14 1 3
6 5 16 
7 16 17 
8 17 6 
1 15 1 2
9 6 18 
10 18 3 
2 1000 2 108
11 9 3 29 
12 11 5 46 
13 27 41 43 
14 33 20 35 
15 14 13 24 
16 7 20 33 
17 22 12 45 
18 16 11 57 
19 25 37 39 
20 18 26 50 
21 12 15 47 
22 22 45 59 
23 7 33 34 
24 24 13 55 
25 20 8 35 
26 1 50 52 
27 25 39 47 
28 39 38 40 
29 10 23 28 
30 32 33 35 
31 2 28 58 
32 4 14 25 
33 26 17 43 
34 28 2 30 
35 1 18 50 
36 21 9 23 
37 36 24 48 
38 37 8 38 
39 38 8 42 
40 10 28 30 
41 8 20 42 
42 34 51 52 
43 55 13 56 
44 10 21 23 
45 6 17 26 
46 45 40 59 
47 7 34 49 
48 35 8 36 
49 37 38 39 
50 39 40 45 
51 40 38 44 
52 50 34 52 
53 33 31 34 
54 20 41 42 
55 17 27 43 
56 30 2 31 
57 32 35 48 
58 34 31 51 
59 41 27 42 
60 42 27 44 
61 38 42 44 
62 2 19 51 
63 10 30 53 
64 35 36 48 
65 32 31 33 
66 20 7 41 
67 31 2 51 
68 30 31 32 
69 49 34 50 
70 24 36 60 
71 11 22 59 
72 25 14 60 
73 36 8 37 
74 37 25 60 
75 14 24 60 
76 48 24 55 
77 19 1 52 
78 28 23 29 
79 36 37 60 
80 26 49 50 
81 21 10 56 
82 53 48 55 
83 40 44 54 
84 19 2 58 
85 28 29 58 
86 54 11 59 
87 30 32 53 
88 26 43 49 
89 32 48 53 
90 51 19 52 
91 12 22 46 
92 44 27 57 
93 54 44 57 
94 40 54 59 
95 39 45 47 
96 41 7 43 
97 10 53 55 
98 43 7 49 
99 10 55 56 
100 17 16 27 
101 18 1 29 
102 1 19 58 
103 29 1 58 
104 13 3 9 
105 3 18 29 
106 15 4 25 
107 16 5 11 
108 5 15 46 
109 18 6 26 
110 13 9 56 
111 9 21 56 
112 23 9 29 
113 22 11 46 
114 11 54 57 
115 15 12 46 
116 45 12 47 
117 15 25 47 
118 27 16 57 
$EndElements
