$MeshFormat
4.1 0 8
$EndMeshFormat
$PhysicalNames
6
1 2 "inlet"
1 3 "outlet"
1 4 "noflux"
1 6 "SmallFract"
2 1 "k11"
2 6 "Vugs"
$EndPhysicalNames
$Entities
30 21 11 0
1 30 8 0 0 
5 25 15 0 0 
12 0 0 0 0 
13 0 77 0 0 
14 66 77 0 0 
15 66 0 0 0 
16 40 25 0 0 
17 35 40 0 0 
18 5 10 0 0 
19 15 21 0 0 
20 55 60 0 0 
21 45 68 0 0 
22 10 50 0 0 
23 15 35 0 0 
24 24 65 0 0 
25 33 50 0 0 
26 45 10 0 0 
27 57 18 0 0 
28 50 40 0 0 
29 57 31 0 0 
30 7 64 0 0 
31 18 69 0 0 
230 17 25 0 0 
240 36 22 0 0 
250 35 28 0 0 
260 33 27 0 0 
270 34 31 0 0 
280 33 32 0 0 
290 30 32 0 0 
300 21 28 0 0 
12 0 0 0 0 77 0 1 3 2 12 -13 
13 0 77 0 66 77 0 1 4 2 13 -14 
14 66 0 0 66 77 0 1 2 2 14 -15 
15 0 0 0 66 0 0 1 4 2 15 -12 
16 25 8 0 30 15 0 2 6 -6 2 5 -1 
18 35 25 0 40 40 0 2 6 -6 2 16 -17 
20 5 10 0 15 21 0 2 6 -6 2 18 -19 
22 45 60 0 55 68 0 2 6 -6 2 20 -21 
24 10 35 0 15 50 0 2 6 -6 2 22 -23 
26 24 50 0 33 65 0 2 6 -6 2 24 -25 
28 45 10 0 57 18 0 2 6 -6 2 26 -27 
30 50 31 0 57 40 0 2 6 -6 2 28 -29 
32 7 64 0 18 69 0 2 6 -6 2 30 -31 
230 17 22 0 36 25 0 0 2 230 -240 
240 35 22 0 36 28 0 0 2 240 -250 
250 33 27 0 35 28 0 0 2 250 -260 
260 33 27 0 34 31 0 0 2 260 -270 
270 33 31 0 34 32 0 0 2 270 -280 
280 30 32 0 33 32 0 0 2 280 -290 
290 21 28 0 30 32 0 0 2 290 -300 
300 17 25 0 21 28 0 0 2 300 -230 
11 25 8 0 30 15 0 0 2 16 -16 
12 35 25 0 40 40 0 0 2 18 -18 
13 5 10 0 15 21 0 0 2 20 -20 
14 45 60 0 55 68 0 0 2 22 -22 
15 10 35 0 15 50 0 0 2 24 -24 
16 24 50 0 33 65 0 0 2 26 -26 
17 45 10 0 57 18 0 0 2 28 -28 
18 50 31 0 57 40 0 0 2 30 -30 
19 7 64 0 18 69 0 0 2 32 -32 
390 17 22 0 36 32 0 1 6 8 230 240 250 260 270 280 290 300 
1000 0 0 0 66 77 0 1 1 30 16 -16 18 -18 20 -20 22 -22 24 -24 26 -26 28 -28 30 -30 32 -32 230 240 250 260 270 280 290 300 -15 -14 -13 -12 
$EndEntities
$Nodes
45 114 1 114
0 1 0 1
1
30 8 0
0 5 0 1
2
25 15 0
0 12 0 1
3
0 0 0
0 13 0 1
4
0 77 0
0 14 0 1
5
66 77 0
0 15 0 1
6
66 0 0
0 16 0 1
7
40 25 0
0 17 0 1
8
35 40 0
0 18 0 1
9
5 10 0
0 19 0 1
10
15 21 0
0 20 0 1
11
55 60 0
0 21 0 1
12
45 68 0
0 22 0 1
13
10 50 0
0 23 0 1
14
15 35 0
0 24 0 1
15
24 65 0
0 25 0 1
16
33 50 0
0 26 0 1
17
45 10 0
0 27 0 1
18
57 18 0
0 28 0 1
19
50 40 0
0 29 0 1
20
57 31 0
0 30 0 1
21
7 64 0
0 31 0 1
22
18 69 0
0 230 0 1
23
17 25 0
0 240 0 1
24
36 22 0
0 250 0 1
25
35 28 0
0 260 0 1
26
33 27 0
0 270 0 1
27
34 31 0
0 280 0 1
28
33 32 0
0 290 0 1
29
30 32 0
0 300 0 1
30
21 28 0
1 12 0 2
31
32
0 25.66666666664392 0
0 51.33333333333744 0
1 13 0 1
33
32.99999999990993 77 0
1 14 0 2
34
35
66 51.333333333412 0
66 25.66666666670557 0
1 15 0 1
36
33.00000000001238 0 0
1 16 0 1
37
27.49999999999885 11.50000000000161 0
1 18 0 1
38
37.50000000002478 32.49999999992566 0
1 20 0 1
39
10 15.5 0
1 22 0 1
40
49.99999999999999 64 0
1 24 0 1
41
12.49999999999999 42.50000000000003 0
1 26 0 1
42
28.4999999999896 57.50000000001732 0
1 28 0 1
43
50.999999999878 13.99999999991867 0
1 30 0 1
44
53.50000000000001 35.49999999999999 0
1 32 0 1
45
12.4999999999967 66.49999999999849 0
2 390 0 3
46
47
48
27.35893164412484 26.94652637258444 0
31.9149440690869 30.14707213358178 0
30.56846892830293 29.02339962654155 0
2 1000 0 66
49
50
51
52
53
54
55
56
57
58
59
60
61
62
63
64
65
66
67
68
69
70
71
72
73
74
75
76
77
78
79
80
81
82
83
84
85
86
87
88
89
90
91
92
93
94
95
96
97
98
99
100
101
102
103
104
105
106
107
108
109
110
111
112
113
114
16.49999999995497 64.12500000010131 0
12.72652590518666 12.57277554643026 0
22.2429760644123 35.13683662663911 0
18.72482014387446 15.87470023979078 0
41.26083414293302 18.85104838744415 0
45.51672242529921 23.05314844972915 0
43.73860828441129 28.67284871296582 0
49.61724541749761 26.63215116694387 0
35.18312482914566 15.12835927243809 0
48.2591064083456 31.83912487645488 0
43.3819263527279 33.81263443561404 0
31.34442078046997 35.67361399579622 0
27.71174154527915 40.86821085391953 0
41.31969438657767 45.97956978123953 0
40.2140046952722 54.05019045766855 0
46.37050002632409 51.3305930641507 0
35.9594406666348 62.97415444928542 0
24.24754727142285 48.64142781430795 0
19.52594500601894 55.63421870726573 0
51.12859525875638 20.69551812836772 0
56.24913239241563 24.81646230406299 0
45.78529594270996 58.3798302673638 0
38.87499999996903 28.79166666661505 0
41.55672393433898 39.87422673348117 0
29.05501610556641 17.6257592301585 0
13.92702657953247 60.32608890457993 0
19.80824345375072 41.95213688902296 0
7.647246623129023 37.76853892277063 0
47.07824612888793 45.35510832121145 0
53.26470307587206 49.4281574626634 0
56.4528668948119 42.56335193226646 0
16.89599769110427 49.24447042738709 0
35.11426503649583 34.53144085145323 0
59.79057337896239 37.21267038647681 0
8.685542348865802 21.71768877375836 0
57.46410161507676 10.8038475772527 0
46.92056718406629 36.47107843841241 0
50.08409980898122 56.62771615883558 0
55.96410161513775 66.3301270189222 0
10.5554648286658 27.69214906052882 0
36.43749999996284 30.14583333332095 0
45.74803891047782 16.62477692461121 0
39.34399545578223 35.69071329223313 0
48.31258016286324 6.836769139667966 0
13.56428440114486 54.23059649601403 0
8.898262196135468 55.97800374678629 0
40.58208163600038 13.14894658220762 0
23.46330604157348 19.41674324499154 0
22.43590220115797 12.07646229204431 0
23.49371842314178 8.139919096337879 0
16.96700984045846 10.84715890206405 0
14.1488850213357 6.81194850263701 0
31.77403319207257 11.71994937037341 0
37.48471801145845 7.00946723476218 0
52.72322881321814 30.08408729851291 0
13.80152426079942 17.07141716055762 0
29.88558410962398 63.43135046578617 0
26.45982767803228 34.33573229527097 0
40.62665918471205 31.64528357848834 0
45.37504632677417 41.53599665486891 0
34.68714483499694 57.99547316580772 0
29.7024348253567 14.19481357459432 0
40.40645081786815 60.32277331842736 0
44.34849295508247 63.21239384305577 0
39.97368863845197 66.03257898139199 0
20.58773774504888 60.94486398016976 0
$EndNodes
$Elements
15 244 1 244
1 12 1 3
1 3 31 
2 31 32 
3 32 4 
1 13 1 2
4 4 33 
5 33 5 
1 14 1 3
6 5 34 
7 34 35 
8 35 6 
1 15 1 2
9 6 36 
10 36 3 
1 16 1 2
11 2 37 
12 37 1 
1 18 1 2
13 7 38 
14 38 8 
1 20 1 2
15 9 39 
16 39 10 
1 22 1 2
17 11 40 
18 40 12 
1 24 1 2
19 13 41 
20 41 14 
1 26 1 2
21 15 42 
22 42 16 
1 28 1 2
23 17 43 
24 43 18 
1 30 1 2
25 19 44 
26 44 20 
1 32 1 2
27 21 45 
28 45 22 
2 390 2 12
29 26 47 48 
30 25 26 24 
31 28 29 47 
32 47 29 48 
33 27 28 47 
34 23 24 46 
35 30 23 46 
36 24 26 46 
37 29 46 48 
38 26 27 47 
39 46 26 48 
40 29 30 46 
2 1000 2 204
41 33 4 22 
42 5 12 87 
43 51 30 106 
44 14 30 51 
45 25 7 71 
46 33 65 113 
47 65 33 105 
48 20 35 82 
49 52 2 96 
50 49 74 114 
51 23 30 14 
52 16 8 62 
53 37 2 97 
54 18 35 69 
55 28 27 81 
56 8 16 61 
57 74 67 114 
58 2 52 97 
59 61 16 66 
60 98 97 99 
61 56 69 103 
62 67 74 93 
63 34 78 79 
64 41 14 75 
65 11 40 86 
66 66 42 67 
67 72 59 85 
68 7 53 54 
69 77 19 78 
70 35 20 69 
71 52 10 104 
72 58 44 85 
73 17 90 95 
74 73 2 110 
75 40 70 86 
76 83 10 88 
77 14 51 75 
78 56 68 69 
79 59 72 91 
80 41 75 80 
81 90 53 95 
82 10 83 104 
83 63 62 64 
84 19 44 79 
85 7 54 55 
86 62 8 72 
87 16 42 66 
88 16 62 63 
89 69 20 103 
90 78 19 79 
91 44 19 85 
92 53 57 95 
93 7 55 71 
94 39 9 50 
95 55 58 59 
96 17 43 90 
97 10 23 88 
98 38 27 89 
99 43 18 68 
100 15 22 49 
101 76 31 88 
102 42 15 114 
103 71 55 107 
104 53 24 57 
105 23 14 88 
106 101 57 110 
107 101 1 102 
108 63 64 70 
109 10 52 96 
110 67 42 114 
111 55 56 58 
112 61 51 106 
113 68 18 69 
114 44 58 103 
115 55 54 56 
116 62 72 108 
117 51 61 75 
118 13 41 80 
119 61 66 75 
120 36 1 98 
121 64 62 77 
122 9 3 100 
123 27 38 81 
124 77 62 108 
125 66 67 80 
126 6 84 92 
127 27 25 89 
128 55 59 107 
129 57 101 102 
130 74 21 94 
131 15 42 105 
132 50 52 104 
133 25 24 7 
134 59 58 85 
135 75 66 80 
136 43 68 90 
137 72 85 108 
138 57 73 110 
139 56 54 68 
140 37 1 101 
141 45 21 74 
142 15 49 114 
143 83 39 104 
144 31 83 88 
145 20 44 103 
146 25 71 89 
147 70 64 86 
148 57 24 73 
149 72 8 91 
150 95 57 102 
151 50 9 100 
152 60 8 61 
153 60 61 106 
154 81 38 91 
155 8 81 91 
156 91 38 107 
157 70 40 112 
158 7 24 53 
159 14 41 76 
160 16 63 109 
161 64 78 86 
162 42 16 109 
163 32 13 94 
164 54 53 90 
165 58 56 103 
166 17 95 102 
167 65 105 109 
168 37 97 98 
169 14 76 88 
170 19 77 108 
171 79 44 82 
172 64 77 78 
173 68 54 90 
174 44 20 82 
175 97 52 99 
176 22 45 49 
177 80 67 93 
178 59 91 107 
179 71 38 89 
180 40 12 112 
181 52 50 99 
182 1 37 98 
183 2 37 110 
184 13 80 93 
185 8 60 81 
186 49 45 74 
187 18 43 84 
188 43 17 92 
189 105 42 109 
190 63 70 111 
191 40 11 87 
192 37 101 110 
193 38 71 107 
194 93 74 94 
195 65 109 111 
196 109 63 111 
197 13 93 94 
198 85 19 108 
199 60 28 81 
200 111 112 113 
201 111 70 112 
202 112 12 113 
203 29 28 60 
204 1 36 102 
205 65 111 113 
206 84 43 92 
207 29 60 106 
208 99 50 100 
209 23 10 96 
210 39 50 104 
211 3 36 100 
212 35 18 84 
213 73 24 96 
214 27 26 25 
215 30 29 106 
216 35 34 82 
217 34 79 82 
218 36 92 102 
219 36 98 100 
220 2 73 96 
221 31 3 9 
222 4 32 21 
223 45 4 21 
224 4 45 22 
225 5 33 12 
226 34 5 87 
227 6 35 84 
228 36 6 92 
229 31 9 83 
230 9 39 83 
231 34 11 78 
232 11 34 87 
233 78 11 86 
234 12 33 113 
235 12 40 87 
236 13 32 76 
237 41 13 76 
238 33 22 15 
239 33 15 105 
240 92 17 102 
241 21 32 94 
242 24 23 96 
243 32 31 76 
244 98 99 100 
$EndElements
