$MeshFormat
4.1 0 8
$EndMeshFormat
$PhysicalNames
5
1 2 "inlet"
1 3 "outlet"
1 4 "noflux"
2 1 "k11"
2 6 "Vugs"
$EndPhysicalNames
$Entities
43 43 5 0
1 178 128 0 0 
2 168 131 0 0 
3 158 145 0 0 
4 160 166 0 0 
5 170 176 0 0 
6 189 176 0 0 
7 201 162 0 0 
8 200 142 0 0 
9 188 129 0 0 
10 101 43 0 0 
11 85 48 0 0 
12 66 68 0 0 
13 62 76 0 0 
14 61 97 0 0 
15 69 118 0 0 
16 89 134 0 0 
17 101 137 0 0 
18 125 132 0 0 
19 144 112 0 0 
20 149 97 0 0 
21 147 74 0 0 
22 142 64 0 0 
23 121 46 0 0 
24 108 43 0 0 
25 21 23 0 0 
26 13 31 0 0 
27 20 44 0 0 
28 31 37 0 0 
29 30 28 0 0 
30 25 24 0 0 
31 24 23 0 0 
32 166 22 0 0 
33 155 31 0 0 
34 156 47 0 0 
35 168 54 0 0 
36 177 52 0 0 
37 184 43 0 0 
38 182 28 0 0 
39 173 22 0 0 
48 0 0 0 0 
49 0 224 0 0 
50 225 224 0 0 
51 225 0 0 0 
1 168 128 0 178 131 0 0 2 1 -2 
2 158 131 0 168 145 0 0 2 2 -3 
3 158 145 0 160 166 0 0 2 3 -4 
4 160 166 0 170 176 0 0 2 4 -5 
5 170 176 0 189 176 0 0 2 5 -6 
6 189 162 0 201 176 0 0 2 6 -7 
7 200 142 0 201 162 0 0 2 7 -8 
8 188 129 0 200 142 0 0 2 8 -9 
9 178 128 0 188 129 0 0 2 9 -1 
10 85 43 0 101 48 0 0 2 10 -11 
11 66 48 0 85 68 0 0 2 11 -12 
12 62 68 0 66 76 0 0 2 12 -13 
13 61 76 0 62 97 0 0 2 13 -14 
14 61 97 0 69 118 0 0 2 14 -15 
15 69 118 0 89 134 0 0 2 15 -16 
16 89 134 0 101 137 0 0 2 16 -17 
17 101 132 0 125 137 0 0 2 17 -18 
18 125 112 0 144 132 0 0 2 18 -19 
19 144 97 0 149 112 0 0 2 19 -20 
20 147 74 0 149 97 0 0 2 20 -21 
21 142 64 0 147 74 0 0 2 21 -22 
22 121 46 0 142 64 0 0 2 22 -23 
23 108 43 0 121 46 0 0 2 23 -24 
24 101 43 0 108 43 0 0 2 24 -10 
25 13 23 0 21 31 0 0 2 25 -26 
26 13 31 0 20 44 0 0 2 26 -27 
27 20 37 0 31 44 0 0 2 27 -28 
28 30 28 0 31 37 0 0 2 28 -29 
29 25 24 0 30 28 0 0 2 29 -30 
30 24 23 0 25 24 0 0 2 30 -31 
31 21 23 0 24 23 0 0 2 31 -25 
32 155 22 0 166 31 0 0 2 32 -33 
33 155 31 0 156 47 0 0 2 33 -34 
34 156 47 0 168 54 0 0 2 34 -35 
35 168 52 0 177 54 0 0 2 35 -36 
36 177 43 0 184 52 0 0 2 36 -37 
37 182 28 0 184 43 0 0 2 37 -38 
38 173 22 0 182 28 0 0 2 38 -39 
39 166 22 0 173 22 0 0 2 39 -32 
48 0 0 0 0 224 0 1 3 2 48 -49 
49 0 224 0 225 224 0 1 4 2 49 -50 
50 225 0 0 225 224 0 1 2 2 50 -51 
51 0 0 0 225 0 0 1 4 2 51 -48 
44 158 128 0 201 176 0 1 6 9 1 2 3 4 5 6 7 8 9 
45 61 43 0 149 137 0 1 6 15 10 11 12 13 14 15 16 17 18 19 20 21 22 23 24 
46 13 23 0 31 44 0 1 6 7 25 26 27 28 29 30 31 
47 155 22 0 184 54 0 1 6 8 32 33 34 35 36 37 38 39 
1000 0 0 0 225 224 0 1 1 43 1 2 3 4 5 6 7 8 9 -24 -23 -22 -21 -20 -19 -18 -17 -16 -15 -14 -13 -12 -11 -10 -31 -30 -29 -28 -27 -26 -25 -39 -38 -37 -36 -35 -34 -33 -32 -51 -50 -49 -48 
$EndEntities
$Nodes
52 214 1 214
0 1 0 1
1
178 128 0
0 2 0 1
2
168 131 0
0 3 0 1
3
158 145 0
0 4 0 1
4
160 166 0
0 5 0 1
5
170 176 0
0 6 0 1
6
189 176 0
0 7 0 1
7
201 162 0
0 8 0 1
8
200 142 0
0 9 0 1
9
188 129 0
0 10 0 1
10
101 43 0
0 11 0 1
11
85 48 0
0 12 0 1
12
66 68 0
0 13 0 1
13
62 76 0
0 14 0 1
14
61 97 0
0 15 0 1
15
69 118 0
0 16 0 1
16
89 134 0
0 17 0 1
17
101 137 0
0 18 0 1
18
125 132 0
0 19 0 1
19
144 112 0
0 20 0 1
20
149 97 0
0 21 0 1
21
147 74 0
0 22 0 1
22
142 64 0
0 23 0 1
23
121 46 0
0 24 0 1
24
108 43 0
0 25 0 1
25
21 23 0
0 26 0 1
26
13 31 0
0 27 0 1
27
20 44 0
0 28 0 1
28
31 37 0
0 29 0 1
29
30 28 0
0 30 0 1
30
25 24 0
0 31 0 1
31
24 23 0
0 32 0 1
32
166 22 0
0 33 0 1
33
155 31 0
0 34 0 1
34
156 47 0
0 35 0 1
35
168 54 0
0 36 0 1
36
177 52 0
0 37 0 1
37
184 43 0
0 38 0 1
38
182 28 0
0 39 0 1
39
173 22 0
0 48 0 1
40
0 0 0
0 49 0 1
41
0 224 0
0 50 0 1
42
225 224 0
0 51 0 1
43
225 0 0
1 48 0 6
44
45
46
47
48
49
0 31.99999999998839 0
0 63.99999999997284 0
0 95.99999999995717 0
0 128.0000000000423 0
0 160.0000000000314 0
0 192.0000000000157 0
1 49 0 6
50
51
52
53
54
55
32.14285714288335 224 0
64.28571428572036 224 0
96.42857142855728 224 0
128.5714285714886 224 0
160.7142857143257 224 0
192.8571428571628 224 0
1 50 0 6
56
57
58
59
60
61
225 192.000000000015 0
225 160.00000000003 0
225 128.0000000000451 0
225 95.99999999995941 0
225 63.99999999996976 0
225 31.99999999998488 0
1 51 0 6
62
63
64
65
66
67
192.8571428571564 0 0
160.7142857143127 0 0
128.5714285714692 0 0
96.42857142853126 0 0
64.28571428568759 0 0
32.14285714284378 0 0
2 44 0 6
68
69
70
71
72
73
176.6239288533311 139.4710567129178 0
173.6602540378444 162.3397459621556 0
186.0030446525127 152.1052261622366 0
187.3651624313754 140.7273338995809 0
170.3722651671227 150.9720922465495 0
185.4574233829635 164.5351364996389 0
2 45 0 24
74
75
76
77
78
79
80
81
82
83
84
85
86
87
88
89
90
91
92
93
94
95
96
97
96.16876689845216 56.56264653125429 0
95.34024245290122 123.2712396259154 0
135.5210007557899 86.32482966623587 0
73.41329076540511 76.70664538270256 0
123.5773745480421 63.685691511691 0
122.5453363826899 108.2542707581153 0
83.38983937071045 102.5402872369682 0
113.4631664978111 54.03518773308167 0
108.6621815221188 65.23605030865104 0
95.09066650120418 71.77884586050874 0
106.6361238817135 81.93693629631194 0
92.03174883911193 87.08908539759351 0
103.8472047844672 98.94073138983475 0
119.6763130696475 92.21431322634247 0
94.85444670574526 112.0587734107249 0
83.45300248785266 66.46344352304868 0
104.8494252855964 51.26761493898063 0
133.8358125427695 73.21399922885699 0
121.1424968062734 77.81022857769798 0
86.31690570587139 117.9740600547217 0
107.0978717209673 118.5875025307651 0
134.1485300416255 99.15868273013874 0
79.14253660530791 88.3177211236175 0
85.04529076205458 77.73252336382659 0
2 46 0 1
98
24.49360682297786 29.74714529607289 0
2 47 0 6
99
100
101
102
103
104
173.2205781736933 31.4191327394601 0
170.8433679987429 45.50399450009883 0
164.116934021574 30.92069713747935 0
175.7390633470193 39.58819944990702 0
163.5760499239094 40.18753739225643 0
169.2879479840902 26.687400736592 0
2 1000 0 110
105
106
107
108
109
110
111
112
113
114
115
116
117
118
119
120
121
122
123
124
125
126
127
128
129
130
131
132
133
134
135
136
137
138
139
140
141
142
143
144
145
146
147
148
149
150
151
152
153
154
155
156
157
158
159
160
161
162
163
164
165
166
167
168
169
170
171
172
173
174
175
176
177
178
179
180
181
182
183
184
185
186
187
188
189
190
191
192
193
194
195
196
197
198
199
200
201
202
203
204
205
206
207
208
209
210
211
212
213
214
183.2217470451588 119.3350045458128 0
173.8826326910912 62.21192120720855 0
30.63622967981171 48.57121806827554 0
93.54987699753778 147.3888043027218 0
39.51285165652087 42.81097910599627 0
40.10258819937785 54.14741632435125 0
47.86009989039509 85.85048094716167 0
159.8004391074729 84.47387486021974 0
76.99032732348105 141.7483746611405 0
82.7305374712174 158.77702202668 0
100.4260171530926 162.3563962585924 0
63.15888008629818 154.9214440217913 0
49.72915339221311 48.49403538043424 0
155.9951219508708 180.5796524455664 0
145.1861983040874 169.9805481270788 0
184.5425274813572 57.3966347923368 0
182.2048562225311 71.38133583111014 0
159.4903810567666 108.8301270189222 0
163.8055054828795 63.59882734399369 0
32.53471905986517 59.73621516042616 0
87.88951317125539 178.0044010832224 0
109.972947108628 180.9062685123255 0
140.7352478997454 186.0499715416379 0
45.26696581704174 107.8666932061162 0
104.4609432853179 33.62524315882781 0
49.02219932067314 37.36384060653894 0
47.17366273445172 195.419227699699 0
30.09807621135332 22.75240473580835 0
143.4321622160325 40.06480351531118 0
89.98140559621586 34.28272197350821 0
55.11986321836764 66.97860604764446 0
195.2568778395069 118.4181391849481 0
190.1349524454816 107.43301659297 0
60.62913327031475 42.64101528973327 0
45.67866924641316 129.8683665993933 0
118.0558380577849 162.4661976623135 0
149.2713940211264 130.5415931733768 0
179.0566285000294 188.6164247032739 0
195.8599569526217 49.69781989932204 0
193.6222323442549 35.32715844189953 0
149.9494941052828 16.09521247600053 0
195.7948715225046 65.91157299984866 0
190.9726195983177 82.24188342526988 0
170.4505032628641 121.0016775428805 0
176.0377914084642 84.99222165536042 0
37.15279027766105 31.76080108025988 0
45.61582475523816 20.10646853201178 0
13.22857142856876 17.19999999999768 0
175.5243096726054 108.5430199010828 0
58.76721708319549 55.7368395467616 0
43.64682337239862 68.14299778669347 0
24.04852384710978 74.88515678865149 0
132.8345418298761 20.60482724627717 0
23.66723493847154 176.8978947309578 0
26.67344402243571 146.9081907177408 0
166.8645990532521 96.86081426922347 0
198.1536428163735 196.7181480762916 0
74.89881384815698 199.3148368867503 0
110.2409981893577 148.5438145667757 0
168.8814388412995 74.18763180957276 0
158.6812969799882 71.58847489388268 0
153.201248364913 61.22725301796381 0
139.998164882091 145.2587932224489 0
184.4878018780327 15.76359631011056 0
173.2920500562879 11.82052438485643 0
154.9737045140593 198.5256252027224 0
201.546427663821 21.71973528619141 0
23.64846652148747 118.3647607887752 0
66.89062349857541 175.3276114758832 0
49.47312905311054 58.699979017177 0
45.83080062102718 166.169352132181 0
96.84272829292898 22.0838133970645 0
114.5428911491666 21.72279849308524 0
79.18694179375214 18.88376654846376 0
114.9337130731727 203.1104328127148 0
145.5972874038762 51.87685599434511 0
136.0336933883275 47.52037360546922 0
207.2727559464241 112.2707518811055 0
68.74107770281499 49.90993940261907 0
74.08864494271798 37.07986799729798 0
147.4971751085836 156.7684098760388 0
134.0343205484789 159.7577937467569 0
24.46036203327292 96.45225856240606 0
115.2285703512427 36.00165003392057 0
129.4898355321025 34.22226183246232 0
128.6352657106785 174.9682035354351 0
207.5924791307277 76.66224379025357 0
158.2424556681514 120.6746795470359 0
22.68894502838226 201.3278474322906 0
205.0948061308118 39.07353553823749 0
182.6285068483799 96.29161182476244 0
60.44976702042458 138.4159858858678 0
62.13807639473061 26.01249316234095 0
96.50981364205687 196.2813495818205 0
136.2087255528657 204.5860030961352 0
126.0971798690181 189.9241758996497 0
200.6002189948885 95.14991791905345 0
207.6307285632747 177.3436296152673 0
125.4658643355425 149.605319839659 0
209.0570189561109 54.55752870460273 0
166.2435217584732 190.1186567544848 0
172.701264808698 205.7023252383785 0
160.2516884619481 56.45652009048938 0
47.42095844593052 147.541744147014 0
212.0436035785644 146.2008841106818 0
205.8261669500705 129.1039198799099 0
21.44389451735733 58.2385180034652 0
162.5472753030436 12.1019672963039 0
52.15669662029033 74.24302119537489 0
143.356989790072 27.64137993317283 0
$EndNodes
$Elements
9 426 1 426
1 48 1 7
1 40 44 
2 44 45 
3 45 46 
4 46 47 
5 47 48 
6 48 49 
7 49 41 
1 49 1 7
8 41 50 
9 50 51 
10 51 52 
11 52 53 
12 53 54 
13 54 55 
14 55 42 
1 50 1 7
15 42 56 
16 56 57 
17 57 58 
18 58 59 
19 59 60 
20 60 61 
21 61 43 
1 51 1 7
22 43 62 
23 62 63 
24 63 64 
25 64 65 
26 65 66 
27 66 67 
28 67 40 
2 44 2 19
29 3 4 72 
30 2 3 68 
31 9 1 68 
32 68 70 71 
33 8 9 71 
34 4 69 72 
35 69 5 73 
36 70 68 72 
37 9 68 71 
38 5 6 73 
39 68 3 72 
40 7 8 70 
41 69 70 72 
42 4 5 69 
43 70 8 71 
44 70 69 73 
45 6 7 73 
46 1 2 68 
47 7 70 73 
2 45 2 61
48 86 80 88 
49 78 23 81 
50 82 81 90 
51 85 80 86 
52 79 86 94 
53 79 19 95 
54 86 79 87 
55 77 14 96 
56 74 82 90 
57 23 24 81 
58 14 15 80 
59 18 79 94 
60 10 11 74 
61 14 80 96 
62 22 78 91 
63 82 74 83 
64 76 87 95 
65 88 80 93 
66 87 79 95 
67 87 76 92 
68 86 88 94 
69 83 74 89 
70 78 81 82 
71 80 15 93 
72 76 21 91 
73 88 75 94 
74 10 74 90 
75 82 83 84 
76 75 88 93 
77 76 91 92 
78 84 83 85 
79 84 86 87 
80 82 84 92 
81 84 85 86 
82 81 24 90 
83 16 17 75 
84 16 75 93 
85 78 82 92 
86 74 11 89 
87 91 78 92 
88 20 76 95 
89 84 87 92 
90 83 89 97 
91 12 77 89 
92 80 85 96 
93 19 20 95 
94 89 77 97 
95 24 10 90 
96 21 22 91 
97 85 83 97 
98 12 13 77 
99 96 85 97 
100 77 96 97 
101 11 12 89 
102 15 16 93 
103 13 14 77 
104 17 18 94 
105 75 17 94 
106 18 19 79 
107 20 21 76 
108 22 23 78 
2 46 2 7
109 30 25 98 
110 28 29 98 
111 29 30 98 
112 30 31 25 
113 25 26 98 
114 26 27 98 
115 27 28 98 
2 47 2 18
116 37 38 102 
117 102 99 103 
118 100 102 103 
119 100 36 102 
120 32 33 101 
121 34 35 103 
122 36 37 102 
123 38 39 99 
124 99 101 103 
125 38 99 102 
126 33 34 103 
127 99 39 104 
128 35 36 100 
129 32 101 104 
130 39 32 104 
131 101 33 103 
132 101 99 104 
133 35 100 103 
2 1000 2 293
134 67 132 31 
135 67 151 132 
136 55 161 42 
137 37 120 36 
138 45 156 46 
139 63 145 64 
140 45 211 156 
141 42 161 56 
142 106 164 123 
143 22 181 180 
144 156 187 46 
145 112 160 20 
146 19 192 141 
147 161 206 142 
148 156 211 124 
149 145 157 64 
150 21 165 112 
151 154 183 12 
152 66 197 151 
153 122 153 148 
154 63 212 145 
155 20 160 122 
156 4 185 3 
157 113 196 15 
158 111 213 13 
159 57 209 58 
160 15 139 128 
161 17 163 108 
162 121 164 106 
163 15 128 14 
164 9 210 8 
165 136 210 9 
166 14 111 13 
167 114 173 116 
168 125 173 114 
169 111 187 156 
170 55 206 161 
171 32 169 39 
172 168 171 38 
173 28 107 27 
174 155 213 111 
175 149 160 112 
176 3 141 2 
177 34 133 33 
178 28 150 109 
179 34 207 166 
180 56 202 57 
181 28 109 107 
182 57 202 7 
183 122 160 153 
184 64 177 65 
185 35 207 34 
186 111 156 155 
187 38 144 37 
188 112 164 149 
189 148 192 122 
190 65 177 176 
191 21 166 165 
192 38 171 144 
193 108 163 115 
194 18 203 163 
195 50 131 51 
196 46 187 172 
197 20 122 19 
198 147 149 121 
199 115 140 126 
200 115 163 140 
201 122 192 19 
202 131 175 173 
203 158 175 131 
204 37 143 120 
205 46 172 47 
206 109 150 130 
207 128 187 111 
208 162 198 52 
209 166 180 34 
210 140 190 126 
211 162 173 125 
212 164 165 123 
213 24 188 23 
214 149 164 121 
215 54 199 170 
216 2 192 148 
217 1 148 105 
218 7 209 57 
219 22 166 21 
220 51 162 52 
221 6 142 5 
222 147 195 149 
223 61 204 194 
224 47 159 48 
225 58 182 59 
226 159 172 139 
227 135 154 12 
228 29 150 28 
229 178 197 66 
230 37 144 143 
231 61 171 43 
232 131 162 51 
233 11 134 10 
234 145 214 157 
235 141 192 2 
236 48 158 49 
237 47 172 159 
238 8 210 209 
239 148 153 105 
240 109 110 107 
241 109 117 110 
242 10 134 129 
243 171 194 144 
244 147 201 195 
245 165 166 123 
246 48 159 158 
247 209 210 58 
248 135 174 154 
249 49 193 41 
250 139 172 128 
251 53 199 54 
252 146 147 121 
253 33 145 32 
254 2 148 1 
255 15 196 139 
256 36 106 35 
257 44 152 26 
258 41 193 50 
259 43 171 62 
260 112 165 164 
261 139 208 159 
262 26 152 25 
263 138 154 117 
264 58 210 182 
265 173 175 116 
266 154 174 117 
267 106 123 35 
268 157 177 64 
269 168 169 62 
270 34 180 133 
271 22 180 166 
272 159 175 158 
273 105 153 137 
274 155 174 135 
275 110 174 155 
276 65 178 66 
277 108 115 114 
278 118 119 4 
279 60 204 61 
280 190 200 126 
281 189 214 133 
282 131 173 162 
283 135 213 155 
284 125 198 162 
285 186 203 167 
286 54 206 55 
287 59 191 60 
288 115 126 125 
289 120 146 121 
290 167 203 18 
291 52 179 53 
292 50 193 131 
293 17 108 16 
294 181 189 133 
295 39 168 38 
296 8 209 7 
297 117 174 110 
298 5 118 4 
299 61 194 171 
300 131 193 158 
301 119 185 4 
302 195 201 137 
303 13 135 12 
304 183 184 11 
305 150 151 130 
306 177 189 188 
307 52 198 179 
308 160 195 153 
309 126 200 179 
310 119 190 186 
311 1 105 9 
312 129 188 24 
313 30 132 29 
314 172 187 128 
315 32 212 169 
316 138 183 154 
317 159 208 175 
318 176 177 129 
319 59 201 191 
320 118 127 119 
321 115 125 114 
322 119 186 185 
323 157 189 177 
324 144 194 143 
325 182 201 59 
326 114 116 113 
327 179 198 126 
328 180 181 133 
329 3 167 141 
330 158 193 49 
331 110 155 124 
332 186 190 140 
333 109 130 117 
334 161 202 56 
335 130 138 117 
336 185 186 167 
337 149 195 160 
338 14 128 111 
339 176 178 65 
340 108 114 113 
341 153 195 137 
342 116 196 113 
343 138 184 183 
344 134 176 129 
345 105 137 136 
346 120 121 106 
347 177 188 129 
348 11 184 134 
349 184 197 178 
350 108 113 16 
351 118 170 127 
352 36 120 106 
353 182 210 136 
354 13 213 135 
355 143 146 120 
356 130 197 138 
357 6 161 142 
358 166 207 123 
359 191 201 147 
360 127 190 119 
361 110 124 107 
362 123 207 35 
363 7 202 6 
364 170 206 54 
365 145 212 32 
366 175 208 116 
367 133 214 33 
368 3 185 167 
369 62 171 168 
370 169 212 63 
371 146 191 147 
372 126 198 125 
373 163 203 140 
374 170 199 127 
375 23 189 181 
376 134 184 178 
377 155 156 124 
378 137 182 136 
379 10 129 24 
380 142 205 5 
381 134 178 176 
382 116 208 196 
383 151 197 130 
384 146 204 191 
385 138 197 184 
386 127 200 190 
387 179 199 53 
388 199 200 127 
389 188 189 23 
390 105 136 9 
391 140 203 186 
392 157 214 189 
393 5 205 118 
394 118 205 170 
395 142 206 205 
396 107 211 27 
397 39 169 168 
398 137 201 182 
399 179 200 199 
400 196 208 139 
401 6 202 161 
402 205 206 170 
403 33 214 145 
404 143 204 146 
405 194 204 143 
406 191 204 60 
407 124 211 107 
408 12 183 11 
409 62 169 63 
410 16 113 15 
411 18 163 17 
412 19 141 18 
413 141 167 18 
414 21 112 20 
415 23 181 22 
416 25 67 31 
417 25 152 67 
418 26 27 44 
419 44 27 45 
420 27 211 45 
421 132 150 29 
422 31 132 30 
423 40 152 44 
424 67 152 40 
425 66 151 67 
426 132 151 150 
$EndElements
