$MeshFormat
4.1 0 8
$EndMeshFormat
$PhysicalNames
6
1 2 "inlet"
1 3 "outlet"
1 4 "UpFace"
1 8 "DownFace"
2 1 "k11"
2 6 "Vugs"
$EndPhysicalNames
$Entities
43 43 5 0
1 178 128 0 0 
2 168 131 0 0 
3 158 145 0 0 
4 160 166 0 0 
5 170 176 0 0 
6 189 176 0 0 
7 201 162 0 0 
8 200 142 0 0 
9 188 129 0 0 
10 101 43 0 0 
11 85 48 0 0 
12 66 68 0 0 
13 62 76 0 0 
14 61 97 0 0 
15 69 118 0 0 
16 89 134 0 0 
17 101 137 0 0 
18 125 132 0 0 
19 144 112 0 0 
20 149 97 0 0 
21 147 74 0 0 
22 142 64 0 0 
23 121 46 0 0 
24 108 43 0 0 
25 21 23 0 0 
26 13 31 0 0 
27 20 44 0 0 
28 31 37 0 0 
29 30 28 0 0 
30 25 24 0 0 
31 24 23 0 0 
32 166 22 0 0 
33 155 31 0 0 
34 156 47 0 0 
35 168 54 0 0 
36 177 52 0 0 
37 184 43 0 0 
38 182 28 0 0 
39 173 22 0 0 
48 0 0 0 0 
49 0 224 0 0 
50 225 224 0 0 
51 225 0 0 0 
1 168 128 0 178 131 0 0 2 1 -2 
2 158 131 0 168 145 0 0 2 2 -3 
3 158 145 0 160 166 0 0 2 3 -4 
4 160 166 0 170 176 0 0 2 4 -5 
5 170 176 0 189 176 0 0 2 5 -6 
6 189 162 0 201 176 0 0 2 6 -7 
7 200 142 0 201 162 0 0 2 7 -8 
8 188 129 0 200 142 0 0 2 8 -9 
9 178 128 0 188 129 0 0 2 9 -1 
10 85 43 0 101 48 0 0 2 10 -11 
11 66 48 0 85 68 0 0 2 11 -12 
12 62 68 0 66 76 0 0 2 12 -13 
13 61 76 0 62 97 0 0 2 13 -14 
14 61 97 0 69 118 0 0 2 14 -15 
15 69 118 0 89 134 0 0 2 15 -16 
16 89 134 0 101 137 0 0 2 16 -17 
17 101 132 0 125 137 0 0 2 17 -18 
18 125 112 0 144 132 0 0 2 18 -19 
19 144 97 0 149 112 0 0 2 19 -20 
20 147 74 0 149 97 0 0 2 20 -21 
21 142 64 0 147 74 0 0 2 21 -22 
22 121 46 0 142 64 0 0 2 22 -23 
23 108 43 0 121 46 0 0 2 23 -24 
24 101 43 0 108 43 0 0 2 24 -10 
25 13 23 0 21 31 0 0 2 25 -26 
26 13 31 0 20 44 0 0 2 26 -27 
27 20 37 0 31 44 0 0 2 27 -28 
28 30 28 0 31 37 0 0 2 28 -29 
29 25 24 0 30 28 0 0 2 29 -30 
30 24 23 0 25 24 0 0 2 30 -31 
31 21 23 0 24 23 0 0 2 31 -25 
32 155 22 0 166 31 0 0 2 32 -33 
33 155 31 0 156 47 0 0 2 33 -34 
34 156 47 0 168 54 0 0 2 34 -35 
35 168 52 0 177 54 0 0 2 35 -36 
36 177 43 0 184 52 0 0 2 36 -37 
37 182 28 0 184 43 0 0 2 37 -38 
38 173 22 0 182 28 0 0 2 38 -39 
39 166 22 0 173 22 0 0 2 39 -32 
48 0 0 0 0 224 0 1 3 2 48 -49 
49 0 224 0 225 224 0 1 4 2 49 -50 
50 225 0 0 225 224 0 1 2 2 50 -51 
51 0 0 0 225 0 0 1 8 2 51 -48 
44 158 128 0 201 176 0 1 6 9 1 2 3 4 5 6 7 8 9 
45 61 43 0 149 137 0 1 6 15 10 11 12 13 14 15 16 17 18 19 20 21 22 23 24 
46 13 23 0 31 44 0 1 6 7 25 26 27 28 29 30 31 
47 155 22 0 184 54 0 1 6 8 32 33 34 35 36 37 38 39 
1000 0 0 0 225 224 0 1 1 43 1 2 3 4 5 6 7 8 9 -24 -23 -22 -21 -20 -19 -18 -17 -16 -15 -14 -13 -12 -11 -10 -31 -30 -29 -28 -27 -26 -25 -39 -38 -37 -36 -35 -34 -33 -32 -51 -50 -49 -48 
$EndEntities
$Nodes
82 981 1 981
0 1 0 1
1
178 128 0
0 2 0 1
2
168 131 0
0 3 0 1
3
158 145 0
0 4 0 1
4
160 166 0
0 5 0 1
5
170 176 0
0 6 0 1
6
189 176 0
0 7 0 1
7
201 162 0
0 8 0 1
8
200 142 0
0 9 0 1
9
188 129 0
0 10 0 1
10
101 43 0
0 11 0 1
11
85 48 0
0 12 0 1
12
66 68 0
0 13 0 1
13
62 76 0
0 14 0 1
14
61 97 0
0 15 0 1
15
69 118 0
0 16 0 1
16
89 134 0
0 17 0 1
17
101 137 0
0 18 0 1
18
125 132 0
0 19 0 1
19
144 112 0
0 20 0 1
20
149 97 0
0 21 0 1
21
147 74 0
0 22 0 1
22
142 64 0
0 23 0 1
23
121 46 0
0 24 0 1
24
108 43 0
0 25 0 1
25
21 23 0
0 26 0 1
26
13 31 0
0 27 0 1
27
20 44 0
0 28 0 1
28
31 37 0
0 29 0 1
29
30 28 0
0 30 0 1
30
25 24 0
0 31 0 1
31
24 23 0
0 32 0 1
32
166 22 0
0 33 0 1
33
155 31 0
0 34 0 1
34
156 47 0
0 35 0 1
35
168 54 0
0 36 0 1
36
177 52 0
0 37 0 1
37
184 43 0
0 38 0 1
38
182 28 0
0 39 0 1
39
173 22 0
0 48 0 1
40
0 0 0
0 49 0 1
41
0 224 0
0 50 0 1
42
225 224 0
0 51 0 1
43
225 0 0
1 1 0 1
44
173 129.5 0
1 2 0 1
45
163 138 0
1 3 0 2
46
47
158.6666666666667 152 0
159.3333333333333 159 0
1 4 0 1
48
165 171 0
1 5 0 1
49
179.5 176 0
1 6 0 1
50
195 169 0
1 7 0 1
51
200.5 152 0
1 8 0 1
52
194 135.5 0
1 10 0 1
53
93 45.5 0
1 11 0 2
54
55
78.6666666666431 54.66666666669148 0
72.33333333328619 61.33333333338295 0
1 13 0 2
56
57
61.66666666666666 83 0
61.33333333333334 90 0
1 14 0 2
58
59
63.66666666666666 104 0
66.33333333333333 111 0
1 15 0 2
60
61
75.66666666666669 123.3333333333333 0
82.33333333333337 128.6666666666667 0
1 16 0 1
62
94.99999999999999 135.5 0
1 17 0 2
63
64
108.999999999773 135.3333333333806 0
116.999999999773 133.666666666714 0
1 18 0 2
65
66
131.3333333333333 125.3333333333333 0
137.6666666666667 118.6666666666667 0
1 19 0 1
67
146.5 104.5 0
1 20 0 2
68
69
148.3333333333333 89.33333333333331 0
147.6666666666667 81.66666666666664 0
1 21 0 1
70
144.5 69 0
1 22 0 2
71
72
135.0000000000907 58.00000000007771 0
128.0000000001803 52.00000000015454 0
1 23 0 1
73
114.5 44.5 0
1 25 0 1
74
16.99999999999999 27.00000000000001 0
1 26 0 1
75
16.50000000000085 37.50000000000157 0
1 27 0 1
76
25.50000000000001 40.5 0
1 32 0 1
77
160.5 26.50000000000001 0
1 33 0 1
78
155.5 39.00000000000001 0
1 34 0 1
79
162 50.49999999999999 0
1 36 0 1
80
180.5 47.49999999999999 0
1 37 0 1
81
183 35.49999999999998 0
1 38 0 1
82
177.5000000000407 25.00000000002712 0
1 48 0 22
83
84
85
86
87
88
89
90
91
92
93
94
95
96
97
98
99
100
101
102
103
104
0 9.739130434779764 0
0 19.4782608695597 0
0 29.21739130433754 0
0 38.9565217391154 0
0 48.69565217389324 0
0 58.43478260867109 0
0 68.17391304344895 0
0 77.91304347822678 0
0 87.65217391300463 0
0 97.39130434778249 0
0 107.1304347825604 0
0 116.8695652173691 0
0 126.6086956522087 0
0 136.3478260869994 0
0 146.0869565217772 0
0 155.8260869565551 0
0 165.5652173913329 0
0 175.3043478261107 0
0 185.0434782608886 0
0 194.7826086956665 0
0 204.5217391304443 0
0 214.2608695652222 0
1 49 0 22
105
106
107
108
109
110
111
112
113
114
115
116
117
118
119
120
121
122
123
124
125
126
9.782608695661361 224 0
19.56521739132495 224 0
29.34782608698431 224 0
39.13043478263057 224 0
48.91304347827663 224 0
58.69565217392267 224 0
68.47826086956873 224 0
78.26086956521478 224 0
88.04347826086085 224 0
97.8260869565069 224 0
107.6086956521529 224 0
117.3913043478299 224 0
127.1739130435358 224 0
136.9565217391855 224 0
146.7391304348315 224 0
156.5217391304776 224 0
166.3043478261237 224 0
176.0869565217697 224 0
185.8695652174158 224 0
195.6521739130618 224 0
205.4347826087078 224 0
215.2173913043539 224 0
1 50 0 22
127
128
129
130
131
132
133
134
135
136
137
138
139
140
141
142
143
144
145
146
147
148
225 214.260869565222 0
225 204.521739130444 0
225 194.7826086956659 0
225 185.0434782608879 0
225 175.3043478261099 0
225 165.5652173913319 0
225 155.8260869565538 0
225 146.0869565217758 0
225 136.3478260869978 0
225 126.6086956522198 0
225 116.8695652174417 0
225 107.1304347826328 0
225 97.39130434779302 0
225 87.6521739130022 0
225 77.91304347822418 0
225 68.17391304344616 0
225 58.43478260866812 0
225 48.6956521738901 0
225 38.95652173911208 0
225 29.21739130433409 0
225 19.47826086955604 0
225 9.739130434777991 0
1 51 0 22
149
150
151
152
153
154
155
156
157
158
159
160
161
162
163
164
165
166
167
168
169
170
215.2173913043519 0 0
205.4347826087039 0 0
195.6521739130558 0 0
185.8695652174077 0 0
176.0869565217596 0 0
166.3043478261116 0 0
156.5217391304635 0 0
146.7391304348154 0 0
136.9565217391674 0 0
127.1739130435193 0 0
117.3913043478712 0 0
107.6086956521923 0 0
97.82608695648433 0 0
88.04347826083261 0 0
78.26086956518458 0 0
68.47826086953648 0 0
58.69565217388842 0 0
48.91304347824035 0 0
39.13043478259226 0 0
29.34782608694422 0 0
19.56521739129613 0 0
9.782608695648037 0 0
2 44 0 26
171
172
173
174
175
176
177
178
179
180
181
182
183
184
185
186
187
188
189
190
191
192
193
194
195
196
165.0621778264911 154.9226497308103 0
176.7990381056767 133.0801270189222 0
192.0942636462081 147.4077868176896 0
172.810150956529 168.9728775610068 0
181.0756253403418 167.8273595947172 0
185.4253979163764 140.5521594650737 0
192.9086509430975 160.3220331569993 0
175.1858897601457 161.2044631687829 0
170.307396707665 138.1811661945548 0
166.6275676098576 144.163105403915 0
173.9300525666955 144.6321495356131 0
184.0751780074886 159.0083327520123 0
177.1588050872188 152.3137915503952 0
166.9141193213588 162.4347493604141 0
184.9576907764006 149.680406764277 0
182.4014570581095 133.4597514002554 0
170.1391253046936 150.0866211786355 0
180.1163544250642 145.2035751771785 0
177.2160476952651 138.4001503451181 0
188.4118908581856 166.4315451007458 0
170.9484772949356 156.0703978865381 0
163.6666440938899 149.5175987953769 0
190.9071566746389 153.6837118981956 0
172.6268223833063 133.935098686722 0
191.6595798248011 140.9188389688373 0
187.8886939305501 135.2133211405387 0
2 45 0 109
197
198
199
200
201
202
203
204
205
206
207
208
209
210
211
212
213
214
215
216
217
218
219
220
221
222
223
224
225
226
227
228
229
230
231
232
233
234
235
236
237
238
239
240
241
242
243
244
245
246
247
248
249
250
251
252
253
254
255
256
257
258
259
260
261
262
263
264
265
266
267
268
269
270
271
272
273
274
275
276
277
278
279
280
281
282
283
284
285
286
287
288
289
290
291
292
293
294
295
296
297
298
299
300
301
302
303
304
305
141.4684705689873 85.88508703602658 0
71.68869281138012 104.6161552923256 0
81.27350269185015 63.48482755732846 0
111.3041957932131 128.5007314736858 0
126.8524198304104 61.04392884324459 0
104.5553458281554 49.97910932093304 0
66.94882092583525 86.33377387249541 0
82.80367925148855 120.1904564710827 0
128.2716611066439 116.7733209218472 0
138.2807599364163 68.82517793821907 0
93.92984009991574 129.6031332784136 0
116.4509618943233 50.87916512459885 0
138.4419025016751 105.9590141828551 0
70.17826201324739 75.0891310066237 0
92.02970323363563 53.07608724703998 0
141.038870026469 78.81692292258499 0
134.5051771329726 82.81114401742271 0
135.6708827081058 91.63481901299092 0
127.8280933225679 87.55980743104682 0
128.0898821393121 95.44283436606706 0
120.6506174261227 91.81389344439867 0
120.1417760329594 83.76981648353735 0
113.1639513757824 88.04852585903785 0
112.5192216238799 79.83797582767778 0
105.7890825633637 84.29905289304402 0
106.2355542833136 92.46682472473449 0
98.9716032236461 88.74612898144073 0
99.35324955839224 96.86065506549687 0
106.6168311653474 100.6530080317829 0
92.16736118747993 93.12122926214545 0
105.3215705291076 76.11247698228112 0
91.74501759113303 85.11649799208368 0
99.68329481559807 105.0224264929682 0
106.9470546677476 108.8277616502633 0
100.1130442457301 113.1757782139486 0
85.0571587889057 89.48156330145629 0
85.44227215591248 97.32673481151757 0
111.9727571512194 71.55378378973157 0
104.7084432878048 67.85714103876387 0
121.1112423181301 100.0421112199177 0
84.57412865167137 81.57488790032599 0
97.93098396411212 72.4701948093273 0
91.92686655876697 110.0544495278724 0
78.59809464068447 93.7944084724771 0
111.4324017520638 63.38579030518609 0
96.7862549346865 64.76000655095963 0
107.217693323503 116.921592770407 0
114.175143412963 112.6375117009246 0
99.90333221031406 120.4232744373431 0
128.9282597213832 103.5908233044882 0
90.36262840436238 68.89392786422752 0
134.4105210937229 75.08908673940134 0
104.1868854022226 130.6921541027681 0
78.88057021233132 101.5573429906664 0
122.9264843709438 122.9859967632804 0
77.03755347766582 115.5330485217387 0
84.16081864714002 112.1303164559499 0
119.0397525871086 67.03361854456031 0
93.56518714159722 117.8995693790263 0
68.20014730970881 98.26502324709507 0
78.11752131981513 86.01366840950018 0
122.8439066739017 109.0999937943411 0
92.45131749334854 101.1882860307467 0
103.1063726750419 59.20098109231282 0
131.1307603427247 68.29558157824067 0
125.7887640431656 73.67497020021374 0
113.6075207357952 96.24749685735503 0
141.0735693388631 98.44181291125366 0
98.56840786457728 80.62883645994188 0
114.2169498289808 104.5846472090974 0
77.63213424030747 78.13415475069309 0
91.17788169756871 77.03301210526784 0
110.6938356037077 55.20211335880909 0
117.7449555976821 58.55063604718721 0
98.81393236164193 54.04910779847321 0
85.43286742579174 104.9296691260818 0
83.59598102780831 73.21256874761201 0
76.5556104810898 70.15460230782928 0
114.373634060521 121.2415991800667 0
89.12209098461064 61.07907105804356 0
120.8808757630788 116.1755020810141 0
119.2904129712192 75.797995756075 0
78.24735567477718 108.4785677555391 0
134.4408992818678 99.01386075553097 0
132.3815941462905 111.0009285363599 0
88.36827444289682 125.0052043656307 0
72.15804570165791 91.05851121530114 0
110.8400286652373 48.7120775608682 0
72.20076334907621 82.59501665916602 0
127.6691467638118 80.07232801833477 0
141.4651262712826 73.28236167339028 0
105.9410636736436 124.1207801557389 0
99.0675868302056 126.8695887549808 0
142.6814616120643 92.34274923717108 0
66.26432960336507 92.56368809600627 0
94.96684414498588 123.9601540430789 0
98.74313296422616 132.0134860667436 0
135.1204094505756 63.90322971069249 0
66.58627768195606 80.35251099630061 0
72.38855953026248 111.2332327119739 0
74.14597585692103 97.94653593845112 0
98.78698015271966 48.30296449526826 0
117.8357367800318 127.442068145509 0
122.0003619184785 53.75920010672441 0
85.2183927153479 56.06133050582068 0
95.07444103850337 58.57382295824044 0
125.7029242008523 67.51202479156481 0
138.1371682074726 111.9157523479615 0
87.90598377237652 116.447278372011 0
2 46 0 5
306
307
308
309
310
24.13462799986481 29.89969321795065 0
22.32443743552437 35.02668769342723 0
22.23175590782163 26.5729763687135 0
19.1984702238686 31.16655954668216 0
26.59181308707784 34.08527618227557 0
2 47 0 15
311
312
313
314
315
316
317
318
319
320
321
322
323
324
325
171.3060450915677 47.58654562946126 0
172.6519237886671 27.39711431704355 0
178.5241509532005 41.75085757719776 0
175.1953682426006 36.11573555265445 0
161.4610406381599 33.85876350480665 0
162.8172810371091 39.64200167340529 0
168.2767998429708 36.42441545195116 0
166.6373839914814 29.57346252302348 0
177.0421661694395 30.59806020687099 0
172.7893968491158 41.67417272631449 0
167.0557831542743 43.17982429096701 0
171.5969866604726 32.24069373325847 0
176.0239185787768 46.10231518659469 0
166.2154853692004 48.10668173673838 0
161.3684873191028 44.88637120525871 0
2 1000 0 656
326
327
328
329
330
331
332
333
334
335
336
337
338
339
340
341
342
343
344
345
346
347
348
349
350
351
352
353
354
355
356
357
358
359
360
361
362
363
364
365
366
367
368
369
370
371
372
373
374
375
376
377
378
379
380
381
382
383
384
385
386
387
388
389
390
391
392
393
394
395
396
397
398
399
400
401
402
403
404
405
406
407
408
409
410
411
412
413
414
415
416
417
418
419
420
421
422
423
424
425
426
427
428
429
430
431
432
433
434
435
436
437
438
439
440
441
442
443
444
445
446
447
448
449
450
451
452
453
454
455
456
457
458
459
460
461
462
463
464
465
466
467
468
469
470
471
472
473
474
475
476
477
478
479
480
481
482
483
484
485
486
487
488
489
490
491
492
493
494
495
496
497
498
499
500
501
502
503
504
505
506
507
508
509
510
511
512
513
514
515
516
517
518
519
520
521
522
523
524
525
526
527
528
529
530
531
532
533
534
535
536
537
538
539
540
541
542
543
544
545
546
547
548
549
550
551
552
553
554
555
556
557
558
559
560
561
562
563
564
565
566
567
568
569
570
571
572
573
574
575
576
577
578
579
580
581
582
583
584
585
586
587
588
589
590
591
592
593
594
595
596
597
598
599
600
601
602
603
604
605
606
607
608
609
610
611
612
613
614
615
616
617
618
619
620
621
622
623
624
625
626
627
628
629
630
631
632
633
634
635
636
637
638
639
640
641
642
643
644
645
646
647
648
649
650
651
652
653
654
655
656
657
658
659
660
661
662
663
664
665
666
667
668
669
670
671
672
673
674
675
676
677
678
679
680
681
682
683
684
685
686
687
688
689
690
691
692
693
694
695
696
697
698
699
700
701
702
703
704
705
706
707
708
709
710
711
712
713
714
715
716
717
718
719
720
721
722
723
724
725
726
727
728
729
730
731
732
733
734
735
736
737
738
739
740
741
742
743
744
745
746
747
748
749
750
751
752
753
754
755
756
757
758
759
760
761
762
763
764
765
766
767
768
769
770
771
772
773
774
775
776
777
778
779
780
781
782
783
784
785
786
787
788
789
790
791
792
793
794
795
796
797
798
799
800
801
802
803
804
805
806
807
808
809
810
811
812
813
814
815
816
817
818
819
820
821
822
823
824
825
826
827
828
829
830
831
832
833
834
835
836
837
838
839
840
841
842
843
844
845
846
847
848
849
850
851
852
853
854
855
856
857
858
859
860
861
862
863
864
865
866
867
868
869
870
871
872
873
874
875
876
877
878
879
880
881
882
883
884
885
886
887
888
889
890
891
892
893
894
895
896
897
898
899
900
901
902
903
904
905
906
907
908
909
910
911
912
913
914
915
916
917
918
919
920
921
922
923
924
925
926
927
928
929
930
931
932
933
934
935
936
937
938
939
940
941
942
943
944
945
946
947
948
949
950
951
952
953
954
955
956
957
958
959
960
961
962
963
964
965
966
967
968
969
970
971
972
973
974
975
976
977
978
979
980
981
81.5134888196654 136.2646387404619 0
106.7015684611863 142.2861924095079 0
183.6850111996333 121.5481828739425 0
54.91635206547996 216.7203109235951 0
8.74943603941837 160.8892393636581 0
83.15217391303781 215.528012354288 0
122.1133355409119 216.151822518189 0
173.9779781349989 58.08800505852588 0
61.60448884017559 116.8094010767585 0
26.11340318746788 47.04834221169071 0
155.3061947623474 92.58931639747703 0
55.69722159225265 79.23584813309937 0
36.25221446900488 31.78984991021376 0
163.0442663556586 177.8741066853502 0
216.7425972974434 82.9071969351111 0
182.64711431703 52.78108891324553 0
153.078685735349 156.5126403326707 0
7.63425417318753 132.5922937044709 0
8.045119401034647 102.8837385014798 0
8.700109835033651 189.6837547566296 0
75.11577139438474 46.24167703765745 0
169.2576669883799 125.8803793584966 0
37.70119660860479 38.56544595275517 0
42.93756653103058 33.78379293700508 0
118.5839816492494 38.90629383807411 0
153.3443134755181 77.55019932936402 0
7.667949194506126 72.8958775372837 0
168.217384373363 183.7477034136549 0
161.0318476016047 185.147679212998 0
122.5577202522245 139.5404609017383 0
188.1108029440444 31.1388595842843 0
104.3976177325619 36.83380498914045 0
216.9893086012898 101.8269895456249 0
141.5634432282477 215.0783811648935 0
56.42131266182327 102.3028806059149 0
216.5312226355439 63.05280312864824 0
44.56446902582371 40.91739545643811 0
102.7173913043299 215.528012354288 0
34.07837349205224 215.6247479813693 0
63.90022624828163 8.322731739969095 0
82.8091126170095 8.230370953568652 0
201.0345583734386 215.6295323362324 0
163.9302444838547 127.3802801731971 0
165.2988225313771 121.8053910465143 0
49.89909151771471 35.75800216502948 0
180.6025203429622 215.4725443281554 0
132.5105651754739 9.377316021303342 0
216.7042032243942 44.11891857351681 0
155.7603124186541 179.6248615845516 0
153.5771473224292 186.9764868750345 0
148.0939293301572 181.2347735905893 0
130.2539272262023 138.2108932574373 0
127.7544700742331 145.1678075339274 0
158.2723182606813 192.8123882493185 0
30.10635808120622 22.63846838815273 0
149.2438927954917 35.61509346704987 0
145.8674316526187 188.9249082109685 0
140.2215117882141 183.028653166554 0
217.7323382650769 24.52695287677606 0
112.7845916515737 8.170008711226597 0
216.7949882533139 189.6022650606928 0
191.7890156091134 121.0647556578746 0
187.6324082062732 113.9876424603499 0
187.3818007238884 24.76693688597975 0
178.1660203736643 19.42723196639804 0
137.9877552651039 190.9240515249363 0
132.2929651591159 184.9129965876753 0
134.5943435997474 177.0417091009363 0
126.5772013166929 178.9039147257915 0
124.3276491966419 186.9172662984998 0
118.4938495975476 180.7718931956607 0
120.9257930732429 172.8400423117887 0
112.7357509732671 174.5599957342713 0
110.2870004218006 182.6093501438713 0
104.4634476947461 176.3203750470082 0
101.9273141951614 184.5371381740965 0
96.15169704398936 178.1780786236511 0
98.6925806572 170.0190900485839 0
90.31862187361052 171.7028282193881 0
87.70974587474119 179.9884127414707 0
81.78988117523753 173.3706648067425 0
79.10704219335148 181.8095472108561 0
73.1922950231038 175.1566831238636 0
70.41336242112615 183.6627363225286 0
64.49493867714683 176.9738163896163 0
67.30378445806298 168.4839912239368 0
58.59313080327307 170.2533209003934 0
61.40498488864714 162.2045600488384 0
52.73478297708239 163.627250193428 0
49.73345229668331 171.967412672592 0
56.65092069673167 154.6466791042317 0
47.09614959165038 156.8397588073542 0
49.73701973542033 148.5552255747377 0
41.14098331080555 150.2936255783374 0
43.78319475538279 142.0912114667232 0
93.06598434959776 163.8825790068474 0
61.60006311651666 185.5295068398118 0
38.14231088177736 158.5209827092839 0
184.439954467016 184.2177042644321 0
51.57092127367492 42.92926542138264 0
46.18431566050791 48.22507889238386 0
20.43925329938219 50.52149631179309 0
26.32716848613851 53.81641464198234 0
147.4814861560984 64.28520649679719 0
115.2967634150239 166.8598515442339 0
35.2717697638886 143.7342519633469 0
37.87332894920392 135.5577739899607 0
48.1600705125428 28.58330174640999 0
55.19319962376236 30.26580879786768 0
69.59604465523012 160.758184275476 0
51.78915961107538 140.9340999920682 0
154.1543827061155 22.70340312402823 0
67.65388113966725 192.3188614868391 0
82.29081279665917 39.56993335656375 0
155.8381186718387 137.053652855871 0
159.6201824400507 123.4661968964523 0
160.9189303884382 117.4977003908539 0
167.0822560990191 115.8178554018187 0
85.10553137290427 188.383307663246 0
193.6022237726862 27.24012460877961 0
194.3771959298429 34.31371242469849 0
99.5023855888079 144.2115154157456 0
135.3585917177747 143.8283267487434 0
133.1179300043876 150.608162681286 0
107.8086331989122 190.9044996966833 0
125.9223445112469 41.66639909340461 0
123.4521200797981 33.75169451778565 0
16.34939053888743 22.34939053888743 0
19.36309244062224 19.05907478915556 0
104.2708443513088 149.1734428130326 0
162.5506506238409 111.2600471734942 0
169.2661155482265 109.3544031942588 0
161.6180545042032 57.43345603691063 0
63.98335629691051 124.0898574829134 0
56.69930471677267 122.7024994263431 0
53.34051246022054 50.33056424017571 0
47.58664126139105 55.25313389587394 0
202.7012928928133 133.6203052364572 0
195.5727359199494 113.2416878702842 0
190.9996863572964 106.0531829254808 0
193.6275661549676 184.2736701522008 0
189.355357720543 192.0273422430279 0
161.5226007245919 215.7263455491915 0
74.05524525230784 38.01092391189771 0
79.87259932435012 31.94467786241071 0
56.94540535163281 71.73634274304698 0
49.69207440368947 75.39325735004698 0
49.37772636684954 82.68280895596649 0
43.05593170021038 78.77680029743875 0
42.73642250883393 86.28394509241754 0
36.22632572302699 82.26643215097977 0
35.94750264086285 90.12866784140544 0
37.18223173263023 74.89177339619309 0
29.11680391315842 85.88462696890656 0
28.80985887022418 94.03096416276452 0
35.8065884720463 98.37638065113052 0
28.56081107945072 102.339086614094 0
35.74430177897244 106.6515959821151 0
28.31633545097258 110.749526813825 0
58.68705256982241 194.2329129039298 0
14.78129411083122 17.96906555030307 0
192.4344953709242 20.41957920819725 0
20.34007694294512 57.49040374600403 0
35.5725203750967 114.8845868303001 0
28.16834395761746 120.830223371044 0
142.6733913058965 56.13104347654579 0
21.70518477423539 89.65869385996126 0
202.8305815789868 169.5938905923067 0
29.4967098381759 137.1834796634396 0
26.55171854152451 145.5721281239124 0
131.0149424983524 35.80919219512379 0
128.8052531694907 28.57340591061272 0
120.6532259960924 25.98466361291063 0
44.97216625924111 8.419077289075533 0
119.8279074939664 146.4186845058642 0
173.2734619187015 16.03371100052533 0
137.8112764921325 136.5561399471279 0
26.68002123703577 60.91867990756381 0
71.14963310298651 30.90837776216921 0
64.86509205581804 201.1230674188676 0
15.0601256994979 215.756750963821 0
20.66232623775079 115.0729656944138 0
88.45647356670572 33.54637425415267 0
200.2529216687719 30.06213815220895 0
200.8916545730551 37.36579009140694 0
181.5195579419557 192.2422530018096 0
143.7368963289458 196.9381389900601 0
135.7194979572358 199.1116698466126 0
87.07862682903401 141.0585145594754 0
79.84633963885055 143.7143328127284 0
73.97523666806062 138.5538270453828 0
123.3034461141773 165.0340127175847 0
53.40518204452038 23.01075841711317 0
216.0000758831404 123.064456092646 0
42.43978648799105 110.9207864793663 0
198.3524127792915 192.2071969269825 0
150.660395960757 143.6282627887438 0
32.68418765981254 56.89819512859881 0
60.61208800651199 44.11231540973153 0
52.5830739812348 187.3161454603006 0
49.60714826437894 196.1244281689119 0
43.43449684510169 189.1527017069186 0
73.96773312031942 199.1646301360072 0
40.51183761885595 197.9330984123348 0
34.18830247572635 190.7552463582052 0
37.25686007752692 182.0244481320674 0
28.01698138589327 183.8270676910005 0
30.98705179570667 175.0114167223076 0
21.81536278836859 176.7905409270058 0
25.12618992009171 168.1528800982201 0
86.12892017074664 148.9047307785908 0
99.35466814956104 192.8578295867036 0
84.97378639224108 24.1925855981397 0
93.90401128828698 27.73566714333203 0
23.61236050938655 192.8207183810065 0
199.405760990214 105.3903049418361 0
194.2252230989724 98.43941658913542 0
186.0488197791464 99.06229469491043 0
189.1693733071327 91.61137535767057 0
181.2417534872749 92.37634129353887 0
184.3107595680973 85.10997486211595 0
176.6130037440175 85.93074810525248 0
192.2332363490358 84.34075239926923 0
187.6288046150372 77.9579156209318 0
195.1458374969681 77.08852453527459 0
190.1330748586365 69.78147134416578 0
182.3794188995977 71.81330676389203 0
172.6720230380352 94.2145489994209 0
198.0805723614294 69.83583941187905 0
194.0959368172859 63.37161555577036 0
168.7665598393471 86.89859685296803 0
172.0658682763118 79.78755905818998 0
201.0205439861368 83.70364568014919 0
18.25812926597573 14.64472051895235 0
23.5724470637113 16.32634870781592 0
55.19328987381013 93.42133843027497 0
150.6492538398966 174.4403552775251 0
201.3265071177406 63.05762150845489 0
196.7504917900976 57.04696806276095 0
204.3914802066212 56.16687202918718 0
164.2070305848392 104.1598614387134 0
146.5209921161533 120.5531039192679 0
42.5179360319425 119.68404817962 0
21.89019749586678 81.57121423045707 0
136.1814251991228 30.20219709097954 0
195.0043986022873 40.92885941590032 0
56.81688538255211 64.43906256989138 0
210.2919658899838 8.230685021206234 0
208.4259341186174 139.6926750262859 0
202.1486172045265 97.97940593242697 0
178.411588520719 13.87424078279673 0
49.40024313040855 98.37807964611709 0
105.2908658471016 199.2596034082383 0
96.99129553787461 201.043564769177 0
114.0074184544416 197.299602484947 0
20.64223025558957 64.95914739582038 0
151.1041445373486 8.401361996001551 0
215.8467550473952 208.6828549022764 0
11.86838936802124 13.04234000001915 0
194.2691359555696 199.9685071973606 0
101.2588758676552 162.7996868506405 0
13.98751247544268 54.25695879426956 0
92.27859988539511 20.4367622891935 0
99.7413656453281 21.55657205485579 0
13.09092189223377 43.06760593166632 0
72.232954265077 146.3327163887845 0
176.8527897257579 120.8460920991973 0
140.2416497134342 149.5729297122609 0
138.2002933771349 156.6533946829743 0
134.2438574955794 23.1377644838042 0
202.5169507620466 200.2326729660457 0
49.93025430074481 68.47141741466231 0
66.64153749252338 139.9977282918084 0
208.9481256972076 156.5459653255679 0
156.1295128777239 113.5813078703203 0
204.7886805587054 112.2570052431515 0
11.74789415269418 21.61593011314247 0
207.0534261918714 33.10570186423653 0
97.75790842425597 150.6755957534927 0
69.66741289389266 208.479602818711 0
164.7765861763446 80.42797780988725 0
167.7053416089138 73.89775799710981 0
14.77336936979605 85.55152476958335 0
20.48003535704899 123.2245604207291 0
205.1993719933403 69.63651962170709 0
202.9630221363392 184.0641616775129 0
116.6288854516552 159.6674658841369 0
110.6490753221591 206.9816611777886 0
46.37493779560248 21.63651024649553 0
201.1879687385128 44.2199694763885 0
59.41127602273578 129.8373495006367 0
51.55798459615789 128.7745782621993 0
21.39680987110361 138.0657793029961 0
16.78935647059247 145.9332654398854 0
141.4606619190882 24.82434050945908 0
153.4627728049414 71.36299972792759 0
137.7604027915468 37.39130140618616 0
61.05860308349666 52.63538321077439 0
27.12638875551905 68.5153643535343 0
54.0760117233406 115.3416765718987 0
23.26867677575143 153.2127014428808 0
59.7365817916509 24.95388935080782 0
65.87524341895168 36.01840630684695 0
119.679235621452 203.2336534467013 0
97.12964124605357 13.86596505049571 0
192.2778419940058 7.717452349039444 0
164.7830417167016 93.38049136734557 0
13.74813583880643 119.3535960520198 0
139.4597391913647 16.66038879659724 0
46.68840214899065 205.046420402234 0
22.01108411486366 9.214462857023003 0
28.61922678880133 11.86389540430516 0
153.6329234124875 102.2498654477662 0
206.3098841322348 25.31427105279121 0
217.2417294856909 170.4031996682894 0
190.6957387416583 57.86394826910016 0
192.1044349161995 51.09801181138496 0
22.5 19.93834564597054 0
25.80205941452054 20.58134973753511 0
63.97102407579115 148.3226956009504 0
32.72055079910064 43.44199965745928 0
157.8468767182554 129.4667860361345 0
151.4636428230372 132.0037044481541 0
67.30405083920115 131.7907043483795 0
97.43430921934126 36.89726640805123 0
15.65702398714295 169.6279227390973 0
12.91571345592639 178.7287209927912 0
184.1787273636993 17.36197828173036 0
174.9635340121775 73.03798453814149 0
170.6591577536897 67.89215456376476 0
164.0417810595775 68.30314858473156 0
124.0248411493567 158.0870170127374 0
130.3903546477884 163.8867308961171 0
171.5115589488612 102.2423538843059 0
176.1337044121046 107.8386847286731 0
177.5286696269938 66.96959533029725 0
183.7865864251968 65.3058826964529 0
51.36759181590524 15.17374233881193 0
39.50301918489782 53.9281895967986 0
42.36729554177226 60.77607896640374 0
111.4322292815332 37.14433310164765 0
108.0205955000817 30.67204550565367 0
32.64481329670071 128.9952540937344 0
173.9237412675821 9.377537408127168 0
167.1742944111236 14.10581534472074 0
160.1925620707674 18.20634910472053 0
211.4937827648588 132.3018159502528 0
206.0119449236853 125.9044839804867 0
216.1001371022101 34.23862748281503 0
111.4468216738578 147.4954883102658 0
109.7822920876264 154.4831672230197 0
67.17290914131056 47.7197302179906 0
149.6661378382393 43.2283888553412 0
149.5245659730116 50.88722745128736 0
143.1911068150579 47.41335936367692 0
179.6602315192065 78.9395814914206 0
141.5415349421504 205.2594715076762 0
149.8643380349241 202.8399288490759 0
133.5833820703303 207.5244397990404 0
9.087451961041916 37.58451378187642 0
217.25082041177 53.23060118481929 0
217.3476777281703 73.14184669273317 0
140.1567124486143 127.2146118835179 0
13.70196968338785 94.68187989595587 0
122.2807197956966 8.367349747840622 0
118.5203137519697 17.39733450785821 0
126.4898470978439 14.82456144196006 0
107.3090682018413 16.66501069074672 0
200.6367264703142 8.418150766895653 0
147.2357239782446 17.73701978929017 0
159.967735773842 74.26865795169205 0
217.1578411781658 92.48120309346066 0
209.5650407150316 87.72975148363128 0
209.1855827447821 77.30407323213446 0
171.0563687326805 215.7059204276174 0
166.3924205404186 207.796698799094 0
175.5196583536201 207.5639183013006 0
170.4299848436056 199.9416573100034 0
184.0659587435864 207.500136029805 0
191.0103459697251 214.5635234107726 0
107.1005528683404 168.7149857618762 0
151.8473455849992 216.0316909975984 0
73.45032337040162 8.28143229638113 0
78.41463821911735 16.49862073147433 0
70.2757980584058 16.27912159208223 0
133.2121452675461 43.10503931105158 0
112.8465920984949 215.9838143613046 0
40.37701160787437 173.526840445296 0
50.28068271294539 107.8314036840476 0
8.143667208667061 62.49373419837278 0
112.9630446644934 23.78035297775941 0
75.81583907228932 166.8332048173749 0
77.63587683830553 158.9651956738725 0
84.40181340033794 165.3275623311557 0
87.21268764121501 157.0147332051326 0
80.04355453272923 207.0002726669553 0
215.0673683637102 112.0278591040722 0
21.58260132040221 73.33689598673421 0
154.0915883252947 84.7755710785266 0
92.51647691014176 216.3897898842963 0
155.7772326567783 54.035540585588 0
156.5248044922989 60.96234383305611 0
205.438282319219 16.20643669918309 0
145.9017825732012 154.928920817628 0
143.0843210652093 162.4889377518533 0
128.7896154474402 171.154585885638 0
137.4303100175918 168.7677659509312 0
142.7606664259643 175.573034910491 0
208.113174954111 49.30850408660918 0
7.798458012972194 141.4500586301213 0
8.072510272459107 150.8220120426068 0
216.830008882074 180.1959084467128 0
60.68009896426922 209.5501099875565 0
44.88556756109944 214.5481655462478 0
216.6841732070358 198.5771850378654 0
24.45021417149459 215.5316540301602 0
19.45371996751035 207.418099756247 0
8.99570139820757 208.1528179731772 0
14.69743178310672 198.6756034304799 0
28.41676513709732 207.5457484766444 0
43.01548319019933 102.9634038561654 0
142.3343041760691 8.696014433865383 0
32.32582988530071 64.2161664225431 0
42.71531029516525 94.1804825270264 0
153.4201682523884 163.2293155160943 0
58.73041598971415 109.5475603231033 0
167.5658145814703 61.75793661369262 0
55.47245896565666 202.4942042720919 0
82.77689901026214 197.2705796719611 0
143.6049735410182 142.2542125589437 0
55.39223328173972 86.30599580778926 0
122.2595443042092 195.227762936533 0
46.49245584297328 180.5184947832995 0
18.37995189951435 185.5889842878991 0
158.0431542202669 172.9779518371637 0
55.58285245297132 178.7597828410023 0
149.7104794606046 58.06090541138343 0
161.0424638321351 86.38590310982052 0
76.50407487627177 190.434943748573 0
217.0619671946196 151.5504039193761 0
35.49652078679847 25.3306608388372 0
34.66573859329086 19.24853036008575 0
160.3113471967713 8.873072271360671 0
93.52989965034061 186.4169926421763 0
216.0431090143706 15.08680806462674 0
116.137659105006 188.9089457667804 0
186.0407413569573 48.56201302271968 0
208.1637380501722 104.4700856764488 0
29.38965097853478 76.6928367578686 0
14.35290263494234 109.9512518056181 0
43.67914913282367 71.94479754884983 0
188.9113153983384 38.33040405896034 0
60.28979467093821 17.00725585066864 0
43.76264479402634 165.1738124732342 0
208.2589745460297 193.0702499082875 0
21.24888669702478 106.3089276499515 0
32.36011853806244 151.8003585024368 0
156.8833349586421 207.5423204957941 0
21.52933921104501 97.94193502834436 0
165.4064826475419 192.5221127731068 0
40.11870450958538 127.811278438376 0
32.77599882993565 50.25878810243069 0
34.69674349235061 166.6423989408668 0
197.1373174473097 90.96634351538049 0
57.45380618600367 36.7434606644894 0
38.90825835147842 45.88948294304428 0
114.5958019234751 140.8228873342872 0
178.9566194297286 61.36975264826532 0
151.1185838280636 194.6709059468031 0
162.1296521032787 200.0247936889464 0
34.60573458826723 7.738884074712042 0
208.3417607973591 40.39291859582882 0
154.5495773344603 119.384421068783 0
210.2056523460836 216.08380639542 0
181.8453096922585 22.91122942682706 0
217.1309668375139 160.7640200112316 0
130.0942308062097 192.9758414528141 0
131.6321155559028 216.1246515563976 0
176.12039939638 184.6404837222715 0
48.97574851727997 89.72318958911647 0
90.99754030152991 194.6533397148157 0
199.3860948334803 22.68006029041854 0
159.9821795516543 98.70538944921752 0
115.850866195208 31.70656392563851 0
208.4302372211028 62.69258987052901 0
75.14395545199119 130.7374070040431 0
148.5284849017842 28.45813813960467 0
18.82603662811462 161.5453507356582 0
216.4360256227074 140.8272738451585 0
92.57820933954508 145.1524718154074 0
46.58818330650008 133.6424095614376 0
173.4304773478332 114.9564890542299 0
37.59005331858103 206.5790580534766 0
178.3769133624897 99.68944320975703 0
102.786054671279 7.730268585627941 0
55.35013325428754 57.33240292445223 0
101.6014561876008 29.63314819256762 0
198.5966398015393 176.6501942467737 0
144.8619095713072 133.8193641104666 0
89.02817006808516 203.2084119033518 0
73.6222724445889 216.3736370278446 0
55.19813188896947 7.667286041803307 0
56.55984979677855 146.4565853332051 0
24.48541809151933 130.4973116448739 0
178.4884721718909 199.8665794080457 0
76.01633161205955 24.06679996862169 0
63.62731111233262 59.64190679579773 0
127.8738869834009 201.0499468965518 0
152.760652865383 125.2407771203791 0
102.4154950975027 206.8687512431732 0
196.8781988881479 127.8637035792747 0
109.1939363404051 161.4643966448588 0
152.7123943647971 149.6973089763581 0
41.64926406493172 27.39436451161476 0
171.0524463488485 120.7275152715561 0
199.4189162102627 50.75478353722954 0
78.8727173082947 151.3410205469246 0
147.1255800095028 167.6339585420542 0
7.103676766401205 171.0879004407082 0
30.95937395339061 198.7761675020294 0
49.71274441301544 121.1316649928954 0
117.2985317695529 152.7587724052356 0
198.1355747966945 207.5024965237594 0
142.9143059582654 32.70518629306889 0
182.948189039707 9.005613495108875 0
7.53077697686485 81.37266549167006 0
206.275607696167 208.3107573438039 0
6.209481038512519 44.76563061253635 0
91.35193701828089 7.558131318024657 0
15.78223561699225 129.6042919832396 0
95.56022624002256 157.0317542736845 0
49.11057598660621 61.99043344873569 0
6.576384159319611 31.2410470091922 0
6.683955053422926 22.85873434409675 0
70.2049116203733 54.11125873628555 0
28.73667937269136 159.9791120715578 0
208.856591995439 148.0127320674926 0
151.0644329351572 109.4748910257729 0
14.47167651070364 68.85718901992331 0
102.8352121923556 155.7039469264162 0
6.172390476752945 53.56521739128217 0
136.8466047986452 50.00875453927476 0
197.1605830240409 15.30875619728235 0
161.5325995512747 63.31038842569927 0
158.0694217226992 67.50534567018433 0
183.2684546762285 107.0183337701034 0
8.512435079794642 89.00665018567182 0
201.7263817165314 75.51372049622887 0
209.5339786475654 164.6932468062703 0
190.2215979044358 44.78449850489467 0
146.6242392306415 148.0163269707869 0
209.5749361049581 95.95649538822059 0
14.77049595837187 6.950112765550204 0
7.051869130137857 7.463500313635389 0
5.889720758786015 15.04941868146323 0
29.39174352894693 17.48322089196262 0
6.510443081917075 199.2863016703199 0
106.0630108709567 24.19669549448713 0
66.97482792245825 23.96859975574414 0
38.45895543396393 66.89750336394839 0
35.43575475885592 122.2975430092744 0
14.65276181135661 77.26422783927529 0
209.2605017554811 118.5141453560747 0
143.6298052669501 39.95940241157751 0
200.716846275847 119.8076302811911 0
59.37634828381477 140.1120480294391 0
15.51703267866962 61.61148663087801 0
180.1671409279717 114.365904164416 0
208.369011480719 175.8108125982413 0
162.0534413451981 132.593862880992 0
70.63142328042278 153.3474964343015 0
15.1412032372672 154.4805138049379 0
38.96259676371935 14.18677623469511 0
63.86260704903237 217.3307787809926 0
11.89293731738736 26.01085033421981 0
158.5722572689311 80.4031578287899 0
152.933390473357 65.30453592899433 0
157.8490968726779 107.5095148741372 0
153.8472681022592 15.0871745776573 0
210.5871198328378 185.0750867498236 0
125.5110676584178 151.5192503200687 0
86.09434453315535 15.33851116270778 0
23.41809364107904 200.8527421707943 0
132.9110499000565 131.8629956842833 0
147.2340816318929 209.7418628512626 0
7.186068744902387 123.8013305748115 0
219.110235202912 131.4782608696088 0
150.3630472529539 115.2613789866841 0
125.6126598361501 208.6402826969722 0
173.3637135624562 192.1601316048153 0
7.222037769947633 113.3316528223098 0
148.5221075271301 160.9587545920601 0
15.77564352548693 102.3535465762699 0
90.36644654973625 40.01817801974374 0
187.6728764254939 53.07890388649518 0
153.8050927073924 168.9283874755555 0
173.6086533082149 63.39187079537065 0
184.552244616086 58.47830305486033 0
217.8312969412104 7.157130886885798 0
211.2414070467685 21.13745700765783 0
95.28321028018749 208.9479639891046 0
26.82981779403452 5.763448467208041 0
189.8253773682754 14.17565011707074 0
179.4267912995687 56.54342993497941 0
47.66139942384101 115.193272044231 0
7.168703058802243 216.8428691131052 0
217.8661690088855 216.8778968596627 0
126.5718998006373 21.84936518643557 0
131.6720959961487 157.1922383576413 0
54.96602347502048 134.521151364706 0
44.70924607918218 66.01604614851999 0
64.27062257889382 155.7833330921245 0
62.399618560332 30.73372151958487 0
136.6118397914285 162.2781086292281 0
91.84759036315705 151.7558571652616 0
173.6325806125973 124.99079734585 0
40.40064952229998 20.45416208248523 0
132.1690520095462 16.91597872816445 0
117.3783100217271 210.1563768887323 0
147.1527819648989 127.7663122963571 0
70.07095638501995 125.8152718900348 0
211.7739190896315 28.44610236955263 0
186.5410723420376 199.9284018764337 0
68.65394291671984 42.15701232501891 0
168.1265071891302 6.419943309128398 0
32.89661135718974 70.2427288588175 0
95.84041878532018 140.0255982476323 0
5.428726900122349 180.1739130434999 0
210.8973031477726 56.67407480510239 0
155.3933713687828 199.5335845063614 0
195.4963872396233 46.48021831237193 0
13.92370949546928 136.9739583130674 0
91.40500919960792 138.5859110469119 0
139.0029854031001 43.40308508414206 0
11.28177823938631 48.47338899015011 0
145.4663392306499 60.6192888461816 0
166.7139673371398 98.84721233800121 0
44.82664999777161 15.46176465784101 0
62.22408538500574 135.0553953991496 0
209.9164922517348 201.7747440316558 0
88.02106118070012 210.4909580001876 0
148.9889344452555 68.6751360923235 0
15.51288398585821 191.6854879839182 0
211.834457455357 68.64764639065126 0
36.93007577158936 60.36189127562291 0
188.7245473911881 62.89465303717584 0
169.8619390824563 18.53488158631152 0
203.5459112103812 91.25559527178113 0
46.29680994890249 126.0005854572179 0
33.41339491605635 14.17110450861119 0
191.0168558349962 206.4848931136054 0
52.4652570409739 209.4479692334041 0
6.298837666842301 95.03426324112156 0
10.20673138307265 17.81173816891722 0
16.09951950491774 47.67750206712448 0
149.3676361847656 137.9133325293323 0
$EndNodes
$Elements
9 1960 1 1960
1 48 1 23
1 40 83 
2 83 84 
3 84 85 
4 85 86 
5 86 87 
6 87 88 
7 88 89 
8 89 90 
9 90 91 
10 91 92 
11 92 93 
12 93 94 
13 94 95 
14 95 96 
15 96 97 
16 97 98 
17 98 99 
18 99 100 
19 100 101 
20 101 102 
21 102 103 
22 103 104 
23 104 41 
1 49 1 23
24 41 105 
25 105 106 
26 106 107 
27 107 108 
28 108 109 
29 109 110 
30 110 111 
31 111 112 
32 112 113 
33 113 114 
34 114 115 
35 115 116 
36 116 117 
37 117 118 
38 118 119 
39 119 120 
40 120 121 
41 121 122 
42 122 123 
43 123 124 
44 124 125 
45 125 126 
46 126 42 
1 50 1 23
47 42 127 
48 127 128 
49 128 129 
50 129 130 
51 130 131 
52 131 132 
53 132 133 
54 133 134 
55 134 135 
56 135 136 
57 136 137 
58 137 138 
59 138 139 
60 139 140 
61 140 141 
62 141 142 
63 142 143 
64 143 144 
65 144 145 
66 145 146 
67 146 147 
68 147 148 
69 148 43 
1 51 1 23
70 43 149 
71 149 150 
72 150 151 
73 151 152 
74 152 153 
75 153 154 
76 154 155 
77 155 156 
78 156 157 
79 157 158 
80 158 159 
81 159 160 
82 160 161 
83 161 162 
84 162 163 
85 163 164 
86 164 165 
87 165 166 
88 166 167 
89 167 168 
90 168 169 
91 169 170 
92 170 40 
2 44 2 68
93 175 6 190 
94 49 6 175 
95 176 186 189 
96 173 176 185 
97 185 176 188 
98 189 172 194 
99 7 51 177 
100 2 45 179 
101 186 172 189 
102 177 51 193 
103 171 47 184 
104 2 179 194 
105 5 49 174 
106 47 4 184 
107 45 3 180 
108 174 49 175 
109 179 189 194 
110 181 183 188 
111 174 175 178 
112 4 48 184 
113 180 3 192 
114 51 8 173 
115 176 173 195 
116 179 180 181 
117 178 182 183 
118 177 182 190 
119 171 184 191 
120 178 175 182 
121 50 7 177 
122 174 178 184 
123 48 174 184 
124 183 185 188 
125 51 173 193 
126 182 175 190 
127 183 182 185 
128 183 181 187 
129 186 176 196 
130 179 45 180 
131 179 181 189 
132 182 177 193 
133 46 47 171 
134 6 50 190 
135 173 8 195 
136 184 178 191 
137 185 182 193 
138 3 46 192 
139 48 5 174 
140 1 44 172 
141 188 176 189 
142 171 187 192 
143 181 180 187 
144 8 52 195 
145 1 172 186 
146 178 183 191 
147 50 177 190 
148 52 9 196 
149 187 171 191 
150 187 180 192 
151 181 188 189 
152 46 171 192 
153 44 2 194 
154 172 44 194 
155 173 185 193 
156 176 195 196 
157 183 187 191 
158 195 52 196 
159 9 186 196 
160 9 1 186 
2 45 2 252
161 202 260 269 
162 258 205 281 
163 260 202 271 
164 247 199 273 
165 278 218 286 
166 246 258 281 
167 262 278 286 
168 55 12 274 
169 69 21 212 
170 256 283 291 
171 16 207 282 
172 205 258 277 
173 22 71 294 
174 12 210 274 
175 61 16 282 
176 283 256 297 
177 246 209 280 
178 264 214 280 
179 214 264 290 
180 209 246 281 
181 17 63 249 
182 206 248 287 
183 255 282 292 
184 201 261 294 
185 199 247 276 
186 253 239 272 
187 273 199 274 
188 282 255 305 
189 12 13 210 
190 202 269 284 
191 15 60 252 
192 18 65 251 
193 65 205 251 
194 252 204 253 
195 254 201 270 
196 212 21 287 
197 250 198 279 
198 205 66 281 
199 60 204 252 
200 239 259 272 
201 71 201 294 
202 244 258 266 
203 199 55 274 
204 281 66 304 
205 258 236 266 
206 248 206 261 
207 235 241 260 
208 65 66 205 
209 243 231 245 
210 53 211 298 
211 198 250 297 
212 60 61 204 
213 239 253 305 
214 63 200 249 
215 14 58 256 
216 226 232 233 
217 226 233 259 
218 233 232 240 
219 230 229 231 
220 248 212 287 
221 262 254 278 
222 71 72 201 
223 197 69 212 
224 54 55 199 
225 242 235 260 
226 245 231 255 
227 233 240 250 
228 224 223 226 
229 219 218 220 
230 231 239 255 
231 236 263 266 
232 219 220 221 
233 242 260 302 
234 231 229 239 
235 236 217 263 
236 226 228 232 
237 260 271 302 
238 224 226 259 
239 222 221 223 
240 219 222 263 
241 230 231 243 
242 211 271 298 
243 235 234 241 
244 217 219 263 
245 217 218 219 
246 275 251 277 
247 222 223 224 
248 239 229 259 
249 222 225 263 
250 67 20 264 
251 246 236 258 
252 240 232 257 
253 216 236 246 
254 216 217 236 
255 221 220 227 
256 219 221 222 
257 53 11 211 
258 217 215 218 
259 229 224 259 
260 226 223 228 
261 58 198 256 
262 216 215 217 
263 58 59 198 
264 227 235 238 
265 232 237 257 
266 63 64 200 
267 225 224 229 
268 223 221 265 
269 225 229 230 
270 238 235 242 
271 263 225 266 
272 222 224 225 
273 228 223 265 
274 72 23 300 
275 68 69 197 
276 225 230 266 
277 247 242 276 
278 232 228 237 
279 227 238 265 
280 241 234 254 
281 241 254 270 
282 227 220 234 
283 238 242 247 
284 221 227 265 
285 227 234 235 
286 19 67 209 
287 214 215 216 
288 259 233 272 
289 254 262 303 
290 230 243 244 
291 275 243 288 
292 208 269 270 
293 230 244 266 
294 228 265 268 
295 209 67 264 
296 260 241 269 
297 251 205 277 
298 238 247 268 
299 56 57 203 
300 257 237 267 
301 197 212 213 
302 214 213 215 
303 265 238 268 
304 24 10 202 
305 272 250 279 
306 213 212 248 
307 220 218 278 
308 237 268 273 
309 268 247 273 
310 251 275 299 
311 237 228 268 
312 15 252 296 
313 18 251 299 
314 256 198 297 
315 233 250 272 
316 255 239 305 
317 214 216 280 
318 269 241 270 
319 253 272 279 
320 17 249 293 
321 248 261 262 
322 197 213 214 
323 200 275 288 
324 258 244 277 
325 218 215 286 
326 204 282 305 
327 209 264 280 
328 210 267 274 
329 23 73 208 
330 267 237 273 
331 267 273 274 
332 16 62 207 
333 20 68 290 
334 14 256 291 
335 244 243 275 
336 59 15 296 
337 64 18 299 
338 254 234 278 
339 264 20 290 
340 57 14 291 
341 201 254 303 
342 252 253 279 
343 10 53 298 
344 66 19 304 
345 249 288 289 
346 244 275 277 
347 73 24 284 
348 197 214 290 
349 270 201 300 
350 70 22 206 
351 210 13 295 
352 204 61 282 
353 201 72 300 
354 234 220 278 
355 249 200 288 
356 23 208 300 
357 243 245 288 
358 276 242 302 
359 54 199 301 
360 11 54 301 
361 203 283 285 
362 245 255 292 
363 216 246 280 
364 288 245 289 
365 248 262 286 
366 267 210 285 
367 56 203 295 
368 279 198 296 
369 240 283 297 
370 240 257 283 
371 24 202 284 
372 283 257 285 
373 213 248 286 
374 211 11 301 
375 275 200 299 
376 21 70 287 
377 269 208 284 
378 215 213 286 
379 207 62 293 
380 250 240 297 
381 257 267 285 
382 68 197 290 
383 199 276 301 
384 261 206 294 
385 203 285 295 
386 198 59 296 
387 62 17 293 
388 13 56 295 
389 253 204 305 
390 203 57 291 
391 208 73 284 
392 200 64 299 
393 285 210 295 
394 283 203 291 
395 261 201 303 
396 70 206 287 
397 208 270 300 
398 271 202 298 
399 289 245 292 
400 19 209 304 
401 262 261 303 
402 252 279 296 
403 289 207 293 
404 202 10 298 
405 206 22 294 
406 282 207 292 
407 211 276 302 
408 276 211 301 
409 271 211 302 
410 207 289 292 
411 209 281 304 
412 249 289 293 
2 46 2 18
413 27 76 307 
414 75 27 307 
415 31 25 308 
416 25 74 308 
417 306 308 309 
418 29 30 306 
419 308 74 309 
420 30 31 308 
421 307 306 309 
422 26 75 309 
423 76 28 310 
424 307 76 310 
425 306 30 308 
426 74 26 309 
427 29 306 310 
428 306 307 310 
429 75 307 309 
430 28 29 310 
2 47 2 42
431 39 32 312 
432 312 32 318 
433 81 38 319 
434 313 81 314 
435 37 81 313 
436 315 78 316 
437 314 81 319 
438 320 311 323 
439 315 316 317 
440 33 78 315 
441 311 36 323 
442 313 320 323 
443 78 34 325 
444 315 317 318 
445 316 78 325 
446 32 77 318 
447 313 314 320 
448 77 33 315 
449 314 317 320 
450 318 317 322 
451 317 316 321 
452 82 39 312 
453 317 314 322 
454 38 82 319 
455 77 315 318 
456 324 321 325 
457 80 37 313 
458 311 320 321 
459 321 316 325 
460 312 318 322 
461 82 312 319 
462 35 311 324 
463 320 317 321 
464 319 312 322 
465 79 35 324 
466 314 319 322 
467 80 313 323 
468 36 80 323 
469 34 79 325 
470 79 324 325 
471 311 321 324 
472 35 36 311 
2 1000 2 1488
473 720 842 536 
474 524 790 628 
475 13 471 12 
476 363 835 613 
477 628 949 524 
478 703 795 785 
479 333 752 35 
480 5 804 353 
481 451 711 72 
482 613 712 363 
483 29 338 28 
484 718 842 720 
485 847 906 657 
486 624 774 723 
487 668 829 490 
488 695 747 582 
489 353 915 785 
490 612 847 657 
491 49 804 5 
492 734 841 615 
493 762 902 429 
494 523 787 664 
495 691 933 498 
496 350 809 452 
497 471 572 12 
498 25 643 31 
499 714 751 625 
500 843 917 750 
501 601 773 722 
502 787 791 664 
503 630 854 820 
504 804 915 353 
505 565 841 734 
506 437 671 77 
507 498 716 691 
508 823 894 611 
509 597 857 572 
510 539 650 508 
511 490 829 609 
512 598 649 516 
513 588 907 630 
514 439 919 11 
515 1 328 9 
516 820 854 161 
517 336 638 20 
518 630 693 589 
519 666 809 350 
520 360 577 561 
521 336 763 632 
522 359 684 682 
523 538 831 709 
524 709 907 538 
525 331 826 721 
526 360 561 14 
527 77 671 32 
528 74 453 25 
529 584 878 559 
530 559 878 636 
531 785 795 379 
532 373 797 674 
533 336 808 638 
534 727 902 762 
535 672 673 519 
536 634 747 695 
537 750 921 843 
538 674 797 603 
539 855 911 633 
540 850 928 653 
541 153 850 669 
542 721 826 605 
543 587 892 715 
544 372 747 634 
545 632 808 336 
546 76 646 335 
547 652 759 345 
548 471 597 572 
549 630 907 854 
550 493 894 823 
551 576 850 653 
552 831 884 710 
553 715 866 587 
554 609 855 633 
555 647 895 440 
556 610 969 699 
557 11 919 53 
558 359 803 684 
559 344 916 93 
560 654 661 552 
561 723 774 569 
562 670 972 32 
563 630 820 693 
564 709 831 710 
565 688 824 502 
566 722 888 601 
567 582 904 695 
568 360 751 714 
569 437 812 695 
570 53 650 10 
571 552 662 551 
572 333 922 752 
573 775 916 344 
574 695 812 620 
575 826 899 605 
576 103 743 104 
577 669 850 576 
578 504 938 884 
579 389 653 487 
580 699 969 687 
581 673 888 519 
582 605 899 738 
583 572 857 821 
584 798 834 567 
585 499 827 663 
586 524 949 677 
587 770 925 728 
588 552 681 654 
589 32 671 670 
590 729 838 342 
591 45 895 2 
592 416 828 645 
593 71 491 22 
594 662 971 551 
595 166 827 499 
596 346 860 677 
597 577 805 561 
598 35 752 458 
599 749 805 577 
600 634 943 372 
601 625 930 714 
602 330 813 651 
603 73 666 350 
604 859 979 602 
605 558 699 698 
606 645 891 598 
607 169 927 636 
608 30 380 29 
609 557 681 547 
610 692 933 691 
611 586 865 837 
612 340 699 687 
613 573 770 728 
614 621 696 351 
615 28 646 76 
616 624 951 774 
617 694 868 631 
618 440 648 647 
619 619 736 735 
620 636 878 169 
621 491 680 679 
622 566 903 808 
623 623 832 821 
624 868 928 631 
625 740 780 386 
626 672 814 574 
627 828 891 645 
628 821 832 572 
629 743 931 104 
630 645 937 416 
631 729 876 838 
632 612 837 676 
633 818 845 529 
634 491 867 680 
635 649 811 516 
636 735 957 619 
637 722 773 358 
638 154 768 155 
639 621 870 696 
640 813 861 535 
641 654 681 557 
642 730 917 843 
643 727 762 726 
644 345 953 652 
645 8 862 51 
646 675 792 500 
647 75 685 26 
648 539 822 650 
649 778 884 627 
650 437 904 671 
651 553 819 659 
652 730 843 732 
653 38 356 81 
654 650 919 508 
655 659 962 553 
656 679 762 491 
657 871 893 660 
658 491 961 22 
659 651 844 330 
660 598 964 649 
661 661 662 552 
662 24 666 73 
663 808 903 638 
664 157 747 372 
665 676 847 612 
666 672 912 814 
667 144 686 373 
668 124 705 367 
669 785 915 703 
670 837 865 676 
671 123 705 124 
672 453 454 25 
673 502 909 688 
674 669 950 153 
675 547 681 546 
676 772 875 642 
677 86 858 685 
678 646 791 787 
679 404 719 421 
680 540 908 744 
681 744 968 540 
682 628 938 504 
683 146 674 384 
684 19 567 66 
685 63 327 17 
686 54 860 346 
687 362 791 348 
688 372 692 690 
689 89 715 352 
690 894 905 611 
691 885 970 665 
692 740 965 780 
693 746 749 577 
694 327 792 675 
695 452 809 498 
696 884 938 627 
697 154 950 768 
698 340 687 141 
699 734 797 373 
700 574 862 8 
701 664 970 523 
702 646 787 335 
703 686 734 373 
704 53 919 650 
705 63 792 327 
706 36 929 333 
707 481 749 746 
708 713 788 779 
709 16 326 61 
710 151 694 631 
711 710 884 778 
712 718 720 719 
713 688 945 824 
714 615 797 734 
715 697 698 340 
716 388 893 871 
717 708 710 365 
718 34 678 78 
719 663 778 518 
720 3 440 45 
721 372 690 158 
722 663 827 778 
723 21 351 69 
724 759 968 345 
725 626 861 813 
726 398 706 430 
727 406 719 404 
728 718 896 842 
729 779 788 423 
730 3 522 440 
731 54 346 11 
732 555 641 564 
733 765 862 814 
734 343 911 855 
735 518 778 627 
736 858 900 26 
737 140 697 340 
738 814 862 574 
739 707 783 468 
740 348 791 646 
741 719 720 421 
742 739 818 635 
743 549 552 551 
744 665 936 885 
745 705 848 367 
746 164 708 365 
747 700 702 371 
748 690 691 385 
749 707 910 783 
750 920 923 341 
751 122 700 371 
752 519 912 672 
753 435 896 718 
754 711 867 72 
755 500 906 847 
756 619 957 618 
757 607 655 654 
758 120 707 468 
759 745 845 818 
760 677 949 346 
761 361 686 143 
762 658 732 731 
763 698 699 340 
764 376 733 562 
765 373 674 145 
766 327 447 17 
767 400 706 398 
768 641 642 564 
769 415 758 713 
770 717 719 406 
771 371 705 123 
772 78 381 33 
773 88 715 89 
774 538 907 588 
775 1 592 328 
776 880 979 859 
777 545 546 544 
778 142 687 361 
779 607 696 656 
780 606 607 557 
781 468 701 700 
782 151 631 152 
783 144 373 145 
784 346 439 11 
785 490 886 668 
786 724 763 336 
787 726 762 679 
788 449 934 906 
789 690 692 691 
790 655 661 654 
791 366 709 708 
792 709 710 708 
793 383 733 376 
794 567 913 798 
795 421 586 403 
796 543 544 542 
797 639 807 728 
798 155 582 156 
799 691 693 385 
800 142 361 143 
801 78 678 381 
802 159 690 385 
803 543 545 544 
804 607 656 655 
805 607 654 557 
806 783 910 683 
807 546 681 549 
808 89 352 90 
809 363 712 115 
810 146 384 147 
811 458 727 726 
812 98 736 330 
813 519 722 137 
814 440 895 45 
815 859 900 858 
816 18 377 355 
817 465 543 542 
818 34 679 678 
819 545 547 546 
820 68 724 336 
821 635 977 739 
822 30 644 380 
823 691 716 693 
824 757 771 395 
825 166 499 167 
826 834 945 567 
827 140 340 141 
828 713 758 531 
829 705 976 848 
830 573 694 150 
831 546 549 548 
832 462 664 426 
833 404 421 403 
834 157 372 158 
835 556 557 547 
836 133 801 765 
837 446 777 356 
838 360 714 577 
839 159 385 160 
840 408 717 406 
841 332 914 803 
842 170 879 40 
843 702 704 371 
844 164 365 165 
845 81 777 37 
846 481 746 483 
847 51 599 7 
848 658 731 517 
849 358 697 139 
850 468 700 121 
851 377 378 355 
852 114 725 363 
853 359 707 119 
854 606 696 607 
855 586 837 706 
856 338 348 28 
857 18 355 64 
858 556 606 557 
859 143 686 144 
860 567 688 66 
861 517 731 397 
862 528 764 754 
863 549 551 550 
864 631 928 850 
865 366 708 163 
866 21 621 351 
867 88 866 715 
868 420 436 418 
869 677 860 623 
870 701 702 700 
871 580 771 757 
872 38 389 356 
873 122 371 123 
874 483 520 489 
875 551 555 554 
876 778 827 365 
877 701 703 702 
878 150 694 151 
879 510 571 446 
880 500 847 675 
881 118 359 119 
882 718 719 717 
883 389 800 653 
884 145 674 146 
885 426 791 362 
886 435 718 717 
887 549 681 552 
888 430 612 517 
889 120 468 121 
890 393 733 383 
891 66 688 65 
892 35 458 79 
893 141 687 142 
894 693 883 589 
895 695 904 437 
896 754 764 444 
897 703 915 830 
898 500 792 355 
899 92 344 93 
900 116 712 332 
901 116 332 117 
902 413 435 411 
903 467 511 424 
904 138 722 358 
905 573 728 694 
906 430 517 397 
907 158 690 159 
908 732 843 733 
909 732 939 730 
910 612 657 517 
911 898 963 942 
912 731 732 393 
913 906 934 657 
914 139 697 140 
915 701 795 703 
916 403 706 400 
917 553 556 547 
918 732 733 393 
919 377 448 378 
920 155 768 582 
921 138 358 139 
922 131 737 640 
923 465 542 541 
924 163 708 164 
925 653 928 487 
926 343 735 96 
927 411 717 408 
928 378 500 355 
929 555 564 563 
930 121 700 122 
931 58 360 14 
932 869 870 727 
933 162 366 163 
934 95 343 96 
935 551 971 555 
936 114 363 115 
937 119 707 120 
938 398 430 397 
939 397 731 394 
940 546 548 544 
941 331 725 113 
942 693 820 385 
943 659 819 660 
944 735 736 97 
945 545 553 547 
946 656 752 655 
947 402 403 400 
948 20 638 67 
949 461 462 426 
950 469 628 504 
951 149 573 150 
952 6 424 49 
953 364 739 108 
954 136 519 137 
955 417 418 416 
956 40 879 83 
957 448 755 593 
958 533 713 531 
959 346 469 439 
960 538 539 508 
961 710 778 365 
962 414 416 413 
963 520 568 489 
964 483 746 520 
965 97 736 98 
966 888 890 601 
967 508 919 439 
968 435 717 411 
969 819 871 660 
970 16 514 326 
971 394 731 393 
972 714 930 520 
973 663 963 499 
974 875 956 642 
975 412 413 411 
976 741 745 364 
977 376 562 374 
978 388 465 464 
979 462 665 664 
980 98 330 99 
981 570 622 496 
982 448 593 449 
983 396 397 394 
984 167 796 168 
985 112 331 113 
986 109 329 110 
987 386 737 130 
988 137 722 138 
989 109 739 329 
990 744 882 345 
991 113 725 114 
992 392 393 383 
993 131 640 132 
994 115 712 116 
995 586 706 403 
996 742 745 741 
997 470 508 439 
998 657 658 517 
999 96 735 97 
1000 870 902 727 
1001 129 386 130 
1002 765 801 599 
1003 107 741 364 
1004 410 411 408 
1005 758 761 525 
1006 520 746 714 
1007 583 740 128 
1008 31 644 30 
1009 419 420 418 
1010 699 873 610 
1011 118 803 359 
1012 532 533 531 
1013 506 742 741 
1014 431 432 420 
1015 516 811 326 
1016 129 740 386 
1017 130 737 131 
1018 589 822 539 
1019 593 729 594 
1020 6 466 424 
1021 448 449 378 
1022 107 364 108 
1023 553 632 556 
1024 530 531 527 
1025 602 900 859 
1026 713 779 415 
1027 108 739 109 
1028 582 747 156 
1029 743 744 742 
1030 506 743 742 
1031 534 535 533 
1032 506 741 106 
1033 124 367 125 
1034 494 668 432 
1035 392 394 393 
1036 106 741 107 
1037 332 803 117 
1038 415 761 758 
1039 348 646 28 
1040 558 873 699 
1041 402 404 403 
1042 101 345 102 
1043 105 506 106 
1044 128 740 129 
1045 414 417 416 
1046 830 915 511 
1047 127 583 128 
1048 156 747 157 
1049 533 788 713 
1050 412 414 413 
1051 542 575 541 
1052 458 726 79 
1053 410 412 411 
1054 396 398 397 
1055 553 962 632 
1056 530 532 531 
1057 384 770 147 
1058 531 758 527 
1059 923 929 341 
1060 465 541 464 
1061 420 816 436 
1062 532 534 533 
1063 697 877 698 
1064 593 594 449 
1065 153 950 154 
1066 477 749 481 
1067 562 760 374 
1068 425 426 362 
1069 68 336 20 
1070 470 538 508 
1071 76 335 27 
1072 466 467 424 
1073 438 528 505 
1074 476 478 474 
1075 85 858 86 
1076 417 419 418 
1077 549 550 548 
1078 428 523 503 
1079 463 673 672 
1080 34 726 679 
1081 528 721 605 
1082 483 489 484 
1083 466 611 521 
1084 485 525 422 
1085 450 580 578 
1086 152 850 153 
1087 534 651 535 
1088 466 521 467 
1089 475 749 477 
1090 481 483 482 
1091 580 629 613 
1092 69 724 68 
1093 526 527 525 
1094 47 342 46 
1095 438 764 528 
1096 529 530 527 
1097 525 761 422 
1098 477 481 480 
1099 521 585 467 
1100 7 493 50 
1101 395 396 394 
1102 588 589 539 
1103 469 504 470 
1104 495 626 619 
1105 729 730 594 
1106 59 751 58 
1107 704 705 371 
1108 407 408 406 
1109 530 540 532 
1110 431 494 432 
1111 419 431 420 
1112 512 794 683 
1113 459 649 616 
1114 485 526 525 
1115 424 804 49 
1116 364 818 739 
1117 551 554 550 
1118 409 410 408 
1119 521 596 585 
1120 526 635 529 
1121 405 406 404 
1122 526 529 527 
1123 401 402 400 
1124 591 598 516 
1125 640 894 874 
1126 528 605 505 
1127 542 789 575 
1128 147 770 148 
1129 528 754 721 
1130 10 357 24 
1131 534 652 651 
1132 468 783 701 
1133 64 792 63 
1134 388 464 387 
1135 391 392 383 
1136 605 738 505 
1137 334 751 59 
1138 412 415 414 
1139 52 463 8 
1140 634 695 620 
1141 512 683 682 
1142 79 726 34 
1143 625 751 334 
1144 399 400 398 
1145 595 620 570 
1146 548 789 544 
1147 877 973 698 
1148 15 334 59 
1149 438 505 485 
1150 407 409 408 
1151 409 422 410 
1152 555 563 554 
1153 405 407 406 
1154 4 750 47 
1155 580 757 629 
1156 661 793 662 
1157 438 485 422 
1158 328 388 387 
1159 409 438 422 
1160 392 395 394 
1161 527 758 525 
1162 133 765 134 
1163 405 444 407 
1164 469 470 439 
1165 580 613 578 
1166 623 860 832 
1167 472 597 471 
1168 14 561 57 
1169 632 763 556 
1170 485 753 526 
1171 495 782 626 
1172 460 625 334 
1173 396 399 398 
1174 337 471 13 
1175 418 828 416 
1176 489 490 484 
1177 402 405 404 
1178 57 756 56 
1179 450 771 580 
1180 532 759 534 
1181 48 760 4 
1182 696 870 656 
1183 515 591 516 
1184 337 473 472 
1185 505 753 485 
1186 478 776 474 
1187 495 618 494 
1188 382 383 376 
1189 738 753 505 
1190 56 337 13 
1191 337 472 471 
1192 417 423 419 
1193 483 484 482 
1194 492 569 479 
1195 720 856 421 
1196 401 769 402 
1197 498 809 716 
1198 526 753 635 
1199 540 759 532 
1200 388 871 465 
1201 495 619 618 
1202 545 819 553 
1203 15 459 334 
1204 431 495 494 
1205 476 774 478 
1206 538 588 539 
1207 752 922 655 
1208 399 450 401 
1209 524 677 623 
1210 399 401 400 
1211 591 645 598 
1212 58 751 360 
1213 410 761 412 
1214 422 761 410 
1215 125 799 126 
1216 481 482 480 
1217 541 601 464 
1218 556 763 606 
1219 635 818 529 
1220 534 759 652 
1221 685 858 26 
1222 514 536 515 
1223 47 750 342 
1224 27 590 75 
1225 510 615 571 
1226 803 914 684 
1227 675 676 455 
1228 395 771 396 
1229 578 579 537 
1230 450 578 537 
1231 3 838 522 
1232 521 780 596 
1233 698 973 558 
1234 589 883 822 
1235 571 777 446 
1236 5 339 48 
1237 716 809 667 
1238 375 376 374 
1239 463 574 8 
1240 450 537 401 
1241 497 570 496 
1242 414 779 417 
1243 412 761 415 
1244 603 947 674 
1245 638 903 863 
1246 22 429 70 
1247 668 786 432 
1248 496 711 451 
1249 611 780 521 
1250 714 746 577 
1251 425 461 426 
1252 402 769 405 
1253 377 502 448 
1254 132 801 133 
1255 622 711 496 
1256 160 820 161 
1257 459 616 460 
1258 112 826 331 
1259 415 779 414 
1260 874 894 493 
1261 503 748 624 
1262 165 827 166 
1263 354 374 339 
1264 396 771 399 
1265 572 832 12 
1266 463 672 574 
1267 382 391 383 
1268 490 609 507 
1269 327 675 455 
1270 502 755 448 
1271 430 837 612 
1272 475 805 749 
1273 523 748 503 
1274 790 938 628 
1275 515 516 326 
1276 417 779 423 
1277 473 474 472 
1278 564 565 563 
1279 1 941 592 
1280 633 775 507 
1281 537 769 401 
1282 73 350 23 
1283 544 789 542 
1284 407 764 409 
1285 569 774 479 
1286 472 776 597 
1287 459 460 334 
1288 405 769 444 
1289 80 341 36 
1290 535 788 533 
1291 382 512 391 
1292 715 864 352 
1293 786 816 432 
1294 725 926 363 
1295 490 507 484 
1296 355 792 64 
1297 616 617 460 
1298 409 764 438 
1299 444 764 407 
1300 349 433 370 
1301 682 684 513 
1302 512 513 391 
1303 330 897 813 
1304 609 633 507 
1305 558 789 548 
1306 357 666 24 
1307 433 614 518 
1308 338 349 348 
1309 864 887 352 
1310 326 811 61 
1311 512 682 513 
1312 473 475 474 
1313 575 773 541 
1314 579 825 806 
1315 942 963 614 
1316 345 968 744 
1317 455 604 447 
1318 349 370 362 
1319 375 382 376 
1320 674 947 384 
1321 673 890 888 
1322 765 814 134 
1323 29 766 338 
1324 330 844 99 
1325 524 623 461 
1326 739 977 329 
1327 477 480 479 
1328 688 909 65 
1329 492 689 608 
1330 475 477 476 
1331 561 756 57 
1332 682 910 359 
1333 492 608 569 
1334 399 771 450 
1335 503 624 581 
1336 816 935 436 
1337 499 796 167 
1338 519 888 722 
1339 484 781 482 
1340 349 362 348 
1341 652 844 651 
1342 638 863 67 
1343 853 960 866 
1344 664 791 426 
1345 425 524 461 
1346 2 347 44 
1347 588 630 589 
1348 679 680 678 
1349 56 756 337 
1350 474 776 472 
1351 431 782 495 
1352 595 634 620 
1353 659 660 457 
1354 335 427 27 
1355 419 782 431 
1356 452 497 496 
1357 327 455 447 
1358 477 479 476 
1359 475 476 474 
1360 356 777 81 
1361 354 375 374 
1362 428 787 523 
1363 5 353 339 
1364 445 446 356 
1365 423 782 419 
1366 161 854 162 
1367 480 492 479 
1368 452 496 451 
1369 370 425 362 
1370 33 437 77 
1371 738 899 329 
1372 361 954 686 
1373 561 805 756 
1374 898 942 767 
1375 50 823 6 
1376 354 379 375 
1377 452 498 497 
1378 541 773 601 
1379 19 913 567 
1380 90 851 91 
1381 395 802 757 
1382 37 772 80 
1383 509 510 446 
1384 32 972 39 
1385 428 503 488 
1386 497 595 570 
1387 933 943 595 
1388 392 802 395 
1389 566 659 457 
1390 17 952 62 
1391 671 768 670 
1392 775 781 507 
1393 6 823 466 
1394 339 760 48 
1395 550 558 548 
1396 535 861 788 
1397 442 600 456 
1398 367 799 125 
1399 71 867 491 
1400 824 945 648 
1401 665 970 664 
1402 337 756 473 
1403 381 812 33 
1404 518 627 434 
1405 94 916 911 
1406 433 434 370 
1407 353 354 339 
1408 136 912 519 
1409 9 836 52 
1410 335 428 427 
1411 467 948 511 
1412 482 784 480 
1413 536 842 515 
1414 507 781 484 
1415 650 822 357 
1416 479 774 476 
1417 433 518 434 
1418 637 927 796 
1419 703 830 702 
1420 454 643 25 
1421 640 801 132 
1422 447 952 17 
1423 579 806 537 
1424 335 787 428 
1425 671 904 768 
1426 806 825 754 
1427 796 927 168 
1428 624 723 581 
1429 689 918 344 
1430 91 978 92 
1431 46 838 3 
1432 329 899 110 
1433 756 805 473 
1434 374 760 339 
1435 492 784 689 
1436 463 836 673 
1437 2 368 347 
1438 346 949 469 
1439 353 785 354 
1440 511 804 424 
1441 529 845 530 
1442 513 802 391 
1443 620 849 570 
1444 357 822 667 
1445 563 610 554 
1446 445 509 446 
1447 480 784 492 
1448 12 832 55 
1449 94 911 95 
1450 513 833 802 
1451 783 795 701 
1452 10 650 357 
1453 503 581 488 
1454 781 784 482 
1455 680 889 678 
1456 614 663 518 
1457 444 806 754 
1458 168 927 169 
1459 370 790 425 
1460 391 802 392 
1461 509 639 603 
1462 338 839 349 
1463 117 803 118 
1464 382 794 512 
1465 351 724 69 
1466 425 790 524 
1467 385 820 160 
1468 434 790 370 
1469 618 829 494 
1470 706 837 430 
1471 852 965 583 
1472 43 924 149 
1473 148 924 43 
1474 345 882 102 
1475 456 566 457 
1476 618 855 829 
1477 504 884 831 
1478 723 887 864 
1479 433 839 614 
1480 564 841 565 
1481 354 785 379 
1482 368 441 369 
1483 812 849 620 
1484 375 794 382 
1485 41 931 105 
1486 93 916 94 
1487 104 931 41 
1488 613 835 578 
1489 428 488 427 
1490 432 816 420 
1491 441 442 369 
1492 101 953 345 
1493 799 852 583 
1494 509 603 510 
1495 387 836 9 
1496 506 931 743 
1497 350 451 23 
1498 522 876 755 
1499 357 667 666 
1500 560 881 644 
1501 80 772 341 
1502 60 946 15 
1503 774 951 478 
1504 652 953 844 
1505 368 369 347 
1506 769 806 444 
1507 379 794 375 
1508 590 685 75 
1509 651 813 535 
1510 745 818 364 
1511 126 932 42 
1512 350 452 451 
1513 42 932 127 
1514 352 887 851 
1515 766 839 338 
1516 514 815 536 
1517 473 805 475 
1518 134 814 135 
1519 537 806 769 
1520 74 900 453 
1521 583 965 740 
1522 948 976 704 
1523 863 903 600 
1524 802 833 757 
1525 543 819 545 
1526 436 828 418 
1527 678 889 381 
1528 843 921 562 
1529 365 827 165 
1530 872 978 91 
1531 61 811 60 
1532 733 843 562 
1533 514 515 326 
1534 488 587 427 
1535 599 874 7 
1536 667 809 666 
1537 470 831 538 
1538 461 821 462 
1539 660 893 817 
1540 821 857 462 
1541 458 869 727 
1542 793 922 333 
1543 763 901 606 
1544 367 852 799 
1545 807 868 728 
1546 449 906 378 
1547 328 387 9 
1548 442 456 443 
1549 65 909 18 
1550 344 978 689 
1551 736 897 330 
1552 510 797 615 
1553 39 390 82 
1554 372 943 692 
1555 641 923 920 
1556 617 935 816 
1557 617 846 460 
1558 511 948 830 
1559 363 926 835 
1560 631 850 152 
1561 623 821 461 
1562 585 976 948 
1563 822 883 667 
1564 702 830 704 
1565 604 815 447 
1566 111 826 112 
1567 441 798 442 
1568 466 823 611 
1569 601 890 464 
1570 755 876 593 
1571 543 871 819 
1572 442 443 369 
1573 692 943 933 
1574 493 823 50 
1575 501 670 669 
1576 786 974 816 
1577 696 901 351 
1578 389 487 445 
1579 456 457 443 
1580 724 901 763 
1581 755 981 522 
1582 587 980 427 
1583 368 647 441 
1584 667 883 716 
1585 389 445 356 
1586 748 970 885 
1587 494 829 668 
1588 51 862 599 
1589 455 865 604 
1590 329 977 738 
1591 648 834 647 
1592 55 860 54 
1593 576 653 390 
1594 82 800 38 
1595 853 866 87 
1596 768 904 582 
1597 7 874 493 
1598 603 797 510 
1599 565 810 563 
1600 416 937 413 
1601 453 900 602 
1602 421 856 586 
1603 352 851 90 
1604 849 889 622 
1605 442 798 600 
1606 780 965 596 
1607 754 825 721 
1608 18 909 377 
1609 685 853 86 
1610 429 961 762 
1611 15 946 459 
1612 504 831 470 
1613 21 967 621 
1614 716 883 693 
1615 867 959 680 
1616 33 812 437 
1617 333 929 793 
1618 570 849 622 
1619 502 824 755 
1620 563 810 610 
1621 511 915 804 
1622 660 817 457 
1623 578 835 579 
1624 456 903 566 
1625 854 907 366 
1626 810 954 361 
1627 814 912 135 
1628 593 876 729 
1629 851 872 91 
1630 445 807 509 
1631 99 844 100 
1632 684 833 513 
1633 540 968 759 
1634 509 807 639 
1635 675 847 676 
1636 342 838 46 
1637 381 889 849 
1638 103 882 743 
1639 642 841 564 
1640 52 836 463 
1641 658 939 732 
1642 568 886 489 
1643 788 861 423 
1644 487 928 868 
1645 162 854 366 
1646 786 886 568 
1647 530 845 540 
1648 757 833 629 
1649 721 966 331 
1650 738 977 753 
1651 848 852 367 
1652 515 842 591 
1653 111 899 826 
1654 734 954 565 
1655 728 868 694 
1656 550 873 558 
1657 38 800 389 
1658 84 880 859 
1659 457 817 443 
1660 596 848 585 
1661 423 861 782 
1662 742 908 745 
1663 641 920 642 
1664 796 975 637 
1665 462 857 665 
1666 720 940 856 
1667 575 973 877 
1668 460 846 625 
1669 70 967 21 
1670 358 877 697 
1671 626 897 619 
1672 836 890 673 
1673 380 767 766 
1674 489 886 490 
1675 72 867 71 
1676 604 865 856 
1677 610 873 554 
1678 349 839 433 
1679 687 969 361 
1680 487 807 445 
1681 465 871 543 
1682 661 922 793 
1683 39 501 390 
1684 752 869 458 
1685 567 945 688 
1686 555 971 641 
1687 328 893 388 
1688 744 908 742 
1689 619 897 736 
1690 640 874 801 
1691 369 840 347 
1692 4 921 750 
1693 67 863 19 
1694 84 859 85 
1695 16 958 514 
1696 782 861 626 
1697 359 910 707 
1698 536 940 720 
1699 642 920 772 
1700 560 643 454 
1701 87 866 88 
1702 558 973 789 
1703 83 880 84 
1704 501 972 670 
1705 584 879 878 
1706 760 921 4 
1707 655 922 661 
1708 728 925 639 
1709 599 862 765 
1710 683 955 783 
1711 569 887 723 
1712 676 865 455 
1713 169 878 170 
1714 637 881 560 
1715 501 669 576 
1716 737 894 640 
1717 636 637 560 
1718 656 869 752 
1719 816 974 617 
1720 497 933 595 
1721 844 953 100 
1722 434 938 790 
1723 911 916 633 
1724 613 944 712 
1725 775 918 781 
1726 795 955 379 
1727 102 882 103 
1728 960 980 587 
1729 366 907 709 
1730 501 576 390 
1731 842 896 591 
1732 737 905 894 
1733 743 882 744 
1734 559 560 454 
1735 723 864 581 
1736 413 937 435 
1737 590 853 685 
1738 342 917 729 
1739 777 875 37 
1740 344 918 775 
1741 643 644 31 
1742 562 921 760 
1743 851 887 608 
1744 689 872 608 
1745 813 897 626 
1746 783 955 795 
1747 554 873 550 
1748 86 853 87 
1749 615 956 571 
1750 440 981 648 
1751 380 766 29 
1752 575 877 773 
1753 680 959 889 
1754 770 924 148 
1755 824 981 755 
1756 584 880 879 
1757 95 911 343 
1758 386 905 737 
1759 378 906 500 
1760 712 944 332 
1761 488 892 587 
1762 478 885 776 
1763 110 899 111 
1764 653 800 390 
1765 332 944 914 
1766 343 957 735 
1767 384 925 770 
1768 464 890 387 
1769 686 954 734 
1770 351 901 724 
1771 381 849 812 
1772 390 800 82 
1773 729 917 730 
1774 520 930 568 
1775 606 901 696 
1776 768 950 670 
1777 37 875 772 
1778 799 932 126 
1779 26 900 74 
1780 387 890 836 
1781 441 834 798 
1782 149 924 573 
1783 591 896 645 
1784 784 918 689 
1785 568 974 786 
1786 817 840 443 
1787 657 934 658 
1788 379 955 794 
1789 2 895 368 
1790 715 892 864 
1791 92 978 344 
1792 135 912 136 
1793 443 840 369 
1794 486 559 454 
1795 840 941 347 
1796 829 855 609 
1797 668 886 786 
1798 608 887 569 
1799 469 949 628 
1800 815 958 952 
1801 801 874 599 
1802 711 959 867 
1803 794 955 683 
1804 453 486 454 
1805 647 834 441 
1806 581 892 488 
1807 773 877 358 
1808 514 958 815 
1809 331 966 725 
1810 453 602 486 
1811 105 931 506 
1812 127 932 583 
1813 864 892 581 
1814 808 962 566 
1815 683 910 682 
1816 611 905 780 
1817 789 973 575 
1818 596 852 848 
1819 644 881 380 
1820 347 941 44 
1821 745 908 845 
1822 776 936 597 
1823 573 924 770 
1824 592 893 328 
1825 825 966 721 
1826 487 868 807 
1827 815 940 536 
1828 579 926 825 
1829 632 962 808 
1830 571 956 875 
1831 648 945 834 
1832 618 957 855 
1833 780 905 386 
1834 935 964 891 
1835 100 953 101 
1836 585 948 467 
1837 594 934 449 
1838 377 909 502 
1839 863 913 19 
1840 793 929 923 
1841 459 946 649 
1842 856 865 586 
1843 633 916 775 
1844 571 875 777 
1845 648 981 824 
1846 608 872 851 
1847 798 913 600 
1848 499 898 796 
1849 914 944 629 
1850 750 917 342 
1851 925 947 639 
1852 380 881 767 
1853 656 870 869 
1854 629 944 613 
1855 604 940 815 
1856 616 935 617 
1857 594 939 934 
1858 583 932 799 
1859 839 942 614 
1860 730 939 594 
1861 600 903 456 
1862 627 938 434 
1863 748 951 624 
1864 341 929 36 
1865 856 940 604 
1866 44 941 1 
1867 486 584 559 
1868 649 946 811 
1869 436 891 828 
1870 600 913 863 
1871 522 981 440 
1872 559 636 560 
1873 838 876 522 
1874 616 964 935 
1875 832 860 55 
1876 830 948 704 
1877 934 939 658 
1878 592 840 817 
1879 498 933 497 
1880 781 918 784 
1881 368 895 647 
1882 704 976 705 
1883 523 970 748 
1884 566 962 659 
1885 27 980 590 
1886 793 923 662 
1887 902 967 429 
1888 817 893 592 
1889 649 964 616 
1890 753 977 635 
1891 878 879 170 
1892 595 943 634 
1893 622 959 711 
1894 772 920 341 
1895 62 958 16 
1896 584 979 880 
1897 384 947 925 
1898 815 952 447 
1899 762 961 491 
1900 811 946 60 
1901 846 974 568 
1902 429 967 70 
1903 639 947 603 
1904 885 936 776 
1905 614 963 663 
1906 845 908 540 
1907 636 927 637 
1908 617 974 846 
1909 22 961 429 
1910 835 926 579 
1911 879 880 83 
1912 597 936 857 
1913 621 902 870 
1914 833 914 629 
1915 590 960 853 
1916 436 935 891 
1917 841 956 615 
1918 684 914 833 
1919 565 954 810 
1920 926 966 825 
1921 866 960 587 
1922 846 930 625 
1923 435 937 896 
1924 810 969 610 
1925 670 950 669 
1926 848 976 585 
1927 560 644 643 
1928 766 942 839 
1929 855 957 343 
1930 891 964 598 
1931 427 980 27 
1932 642 956 841 
1933 857 936 665 
1934 568 930 846 
1935 689 978 872 
1936 889 959 622 
1937 361 969 810 
1938 885 951 748 
1939 85 859 858 
1940 767 942 766 
1941 39 972 501 
1942 898 975 796 
1943 896 937 645 
1944 596 965 852 
1945 590 980 960 
1946 621 967 902 
1947 478 951 885 
1948 767 975 898 
1949 486 979 584 
1950 592 941 840 
1951 602 979 486 
1952 725 966 926 
1953 641 971 923 
1954 923 971 662 
1955 499 963 898 
1956 952 958 62 
1957 881 975 767 
1958 637 975 881 
1959 23 451 72 
1960 36 333 35 
$EndElements
