$MeshFormat
4.1 0 8
$EndMeshFormat
$PhysicalNames
5
2 2 "inlet"
2 3 "outlet"
2 4 "UpFace"
2 8 "DownFace"
3 1 "CuboExterno"
$EndPhysicalNames
$Entities
8 12 6 1
1 0 0 0 0 
2 616 0 0 0 
3 616 676 0 0 
4 0 676 0 0 
5 0 0 910 0 
6 616 0 910 0 
7 616 676 910 0 
8 0 676 910 0 
1 0 0 0 616 0 0 0 2 1 -2 
2 616 0 0 616 676 0 0 2 2 -3 
3 0 676 0 616 676 0 0 2 3 -4 
4 0 0 0 0 676 0 0 2 4 -1 
5 0 0 910 616 0 910 0 2 5 -6 
6 616 0 910 616 676 910 0 2 6 -7 
7 0 676 910 616 676 910 0 2 7 -8 
8 0 0 910 0 676 910 0 2 8 -5 
9 0 0 0 0 0 910 0 2 1 -5 
10 616 0 0 616 0 910 0 2 2 -6 
11 616 676 0 616 676 910 0 2 3 -7 
12 0 676 0 0 676 910 0 2 4 -8 
14 0 0 0 616 676 0 1 4 4 1 2 3 4 
16 0 0 910 616 676 910 1 8 4 5 6 7 8 
18 0 0 0 616 0 910 1 8 4 1 10 -5 -9 
20 616 0 0 616 676 910 1 2 4 2 11 -6 -10 
22 0 676 0 616 676 910 1 4 4 3 12 -7 -11 
24 0 0 0 0 676 910 1 3 4 4 9 -8 -12 
31 0 0 0 616 676 910 1 1 6 -14 -16 -18 -20 -22 -24 
$EndEntities
$Nodes
27 97 1 97
0 1 0 1
1
0 0 0
0 2 0 1
2
616 0 0
0 3 0 1
3
616 676 0
0 4 0 1
4
0 676 0
0 5 0 1
5
0 0 910
0 6 0 1
6
616 0 910
0 7 0 1
7
616 676 910
0 8 0 1
8
0 676 910
1 1 0 2
9
10
205.3333333331514 0 0
410.6666666666998 0 0
1 2 0 2
11
12
616 225.3333333329215 0
616 450.6666666663959 0
1 3 0 2
13
14
410.6666666672957 676 0
205.333333333644 676 0
1 4 0 2
15
16
0 450.6666666666667 0
0 225.3333333333334 0
1 5 0 2
17
18
205.3333333331514 0 910
410.6666666666998 0 910
1 6 0 2
19
20
616 225.3333333329215 910
616 450.6666666663959 910
1 7 0 2
21
22
410.6666666672957 676 910
205.333333333644 676 910
1 8 0 2
23
24
0 450.6666666666667 910
0 225.3333333333334 910
1 9 0 3
25
26
27
0 0 227.4999999996215
0 0 454.9999999995673
0 0 682.4999999999673
1 10 0 3
28
29
30
616 0 227.4999999996215
616 0 454.9999999995673
616 0 682.4999999999673
1 11 0 3
31
32
33
616 676 227.4999999996215
616 676 454.9999999995673
616 676 682.4999999999673
1 12 0 3
34
35
36
0 676 227.4999999996215
0 676 454.9999999995673
0 676 682.4999999999673
2 14 0 8
37
38
39
40
41
42
43
44
307.9999999999256 177.8238829103116 0
308.0000000004699 498.1761170897331 0
440.9568007986261 337.9999999996587 0
175.0431992015131 338.0000000000001 0
146.4376784975875 523.4473225525753 0
469.5623215030007 523.4473225527784 0
469.562321502544 152.5526774472615 0
146.4376784972829 152.5526774472757 0
2 16 0 8
45
46
47
48
49
50
51
52
307.9999999999256 177.8238829103116 910
308.0000000004699 498.1761170897331 910
440.9568007986261 337.9999999996587 910
175.0431992015131 338.0000000000001 910
146.4376784975875 523.4473225525753 910
469.5623215030007 523.4473225527784 910
469.562321502544 152.5526774472615 910
146.4376784972829 152.5526774472757 910
2 18 0 10
53
54
55
56
57
58
59
60
61
62
307.9999999999256 0 177.8238829103116
315.7678350692311 0 738.671690792769
444.6112810227954 0 586.281847924335
213.5289296990204 0 559.4697938988168
426.9028497016938 0 355.4121352861724
176.4159298083447 0 327.0277296195415
470.0376642503599 0 152.8271167106707
145.9623357495559 0 152.8271167106335
470.0376642504511 0 757.1728832892765
146.9260196202806 0 760.1282969383104
2 20 0 11
63
64
65
66
67
68
69
70
71
72
73
616 337.9999999996587 195.1443909859763
616 326.6729597040861 713.4661608474782
616 494.5624460273843 568.7499999997673
616 498.2269671433579 346.7575802107522
616 290.3943035606592 463.3731826628747
616 161.5387908234268 300.9601664418468
616 157.8890514701633 617.5948788874899
616 511.4178993995165 165.1710012295092
616 511.4178993995884 744.8289987704494
616 145.1370006139823 145.1759828543828
616 134.5417331110498 774.5832675215762
2 22 0 10
74
75
76
77
78
79
80
81
82
83
308.0000000004699 675.9999999999999 177.8238829102669
300.2321649310502 675.9999999999999 738.6716907927481
171.3887189773423 675.9999999999999 586.2818479242754
402.4710703011034 675.9999999999999 559.4697938987999
189.0971502983728 675.9999999999999 355.4121352860479
439.5840701917965 675.9999999999999 327.027729619509
145.9623357498625 675.9999999999999 152.8271167107817
145.9623357497711 675.9999999999999 757.1728832891654
470.03766425067 675.9999999999999 152.8271167105463
469.0739803798898 675.9999999999999 760.1282969383029
2 24 0 11
84
85
86
87
88
89
90
91
92
93
94
0 338.0000000000001 195.1443909860935
0 349.3270402957323 713.4661608475811
0 181.437553972407 568.7499999997673
0 177.7730328564944 346.7575802107873
0 385.6056964391806 463.3731826630064
0 514.461209176452 300.9601664418896
0 518.1109485297659 617.5948788876129
0 164.5821006003091 165.1710012294089
0 164.5821006002374 744.8289987705497
0 530.862999385866 145.1759828543909
0 541.4582668890156 774.5832675218055
3 31 0 3
95
96
97
308.0000000000014 303.3430312922695 303.3430312922694
320.3081412790644 288.7381774244387 617.3155381809846
192.7486193721599 470.8974367291166 704.8467752240329
$EndNodes
$Elements
7 419 1 419
2 14 2 26
1 1 9 44 
2 16 1 44 
3 10 2 43 
4 2 11 43 
5 12 3 42 
6 3 13 42 
7 14 4 41 
8 4 15 41 
9 9 10 37 
10 9 37 44 
11 37 10 43 
12 11 12 39 
13 11 39 43 
14 39 12 42 
15 13 14 38 
16 13 38 42 
17 38 14 41 
18 15 16 40 
19 15 40 41 
20 40 16 44 
21 37 39 40 
22 39 37 43 
23 37 40 44 
24 39 38 40 
25 38 39 42 
26 40 38 41 
2 16 2 26
27 5 17 52 
28 24 5 52 
29 18 6 51 
30 6 19 51 
31 20 7 50 
32 7 21 50 
33 22 8 49 
34 8 23 49 
35 17 18 45 
36 17 45 52 
37 45 18 51 
38 19 20 47 
39 19 47 51 
40 47 20 50 
41 21 22 46 
42 21 46 50 
43 46 22 49 
44 23 24 48 
45 23 48 49 
46 48 24 52 
47 45 47 48 
48 47 45 51 
49 45 48 52 
50 47 46 48 
51 46 47 50 
52 48 46 49 
2 18 2 32
53 1 9 60 
54 25 1 60 
55 10 2 59 
56 2 28 59 
57 17 5 62 
58 5 27 62 
59 6 18 61 
60 30 6 61 
61 9 10 53 
62 9 53 60 
63 53 10 59 
64 18 17 54 
65 54 17 62 
66 18 54 61 
67 26 25 58 
68 58 25 60 
69 27 26 56 
70 56 26 58 
71 27 56 62 
72 28 29 57 
73 28 57 59 
74 29 30 55 
75 29 55 57 
76 55 30 61 
77 53 57 58 
78 57 53 59 
79 53 58 60 
80 55 54 56 
81 54 55 61 
82 56 54 62 
83 55 56 57 
84 57 56 58 
2 20 2 34
85 2 11 72 
86 28 2 72 
87 12 3 70 
88 3 31 70 
89 19 6 73 
90 6 30 73 
91 7 20 71 
92 33 7 71 
93 11 12 63 
94 11 63 72 
95 63 12 70 
96 20 19 64 
97 64 19 73 
98 20 64 71 
99 29 28 68 
100 68 28 72 
101 30 29 69 
102 67 29 68 
103 29 67 69 
104 30 69 73 
105 31 32 66 
106 31 66 70 
107 32 33 65 
108 32 65 66 
109 65 33 71 
110 63 66 67 
111 66 63 70 
112 63 67 68 
113 63 68 72 
114 65 64 67 
115 64 65 71 
116 67 64 69 
117 69 64 73 
118 66 65 67 
2 22 2 32
119 3 13 82 
120 31 3 82 
121 14 4 80 
122 4 34 80 
123 21 7 83 
124 7 33 83 
125 8 22 81 
126 36 8 81 
127 13 14 74 
128 13 74 82 
129 74 14 80 
130 22 21 75 
131 75 21 83 
132 22 75 81 
133 32 31 79 
134 79 31 82 
135 33 32 77 
136 77 32 79 
137 33 77 83 
138 34 35 78 
139 34 78 80 
140 35 36 76 
141 35 76 78 
142 76 36 81 
143 74 78 79 
144 78 74 80 
145 74 79 82 
146 76 75 77 
147 75 76 81 
148 77 75 83 
149 76 77 78 
150 78 77 79 
2 24 2 34
151 16 1 91 
152 1 25 91 
153 4 15 93 
154 34 4 93 
155 5 24 92 
156 27 5 92 
157 23 8 94 
158 8 36 94 
159 15 16 84 
160 15 84 93 
161 84 16 91 
162 24 23 85 
163 85 23 94 
164 24 85 92 
165 25 26 87 
166 25 87 91 
167 26 27 86 
168 26 86 87 
169 86 27 92 
170 35 34 89 
171 89 34 93 
172 36 35 90 
173 88 35 89 
174 35 88 90 
175 36 90 94 
176 84 87 88 
177 87 84 91 
178 84 88 89 
179 84 89 93 
180 86 85 88 
181 85 86 92 
182 88 85 90 
183 90 85 94 
184 87 86 88 
3 31 4 235
185 80 93 41 95 
186 50 83 71 97 
187 42 74 38 95 
188 41 38 74 95 
189 74 42 82 95 
190 41 74 80 95 
191 80 89 93 95 
192 70 82 42 95 
193 46 83 50 97 
194 75 83 46 97 
195 65 77 66 95 
196 50 71 96 97 
197 76 78 77 97 
198 82 79 74 95 
199 77 95 65 96 
200 82 70 79 95 
201 88 96 95 97 
202 77 79 66 95 
203 76 88 78 97 
204 65 66 67 95 
205 88 95 78 97 
206 72 43 59 95 
207 83 75 77 97 
208 74 78 80 95 
209 65 95 67 96 
210 89 80 78 95 
211 50 71 47 96 
212 61 51 73 96 
213 45 54 62 96 
214 84 93 89 95 
215 42 38 39 95 
216 41 40 38 95 
217 52 45 62 96 
218 44 53 37 95 
219 53 43 37 95 
220 44 60 53 95 
221 59 43 53 95 
222 72 59 68 95 
223 66 79 70 95 
224 52 62 92 96 
225 70 42 39 95 
226 87 86 56 95 
227 44 91 60 95 
228 45 51 54 96 
229 61 54 51 96 
230 61 73 69 96 
231 86 56 95 96 
232 77 78 79 95 
233 87 88 86 95 
234 51 64 73 96 
235 88 76 90 97 
236 64 71 65 96 
237 72 63 43 95 
238 87 56 58 95 
239 86 95 88 96 
240 47 71 64 96 
241 79 78 74 95 
242 92 48 52 96 
243 58 60 91 95 
244 78 88 89 95 
245 69 67 55 96 
246 67 57 55 96 
247 69 55 61 96 
248 39 63 70 95 
249 91 44 40 95 
250 66 70 63 95 
251 58 53 60 95 
252 73 64 69 96 
253 48 45 52 96 
254 56 92 62 96 
255 44 37 40 95 
256 39 37 43 95 
257 54 61 55 96 
258 72 68 63 95 
259 67 95 57 96 
260 58 91 87 95 
261 56 86 92 96 
262 39 43 63 95 
263 68 59 57 95 
264 92 85 48 96 
265 51 47 64 96 
266 85 92 86 96 
267 55 57 56 96 
268 56 62 54 96 
269 45 47 51 96 
270 57 59 53 95 
271 57 95 56 96 
272 57 67 68 95 
273 86 88 85 96 
274 46 47 48 97 
275 40 84 91 95 
276 56 57 58 95 
277 88 85 96 97 
278 55 67 69 29 
279 76 35 88 90 
280 85 48 96 97 
281 40 39 38 95 
282 64 65 67 96 
283 65 77 32 66 
284 86 26 87 56 
285 89 88 84 95 
286 91 84 87 95 
287 40 37 39 95 
288 48 47 45 96 
289 47 96 48 97 
290 66 63 67 95 
291 26 58 87 56 
292 66 77 32 79 
293 87 84 88 95 
294 88 78 35 76 
295 67 55 57 29 
296 63 68 67 95 
297 45 17 62 54 
298 21 46 75 83 
299 53 9 44 37 
300 37 53 10 43 
301 14 74 41 38 
302 13 42 74 38 
303 73 51 19 64 
304 58 57 53 95 
305 17 62 52 45 
306 46 21 50 83 
307 60 9 44 53 
308 42 74 82 13 
309 41 74 14 80 
310 59 10 53 43 
311 55 56 54 96 
312 69 64 67 96 
313 15 40 41 93 
314 33 71 83 65 
315 76 77 75 97 
316 18 54 45 51 
317 75 22 49 46 
318 78 35 89 88 
319 29 57 67 68 
320 22 49 81 75 
321 54 18 61 51 
322 75 46 49 97 
323 81 75 49 97 
324 88 90 85 97 
325 23 94 49 97 
326 77 33 83 65 
327 51 19 64 47 
328 39 42 70 12 
329 16 91 44 40 
330 40 15 84 93 
331 50 20 47 71 
332 52 24 48 92 
333 60 91 25 58 
334 82 31 79 70 
335 10 9 53 37 
336 74 14 13 38 
337 23 85 94 97 
338 54 45 17 18 
339 46 75 22 21 
340 49 48 23 97 
341 91 25 58 87 
342 66 79 31 70 
343 93 80 34 89 
344 68 28 59 72 
345 24 85 48 92 
346 20 64 47 71 
347 90 81 94 97 
348 81 90 76 97 
349 48 85 23 97 
350 91 16 84 40 
351 70 39 12 63 
352 91 1 44 60 
353 70 82 3 42 
354 81 49 94 97 
355 5 52 62 92 
356 71 50 7 83 
357 73 69 30 61 
358 81 36 90 94 
359 93 41 4 80 
360 2 59 72 43 
361 57 68 28 59 
362 80 34 89 78 
363 55 30 69 61 
364 36 90 76 81 
365 6 73 61 51 
366 94 81 8 49 
367 81 76 75 97 
368 32 33 77 65 
369 86 27 26 56 
370 49 46 48 97 
371 14 4 41 80 
372 59 2 10 43 
373 49 81 8 22 
374 61 18 6 51 
375 48 23 85 24 
376 20 64 19 47 
377 91 44 1 16 
378 3 70 42 12 
379 1 9 44 60 
380 42 82 3 13 
381 60 91 1 25 
382 82 3 31 70 
383 62 52 5 17 
384 50 21 7 83 
385 32 66 79 31 
386 58 25 26 87 
387 52 5 24 92 
388 50 7 20 71 
389 15 84 16 40 
390 12 39 11 63 
391 41 4 15 93 
392 72 11 2 43 
393 4 93 80 34 
394 59 28 2 72 
395 92 62 5 27 
396 83 7 71 33 
397 73 30 6 61 
398 81 8 36 94 
399 8 94 49 23 
400 51 6 73 19 
401 94 85 90 97 
402 90 76 35 36 
403 69 30 55 29 
404 68 29 57 28 
405 35 89 34 78 
406 97 95 77 96 
407 97 77 95 78 
408 92 56 27 86 
409 27 56 92 62 
410 65 96 97 77 
411 97 96 65 71 
412 97 83 65 77 
413 65 83 97 71 
414 97 47 50 46 
415 97 50 47 96 
416 40 93 95 41 
417 95 93 40 84 
418 43 63 11 39 
419 43 11 63 72 
$EndElements
