$MeshFormat
4.1 0 8
$EndMeshFormat
$PhysicalNames
6
1 2 "inlet"
1 3 "outlet"
1 4 "noflux"
1 5 "SmallFract"
2 1 "k11"
2 6 "Vugs"
$EndPhysicalNames
$Entities
32 25 10 0
1 30 8 0 0 
5 25 15 0 0 
12 0 0 0 0 
13 0 77 0 0 
14 66 77 0 0 
15 66 0 0 0 
20 55 60 0 0 
21 45 68 0 0 
22 10 50 0 0 
23 15 35 0 0 
24 24 65 0 0 
25 33 50 0 0 
26 45 10 0 0 
27 57 18 0 0 
28 50 40 0 0 
29 57 31 0 0 
30 7 64 0 0 
31 18 69 0 0 
200 41 40 0 0 
201 45 44 0 0 
202 43 51 0 0 
203 41 55 0 0 
204 39 56 0 0 
205 39 44 0 0 
230 17 25 0 0 
240 36 22 0 0 
250 35 28 0 0 
260 33 27 0 0 
270 34 31 0 0 
280 33 32 0 0 
290 30 32 0 0 
300 21 28 0 0 
12 0 0 0 0 77 0 1 3 2 12 -13 
13 0 77 0 66 77 0 1 4 2 13 -14 
14 66 0 0 66 77 0 1 2 2 14 -15 
15 0 0 0 66 0 0 1 4 2 15 -12 
16 25 8 0 30 15 0 2 5 -5 2 5 -1 
22 45 60 0 55 68 0 2 5 -5 2 20 -21 
24 10 35 0 15 50 0 2 5 -5 2 22 -23 
26 24 50 0 33 65 0 2 5 -5 2 24 -25 
28 45 10 0 57 18 0 2 5 -5 2 26 -27 
30 50 31 0 57 40 0 2 5 -5 2 28 -29 
32 7 64 0 18 69 0 2 5 -5 2 30 -31 
100 41 40 0 45 44 0 0 2 200 -201 
110 43 44 0 45 51 0 0 2 201 -202 
120 41 51 0 43 55 0 0 2 202 -203 
130 39 55 0 41 56 0 0 2 203 -204 
140 39 44 0 39 56 0 0 2 204 -205 
150 39 40 0 41 44 0 0 2 205 -200 
230 17 22 0 36 25 0 0 2 230 -240 
240 35 22 0 36 28 0 0 2 240 -250 
250 33 27 0 35 28 0 0 2 250 -260 
260 33 27 0 34 31 0 0 2 260 -270 
270 33 31 0 34 32 0 0 2 270 -280 
280 30 32 0 33 32 0 0 2 280 -290 
290 21 28 0 30 32 0 0 2 290 -300 
300 17 25 0 21 28 0 0 2 300 -230 
11 25 8 0 30 15 0 0 2 16 -16 
14 45 60 0 55 68 0 0 2 22 -22 
15 10 35 0 15 50 0 0 2 24 -24 
16 24 50 0 33 65 0 0 2 26 -26 
17 45 10 0 57 18 0 0 2 28 -28 
18 50 31 0 57 40 0 0 2 30 -30 
19 7 64 0 18 69 0 0 2 32 -32 
390 17 22 0 36 32 0 1 6 8 230 240 250 260 270 280 290 300 
400 39 40 0 45 56 0 1 6 6 100 110 120 130 140 150 
1000 0 0 0 66 77 0 1 1 32 16 -16 22 -22 24 -24 26 -26 28 -28 30 -30 32 -32 110 120 130 140 150 100 230 240 250 260 270 280 290 300 -15 -14 -13 -12 
$EndEntities
$Nodes
46 111 1 111
0 1 0 1
1
30 8 0
0 5 0 1
2
25 15 0
0 12 0 1
3
0 0 0
0 13 0 1
4
0 77 0
0 14 0 1
5
66 77 0
0 15 0 1
6
66 0 0
0 20 0 1
7
55 60 0
0 21 0 1
8
45 68 0
0 22 0 1
9
10 50 0
0 23 0 1
10
15 35 0
0 24 0 1
11
24 65 0
0 25 0 1
12
33 50 0
0 26 0 1
13
45 10 0
0 27 0 1
14
57 18 0
0 28 0 1
15
50 40 0
0 29 0 1
16
57 31 0
0 30 0 1
17
7 64 0
0 31 0 1
18
18 69 0
0 200 0 1
19
41 40 0
0 201 0 1
20
45 44 0
0 202 0 1
21
43 51 0
0 203 0 1
22
41 55 0
0 204 0 1
23
39 56 0
0 205 0 1
24
39 44 0
0 230 0 1
25
17 25 0
0 240 0 1
26
36 22 0
0 250 0 1
27
35 28 0
0 260 0 1
28
33 27 0
0 270 0 1
29
34 31 0
0 280 0 1
30
33 32 0
0 290 0 1
31
30 32 0
0 300 0 1
32
21 28 0
1 12 0 2
33
34
0 25.66666666664392 0
0 51.33333333333744 0
1 13 0 1
35
32.99999999990993 77 0
1 14 0 2
36
37
66 51.333333333412 0
66 25.66666666670557 0
1 15 0 1
38
33.00000000001238 0 0
1 16 0 1
39
27.49999999999885 11.50000000000161 0
1 22 0 1
40
49.99999999999999 64 0
1 24 0 1
41
12.49999999999999 42.50000000000003 0
1 26 0 1
42
28.4999999999896 57.50000000001732 0
1 28 0 1
43
50.999999999878 13.99999999991867 0
1 30 0 1
44
53.50000000000001 35.49999999999999 0
1 32 0 1
45
12.4999999999967 66.49999999999849 0
2 390 0 3
46
47
48
27.35893164412484 26.94652637258444 0
31.9149440690869 30.14707213358178 0
30.56846892830293 29.02339962654155 0
2 400 0 1
49
41.5 48.75 0
2 1000 0 62
50
51
52
53
54
55
56
57
58
59
60
61
62
63
64
65
66
67
68
69
70
71
72
73
74
75
76
77
78
79
80
81
82
83
84
85
86
87
88
89
90
91
92
93
94
95
96
97
98
99
100
101
102
103
104
105
106
107
108
109
110
111
31.57182439133861 34.54113764270794 0
41.11344745576115 25.58762146799234 0
48.21722616528285 48.70492176150938 0
44.47503243526145 54.72240368430448 0
42.73160901328522 57.26474099025961 0
16.53185402907058 62.84554695394284 0
34.96531505300686 34.95956113597838 0
33.66828548665987 62.90868426703729 0
27.64841545308744 36.61730785110417 0
32.05724857786226 38.34034309044262 0
46.41998134362304 56.60653518903533 0
24.97315915172506 49.05211972132756 0
40.15367111689486 30.98440751896429 0
46.29727764814622 29.84524549497238 0
27.67601347483744 41.69384536589032 0
47.5805861423694 22.99456753577838 0
45.01245229721595 61.38093657692503 0
38.96828323608732 60.24842799728935 0
22.26265171592296 39.30539196663688 0
50.96410161513776 70.33012701892218 0
20.61727601690231 57.06794516819836 0
11.79626311031842 56.82372436175676 0
7.730789235703706 37.01836618375476 0
47.95773219356456 53.26372661597472 0
54.19073723541865 51.74150591823639 0
22.31423580836238 33.95505223282733 0
43.31834344316633 34.96871942021055 0
36.97952144259936 38.57386924614286 0
52.09543010791704 27.03435820714703 0
59.46550890193532 38.50918019372789 0
57.41608233424635 24.87119173988017 0
16.7680316675598 50.26792479148961 0
54.75995341794464 41.15327183738651 0
48.30210630844764 35.20565873155277 0
37.66448440784833 66.5266057951365 0
9.360341227112801 14.53703821570103 0
51.91259782582408 45.27777856574019 0
58.64593909458201 46.7739922490043 0
45.52408995032279 38.83487563035266 0
50.52877050112953 57.48889942753759 0
17.46434260652639 16.56670985154361 0
33.00537935017563 44.21505457049704 0
18.35072348467384 44.49039508216158 0
38.83360092652705 35.31679981880727 0
35.99209784940479 32.04346141229165 0
42.12137849599523 19.33702124381769 0
36.02983539046614 13.70149911837165 0
30.97000624979226 17.07854772185408 0
21.45387384625966 19.08832071269304 0
20.33209769052149 9.371964009606605 0
26.08477601921039 19.63337368690943 0
30.71277346268408 13.22295834222961 0
53.01841971688216 21.38002349654485 0
57.46410161507676 10.8038475772527 0
49.40582268092889 7.069957120800116 0
29.57264867840742 68.52549456018693 0
41.72420435042996 13.75742454600833 0
39.03096502859491 8.25455805222774 0
11.95702928484642 62.54231782892452 0
33.89006405469348 57.73044838288908 0
51.43896281290219 31.71705248673443 0
23.44510408559152 44.13795723647078 0
$EndNodes
$Elements
14 234 1 234
1 12 1 3
1 3 33 
2 33 34 
3 34 4 
1 13 1 2
4 4 35 
5 35 5 
1 14 1 3
6 5 36 
7 36 37 
8 37 6 
1 15 1 2
9 6 38 
10 38 3 
1 16 1 2
11 2 39 
12 39 1 
1 22 1 2
13 7 40 
14 40 8 
1 24 1 2
15 9 41 
16 41 10 
1 26 1 2
17 11 42 
18 42 12 
1 28 1 2
19 13 43 
20 43 14 
1 30 1 2
21 15 44 
22 44 16 
1 32 1 2
23 17 45 
24 45 18 
2 390 2 12
25 28 47 48 
26 27 28 26 
27 30 31 47 
28 47 31 48 
29 29 30 47 
30 25 26 46 
31 32 25 46 
32 26 28 46 
33 31 46 48 
34 28 29 47 
35 46 28 48 
36 31 32 46 
2 400 2 6
37 21 23 49 
38 20 24 19 
39 24 20 49 
40 20 21 49 
41 22 23 21 
42 23 24 49 
2 1000 2 192
43 17 34 71 
44 7 5 69 
45 9 34 72 
46 11 42 57 
47 97 26 100 
48 82 79 87 
49 40 66 89 
50 61 64 91 
51 33 25 72 
52 43 65 95 
53 96 1 107 
54 21 20 52 
55 43 95 106 
56 66 8 84 
57 53 21 73 
58 67 66 84 
59 25 32 10 
60 40 8 66 
61 13 43 106 
62 14 37 80 
63 22 21 53 
64 56 30 94 
65 11 55 70 
66 10 68 92 
67 77 24 91 
68 64 61 111 
69 65 43 102 
70 36 74 87 
71 12 61 91 
72 59 77 91 
73 39 2 99 
74 41 10 92 
75 97 2 101 
76 58 50 59 
77 22 53 54 
78 42 11 70 
79 19 77 93 
80 11 57 105 
81 20 15 86 
82 37 16 80 
83 70 55 71 
84 19 24 77 
85 27 62 94 
86 23 22 54 
87 85 3 99 
88 76 19 93 
89 21 52 73 
90 25 85 90 
91 39 1 101 
92 25 33 85 
93 58 59 64 
94 9 41 81 
95 52 20 86 
96 81 41 92 
97 12 23 109 
98 11 18 55 
99 71 9 81 
100 24 12 91 
101 90 2 98 
102 12 42 61 
103 61 42 70 
104 7 40 89 
105 95 96 106 
106 15 20 88 
107 68 10 75 
108 70 71 81 
109 54 66 67 
110 20 19 88 
111 50 30 56 
112 43 14 102 
113 6 103 104 
114 27 51 62 
115 16 78 80 
116 95 26 96 
117 96 26 97 
118 57 84 105 
119 63 65 78 
120 63 51 65 
121 19 76 88 
122 62 63 76 
123 2 90 99 
124 61 70 81 
125 58 64 68 
126 71 55 108 
127 42 12 109 
128 84 35 105 
129 2 97 100 
130 57 42 109 
131 16 44 110 
132 1 38 107 
133 44 15 83 
134 59 56 77 
135 96 97 101 
136 58 68 75 
137 78 16 110 
138 23 67 109 
139 15 44 82 
140 61 81 92 
141 73 74 89 
142 64 59 91 
143 61 92 111 
144 23 54 67 
145 62 51 63 
146 98 2 100 
147 54 60 66 
148 77 56 93 
149 44 16 79 
150 67 57 109 
151 27 26 51 
152 65 51 95 
153 83 15 88 
154 54 53 60 
155 10 41 72 
156 76 83 88 
157 14 80 102 
158 18 45 55 
159 80 78 102 
160 76 63 83 
161 45 17 108 
162 60 73 89 
163 62 76 93 
164 90 85 99 
165 14 43 103 
166 57 67 84 
167 43 13 104 
168 78 65 102 
169 15 82 86 
170 8 40 69 
171 60 53 73 
172 63 78 110 
173 25 90 98 
174 74 52 86 
175 44 79 82 
176 73 52 74 
177 50 56 59 
178 31 50 58 
179 74 86 87 
180 31 30 50 
181 86 82 87 
182 55 45 108 
183 83 63 110 
184 44 83 110 
185 68 64 111 
186 93 56 94 
187 106 96 107 
188 51 26 95 
189 13 106 107 
190 92 68 111 
191 103 43 104 
192 62 93 94 
193 33 3 85 
194 3 38 99 
195 37 14 103 
196 26 25 100 
197 25 98 100 
198 79 36 87 
199 38 104 107 
200 38 1 99 
201 1 39 99 
202 1 96 101 
203 2 39 101 
204 4 34 17 
205 45 4 17 
206 35 4 18 
207 4 45 18 
208 36 5 7 
209 5 35 69 
210 6 37 103 
211 38 6 104 
212 36 7 74 
213 40 7 69 
214 74 7 89 
215 35 8 69 
216 8 35 84 
217 34 9 71 
218 41 9 72 
219 25 10 72 
220 10 32 75 
221 18 11 105 
222 12 24 23 
223 104 13 107 
224 16 37 79 
225 17 71 108 
226 35 18 105 
227 29 28 27 
228 29 27 94 
229 30 29 94 
230 32 31 75 
231 31 58 75 
232 34 33 72 
233 37 36 79 
234 66 60 89 
$EndElements
