$MeshFormat
4.1 0 8
$EndMeshFormat
$PhysicalNames
5
1 2 "inlet"
1 3 "outlet"
1 4 "noflux"
1 6 "SmallFract"
2 1 "k11"
$EndPhysicalNames
$Entities
18 11 8 0
1 30 8 0 0 
5 25 15 0 0 
12 0 0 0 0 
13 0 77 0 0 
14 66 77 0 0 
15 66 0 0 0 
16 40 25 0 0 
17 35 40 0 0 
18 5 10 0 0 
19 15 21 0 0 
20 55 60 0 0 
21 45 68 0 0 
22 10 50 0 0 
23 15 35 0 0 
24 24 65 0 0 
25 33 50 0 0 
26 45 10 0 0 
27 57 18 0 0 
12 0 0 0 0 77 0 1 3 2 12 -13 
13 0 77 0 66 77 0 1 4 2 13 -14 
14 66 0 0 66 77 0 1 2 2 14 -15 
15 0 0 0 66 0 0 1 4 2 15 -12 
16 25 8 0 30 15 0 2 6 -6 2 5 -1 
18 35 25 0 40 40 0 2 6 -6 2 16 -17 
20 5 10 0 15 21 0 2 6 -6 2 18 -19 
22 45 60 0 55 68 0 2 6 -6 2 20 -21 
24 10 35 0 15 50 0 2 6 -6 2 22 -23 
26 24 50 0 33 65 0 2 6 -6 2 24 -25 
28 45 10 0 57 18 0 2 6 -6 2 26 -27 
11 25 8 0 30 15 0 0 2 16 -16 
12 35 25 0 40 40 0 0 2 18 -18 
13 5 10 0 15 21 0 0 2 20 -20 
14 45 60 0 55 68 0 0 2 22 -22 
15 10 35 0 15 50 0 0 2 24 -24 
16 24 50 0 33 65 0 0 2 26 -26 
17 45 10 0 57 18 0 0 2 28 -28 
1000 0 0 0 66 77 0 1 1 18 16 -16 18 -18 20 -20 22 -22 24 -24 26 -26 28 -28 -15 -14 -13 -12 
$EndEntities
$Nodes
30 80 1 80
0 1 0 1
1
30 8 0
0 5 0 1
2
25 15 0
0 12 0 1
3
0 0 0
0 13 0 1
4
0 77 0
0 14 0 1
5
66 77 0
0 15 0 1
6
66 0 0
0 16 0 1
7
40 25 0
0 17 0 1
8
35 40 0
0 18 0 1
9
5 10 0
0 19 0 1
10
15 21 0
0 20 0 1
11
55 60 0
0 21 0 1
12
45 68 0
0 22 0 1
13
10 50 0
0 23 0 1
14
15 35 0
0 24 0 1
15
24 65 0
0 25 0 1
16
33 50 0
0 26 0 1
17
45 10 0
0 27 0 1
18
57 18 0
1 12 0 2
19
20
0 25.66666666664392 0
0 51.33333333333744 0
1 13 0 1
21
32.99999999990993 77 0
1 14 0 2
22
23
66 51.333333333412 0
66 25.66666666670557 0
1 15 0 1
24
33.00000000001238 0 0
1 16 0 1
25
27.49999999999885 11.50000000000161 0
1 18 0 1
26
37.50000000002478 32.49999999992566 0
1 20 0 1
27
10 15.5 0
1 22 0 1
28
49.99999999999999 64 0
1 24 0 1
29
12.49999999999999 42.50000000000003 0
1 26 0 1
30
28.4999999999896 57.50000000001732 0
1 28 0 1
31
50.999999999878 13.99999999991867 0
2 1000 0 49
32
33
34
35
36
37
38
39
40
41
42
43
44
45
46
47
48
49
50
51
52
53
54
55
56
57
58
59
60
61
62
63
64
65
66
67
68
69
70
71
72
73
74
75
76
77
78
79
80
54.30531751130789 37.89697742588768 0
13.31173161250791 13.63323137493797 0
19.34147014522997 15.26550490189407 0
17.69601612064365 8.283381823910391 0
21.9270250438595 20.22185763718494 0
27.75468189367302 19.60205265403175 0
25.27089034120189 25.58637682537084 0
32.30863457951148 25.56141780387859 0
34.04752386697665 18.42481198091198 0
29.66473071414857 32.43461933642179 0
26.90418825043898 39.78710555020383 0
42.62468307347164 16.83792567315531 0
37.12777136870466 11.90851884431549 0
48.66966676679065 21.79492705098174 0
46.50648745801789 30.05887309681334 0
54.49629434722328 26.68348884807767 0
43.68762422421319 39.00551446499728 0
48.49749055261652 47.31394630269454 0
22.4197538516953 32.67731685616589 0
48.6964172626546 6.698629612905823 0
39.83920969122723 46.47967740949974 0
40.08782020036755 54.8467664680309 0
37.74602425418414 62.71585445297355 0
24.04024115466263 49.0975614992292 0
48.22052048284584 55.46544059121434 0
54.77401577703042 52.36436306231703 0
21.43655964149007 57.88581084934009 0
15.38873151848875 64.60543076157032 0
44.2108729874795 61.00561230244377 0
50.96410161513775 70.3301270189222 0
32.23423159514597 13.58150785299616 0
18.99292422765544 26.08802558543272 0
11.77565510197704 28 0
7.855131020395408 36.49999999999628 0
19.73526508452336 41.09421927242516 0
16.30586635469907 47.1835685515076 0
8.235563446588351 22.1267605031015 0
57.46410161505331 10.8038475772879 0
29.3072874711589 15.6216744975883 0
38.76483772627432 7.321429691444262 0
23.57023055941815 11.35271243677566 0
55.89420596023871 47.22715503107781 0
15.48090002627067 53.73732740753406 0
8.173926308951883 59.33521830048836 0
34.54838692666934 57.28479377327281 0
30.94368708062085 44.38873741612417 0
44.16126023176429 51.02645769285989 0
32.58352839977588 65.04605453058562 0
38.2669350914704 70.21412341873653 0
$EndNodes
$Elements
12 172 1 172
1 12 1 3
1 3 19 
2 19 20 
3 20 4 
1 13 1 2
4 4 21 
5 21 5 
1 14 1 3
6 5 22 
7 22 23 
8 23 6 
1 15 1 2
9 6 24 
10 24 3 
1 16 1 2
11 2 25 
12 25 1 
1 18 1 2
13 7 26 
14 26 8 
1 20 1 2
15 9 27 
16 27 10 
1 22 1 2
17 11 28 
18 28 12 
1 24 1 2
19 13 29 
20 29 14 
1 26 1 2
21 15 30 
22 30 16 
1 28 1 2
23 17 31 
24 31 18 
2 1000 2 148
25 9 3 35 
26 11 5 61 
27 39 26 41 
28 44 1 71 
29 17 31 43 
30 43 31 45 
31 50 42 66 
32 42 55 66 
33 7 26 39 
34 11 28 56 
35 41 42 50 
36 50 14 63 
37 21 15 79 
38 48 32 49 
39 17 43 44 
40 41 8 42 
41 25 1 62 
42 26 8 41 
43 31 18 45 
44 46 32 48 
45 7 39 40 
46 56 28 60 
47 7 40 43 
48 51 17 71 
49 54 53 60 
50 38 39 41 
51 10 33 34 
52 14 50 66 
53 43 40 44 
54 66 55 67 
55 7 43 45 
56 63 14 64 
57 38 41 50 
58 18 23 47 
59 2 34 72 
60 55 42 77 
61 45 18 47 
62 54 12 80 
63 48 49 52 
64 34 2 36 
65 79 54 80 
66 26 46 48 
67 27 9 33 
68 26 7 46 
69 28 12 60 
70 53 54 76 
71 7 45 46 
72 32 46 47 
73 44 40 62 
74 10 34 36 
75 55 58 74 
76 21 79 80 
77 55 30 58 
78 67 55 74 
79 16 30 55 
80 10 27 33 
81 8 52 77 
82 59 4 75 
83 30 15 58 
84 53 56 60 
85 16 52 53 
86 11 56 57 
87 58 59 74 
88 10 36 63 
89 40 37 70 
90 14 29 65 
91 56 49 57 
92 51 6 69 
93 52 16 77 
94 36 2 37 
95 39 37 40 
96 13 29 67 
97 64 19 68 
98 29 14 66 
99 22 57 73 
100 36 38 63 
101 16 55 77 
102 8 26 48 
103 62 40 70 
104 8 48 52 
105 19 64 65 
106 38 50 63 
107 38 37 39 
108 49 32 73 
109 10 63 64 
110 16 53 76 
111 56 53 78 
112 46 45 47 
113 37 2 70 
114 53 52 78 
115 36 37 38 
116 25 62 70 
117 49 56 78 
118 17 44 71 
119 29 66 67 
120 20 13 75 
121 30 16 76 
122 34 33 35 
123 42 8 77 
124 15 30 79 
125 64 14 65 
126 74 59 75 
127 2 25 70 
128 13 67 74 
129 52 49 78 
130 27 10 68 
131 25 2 72 
132 34 35 72 
133 13 74 75 
134 58 15 59 
135 1 24 71 
136 76 54 79 
137 18 31 69 
138 31 17 51 
139 57 49 73 
140 12 28 61 
141 10 64 68 
142 30 76 79 
143 31 51 69 
144 4 20 75 
145 6 23 69 
146 23 18 69 
147 61 21 80 
148 24 51 71 
149 24 1 35 
150 1 25 72 
151 35 1 72 
152 1 44 62 
153 9 19 3 
154 3 24 35 
155 21 4 59 
156 22 5 11 
157 5 21 61 
158 24 6 51 
159 19 9 68 
160 9 27 68 
161 33 9 35 
162 22 11 57 
163 28 11 61 
164 12 54 60 
165 12 61 80 
166 20 29 13 
167 15 21 59 
168 20 19 65 
169 29 20 65 
170 23 22 32 
171 32 22 73 
172 23 32 47 
$EndElements
