$MeshFormat
4.1 0 8
$EndMeshFormat
$PhysicalNames
5
1 2 "inlet"
1 3 "outlet"
1 4 "noflux"
1 6 "SmallFract"
2 1 "k11"
$EndPhysicalNames
$Entities
34 19 15 0
12 0 0 0 0 
13 0 77 0 0 
14 66 77 0 0 
15 66 0 0 0 
101 10 25 0 0 
102 15 18 0 0 
103 20 15 0 0 
104 25 22 0 0 
105 30 5 0 0 
106 35 18 0 0 
107 40 27 0 0 
108 45 20 0 0 
109 50 10 0 0 
110 55 18 0 0 
111 10 30 0 0 
112 15 38 0 0 
113 10 45 0 0 
114 25 42 0 0 
115 30 32 0 0 
116 35 40 0 0 
117 40 40 0 0 
118 50 38 0 0 
119 50 35 0 0 
120 55 42 0 0 
121 3 65 0 0 
122 15 65 0 0 
123 14 60 0 0 
124 35 70 0 0 
125 30 50 0 0 
126 40 68 0 0 
127 48 44 0 0 
128 45 65 0 0 
129 50 60 0 0 
130 55 70 0 0 
12 0 0 0 0 77 0 1 3 2 12 -13 
13 0 77 0 66 77 0 1 4 2 13 -14 
14 66 0 0 66 77 0 1 2 2 14 -15 
15 0 0 0 66 0 0 1 4 2 15 -12 
101 10 18 0 15 25 0 2 6 -6 2 101 -102 
103 20 15 0 25 22 0 2 6 -6 2 103 -104 
105 30 5 0 35 18 0 2 6 -6 2 105 -106 
107 40 20 0 45 27 0 2 6 -6 2 107 -108 
109 50 10 0 55 18 0 2 6 -6 2 109 -110 
111 10 30 0 15 38 0 2 6 -6 2 111 -112 
113 10 42 0 25 45 0 2 6 -6 2 113 -114 
115 30 32 0 35 40 0 2 6 -6 2 115 -116 
117 40 38 0 50 40 0 2 6 -6 2 117 -118 
119 50 35 0 55 42 0 2 6 -6 2 119 -120 
121 3 65 0 15 65 0 2 6 -6 2 121 -122 
123 14 60 0 35 70 0 2 6 -6 2 123 -124 
125 30 50 0 40 68 0 2 6 -6 2 125 -126 
127 45 44 0 48 65 0 2 6 -6 2 127 -128 
129 50 60 0 55 70 0 2 6 -6 2 129 -130 
1 10 18 0 15 25 0 0 2 101 -101 
2 20 15 0 25 22 0 0 2 103 -103 
4 40 20 0 45 27 0 0 2 107 -107 
5 50 10 0 55 18 0 0 2 109 -109 
6 10 30 0 15 38 0 0 2 111 -111 
7 10 42 0 25 45 0 0 2 113 -113 
8 30 32 0 35 40 0 0 2 115 -115 
9 40 38 0 50 40 0 0 2 117 -117 
10 50 35 0 55 42 0 0 2 119 -119 
11 3 65 0 15 65 0 0 2 121 -121 
12 14 60 0 35 70 0 0 2 123 -123 
13 30 50 0 40 68 0 0 2 125 -125 
14 45 44 0 48 65 0 0 2 127 -127 
15 50 60 0 55 70 0 0 2 129 -129 
1000 0 0 0 66 77 0 1 1 34 101 -101 103 -103 105 -105 107 -107 109 -109 111 -111 113 -113 115 -115 117 -117 119 -119 121 -121 123 -123 125 -125 127 -127 129 -129 -15 -14 -13 -12 
$EndEntities
$Nodes
54 153 1 153
0 12 0 1
1
0 0 0
0 13 0 1
2
0 77 0
0 14 0 1
3
66 77 0
0 15 0 1
4
66 0 0
0 101 0 1
5
10 25 0
0 102 0 1
6
15 18 0
0 103 0 1
7
20 15 0
0 104 0 1
8
25 22 0
0 105 0 1
9
30 5 0
0 106 0 1
10
35 18 0
0 107 0 1
11
40 27 0
0 108 0 1
12
45 20 0
0 109 0 1
13
50 10 0
0 110 0 1
14
55 18 0
0 111 0 1
15
10 30 0
0 112 0 1
16
15 38 0
0 113 0 1
17
10 45 0
0 114 0 1
18
25 42 0
0 115 0 1
19
30 32 0
0 116 0 1
20
35 40 0
0 117 0 1
21
40 40 0
0 118 0 1
22
50 38 0
0 119 0 1
23
50 35 0
0 120 0 1
24
55 42 0
0 121 0 1
25
3 65 0
0 122 0 1
26
15 65 0
0 123 0 1
27
14 60 0
0 124 0 1
28
35 70 0
0 125 0 1
29
30 50 0
0 126 0 1
30
40 68 0
0 127 0 1
31
48 44 0
0 128 0 1
32
45 65 0
0 129 0 1
33
50 60 0
0 130 0 1
34
55 70 0
1 12 0 2
35
36
0 25.66666666664392 0
0 51.33333333333744 0
1 13 0 1
37
32.99999999990993 77 0
1 14 0 2
38
39
66 51.333333333412 0
66 25.66666666670557 0
1 15 0 1
40
33.00000000001238 0 0
1 101 0 1
41
12.5 21.5 0
1 103 0 1
42
22.5000000000018 18.50000000000252 0
1 105 0 0
1 107 0 1
43
42.5 23.5 0
1 109 0 1
44
52.50000000000001 14.00000000000001 0
1 111 0 1
45
12.49999999998004 33.99999999996807 0
1 113 0 1
46
17.49999999993828 43.50000000001234 0
1 115 0 1
47
32.5 36 0
1 117 0 1
48
45.00000000000001 39 0
1 119 0 1
49
52.5 38.5 0
1 121 0 1
50
8.999999999981437 65 0
1 123 0 1
51
24.4999999999621 64.99999999998195 0
1 125 0 1
52
35.00000000000833 59.00000000001501 0
1 127 0 1
53
46.50000000002468 54.49999999982728 0
1 129 0 1
54
52.5 65 0
2 1000 0 99
55
56
57
58
59
60
61
62
63
64
65
66
67
68
69
70
71
72
73
74
75
76
77
78
79
80
81
82
83
84
85
86
87
88
89
90
91
92
93
94
95
96
97
98
99
100
101
102
103
104
105
106
107
108
109
110
111
112
113
114
115
116
117
118
119
120
121
122
123
124
125
126
127
128
129
130
131
132
133
134
135
136
137
138
139
140
141
142
143
144
145
146
147
148
149
150
151
152
153
9.184642607460521 68.55765463901166 0
56.24309149396205 57.68538983409707 0
7.882455251266649 58.88245525126249 0
11.08689413826646 53.30249547984003 0
18.13790979342234 55.09345040096828 0
52.4377095134651 54.18069912438109 0
18.81895327166376 69.70517767974027 0
44.5272387574692 59.49114466804127 0
15.36995755140603 47.7284421275312 0
22.08801020486644 47.88696786092336 0
20.46666666664527 38.83333333338681 0
17.67237059591061 33.59076336800479 0
23.15050838661235 35.03396022469298 0
21.1779408688364 29.88155067655865 0
16.66772519950592 28.68259083614216 0
19.4420796201817 25.46628615924415 0
11.72051301029046 38.64967936854511 0
14.8396704251701 24.92380189832298 0
8.571808300203003 18.38859883129094 0
16.92951283168295 21.64465747746843 0
23.87517791301677 26.13580323807678 0
26.02548680153249 31.06859277963314 0
29.68472479856095 27.65812670068987 0
33.21769712142679 29.30266741410387 0
28.04108476479268 36.00557202200458 0
30.66537219070811 39.63353704505209 0
37.24761210874513 36.11280983389244 0
37.55775034793433 44.41136676871385 0
41.76150748941395 35.80753744706968 0
39.51790194627252 32.14308263247426 0
43.86772877552944 32.0824042189245 0
42.7575349665871 44.4849300668258 0
40.43767221303884 48.35044688310343 0
7.187934018181695 36.02138276692779 0
40.2412257564994 61.99659827676798 0
46.27683314023724 70.91515485844637 0
33.990376949648 24.76653056634319 0
45.82311102870111 49.04615871829775 0
50.38527152454587 49.32500306173953 0
59.14861829879241 64.20374463350181 0
29.55418823589669 22.5015420508063 0
28.32528301107358 16.43388302349251 0
33.69058743330928 11.04208175641952 0
39.69665547646285 13.93497028238158 0
23.93569567181406 14.02324727797177 0
23.49610404047681 10.95084045736433 0
17.11566585117596 10.78647521521216 0
19.23968053994799 62.04137124386111 0
25.5969904385319 57.93554159850243 0
38.29368857720235 23.65758328383002 0
44.32862514919228 27.66556642864094 0
46.65844136117406 23.98411505959874 0
48.54685872323302 27.62117778639388 0
50.70738306920573 24.36346742969205 0
52.48632342338585 28.33580683755142 0
54.6354583995878 24.85600979978437 0
57.42741532042744 28.06458115655596 0
50.16218022813 31.14732780557831 0
49.01256464903719 20.62402554572048 0
47.60457750842123 16.61417352419194 0
40.69335769450366 19.22909604538582 0
52.85389551974362 21.20209216801357 0
27.88953403133474 11.49001050304962 0
57.1884784758161 21.93738104693306 0
21.12720689438358 21.95816365235206 0
51.08394273695049 17.40663471604551 0
57.4208477755477 14.23547273752659 0
41.09007409862949 54.41203391438729 0
46.9068792723414 30.52471329988359 0
47.01983486103517 33.74436256801998 0
53.16370699937171 33.11669829407677 0
58.31986099726108 36.47220702990686 0
47.71957163441817 36.5 0
32.22073224555122 44.09079877807069 0
41.62168451970219 7.162315145417084 0
52.17611562855823 36.13832125590761 0
54.31814342856 36.65529767060555 0
50.88561212790891 40.9880310872599 0
52.40163120715715 45.28776358015871 0
49.69420828505932 67.72878871461161 0
56.07585207846721 50.01357975453503 0
13.02527442624769 27.87562567583416 0
36.09091165760477 65.10471999211006 0
43.79630756339993 16.41659793585313 0
45.30844822258994 12.9517941736527 0
48.32103675246542 39.69760621745198 0
18.71543479196129 18.38821713988701 0
41.69074684364659 29.55006419908342 0
30.21333253151614 66.52700168376734 0
34.93608312287366 32.65349381907147 0
17.70777516078431 15.54367308877479 0
55.03450110645527 38.4068761751281 0
6.095025117001362 27.5 0
13.97307404432885 30.82979597598983 0
13.74625769927045 42.43496973752883 0
37.37807065158142 28.43906027355803 0
36.05103815086036 50.04410772404837 0
44.96104169029375 35.75691156465515 0
49.19266303797578 13.80567183071443 0
$EndNodes
$Elements
20 333 1 333
1 12 1 3
1 1 35 
2 35 36 
3 36 2 
1 13 1 2
4 2 37 
5 37 3 
1 14 1 3
6 3 38 
7 38 39 
8 39 4 
1 15 1 2
9 4 40 
10 40 1 
1 101 1 2
11 5 41 
12 41 6 
1 103 1 2
13 7 42 
14 42 8 
1 105 1 1
15 9 10 
1 107 1 2
16 11 43 
17 43 12 
1 109 1 2
18 13 44 
19 44 14 
1 111 1 2
20 15 45 
21 45 16 
1 113 1 2
22 17 46 
23 46 18 
1 115 1 2
24 19 47 
25 47 20 
1 117 1 2
26 21 48 
27 48 22 
1 119 1 2
28 23 49 
29 49 24 
1 121 1 2
30 25 50 
31 50 26 
1 123 1 2
32 27 51 
33 51 28 
1 125 1 2
34 29 52 
35 52 30 
1 127 1 2
36 31 53 
37 53 32 
1 129 1 2
38 33 54 
39 54 34 
2 1000 2 294
40 4 13 129 
41 17 36 88 
42 38 24 126 
43 13 4 121 
44 73 1 101 
45 8 42 96 
46 32 33 54 
47 37 28 90 
48 56 60 135 
49 133 24 135 
50 87 122 151 
51 2 25 55 
52 59 64 103 
53 77 75 95 
54 57 36 58 
55 3 34 94 
56 112 23 124 
57 49 24 132 
58 95 8 96 
59 76 19 79 
60 37 61 143 
61 38 56 135 
62 58 17 63 
63 46 63 149 
64 104 11 150 
65 16 45 66 
66 50 27 26 
67 32 54 134 
68 67 76 79 
69 18 67 79 
70 111 39 126 
71 41 6 74 
72 103 52 143 
73 60 53 93 
74 53 92 93 
75 66 45 148 
76 93 133 135 
77 64 29 103 
78 76 75 77 
79 72 41 74 
80 5 41 72 
81 98 129 139 
82 122 52 151 
83 59 63 64 
84 83 84 85 
85 18 65 67 
86 51 103 143 
87 67 66 68 
88 18 80 128 
89 96 42 99 
90 63 17 149 
91 33 53 60 
92 68 69 70 
93 68 66 69 
94 105 106 107 
95 46 16 65 
96 65 16 66 
97 29 18 128 
98 69 66 148 
99 123 112 124 
100 29 52 103 
101 85 105 123 
102 33 32 62 
103 50 25 57 
104 112 109 125 
105 11 43 105 
106 92 53 122 
107 18 46 65 
108 5 72 136 
109 52 29 151 
110 21 20 81 
111 105 43 106 
112 31 48 140 
113 105 107 123 
114 116 14 118 
115 21 48 86 
116 18 29 64 
117 67 68 76 
118 65 66 67 
119 107 106 108 
120 61 26 102 
121 42 119 141 
122 48 31 86 
123 43 12 106 
124 70 69 72 
125 27 58 59 
126 20 47 81 
127 87 92 122 
128 125 126 131 
129 19 77 78 
130 28 37 143 
131 19 78 144 
132 8 75 119 
133 84 144 150 
134 27 50 57 
135 85 84 142 
136 111 110 118 
137 70 72 74 
138 10 97 98 
139 83 81 84 
140 75 70 119 
141 97 96 117 
142 118 14 121 
143 119 74 141 
144 106 12 113 
145 91 104 150 
146 68 70 75 
147 109 111 125 
148 83 85 152 
149 21 81 83 
150 85 124 152 
151 108 106 113 
152 113 12 114 
153 27 57 58 
154 84 81 144 
155 92 31 93 
156 115 98 138 
157 23 112 125 
158 46 18 64 
159 47 19 144 
160 10 98 115 
161 15 5 136 
162 97 9 129 
163 48 21 83 
164 24 49 146 
165 78 91 150 
166 105 85 142 
167 18 79 80 
168 53 33 62 
169 23 22 127 
170 107 109 112 
171 110 116 118 
172 42 7 99 
173 144 78 150 
174 49 130 131 
175 107 108 109 
176 19 47 79 
177 10 95 96 
178 68 75 76 
179 9 97 117 
180 132 31 140 
181 96 99 117 
182 132 24 133 
183 47 20 80 
184 16 46 149 
185 56 33 60 
186 7 42 141 
187 19 76 77 
188 125 111 126 
189 108 113 116 
190 22 23 130 
191 107 112 123 
192 20 21 82 
193 23 125 130 
194 30 32 90 
195 62 89 122 
196 59 58 63 
197 72 69 136 
198 11 105 142 
199 52 137 143 
200 45 16 71 
201 63 46 64 
202 87 86 92 
203 98 97 129 
204 32 30 89 
205 93 31 133 
206 42 8 119 
207 78 77 91 
208 70 74 119 
209 124 23 127 
210 44 14 120 
211 114 138 139 
212 27 59 102 
213 43 11 104 
214 54 34 134 
215 86 31 92 
216 15 88 147 
217 74 6 141 
218 85 123 124 
219 11 142 150 
220 82 86 87 
221 113 114 120 
222 17 71 149 
223 90 32 134 
224 73 5 147 
225 79 47 80 
226 102 59 103 
227 114 12 138 
228 54 33 56 
229 82 21 86 
230 45 15 148 
231 10 96 97 
232 81 47 144 
233 10 91 95 
234 142 84 150 
235 22 49 132 
236 12 43 115 
237 116 113 120 
238 49 22 130 
239 39 111 118 
240 120 114 153 
241 51 61 102 
242 13 44 153 
243 99 100 117 
244 26 27 102 
245 130 125 131 
246 99 7 100 
247 35 73 147 
248 109 108 110 
249 5 15 147 
250 44 120 153 
251 14 116 120 
252 110 108 116 
253 31 132 133 
254 89 52 122 
255 50 26 55 
256 138 98 139 
257 48 83 152 
258 15 45 88 
259 60 93 135 
260 114 139 153 
261 62 32 89 
262 71 16 149 
263 14 44 121 
264 139 13 153 
265 136 69 148 
266 30 28 137 
267 91 77 95 
268 51 102 103 
269 12 115 138 
270 53 62 122 
271 109 110 111 
272 91 10 104 
273 80 20 128 
274 34 54 94 
275 137 28 143 
276 100 7 101 
277 127 22 140 
278 20 82 128 
279 43 104 115 
280 49 131 146 
281 22 132 140 
282 41 5 73 
283 131 126 146 
284 48 127 140 
285 104 10 115 
286 15 136 148 
287 55 26 61 
288 45 71 88 
289 89 30 137 
290 82 87 151 
291 101 7 145 
292 127 48 152 
293 124 127 152 
294 9 40 129 
295 54 56 94 
296 52 89 137 
297 29 128 151 
298 141 6 145 
299 7 141 145 
300 128 82 151 
301 35 1 73 
302 37 2 61 
303 2 55 61 
304 34 3 90 
305 40 4 129 
306 40 9 101 
307 39 38 126 
308 39 118 121 
309 1 40 101 
310 25 2 36 
311 3 37 90 
312 38 3 94 
313 4 39 121 
314 6 41 73 
315 6 73 101 
316 6 101 145 
317 75 8 95 
318 9 100 101 
319 100 9 117 
320 44 13 121 
321 129 13 139 
322 36 17 58 
323 71 17 88 
324 24 38 135 
325 126 24 146 
326 25 36 57 
327 25 50 55 
328 28 30 90 
329 34 90 134 
330 36 35 88 
331 88 35 147 
332 56 38 94 
333 61 51 143 
$EndElements
