$MeshFormat
4.1 0 8
$EndMeshFormat
$PhysicalNames
6
1 2 "inlet"
1 3 "outlet"
1 4 "noflux"
1 6 "SmallFract"
2 1 "k11"
2 7 "Vugs"
$EndPhysicalNames
$Entities
36 36 5 0
1 115 107 0 0 
2 79 183 0 0 
3 230 263 0 0 
4 228 281 0 0 
5 202 299 0 0 
6 204 312 0 0 
7 171 322 0 0 
8 166 342 0 0 
9 181 343 0 0 
10 180 362 0 0 
11 191 365 0 0 
12 178 379 0 0 
13 200 374 0 0 
14 205 360 0 0 
15 198 348 0 0 
16 202 340 0 0 
17 259 342 0 0 
18 295 317 0 0 
19 300 296 0 0 
20 254 280 0 0 
21 242 267 0 0 
22 241 257 0 0 
23 512 250 0 0 
24 500 260 0 0 
25 483 283 0 0 
26 446 315 0 0 
27 476 316 0 0 
28 483 328 0 0 
29 500 326 0 0 
30 501 284 0 0 
41 0 0 0 0 
42 0 676 0 0 
43 616 676 0 0 
44 616 0 0 0 
45 500 550 0 0 
46 350 380 0 0 
1 79 107 0 115 183 0 1 6 2 1 -2 
2 79 107 0 115 183 0 1 6 2 2 -1 
3 228 263 0 230 281 0 0 2 3 -4 
4 202 281 0 228 299 0 0 2 4 -5 
5 202 299 0 204 312 0 0 2 5 -6 
6 171 312 0 204 322 0 0 2 6 -7 
7 166 322 0 171 342 0 0 2 7 -8 
8 166 342 0 181 343 0 0 2 8 -9 
9 180 343 0 181 362 0 0 2 9 -10 
10 180 362 0 191 365 0 0 2 10 -11 
11 178 365 0 191 379 0 0 2 11 -12 
12 178 374 0 200 379 0 0 2 12 -13 
13 200 360 0 205 374 0 0 2 13 -14 
14 198 348 0 205 360 0 0 2 14 -15 
15 198 340 0 202 348 0 0 2 15 -16 
16 202 340 0 259 342 0 0 2 16 -17 
17 259 317 0 295 342 0 0 2 17 -18 
18 295 296 0 300 317 0 0 2 18 -19 
19 254 280 0 300 296 0 0 2 19 -20 
20 242 267 0 254 280 0 0 2 20 -21 
21 241 257 0 242 267 0 0 2 21 -22 
22 230 257 0 241 263 0 0 2 22 -3 
23 500 250 0 512 260 0 0 2 23 -24 
24 483 260 0 500 283 0 0 2 24 -25 
25 446 283 0 483 315 0 0 2 25 -26 
26 446 315 0 476 316 0 0 2 26 -27 
27 476 316 0 483 328 0 0 2 27 -28 
28 483 326 0 500 328 0 0 2 28 -29 
29 500 284 0 501 326 0 0 2 29 -30 
30 501 250 0 512 284 0 0 2 30 -23 
41 0 0 0 0 676 0 1 2 2 41 -42 
42 0 676 0 616 676 0 1 4 2 42 -43 
43 616 0 0 616 676 0 1 3 2 43 -44 
44 0 0 0 616 0 0 1 4 2 44 -41 
45 350 380 0 500 550 0 1 6 2 45 -46 
46 350 380 0 500 550 0 1 6 2 46 -45 
37 79 107 0 115 183 0 0 2 1 2 
38 166 257 0 300 379 0 1 7 20 3 4 5 6 7 8 9 10 11 12 13 14 15 16 17 18 19 20 21 22 
39 446 250 0 512 328 0 1 7 8 23 24 25 26 27 28 29 30 
90 350 380 0 500 550 0 0 2 45 46 
1000 0 0 0 616 676 0 1 1 36 1 2 45 46 -22 -21 -20 -19 -18 -17 -16 -15 -14 -13 -12 -11 -10 -9 -8 -7 -6 -5 -4 -3 -30 -29 -28 -27 -26 -25 -24 -23 -44 -43 -42 -41 
$EndEntities
$Nodes
48 501 1 501
0 1 0 1
1
115 107 0
0 2 0 1
2
79 183 0
0 3 0 1
3
230 263 0
0 4 0 1
4
228 281 0
0 5 0 1
5
202 299 0
0 6 0 1
6
204 312 0
0 7 0 1
7
171 322 0
0 8 0 1
8
166 342 0
0 9 0 1
9
181 343 0
0 10 0 1
10
180 362 0
0 11 0 1
11
191 365 0
0 12 0 1
12
178 379 0
0 13 0 1
13
200 374 0
0 14 0 1
14
205 360 0
0 15 0 1
15
198 348 0
0 16 0 1
16
202 340 0
0 17 0 1
17
259 342 0
0 18 0 1
18
295 317 0
0 19 0 1
19
300 296 0
0 20 0 1
20
254 280 0
0 21 0 1
21
242 267 0
0 22 0 1
22
241 257 0
0 23 0 1
23
512 250 0
0 24 0 1
24
500 260 0
0 25 0 1
25
483 283 0
0 26 0 1
26
446 315 0
0 27 0 1
27
476 316 0
0 28 0 1
28
483 328 0
0 29 0 1
29
500 326 0
0 30 0 1
30
501 284 0
0 41 0 1
31
0 0 0
0 42 0 1
32
0 676 0
0 43 0 1
33
616 676 0
0 44 0 1
34
616 0 0
0 45 0 1
35
500 550 0
0 46 0 1
36
350 380 0
1 1 0 1
37
96.99999999992376 145.000000000161 0
1 2 0 1
38
96.99999999992374 145.000000000161 0
1 16 0 1
39
230.4999999992959 340.9999999999753 0
1 41 0 13
40
41
42
43
44
45
46
47
48
49
50
51
52
0 48.28571428566379 0
0 96.57142857133456 0
0 144.8571428569728 0
0 193.1428571425421 0
0 241.4285714281113 0
0 289.7142857138218 0
0 337.999999999594 0
0 386.2857142853663 0
0 434.5714285711386 0
0 482.8571428569109 0
0 531.1428571426832 0
0 579.4285714284555 0
0 627.7142857142277 0
1 42 0 12
53
54
55
56
57
58
59
60
61
62
63
64
47.38461538456973 676 0
94.7692307691382 676 0
142.1538461536721 676 0
189.5384615382816 676 0
236.9230769228911 676 0
284.3076923073767 676 0
331.6923076919862 676 0
379.0769230768143 676 0
426.4615384616424 676 0
473.8461538464705 676 0
521.2307692312183 676 0
568.6153846156092 676 0
1 43 0 13
65
66
67
68
69
70
71
72
73
74
75
76
77
616 627.7142857142857 0
616 579.4285714285714 0
616 531.1428571428571 0
616 482.8571428571429 0
616 434.5714285714286 0
616 386.2857142857143 0
616 338 0
616 289.7142857142857 0
616 241.4285714285714 0
616 193.1428571428571 0
616 144.8571428571429 0
616 96.57142857142856 0
616 48.28571428571422 0
1 44 0 12
78
79
80
81
82
83
84
85
86
87
88
89
568.6153846155298 0 0
521.2307692310596 0 0
473.8461538465894 0 0
426.4615384621192 0 0
379.076923077649 0 0
331.6923076931788 0 0
284.3076923084899 0 0
236.9230769235825 0 0
189.538461538675 0 0
142.1538461537676 0 0
94.76923076894036 0 0
47.38461538447018 0 0
1 45 0 4
90
91
92
93
470.000000000392 516.0000000004443 0
440.000000000784 482.0000000008885 0
410.0000000006452 448.0000000007311 0
380.0000000001056 414.0000000001196 0
1 46 0 4
94
95
96
97
379.999999999608 413.9999999995558 0
409.999999999216 447.9999999991115 0
439.9999999993548 481.9999999992689 0
469.9999999998944 515.9999999998804 0
2 38 0 14
98
99
100
101
102
103
104
105
106
107
108
109
110
111
266.218128518982 314.3105088346495 0
219.8972663865387 305.3609880328518 0
190.0509698113775 328.5875150215395 0
189.1975793971843 352.8588607527518 0
216.7243749996483 326.9803124999748 0
234.0702529922507 315.6718134553819 0
234.7381032912662 296.5123042859635 0
191.2307692307692 339.6153846153846 0
273.4875428801092 301.0895877458278 0
196.026286263306 356.5782583823172 0
252.2195858815639 298.1374298944897 0
203.0240798261178 326.3221904923129 0
242.191537834566 284.5299468360907 0
250.104210544001 323.8829435032918 0
2 39 0 2
112
113
490.7210376777721 302.7262728779329 0
487.4302594194431 318.1815682194832 0
2 1000 0 388
114
115
116
117
118
119
120
121
122
123
124
125
126
127
128
129
130
131
132
133
134
135
136
137
138
139
140
141
142
143
144
145
146
147
148
149
150
151
152
153
154
155
156
157
158
159
160
161
162
163
164
165
166
167
168
169
170
171
172
173
174
175
176
177
178
179
180
181
182
183
184
185
186
187
188
189
190
191
192
193
194
195
196
197
198
199
200
201
202
203
204
205
206
207
208
209
210
211
212
213
214
215
216
217
218
219
220
221
222
223
224
225
226
227
228
229
230
231
232
233
234
235
236
237
238
239
240
241
242
243
244
245
246
247
248
249
250
251
252
253
254
255
256
257
258
259
260
261
262
263
264
265
266
267
268
269
270
271
272
273
274
275
276
277
278
279
280
281
282
283
284
285
286
287
288
289
290
291
292
293
294
295
296
297
298
299
300
301
302
303
304
305
306
307
308
309
310
311
312
313
314
315
316
317
318
319
320
321
322
323
324
325
326
327
328
329
330
331
332
333
334
335
336
337
338
339
340
341
342
343
344
345
346
347
348
349
350
351
352
353
354
355
356
357
358
359
360
361
362
363
364
365
366
367
368
369
370
371
372
373
374
375
376
377
378
379
380
381
382
383
384
385
386
387
388
389
390
391
392
393
394
395
396
397
398
399
400
401
402
403
404
405
406
407
408
409
410
411
412
413
414
415
416
417
418
419
420
421
422
423
424
425
426
427
428
429
430
431
432
433
434
435
436
437
438
439
440
441
442
443
444
445
446
447
448
449
450
451
452
453
454
455
456
457
458
459
460
461
462
463
464
465
466
467
468
469
470
471
472
473
474
475
476
477
478
479
480
481
482
483
484
485
486
487
488
489
490
491
492
493
494
495
496
497
498
499
500
501
476.1013612557793 260.1183974499239 0
192.5735219267583 390.580546026526 0
174.3861186101315 397.2745165598378 0
189.3169580676976 408.8035219659843 0
309.9050856854357 37.78668501054963 0
174.2121648187035 415.3415437091697 0
187.3990559392875 428.900408019129 0
158.5216962914785 383.7458855784681 0
207.1592850185193 420.3629253347279 0
205.4183899236501 443.8777376860448 0
182.000070248875 453.2405963067939 0
446.0025201719619 37.50915224670652 0
202.3571467212926 470.6954482893005 0
495.0487271683653 344.8610514035364 0
174.8633928938685 480.7491376641175 0
134.3181171049236 142.0726093319296 0
230.7264171281494 250.6466346333765 0
218.9581294883518 256.6413689154912 0
220.2325879700647 243.1578854774268 0
232.8689898921145 237.5292709625114 0
207.4261806502267 249.059421797275 0
221.3474913425963 228.5487541601326 0
236.1137596095878 222.73681408074 0
308.519320361468 637.0679066939728 0
152.1623835410596 328.412808153518 0
155.4165978840716 307.3659131133992 0
198.5519403816751 500.8233526104598 0
227.046113725193 488.6676021647939 0
222.5872837223978 212.351988454996 0
239.1758522528718 205.5453947868606 0
253.3394289447592 217.5083717500111 0
257.2790478789368 198.4459066361478 0
273.0886600937707 212.3789469127115 0
277.4139054589658 190.9277330669303 0
294.5995107282021 206.0998555678928 0
259.4620129021751 178.278405328623 0
299.4395238871093 182.7847241985846 0
317.8442904714054 198.783796618602 0
323.1866766255544 173.2503878362892 0
342.1717801428586 190.8968455274935 0
350.2339447166873 164.0157354811688 0
367.5895400519514 183.3251813161087 0
361.4562782174719 207.3752515427835 0
386.4453040181353 200.1464179846488 0
167.8432700412792 511.5903293405478 0
391.8334513818282 175.4805608878411 0
411.2307575618946 192.4632867397949 0
405.3096186156479 217.0202973323266 0
136.3591322388553 315.6841726001538 0
416.4070711427606 166.9377069680674 0
436.5261242587031 184.5230005459947 0
139.257389000028 293.4738877408923 0
575.9295322095038 116.5796504575936 0
441.7814748728124 157.9235295280047 0
462.1920323659193 176.6184509940613 0
301.6816330017845 154.3403265515714 0
228.9413339729821 433.9003876973637 0
395.5551362707387 490.9807621126137 0
393.0166650020476 146.8830303297019 0
193.9234063806772 533.5234170217863 0
133.1000803752554 338.3541428866083 0
154.1574388260897 459.8198347650846 0
224.6500382182555 194.1617139215095 0
205.5498253138574 201.4562754162465 0
161.0125247212284 545.0092165165415 0
469.4542860878753 148.0830440142024 0
113.3740309028679 323.6150705462546 0
110.5227880855052 351.009349586247 0
134.2331165904138 521.4284544155676 0
473.3494276702207 346.0388206924462 0
486.878174435805 366.6099035434514 0
484.4448637288743 473.0192378874728 0
212.3692606826959 372.518843846777 0
207.9945868186577 39.56669451411926 0
312.4592636691364 222.5959597470563 0
208.8011740853269 178.7132437242956 0
517.749496056525 342.0843529800949 0
493.6699371403267 173.3747598978817 0
126.2488463164869 557.3090005030105 0
407.4565181637283 638.2341451942697 0
337.1264973600744 423.5847440167955 0
317.6235401966393 311.5441017840321 0
323.3833441533176 288.0135527042235 0
343.4917968612118 305.2928895463554 0
157.6282785756141 284.7087410501101 0
141.4794120062256 268.759086777611 0
119.5701963741971 278.6119846180506 0
349.126293967868 279.1736056659447 0
267.5404407869675 232.0776017785236 0
42.72629049343675 460.6555066045166 0
455.964204969718 201.801169325544 0
188.281073816956 568.5568646179227 0
222.7112359439878 555.7913623139032 0
370.1738015927538 297.543831620533 0
571.6911330330514 410.1146294681499 0
459.8460130729981 367.0963338969664 0
186.2593897377652 189.333122952027 0
186.969417972421 211.0881851458489 0
164.6494528977254 199.3527633453956 0
496.6651354409228 243.271190005892 0
509.8857814589708 230.055212778733 0
530.5602931484261 239.5979982523857 0
526.972116928622 214.8737947870962 0
446.4946508514218 128.1200995060771 0
477.474156159323 117.1804613330089 0
123.2275256164825 251.5389457504908 0
96.22471665118179 261.2588995401669 0
476.0147948281827 390.2201421812226 0
70.53952565806824 638.3530818136591 0
375.7774556562086 271.083834029003 0
87.11708965062685 332.9840788604392 0
82.99968925645365 362.9677071369886 0
108.6923449190611 381.0215437289227 0
206.5076584400486 264.4041757238187 0
192.2693903717161 254.3241886889326 0
99.04100691743474 530.5186135454417 0
530.0711901801415 260.0314806154267 0
545.8191005947779 635.9184948201571 0
292.1312941223675 349.8804977234721 0
158.3841827337137 110.8217009733661 0
281.6333306838096 265.4305387805067 0
505.2918499990707 388.6369629872167 0
525.0626507403933 305.5848250176284 0
454.0652137069456 557.5493248587022 0
217.2212983661796 592.9305835349838 0
253.3603248681954 578.9478001972145 0
258.3395706062339 540.8715669030619 0
289.7608832483047 563.9909159320587 0
295.0184166300659 524.5657878839619 0
327.4595344551068 549.0741899401387 0
108.6826874385789 490.7117688882427 0
260.4044263201574 261.4693502843214 0
186.3436564428787 162.6754334689266 0
213.8746381067878 152.3726364534992 0
79.48131926485789 394.9480443525734 0
106.4742654974434 413.1957748133697 0
492.2444895153827 224.9456285119163 0
396.62583781601 289.3892884670796 0
390.7568582429421 316.9538676069802 0
400.585725920682 264.0591226749621 0
544.0045142890858 36.894704106205 0
575.2391538449808 504.9030672795907 0
192.4277637371746 274.3879957223227 0
226.6648776600403 405.6620477574633 0
253.7122803873216 421.738389851711 0
70.2769053998875 37.70961472744419 0
549.2196645040717 224.2356752066493 0
550.0068574561392 198.2459586281732 0
252.642393701856 393.3561746694725 0
179.8202949194735 604.2911339066004 0
150.4045894536115 243.6544387238361 0
131.3048574554309 224.7975297201303 0
445.8202125406962 392.6805717001184 0
428.0919566949889 369.2960878190378 0
446.0655972065147 282.0505962226994 0
480.7417494276555 594.9047899864362 0
351.8763945271535 254.741392255352 0
72.23658294647916 110.2926281124686 0
82.99905107294995 568.726043988756 0
119.5975898340084 594.2243249897774 0
133.1881221309419 70.90620100596527 0
331.2311219913498 508.1265445919873 0
301.6810811809607 485.6040219204127 0
494.5209409721612 416.0836781562414 0
252.2258166192877 449.5346986275663 0
279.3351904890828 405.4429369644949 0
179.5554825425559 262.2472579613606 0
451.2468539206241 95.45286246690804 0
486.4481862241136 83.59250195349043 0
417.9131134607125 110.3471067551543 0
511.6338471111748 108.2966568012427 0
36.65527579317715 262.738521476484 0
189.8248946126086 133.4443819476026 0
219.1217557410334 122.9691958967826 0
242.6802986785713 142.6737091117672 0
250.16046361303 112.4239671246831 0
246.0145864068249 620.6172354860405 0
69.77534371026478 504.5926957700947 0
574.1833447886943 313.8571428571428 0
59.05279649370153 341.5370505978323 0
583.2807909232911 267.2285773547044 0
95.00652480542716 300.2349173474516 0
335.3277879390944 331.3824515475108 0
226.3694377132527 91.75856051258154 0
258.2502603572565 79.90278489692663 0
282.1999777637091 105.2804082594833 0
372.1326815917949 528.352235039952 0
360.727954607341 575.9567770182026 0
571.2841895906423 360.3973970323753 0
526.7462249518601 413.2056528127992 0
480.8359498160706 240.4694528482454 0
174.318299521811 245.4938942572238 0
452.6573679740312 446.5841357314152 0
208.2233833241989 280.1332185439718 0
407.8594516915103 564.2860852796595 0
187.0416082176585 304.375044268432 0
530.4128389819548 584.1381999578185 0
522.4524739906393 186.7757081354831 0
543.743831864672 167.8990125214992 0
430.7692544535839 209.3741277419392 0
425.2843674840043 233.6422951555055 0
447.6940681983447 225.7774289892014 0
442.1626954314296 249.3984603542052 0
209.9327878689268 386.8592168412151 0
77.09839000710141 432.9059277496681 0
105.9169189606286 449.6817456182624 0
42.16298026471023 414.1908788951391 0
380.8723359267513 223.3284967225237 0
36.86424484550719 553.9160331832177 0
576.7142847175746 458.8417757746073 0
533.3897032470858 478.6169976847435 0
132.824677481548 396.6677984290962 0
135.7987414292483 365.6008904481228 0
154.8234884423686 363.2149475519258 0
133.9065322502201 428.2966734821284 0
119.0535349722878 173.9907163913068 0
174.196905162735 69.14476815670369 0
335.5254176084369 467.6261330045945 0
493.4258391133915 42.56033550211401 0
42.95697589306017 216.377202620691 0
353.4004085929947 39.68511509898208 0
332.5184628314979 74.13323988874198 0
368.8641149014995 79.17803307058932 0
351.3882263189055 110.5869708314636 0
395.4929792829217 44.98964336166364 0
536.5260646573322 382.2251844168259 0
336.3379873622481 214.7794647170994 0
330.7925198323598 238.5108420252542 0
303.5539510640835 248.5488237991675 0
186.3561756970433 290.5949333967566 0
432.1855749043181 599.1536954503157 0
262.0574351072657 500.8619341896158 0
357.4390603388758 627.2645217005353 0
480.1168934201706 200.037409853319 0
423.0580986236968 280.8904046558257 0
228.2070702993216 380.5631070400738 0
574.1833447886943 555.2857142857147 0
260.1516910473197 41.50901979646161 0
571.643196999589 71.86468245824204 0
512.9534852546387 446.1913942009452 0
469.3462477644476 222.5085845498167 0
428.0481301008388 74.53161064781257 0
44.48321767059041 601.9348467355226 0
579.7815323694713 178.2130485332584 0
53.57740016846743 147.0181454253728 0
210.805504424869 349.4485317991457 0
389.8374078933255 373.9441403414246 0
274.2896253057355 137.1662475951923 0
164.020126131707 224.2248572237601 0
193.8951217940194 232.5141942066036 0
423.2687472100397 523.194734548346 0
289.7407664056916 228.5878096266794 0
321.3935813631279 592.7258918775005 0
244.250766952089 364.8249948614928 0
500.3674097060223 634.8915165598772 0
272.441264757433 373.8208088026086 0
308.231551967699 387.0432273725244 0
37.34672081481052 309.3535606152137 0
577.3141244961679 603.9510733946273 0
417.2524933484681 306.471923842817 0
414.263507756934 338.1380308780565 0
545.2116238033188 335.6464413998965 0
156.7760359868831 172.5904780313192 0
249.2378690249148 235.6749012533505 0
41.02421867560621 73.12491735053777 0
314.9178013836613 104.5114844151584 0
329.2196694230054 139.4396804638922 0
363.5022746375974 139.361103567169 0
384.7367423230262 115.2409275238713 0
282.0614114527046 605.9413918770206 0
447.8084542487364 343.3820358260216 0
363.5001032301244 324.7478043003038 0
536.2146331217554 529.4123376203065 0
195.3253502288729 99.6259331675508 0
117.1473633881041 634.0497256361642 0
465.2315763837914 329.6841713036936 0
154.3577899323303 579.5573294491988 0
402.4433226395386 240.800707442912 0
207.0503909942506 219.6100869043361 0
578.5061484137586 222.1780135346809 0
234.63184496906 169.1418912606071 0
143.9608897278287 490.2871353341875 0
306.0322120969767 448.1747618759227 0
204.6575497398136 634.889140684959 0
521.7660589313848 71.88192286209743 0
326.333433974674 263.574014231768 0
224.9320621970222 521.7530774380234 0
218.6035639428981 269.5533649108214 0
101.4439838212242 232.5548140664156 0
71.22248592352337 244.3097658440096 0
91.37155081584422 72.99473515586899 0
114.0077628442985 36.4852935752489 0
383.6827981612558 343.2690634658406 0
53.6718818228653 375.7786518075719 0
420.0902197993736 140.3698278929168 0
164.1543167933215 431.7873399644917 0
323.594711140979 356.5735693534871 0
279.9099892906285 167.1301094138725 0
292.2893774183204 72.87742094658385 0
227.8111835996168 460.7667489274248 0
281.7023576902636 244.8829225183522 0
158.427580285231 639.4958911821293 0
500.4669207896543 139.9772001292373 0
534.0285311698221 135.1110126331917 0
80.8399261220021 467.7095289261569 0
155.4532189368585 407.7873473969451 0
240.6486143967936 246.2165082099168 0
250.7254046598552 250.9583837088523 0
67.02614493313079 282.0145971548997 0
243.0397592442599 189.1146623867496 0
172.8601398601399 352.0979020979021 0
306.9808119751769 272.3133859031332 0
503.8686903453445 205.0563468031706 0
300.4479462970067 129.1698981451143 0
209.9903545502316 234.5780685091548 0
452.5509732475682 638.2040978831599 0
160.1799474415126 36.01715954200618 0
108.1496044900275 203.7138498234709 0
377.608125167505 247.2269699379393 0
370.5124983110177 454.5623568534077 0
311.5222930374949 334.8133936824091 0
412.3601272074682 401.4725607066275 0
165.1293773762015 144.3209207506288 0
552.876866753805 290.3996394006396 0
546.3328109556421 98.06053108582266 0
356.4906068389149 230.9937362001587 0
33.36764035811056 114.3728524633373 0
393.0488428956854 600.0022357455621 0
278.4087087069344 436.9678471536363 0
150.1293218213457 347.3370096052901 0
517.3240598024072 161.2700034286835 0
32.13779960675161 508.1856105060734 0
461.3683961468242 242.8485434824003 0
457.2216915664525 260.8064384111523 0
120.1624233558 302.5390535917433 0
373.3740315847382 161.4136035872119 0
423.7925191195222 259.1431521105136 0
126.849290963959 467.8225265143611 0
171.8518653912492 298.2802879454029 0
546.0495238581434 440.211998582822 0
168.462525630912 367.3641239058689 0
221.8554337263786 361.392579591244 0
265.2073048609947 248.4156163873178 0
35.28635674402183 180.3108087334646 0
504.5963879762487 507.72980946013 0
259.8883469883344 157.6642938486299 0
511.6053799098609 364.0557585282762 0
69.10985533953935 313.2248409151673 0
205.1294861083885 402.4536515851834 0
275.2139257244534 466.5113138111055 0
86.80929672597063 606.5224995546233 0
80.55461002556704 215.9911264709174 0
273.3197724683069 642.2986010753372 0
33.78379334851066 642.2340271828137 0
461.6777300057494 280.1950864167551 0
140.6589353223436 199.7783657558971 0
31.73714789199278 31.82404927272915 0
536.4753508035359 356.8818268714938 0
581.9336328971525 33.9016377742763 0
361.3830948997128 490.2536004895196 0
249.620096746356 261.1879903253644 0
433.0940472946699 296.1032311803355 0
581.4694626115798 641.2211741612166 0
488.4006116281931 250.9647600760153 0
30.01427982627548 350.1909954611156 0
174.341157926672 278.3932333401749 0
464.6574156601883 417.9516451461784 0
399.0110160137997 84.85746427181823 0
357.6571347274631 351.6528381680944 0
552.0515816483022 254.5456748105725 0
437.0990246766058 421.3377826570143 0
569.8966855226938 148.5319734005372 0
482.937698190418 441.9731461424767 0
231.3641802692761 64.47081024767145 0
206.1943301446546 71.97153566216616 0
161.2851297525406 352.5823210726048 0
303.5414427694909 419.669659462235 0
248.8708949551634 473.2684595441013 0
67.08172183994594 536.1636123668246 0
161.6039209411711 262.8087016222081 0
145.8701236718294 610.3236810327741 0
403.93918514629 128.2102231254111 0
460.9338388185747 67.10494250137555 0
197.2518306896042 286.0290369157627 0
438.4601203895231 266.4578103508792 0
530.8788040285239 283.1722907231761 0
527.1086531613461 324.5936257698303 0
547.5194952064929 313.6525094515317 0
$EndNodes
$Elements
11 1004 1 1004
1 1 1 2
1 1 37 
2 37 2 
1 2 1 2
3 2 38 
4 38 1 
1 41 1 14
5 31 40 
6 40 41 
7 41 42 
8 42 43 
9 43 44 
10 44 45 
11 45 46 
12 46 47 
13 47 48 
14 48 49 
15 49 50 
16 50 51 
17 51 52 
18 52 32 
1 42 1 13
19 32 53 
20 53 54 
21 54 55 
22 55 56 
23 56 57 
24 57 58 
25 58 59 
26 59 60 
27 60 61 
28 61 62 
29 62 63 
30 63 64 
31 64 33 
1 43 1 14
32 33 65 
33 65 66 
34 66 67 
35 67 68 
36 68 69 
37 69 70 
38 70 71 
39 71 72 
40 72 73 
41 73 74 
42 74 75 
43 75 76 
44 76 77 
45 77 34 
1 44 1 13
46 34 78 
47 78 79 
48 79 80 
49 80 81 
50 81 82 
51 82 83 
52 83 84 
53 84 85 
54 85 86 
55 86 87 
56 87 88 
57 88 89 
58 89 31 
1 45 1 5
59 35 90 
60 90 91 
61 91 92 
62 92 93 
63 93 36 
1 46 1 5
64 36 94 
65 94 95 
66 95 96 
67 96 97 
68 97 35 
2 38 2 47
69 9 7 8 
70 9 100 7 
71 18 106 98 
72 39 102 16 
73 14 11 13 
74 99 104 4 
75 15 105 101 
76 22 3 21 
77 106 108 98 
78 98 111 17 
79 6 102 99 
80 4 110 21 
81 14 107 11 
82 15 107 14 
83 102 103 99 
84 9 105 100 
85 11 101 10 
86 103 111 108 
87 101 105 9 
88 100 109 6 
89 101 107 15 
90 103 108 104 
91 39 111 103 
92 16 109 105 
93 39 103 102 
94 103 104 99 
95 108 111 98 
96 17 111 39 
97 108 110 104 
98 102 109 16 
99 11 107 101 
100 105 109 100 
101 6 99 5 
102 104 110 4 
103 6 109 102 
104 19 106 18 
105 21 110 20 
106 20 110 108 
107 16 105 15 
108 5 99 4 
109 7 100 6 
110 10 101 9 
111 21 3 4 
112 13 11 12 
113 18 98 17 
114 20 106 19 
115 20 108 106 
2 39 2 10
116 25 30 24 
117 112 27 113 
118 30 25 112 
119 27 28 113 
120 28 29 113 
121 24 30 23 
122 29 112 113 
123 26 27 25 
124 25 27 112 
125 29 30 112 
2 1000 2 879
126 325 326 121 
127 326 327 121 
128 294 483 393 
129 236 500 29 
130 210 376 246 
131 330 430 187 
132 346 366 301 
133 13 115 12 
134 171 364 300 
135 187 430 86 
136 265 469 362 
137 328 419 409 
138 169 380 152 
139 186 455 349 
140 125 338 81 
141 212 376 210 
142 349 455 367 
143 231 368 310 
144 362 363 305 
145 310 386 350 
146 208 339 302 
147 286 436 233 
148 300 364 308 
149 311 426 191 
150 23 230 30 
151 152 380 154 
152 169 411 361 
153 26 475 268 
154 377 456 421 
155 272 356 322 
156 211 363 362 
157 237 344 308 
158 310 368 269 
159 57 397 290 
160 200 295 220 
161 393 483 260 
162 245 456 234 
163 250 354 347 
164 201 399 270 
165 301 441 346 
166 314 450 391 
167 27 389 26 
168 270 399 341 
169 137 366 346 
170 125 355 338 
171 174 443 326 
172 35 386 310 
173 272 464 356 
174 48 320 203 
175 26 384 374 
176 234 425 19 
177 368 429 269 
178 233 387 286 
179 290 466 57 
180 174 326 181 
181 26 374 373 
182 208 302 70 
183 228 363 134 
184 303 339 208 
185 114 446 304 
186 294 393 73 
187 360 374 267 
188 269 429 344 
189 379 412 335 
190 367 455 39 
191 47 407 320 
192 378 404 271 
193 326 443 327 
194 328 409 175 
195 299 412 379 
196 234 414 342 
197 411 459 361 
198 232 370 369 
199 342 425 234 
200 56 415 397 
201 47 320 48 
202 175 451 328 
203 203 418 291 
204 85 351 187 
205 304 446 354 
206 344 441 308 
207 240 400 345 
208 10 454 424 
209 345 400 141 
210 334 335 118 
211 81 338 82 
212 203 320 318 
213 391 450 253 
214 291 445 203 
215 479 493 280 
216 160 313 161 
217 227 307 256 
218 347 426 250 
219 198 493 479 
220 257 462 317 
221 181 326 226 
222 381 382 172 
223 319 451 244 
224 185 353 324 
225 56 397 57 
226 83 334 118 
227 17 369 367 
228 233 436 129 
229 114 447 446 
230 354 446 315 
231 47 478 407 
232 351 487 187 
233 232 410 370 
234 292 294 72 
235 318 418 203 
236 44 333 285 
237 394 459 149 
238 194 370 36 
239 313 314 161 
240 357 485 75 
241 71 302 292 
242 308 364 237 
243 255 324 323 
244 483 499 230 
245 336 337 335 
246 121 419 325 
247 352 438 398 
248 168 347 204 
249 360 406 374 
250 259 404 378 
251 315 316 314 
252 129 329 38 
253 313 315 314 
254 347 354 204 
255 232 369 17 
256 382 495 172 
257 397 415 263 
258 358 457 42 
259 293 478 371 
260 361 427 169 
261 265 362 264 
262 295 422 220 
263 169 427 380 
264 74 357 75 
265 226 326 325 
266 305 363 228 
267 454 489 424 
268 71 292 72 
269 352 398 254 
270 21 474 20 
271 250 426 214 
272 432 439 321 
273 334 336 335 
274 189 394 176 
275 204 313 164 
276 255 323 68 
277 254 332 79 
278 208 453 303 
279 164 313 160 
280 1 129 38 
281 200 448 295 
282 310 372 231 
283 2 465 333 
284 69 208 70 
285 168 204 164 
286 202 456 377 
287 204 315 313 
288 304 477 114 
289 7 452 309 
290 44 285 45 
291 91 306 185 
292 350 372 310 
293 244 418 319 
294 328 451 319 
295 42 440 358 
296 6 309 5 
297 69 323 208 
298 83 118 84 
299 309 343 5 
300 339 471 302 
301 137 346 59 
302 223 432 253 
303 82 338 334 
304 261 393 260 
305 1 233 129 
306 324 458 185 
307 82 334 83 
308 72 294 73 
309 160 161 157 
310 75 166 76 
311 17 367 39 
312 204 354 315 
313 336 382 337 
314 355 481 338 
315 80 125 81 
316 317 349 257 
317 70 302 71 
318 91 185 90 
319 48 203 49 
320 8 138 7 
321 38 329 2 
322 94 194 36 
323 122 462 257 
324 43 333 44 
325 380 381 154 
326 80 332 125 
327 327 454 121 
328 187 488 330 
329 346 441 193 
330 333 457 2 
331 214 426 216 
332 194 490 370 
333 338 481 336 
334 437 499 483 
335 302 375 292 
336 194 433 331 
337 242 345 276 
338 85 187 86 
339 267 435 360 
340 376 436 246 
341 58 137 59 
342 335 412 118 
343 371 478 46 
344 92 306 91 
345 129 376 329 
346 223 253 251 
347 242 276 275 
348 333 403 285 
349 319 418 318 
350 350 386 255 
351 3 130 22 
352 196 399 201 
353 139 452 7 
354 191 347 168 
355 50 322 51 
356 4 401 3 
357 240 345 242 
358 190 500 375 
359 300 473 171 
360 201 270 223 
361 53 222 54 
362 226 325 249 
363 86 430 87 
364 288 459 394 
365 155 157 156 
366 166 352 76 
367 253 432 391 
368 60 346 193 
369 157 321 156 
370 292 437 294 
371 67 350 255 
372 330 387 233 
373 88 259 89 
374 151 340 188 
375 59 346 60 
376 302 471 375 
377 79 332 80 
378 201 223 207 
379 155 156 153 
380 68 323 69 
381 374 384 267 
382 153 340 151 
383 78 254 79 
384 325 419 328 
385 316 450 314 
386 253 348 251 
387 337 379 335 
388 363 428 134 
389 321 439 156 
390 222 388 54 
391 151 188 148 
392 161 321 157 
393 45 371 46 
394 118 351 84 
395 257 349 262 
396 67 255 68 
397 307 497 256 
398 66 350 67 
399 247 394 189 
400 341 342 188 
401 156 340 153 
402 289 361 288 
403 203 445 49 
404 148 365 146 
405 340 341 188 
406 349 367 262 
407 332 398 282 
408 254 398 332 
409 94 433 194 
410 299 361 289 
411 63 231 64 
412 341 439 270 
413 287 288 247 
414 342 365 188 
415 331 396 194 
416 443 489 327 
417 60 193 61 
418 84 351 85 
419 75 485 166 
420 266 435 267 
421 172 449 381 
422 249 328 319 
423 285 371 45 
424 96 171 95 
425 314 391 161 
426 282 496 332 
427 206 240 239 
428 159 160 157 
429 223 251 207 
430 276 331 275 
431 322 356 51 
432 271 440 378 
433 234 456 414 
434 344 429 193 
435 230 499 30 
436 51 356 52 
437 163 164 160 
438 193 441 344 
439 76 352 77 
440 146 365 202 
441 298 299 289 
442 13 317 115 
443 35 237 97 
444 18 434 232 
445 222 464 388 
446 63 368 231 
447 152 153 151 
448 351 412 298 
449 229 244 182 
450 50 445 322 
451 154 155 153 
452 177 392 211 
453 334 338 336 
454 219 264 199 
455 96 364 171 
456 35 310 269 
457 165 198 139 
458 191 444 311 
459 116 419 121 
460 322 492 272 
461 35 269 237 
462 342 414 365 
463 227 401 307 
464 196 201 197 
465 262 369 279 
466 269 344 237 
467 177 211 210 
468 137 383 366 
469 377 421 420 
470 337 380 379 
471 12 454 10 
472 65 372 66 
473 167 168 164 
474 201 207 197 
475 155 159 157 
476 237 364 97 
477 445 492 322 
478 264 362 305 
479 213 304 250 
480 325 328 249 
481 93 435 92 
482 181 226 225 
483 369 370 279 
484 357 393 261 
485 244 395 182 
486 206 400 240 
487 87 405 88 
488 288 394 247 
489 240 242 241 
490 37 271 1 
491 217 283 281 
492 274 330 233 
493 119 419 116 
494 217 408 283 
495 242 275 243 
496 150 151 148 
497 97 364 96 
498 300 308 301 
499 388 464 273 
500 2 358 37 
501 276 396 331 
502 179 416 191 
503 270 439 432 
504 399 425 342 
505 55 415 56 
506 300 301 243 
507 188 365 148 
508 66 372 350 
509 128 395 175 
510 240 241 239 
511 249 319 318 
512 226 249 248 
513 62 368 63 
514 255 386 324 
515 173 206 205 
516 206 239 238 
517 305 493 264 
518 211 392 363 
519 275 300 243 
520 332 496 125 
521 329 431 2 
522 307 401 4 
523 171 433 95 
524 370 410 36 
525 42 457 43 
526 243 366 241 
527 36 360 93 
528 337 381 380 
529 431 469 265 
530 158 395 128 
531 193 429 61 
532 285 422 371 
533 242 243 241 
534 57 466 58 
535 324 453 323 
536 115 116 12 
537 40 378 41 
538 287 289 288 
539 192 273 272 
540 323 453 208 
541 136 377 133 
542 178 182 158 
543 435 484 92 
544 257 262 258 
545 301 366 243 
546 159 163 160 
547 229 291 244 
548 1 274 233 
549 220 422 403 
550 118 412 351 
551 90 458 35 
552 179 191 168 
553 37 358 271 
554 152 154 153 
555 216 311 261 
556 150 152 151 
557 163 167 164 
558 132 133 130 
559 213 477 304 
560 337 382 381 
561 241 383 239 
562 394 423 176 
563 206 238 205 
564 161 391 321 
565 140 400 173 
566 239 290 238 
567 146 202 144 
568 5 497 307 
569 238 263 205 
570 280 493 305 
571 282 284 218 
572 122 257 170 
573 340 439 341 
574 304 354 250 
575 54 388 55 
576 348 373 251 
577 348 498 268 
578 52 467 32 
579 380 427 379 
580 192 229 182 
581 192 272 229 
582 199 493 198 
583 32 467 53 
584 356 464 222 
585 147 148 146 
586 31 470 40 
587 173 178 158 
588 235 339 303 
589 239 383 290 
590 89 470 31 
591 62 429 368 
592 298 487 351 
593 77 472 34 
594 366 383 241 
595 417 438 166 
596 266 267 209 
597 143 144 136 
598 219 265 264 
599 128 175 124 
600 34 472 78 
601 173 205 178 
602 33 476 65 
603 28 389 27 
604 127 460 184 
605 271 404 1 
606 377 420 133 
607 178 192 182 
608 165 199 198 
609 64 476 33 
610 87 430 405 
611 140 173 158 
612 196 197 195 
613 283 355 281 
614 306 486 185 
615 341 399 342 
616 150 169 152 
617 264 493 199 
618 251 252 207 
619 422 461 371 
620 227 256 228 
621 141 400 140 
622 141 491 345 
623 226 248 225 
624 115 117 116 
625 92 484 306 
626 216 426 311 
627 140 158 128 
628 35 458 386 
629 218 416 179 
630 297 298 289 
631 15 359 14 
632 8 443 138 
633 249 318 248 
634 173 400 206 
635 345 463 276 
636 145 146 144 
637 147 150 148 
638 126 141 140 
639 159 172 163 
640 131 227 134 
641 282 398 284 
642 145 149 147 
643 198 452 139 
644 217 281 218 
645 267 384 209 
646 327 489 454 
647 184 235 221 
648 135 136 133 
649 286 287 247 
650 138 139 7 
651 167 179 168 
652 126 140 128 
653 2 457 358 
654 117 120 119 
655 192 390 273 
656 73 393 74 
657 182 395 158 
658 88 405 259 
659 281 282 218 
660 130 420 22 
661 41 440 42 
662 315 446 316 
663 262 279 258 
664 375 471 190 
665 211 212 210 
666 353 453 324 
667 257 258 170 
668 298 412 299 
669 207 385 197 
670 167 217 179 
671 360 482 406 
672 287 297 289 
673 381 449 154 
674 246 247 189 
675 177 210 189 
676 373 374 252 
677 142 143 136 
678 224 295 180 
679 142 177 176 
680 235 460 339 
681 138 162 139 
682 154 449 155 
683 202 377 144 
684 126 128 124 
685 270 432 223 
686 145 147 146 
687 291 492 445 
688 361 459 288 
689 171 473 433 
690 263 390 205 
691 275 473 300 
692 117 122 120 
693 299 427 361 
694 311 312 261 
695 367 369 262 
696 365 414 202 
697 190 460 127 
698 258 278 170 
699 24 213 23 
700 403 422 285 
701 116 121 12 
702 138 174 162 
703 235 303 277 
704 303 353 277 
705 211 362 212 
706 217 218 179 
707 9 424 8 
708 379 427 299 
709 205 390 178 
710 20 474 245 
711 286 387 287 
712 1 404 274 
713 178 390 192 
714 131 132 130 
715 162 165 139 
716 238 397 263 
717 43 457 333 
718 185 458 90 
719 283 495 382 
720 209 384 183 
721 200 219 199 
722 166 485 417 
723 181 225 224 
724 144 377 136 
725 14 186 13 
726 213 250 214 
727 318 320 248 
728 296 482 410 
729 123 126 124 
730 166 438 352 
731 500 501 375 
732 290 397 238 
733 174 181 180 
734 256 280 228 
735 121 454 12 
736 19 196 195 
737 132 135 133 
738 235 277 221 
739 244 451 395 
740 156 439 340 
741 184 221 209 
742 61 429 62 
743 143 145 144 
744 123 124 120 
745 197 296 195 
746 3 131 130 
747 117 119 116 
748 149 423 394 
749 251 373 252 
750 74 393 357 
751 276 463 396 
752 280 305 228 
753 175 409 124 
754 246 286 247 
755 212 469 376 
756 227 228 134 
757 284 416 218 
758 95 433 94 
759 253 450 348 
760 135 392 142 
761 165 200 199 
762 150 411 169 
763 371 461 293 
764 452 479 343 
765 200 220 219 
766 287 387 297 
767 210 246 189 
768 135 142 136 
769 221 266 209 
770 126 413 141 
771 336 481 382 
772 273 494 388 
773 356 467 52 
774 142 392 177 
775 122 123 120 
776 36 482 360 
777 274 430 330 
778 58 466 137 
779 120 409 119 
780 181 224 180 
781 225 293 224 
782 177 189 176 
783 352 472 77 
784 284 438 417 
785 268 475 348 
786 378 440 41 
787 19 425 196 
788 49 445 50 
789 131 134 132 
790 404 405 274 
791 291 418 244 
792 167 408 217 
793 213 214 23 
794 252 385 207 
795 222 467 356 
796 174 180 162 
797 295 448 180 
798 308 441 301 
799 26 389 384 
800 30 499 236 
801 142 176 143 
802 408 495 283 
803 133 420 130 
804 122 170 123 
805 405 430 274 
806 19 195 18 
807 163 408 167 
808 383 466 290 
809 312 357 261 
810 195 434 18 
811 46 478 47 
812 65 476 372 
813 149 411 147 
814 388 415 55 
815 260 483 215 
816 373 475 26 
817 184 209 183 
818 272 492 229 
819 53 467 222 
820 3 401 131 
821 39 455 359 
822 147 411 150 
823 384 389 183 
824 295 461 422 
825 123 413 126 
826 279 490 442 
827 172 408 163 
828 197 385 296 
829 131 401 227 
830 254 472 352 
831 198 479 452 
832 382 481 283 
833 437 483 294 
834 219 402 265 
835 125 496 355 
836 259 470 89 
837 374 406 252 
838 358 440 271 
839 220 403 402 
840 137 466 383 
841 386 458 324 
842 277 486 480 
843 391 432 321 
844 145 423 149 
845 259 405 404 
846 29 127 28 
847 216 261 260 
848 248 407 225 
849 78 472 254 
850 343 497 5 
851 398 438 284 
852 256 497 343 
853 159 449 172 
854 279 442 258 
855 416 444 191 
856 360 435 93 
857 278 413 170 
858 417 485 312 
859 410 482 36 
860 330 488 387 
861 155 449 159 
862 214 215 23 
863 215 483 230 
864 355 496 281 
865 231 476 64 
866 258 442 278 
867 124 409 120 
868 417 444 416 
869 220 402 219 
870 372 476 231 
871 309 452 343 
872 395 451 175 
873 284 417 416 
874 25 468 114 
875 22 474 21 
876 433 473 331 
877 138 443 174 
878 283 481 355 
879 378 470 259 
880 129 436 376 
881 413 491 141 
882 421 456 245 
883 396 463 442 
884 186 317 13 
885 450 498 348 
886 143 423 145 
887 333 465 403 
888 117 462 122 
889 225 407 293 
890 320 407 248 
891 312 444 417 
892 277 480 221 
893 135 428 392 
894 170 413 123 
895 214 216 215 
896 388 494 415 
897 252 406 385 
898 329 469 431 
899 246 436 286 
900 303 453 353 
901 311 444 312 
902 278 491 413 
903 420 421 22 
904 402 431 265 
905 186 349 317 
906 232 434 410 
907 273 464 272 
908 165 448 200 
909 442 490 396 
910 184 460 235 
911 345 491 463 
912 331 473 275 
913 216 260 215 
914 127 184 183 
915 343 479 256 
916 40 470 378 
917 196 425 399 
918 132 428 135 
919 176 423 143 
920 8 489 443 
921 348 475 373 
922 114 468 447 
923 236 501 500 
924 236 499 437 
925 185 486 353 
926 134 428 132 
927 245 474 421 
928 387 488 297 
929 224 461 295 
930 293 461 224 
931 24 477 213 
932 115 462 117 
933 370 490 279 
934 127 183 28 
935 149 459 411 
936 162 448 165 
937 446 447 316 
938 447 468 268 
939 296 434 195 
940 376 469 329 
941 183 389 28 
942 414 456 202 
943 396 490 194 
944 460 471 339 
945 353 486 277 
946 317 462 115 
947 180 448 162 
948 410 434 296 
949 480 486 306 
950 29 190 127 
951 221 480 266 
952 229 492 291 
953 437 501 236 
954 375 501 292 
955 268 498 447 
956 403 465 402 
957 215 230 23 
958 442 463 278 
959 415 494 263 
960 431 465 2 
961 297 487 298 
962 281 496 282 
963 392 428 363 
964 256 479 280 
965 263 494 390 
966 390 494 273 
967 406 482 385 
968 385 482 296 
969 402 465 431 
970 421 474 22 
971 266 484 435 
972 407 478 293 
973 312 485 357 
974 463 491 278 
975 190 471 460 
976 424 489 8 
977 316 498 450 
978 16 359 15 
979 14 455 186 
980 292 501 437 
981 29 500 190 
982 447 498 316 
983 172 495 408 
984 359 455 14 
985 297 488 487 
986 480 484 266 
987 306 484 480 
988 487 488 187 
989 10 424 9 
990 39 359 16 
991 18 232 17 
992 5 307 4 
993 7 309 6 
994 11 12 10 
995 20 234 19 
996 20 245 234 
997 25 114 24 
998 114 477 24 
999 26 468 25 
1000 268 468 26 
1001 30 236 29 
1002 409 419 119 
1003 191 426 347 
1004 362 469 212 
$EndElements
