$MeshFormat
4.1 0 8
$EndMeshFormat
$PhysicalNames
5
1 2 "inlet"
1 3 "outlet"
1 4 "noflux"
1 6 "SmallFract"
2 1 "k11"
$EndPhysicalNames
$Entities
34 19 1 0
12 0 0 0 0 
13 0 77 0 0 
14 66 77 0 0 
15 66 0 0 0 
101 10 25 0 0 
102 15 18 0 0 
103 20 15 0 0 
104 25 22 0 0 
105 30 5 0 0 
106 35 18 0 0 
107 40 27 0 0 
108 45 20 0 0 
109 50 10 0 0 
110 55 18 0 0 
111 10 30 0 0 
112 15 38 0 0 
113 10 45 0 0 
114 25 42 0 0 
115 30 32 0 0 
116 35 40 0 0 
117 40 40 0 0 
118 50 38 0 0 
119 50 35 0 0 
120 55 42 0 0 
121 3 65 0 0 
122 15 65 0 0 
123 14 60 0 0 
124 35 70 0 0 
125 30 50 0 0 
126 40 68 0 0 
127 48 44 0 0 
128 45 65 0 0 
129 50 60 0 0 
130 55 70 0 0 
12 0 0 0 0 77 0 1 3 2 12 -13 
13 0 77 0 66 77 0 1 4 2 13 -14 
14 66 0 0 66 77 0 1 2 2 14 -15 
15 0 0 0 66 0 0 1 4 2 15 -12 
101 10 18 0 15 25 0 2 6 -6 2 101 -102 
103 20 15 0 25 22 0 2 6 -6 2 103 -104 
105 30 5 0 35 18 0 2 6 -6 2 105 -106 
107 40 20 0 45 27 0 2 6 -6 2 107 -108 
109 50 10 0 55 18 0 2 6 -6 2 109 -110 
111 10 30 0 15 38 0 2 6 -6 2 111 -112 
113 10 42 0 25 45 0 2 6 -6 2 113 -114 
115 30 32 0 35 40 0 2 6 -6 2 115 -116 
117 40 38 0 50 40 0 2 6 -6 2 117 -118 
119 50 35 0 55 42 0 2 6 -6 2 119 -120 
121 3 65 0 15 65 0 2 6 -6 2 121 -122 
123 14 60 0 35 70 0 2 6 -6 2 123 -124 
125 30 50 0 40 68 0 2 6 -6 2 125 -126 
127 45 44 0 48 65 0 2 6 -6 2 127 -128 
129 50 60 0 55 70 0 2 6 -6 2 129 -130 
1000 0 0 0 66 77 0 1 1 34 101 -101 103 -103 105 -105 107 -107 109 -109 111 -111 113 -113 115 -115 117 -117 119 -119 121 -121 123 -123 125 -125 127 -127 129 -129 -15 -14 -13 -12 
$EndEntities
$Nodes
54 84 1 84
0 12 0 1
1
0 0 0
0 13 0 1
2
0 77 0
0 14 0 1
3
66 77 0
0 15 0 1
4
66 0 0
0 101 0 1
5
10 25 0
0 102 0 1
6
15 18 0
0 103 0 1
7
20 15 0
0 104 0 1
8
25 22 0
0 105 0 1
9
30 5 0
0 106 0 1
10
35 18 0
0 107 0 1
11
40 27 0
0 108 0 1
12
45 20 0
0 109 0 1
13
50 10 0
0 110 0 1
14
55 18 0
0 111 0 1
15
10 30 0
0 112 0 1
16
15 38 0
0 113 0 1
17
10 45 0
0 114 0 1
18
25 42 0
0 115 0 1
19
30 32 0
0 116 0 1
20
35 40 0
0 117 0 1
21
40 40 0
0 118 0 1
22
50 38 0
0 119 0 1
23
50 35 0
0 120 0 1
24
55 42 0
0 121 0 1
25
3 65 0
0 122 0 1
26
15 65 0
0 123 0 1
27
14 60 0
0 124 0 1
28
35 70 0
0 125 0 1
29
30 50 0
0 126 0 1
30
40 68 0
0 127 0 1
31
48 44 0
0 128 0 1
32
45 65 0
0 129 0 1
33
50 60 0
0 130 0 1
34
55 70 0
1 12 0 2
35
36
0 25.66666666664392 0
0 51.33333333333744 0
1 13 0 1
37
32.99999999990993 77 0
1 14 0 2
38
39
66 51.333333333412 0
66 25.66666666670557 0
1 15 0 1
40
33.00000000001238 0 0
1 101 0 0
1 103 0 0
1 105 0 0
1 107 0 0
1 109 0 0
1 111 0 0
1 113 0 0
1 115 0 0
1 117 0 0
1 119 0 0
1 121 0 0
1 123 0 0
1 125 0 0
1 127 0 0
1 129 0 0
2 1000 0 44
41
42
43
44
45
46
47
48
49
50
51
52
53
54
55
56
57
58
59
60
61
62
63
64
65
66
67
68
69
70
71
72
73
74
75
76
77
78
79
80
81
82
83
84
41.75011738826921 58.28974615215832 0
21.98564058308082 61.00287188338383 0
51.4375 26.1875 0
53.42959631428335 49.54904287548101 0
53.91300096881565 35.68886020821475 0
45.899850343186 37.27235153668894 0
46.71943511038292 31.56146726328911 0
41.33535295893343 34.18878222690018 0
58.49103921416844 62.93729773863369 0
41.19980579055191 48.30349626633797 0
18.77255654362295 50.83487790300663 0
22.46846322162031 69.10805260853252 0
32.48855656704126 61.37871300724976 0
40.69725852242976 11.88479312471976 0
53.95969397544129 31.12241462010745 0
37.5 44.39472811466749 0
59.03716973460942 36.95262881255361 0
58.02725098894421 26.23704912143995 0
33.50917183102904 10.48534351388727 0
28.32844884376625 15.86617551342189 0
47.84517190717182 53.64963182337578 0
45.70492434443127 26.39912731007088 0
19.33775755689209 21.0042203582857 0
20.29747071491073 27.52307369093239 0
13.02805117682835 13.32150712783864 0
20.38344236116703 7.136738116340284 0
15.29096774193549 23.49354838709678 0
22.5906398396003 34.89484891487508 0
16.16783088847421 31.67443904479354 0
6.986025052535882 36.49905227230257 0
32.24526158204819 24.86903751801585 0
8.649109947725439 53.82172128663012 0
57.78439242394699 47.23763207624061 0
31.87372898150824 44.68686449075413 0
11.91608636824358 20.17244304054567 0
6.769001754358289 18.61010280583804 0
14.35125386906408 27.53821222456454 0
29.38888888888889 37.94444444444444 0
35.42421477569578 33.71460916990863 0
55.5916999765951 54.11782297452385 0
36.21567477631849 53.25032040667372 0
16.85929084959046 44.38118787148459 0
6.44211039557854 27.25368882068351 0
26.39518128804076 10.35515718343651 0
$EndNodes
$Elements
20 181 1 181
1 12 1 3
1 1 35 
2 35 36 
3 36 2 
1 13 1 2
4 2 37 
5 37 3 
1 14 1 3
6 3 38 
7 38 39 
8 39 4 
1 15 1 2
9 4 40 
10 40 1 
1 101 1 1
11 5 6 
1 103 1 1
12 7 8 
1 105 1 1
13 9 10 
1 107 1 1
14 11 12 
1 109 1 1
15 13 14 
1 111 1 1
16 15 16 
1 113 1 1
17 17 18 
1 115 1 1
18 19 20 
1 117 1 1
19 21 22 
1 119 1 1
20 23 24 
1 121 1 1
21 25 26 
1 123 1 1
22 27 28 
1 125 1 1
23 29 30 
1 127 1 1
24 31 32 
1 129 1 1
25 33 34 
2 1000 2 156
26 1 65 76 
27 31 21 46 
28 16 15 69 
29 15 70 83 
30 40 54 59 
31 14 39 58 
32 21 50 56 
33 28 52 53 
34 8 19 64 
35 12 14 43 
36 13 14 12 
37 46 21 48 
38 29 42 51 
39 15 16 70 
40 23 47 55 
41 21 20 79 
42 52 42 53 
43 66 9 84 
44 3 34 49 
45 8 7 60 
46 42 29 53 
47 11 47 48 
48 13 12 54 
49 21 31 50 
50 27 26 25 
51 7 8 63 
52 12 11 10 
53 71 11 79 
54 33 34 32 
55 19 8 71 
56 47 43 55 
57 18 16 68 
58 60 7 84 
59 8 60 71 
60 51 17 82 
61 74 56 81 
62 11 48 79 
63 48 21 79 
64 17 51 72 
65 18 29 51 
66 25 36 72 
67 41 30 53 
68 64 19 68 
69 16 18 82 
70 44 73 80 
71 34 33 49 
72 12 10 54 
73 19 71 79 
74 12 43 62 
75 50 31 61 
76 47 46 48 
77 22 31 46 
78 31 24 44 
79 27 25 72 
80 60 10 71 
81 30 37 28 
82 47 11 62 
83 43 47 62 
84 31 44 61 
85 9 40 59 
86 44 24 73 
87 24 22 45 
88 56 50 81 
89 10 11 71 
90 36 17 72 
91 7 66 84 
92 16 17 70 
93 18 51 82 
94 32 30 41 
95 43 14 58 
96 41 50 61 
97 51 27 72 
98 68 16 69 
99 9 59 84 
100 20 74 78 
101 28 37 52 
102 24 31 22 
103 26 42 52 
104 63 64 67 
105 22 23 45 
106 20 21 56 
107 73 38 80 
108 20 78 79 
109 45 23 55 
110 59 60 84 
111 11 12 62 
112 23 46 47 
113 29 18 74 
114 67 64 77 
115 29 74 81 
116 38 49 80 
117 42 27 51 
118 6 7 63 
119 30 28 53 
120 49 33 80 
121 64 68 69 
122 33 61 80 
123 69 15 77 
124 61 44 80 
125 15 5 77 
126 33 32 41 
127 17 16 82 
128 63 8 64 
129 33 41 61 
130 6 63 67 
131 23 22 46 
132 53 29 81 
133 20 56 74 
134 54 10 59 
135 41 53 81 
136 59 10 60 
137 50 41 81 
138 5 67 77 
139 64 69 77 
140 7 65 66 
141 67 5 75 
142 7 6 65 
143 5 15 83 
144 74 18 78 
145 55 43 58 
146 45 55 57 
147 6 67 75 
148 18 68 78 
149 68 19 78 
150 26 27 42 
151 57 55 58 
152 78 19 79 
153 76 5 83 
154 75 5 76 
155 39 57 58 
156 35 76 83 
157 35 1 76 
158 25 2 36 
159 37 2 52 
160 38 3 49 
161 40 9 66 
162 34 37 30 
163 57 38 73 
164 1 40 66 
165 65 1 66 
166 26 2 25 
167 2 26 52 
168 3 37 34 
169 4 14 13 
170 40 4 13 
171 4 39 14 
172 65 6 75 
173 40 13 54 
174 17 36 70 
175 24 45 57 
176 24 57 73 
177 32 34 30 
178 36 35 70 
179 70 35 83 
180 39 38 57 
181 65 75 76 
$EndElements
