$MeshFormat
4.1 0 8
$EndMeshFormat
$PhysicalNames
6
0 10 "FracEnds"
1 2 "inlet"
1 3 "outlet"
1 4 "top"
1 5 "SmallFract"
2 1 "k11"
$EndPhysicalNames
$Entities
12 8 5 0
1 30 8 0 1 10 
5 25 15 0 1 10 
12 0 0 0 0 
13 0 77 0 0 
14 66 77 0 0 
15 66 0 0 0 
16 40 25 0 1 10 
17 35 40 0 1 10 
18 5 10 0 1 10 
19 15 21 0 1 10 
20 55 60 0 1 10 
21 45 68 0 1 10 
12 0 0 0 0 77 0 1 3 2 12 -13 
13 0 77 0 66 77 0 1 4 2 13 -14 
14 66 0 0 66 77 0 1 2 2 14 -15 
15 0 0 0 66 0 0 1 4 2 15 -12 
16 25 8 0 30 15 0 2 -5 5 2 5 -1 
18 35 25 0 40 40 0 2 -5 5 2 16 -17 
20 5 10 0 15 21 0 2 -5 5 2 18 -19 
22 45 60 0 55 68 0 2 -5 5 2 20 -21 
11 25 8 0 30 15 0 0 2 16 -16 
12 35 25 0 40 40 0 0 2 18 -18 
13 5 10 0 15 21 0 0 2 20 -20 
14 45 60 0 55 68 0 0 2 22 -22 
1000 0 0 0 66 77 0 1 1 12 16 -16 18 -18 20 -20 22 -22 -15 -14 -13 -12 
$EndEntities
$Nodes
21 115 1 115
0 1 0 1
1
30 8 0
0 5 0 1
2
25 15 0
0 12 0 1
3
0 0 0
0 13 0 1
4
0 77 0
0 14 0 1
5
66 77 0
0 15 0 1
6
66 0 0
0 16 0 1
7
40 25 0
0 17 0 1
8
35 40 0
0 18 0 1
9
5 10 0
0 19 0 1
10
15 21 0
0 20 0 1
11
55 60 0
0 21 0 1
12
45 68 0
1 12 0 7
13
14
15
16
17
18
19
0 9.624999999993483 0
0 19.24999999997806 0
0 28.87499999997685 0
0 38.4999999999479 0
0 48.12499999998973 0
0 57.75000000003292 0
0 67.3750000000456 0
1 13 0 6
20
21
22
23
24
25
9.428571428545492 77 0
18.85714285709233 77 0
28.28571428563917 77 0
37.71428571420723 77 0
47.14285714280481 77 0
56.57142857140241 77 0
1 14 0 7
26
27
28
29
30
31
32
66 67.37500000002949 0
66 57.75000000005898 0
66 48.12500000008847 0
66 38.50000000011657 0
66 28.87500000005863 0
66 19.24999999999931 0
66 9.624999999970512 0
1 15 0 6
33
34
35
36
37
38
56.57142857144403 0 0
47.14285714286864 0 0
37.71428571429324 0 0
28.28571428572618 0 0
18.85714285715078 0 0
9.428571428575388 0 0
1 16 0 1
39
27.49999999999886 11.5000000000016 0
1 18 0 1
40
37.50000000002477 32.4999999999257 0
1 20 0 1
41
10.00000000000001 15.50000000000001 0
1 22 0 1
42
49.99999999999999 64.00000000000001 0
2 1000 0 73
43
44
45
46
47
48
49
50
51
52
53
54
55
56
57
58
59
60
61
62
63
64
65
66
67
68
69
70
71
72
73
74
75
76
77
78
79
80
81
82
83
84
85
86
87
88
89
90
91
92
93
94
95
96
97
98
99
100
101
102
103
104
105
106
107
108
109
110
111
112
113
114
115
23.72456276594097 68.62859013128683 0
7.920201479439696 43.88949276017565 0
57.98227876436508 43.46337541327632 0
57.91495869419199 14.55964470370947 0
40.88501049283278 8.031405650459801 0
9.267483364437295 62.61565619727335 0
58.03499923930067 53.6638348061817 0
50.53034135445314 48.12031999663601 0
50.1768906380656 39.70598042240291 0
43.07292786270338 44.32741383961623 0
43.50479960751978 52.24354163079401 0
36.43496162181755 48.65026019915982 0
28.99052848554568 45.80474612650048 0
26.877238043059 37.67188228322183 0
37.40778989214145 56.69242040341028 0
21.49099023385356 43.49937797066923 0
19.6809285281113 35.61606890946483 0
24.70546521951118 30.0743631155695 0
23.03857644685949 51.53960143128851 0
57.75768720884393 34.3593875964289 0
49.63841588543659 31.86027995300844 0
56.16460409936226 24.74044599865577 0
51.17632187841802 17.43346413577218 0
44.02173350966001 60.24749265451223 0
38.26087693363608 64.56572403666624 0
31.04170280262944 62.03091398753629 0
17.76837175211898 28.19572191898417 0
22.4760484750109 23.71576279373768 0
29.04404986686383 25.28085752109851 0
12.95579304765737 32.8579594197271 0
8.154842129584136 53.1995029337881 0
14.54286567650139 7.045352089646465 0
16.42036057209886 56.64102427908934 0
21.50580550680171 6.470600206435792 0
18.42247425384141 13.21537491891244 0
52.53075145081763 70.62565736136378 0
6.899692741153146 22.22078393158532 0
49.53297429426117 55.89385806319143 0
51.07171342336829 8.599835425137243 0
14.52529483889615 69.82771089934437 0
26.91415116857361 19.73444333484112 0
33.11336525347893 21.32147751392891 0
30.59363843810943 15.77253882209141 0
37.09554716837761 16.08061565356877 0
33.07262698733955 70.02464200688803 0
55.88063947409704 65.85771695978421 0
30.26368448340644 53.75577983837402 0
15.38821005604783 48.56145683834323 0
23.86562743337128 59.40116554954128 0
33.83232469384053 11.21718314859698 0
34.14346703733855 5.449717759811356 0
43.1124275196035 36.74414010619462 0
31.30473947380951 32.00960841174666 0
23.64007849689841 10.76178255704879 0
21.03024882758579 18.35864035525445 0
61.19940026202534 62.29429017002071 0
44.43941384615133 16.68485766967815 0
25.98344279223526 7.481886074589586 0
14.43344958262549 40.62640401254703 0
39.40861942198445 70.92262388583893 0
59.17819096593315 6.817550002783991 0
7.169131088068374 69.91093543783344 0
4.379938548230631 15.31915678631137 0
4.703011446194621 4.59814394134288 0
47.42228564378641 24.320672301365 0
60.50612137556077 71.42381714926046 0
34.19243091883541 27.22238868933995 0
7.719471703943558 29.42657607055751 0
43.41472076507883 30.11929492323496 0
18.40702982668326 63.71001787103938 0
12.25611155970273 26.32105609866065 0
8.954932933497474 6.927481925343463 0
6.803311448814464 36.33738189109786 0
$EndNodes
$Elements
17 244 1 244
0 1 15 1
1 1 
0 5 15 1
2 2 
0 16 15 1
3 7 
0 17 15 1
4 8 
0 18 15 1
5 9 
0 19 15 1
6 10 
0 20 15 1
7 11 
0 21 15 1
8 12 
1 12 1 8
9 3 13 
10 13 14 
11 14 15 
12 15 16 
13 16 17 
14 17 18 
15 18 19 
16 19 4 
1 13 1 7
17 4 20 
18 20 21 
19 21 22 
20 22 23 
21 23 24 
22 24 25 
23 25 5 
1 14 1 8
24 5 26 
25 26 27 
26 27 28 
27 28 29 
28 29 30 
29 30 31 
30 31 32 
31 32 6 
1 15 1 7
32 6 33 
33 33 34 
34 34 35 
35 35 36 
36 36 37 
37 37 38 
38 38 3 
1 16 1 2
39 2 39 
40 39 1 
1 18 1 2
41 7 40 
42 40 8 
1 20 1 2
43 9 41 
44 41 10 
1 22 1 2
45 11 42 
46 42 12 
2 1000 2 198
47 1 36 93 
48 36 1 100 
49 11 49 98 
50 49 11 80 
51 7 86 99 
52 2 83 97 
53 7 99 107 
54 39 1 92 
55 10 41 77 
56 41 9 114 
57 50 49 80 
58 81 65 99 
59 2 39 85 
60 7 84 86 
61 8 56 95 
62 42 12 66 
63 13 3 106 
64 46 65 81 
65 14 13 105 
66 69 10 70 
67 42 66 80 
68 41 74 77 
69 11 42 80 
70 8 52 54 
71 83 2 85 
72 37 36 76 
73 12 24 102 
74 85 39 92 
75 64 63 107 
76 40 8 95 
77 47 86 92 
78 9 13 106 
79 10 77 97 
80 70 10 97 
81 60 69 70 
82 46 64 65 
83 68 43 91 
84 13 9 105 
85 46 31 64 
86 2 77 96 
87 65 64 107 
88 43 68 87 
89 49 27 98 
90 30 62 64 
91 62 63 64 
92 66 12 67 
93 56 59 60 
94 99 65 107 
95 8 54 55 
96 77 2 97 
97 60 70 71 
98 52 8 94 
99 83 70 97 
100 47 92 93 
101 30 29 62 
102 52 50 53 
103 31 30 64 
104 36 35 93 
105 89 68 91 
106 56 60 95 
107 24 12 78 
108 60 59 69 
109 51 50 52 
110 28 27 49 
111 45 49 50 
112 74 41 114 
113 53 50 80 
114 48 18 73 
115 48 73 75 
116 57 53 66 
117 47 81 99 
118 35 34 47 
119 15 14 79 
120 29 28 45 
121 52 53 54 
122 57 66 67 
123 17 16 44 
124 17 44 73 
125 8 55 56 
126 22 21 43 
127 29 45 62 
128 57 67 68 
129 45 28 49 
130 62 51 63 
131 32 31 46 
132 57 68 89 
133 54 53 57 
134 19 18 48 
135 18 17 73 
136 48 75 112 
137 78 88 108 
138 38 37 74 
139 8 40 94 
140 45 50 51 
141 56 58 59 
142 47 34 81 
143 34 33 81 
144 66 53 80 
145 63 51 94 
146 21 20 82 
147 61 89 91 
148 73 44 90 
149 43 21 82 
150 25 24 78 
151 82 48 112 
152 22 43 87 
153 56 55 58 
154 24 23 102 
155 74 37 76 
156 16 15 115 
157 61 75 90 
158 15 110 115 
159 6 32 103 
160 45 51 62 
161 4 19 104 
162 35 47 93 
163 71 70 83 
164 23 22 87 
165 58 55 61 
166 25 78 108 
167 33 6 103 
168 86 47 99 
169 20 4 104 
170 74 76 77 
171 15 79 110 
172 9 41 105 
173 68 67 87 
174 75 61 91 
175 69 59 72 
176 55 54 89 
177 41 10 79 
178 72 101 115 
179 54 57 89 
180 75 73 90 
181 84 83 85 
182 58 61 90 
183 3 38 106 
184 77 76 96 
185 90 44 101 
186 51 52 94 
187 61 55 89 
188 84 7 109 
189 42 11 88 
190 12 42 78 
191 88 98 108 
192 72 59 101 
193 60 71 95 
194 38 74 114 
195 71 83 84 
196 63 94 111 
197 91 43 112 
198 39 2 96 
199 101 44 115 
200 1 39 100 
201 41 79 105 
202 44 16 115 
203 58 90 101 
204 7 40 109 
205 32 46 103 
206 27 26 98 
207 92 1 93 
208 26 5 108 
209 19 48 104 
210 81 33 103 
211 5 25 108 
212 82 20 104 
213 23 87 102 
214 59 58 101 
215 84 85 86 
216 67 12 102 
217 79 14 105 
218 87 67 102 
219 78 42 88 
220 69 72 113 
221 40 7 111 
222 98 26 108 
223 10 69 113 
224 46 81 103 
225 86 85 92 
226 43 82 112 
227 48 82 104 
228 88 11 98 
229 71 84 109 
230 94 40 111 
231 39 96 100 
232 9 106 114 
233 40 95 109 
234 79 10 113 
235 95 71 109 
236 110 72 115 
237 75 91 112 
238 72 110 113 
239 7 107 111 
240 106 38 114 
241 107 63 111 
242 110 79 113 
243 96 76 100 
244 76 36 100 
$EndElements
