$MeshFormat
4.1 0 8
$EndMeshFormat
$PhysicalNames
5
1 2 "inlet"
1 3 "outlet"
1 4 "noflux"
1 6 "SmallFract"
2 1 "k11"
$EndPhysicalNames
$Entities
22 13 10 0
1 30 8 0 0 
5 25 15 0 0 
12 0 0 0 0 
13 0 77 0 0 
14 66 77 0 0 
15 66 0 0 0 
16 40 25 0 0 
17 35 40 0 0 
18 5 10 0 0 
19 15 21 0 0 
20 55 60 0 0 
21 45 68 0 0 
22 10 50 0 0 
23 15 35 0 0 
24 24 65 0 0 
25 33 50 0 0 
26 45 10 0 0 
27 57 18 0 0 
28 50 40 0 0 
29 57 31 0 0 
30 7 64 0 0 
31 18 69 0 0 
12 0 0 0 0 77 0 1 3 2 12 -13 
13 0 77 0 66 77 0 1 4 2 13 -14 
14 66 0 0 66 77 0 1 2 2 14 -15 
15 0 0 0 66 0 0 1 4 2 15 -12 
16 25 8 0 30 15 0 2 6 -6 2 5 -1 
18 35 25 0 40 40 0 2 6 -6 2 16 -17 
20 5 10 0 15 21 0 2 6 -6 2 18 -19 
22 45 60 0 55 68 0 2 6 -6 2 20 -21 
24 10 35 0 15 50 0 2 6 -6 2 22 -23 
26 24 50 0 33 65 0 2 6 -6 2 24 -25 
28 45 10 0 57 18 0 2 6 -6 2 26 -27 
30 50 31 0 57 40 0 2 6 -6 2 28 -29 
32 7 64 0 18 69 0 2 6 -6 2 30 -31 
11 25 8 0 30 15 0 0 2 16 -16 
12 35 25 0 40 40 0 0 2 18 -18 
13 5 10 0 15 21 0 0 2 20 -20 
14 45 60 0 55 68 0 0 2 22 -22 
15 10 35 0 15 50 0 0 2 24 -24 
16 24 50 0 33 65 0 0 2 26 -26 
17 45 10 0 57 18 0 0 2 28 -28 
18 50 31 0 57 40 0 0 2 30 -30 
19 7 64 0 18 69 0 0 2 32 -32 
1000 0 0 0 66 77 0 1 1 22 16 -16 18 -18 20 -20 22 -22 24 -24 26 -26 28 -28 30 -30 32 -32 -15 -14 -13 -12 
$EndEntities
$Nodes
36 95 1 95
0 1 0 1
1
30 8 0
0 5 0 1
2
25 15 0
0 12 0 1
3
0 0 0
0 13 0 1
4
0 77 0
0 14 0 1
5
66 77 0
0 15 0 1
6
66 0 0
0 16 0 1
7
40 25 0
0 17 0 1
8
35 40 0
0 18 0 1
9
5 10 0
0 19 0 1
10
15 21 0
0 20 0 1
11
55 60 0
0 21 0 1
12
45 68 0
0 22 0 1
13
10 50 0
0 23 0 1
14
15 35 0
0 24 0 1
15
24 65 0
0 25 0 1
16
33 50 0
0 26 0 1
17
45 10 0
0 27 0 1
18
57 18 0
0 28 0 1
19
50 40 0
0 29 0 1
20
57 31 0
0 30 0 1
21
7 64 0
0 31 0 1
22
18 69 0
1 12 0 2
23
24
0 25.66666666664392 0
0 51.33333333333744 0
1 13 0 1
25
32.99999999990993 77 0
1 14 0 2
26
27
66 51.333333333412 0
66 25.66666666670557 0
1 15 0 1
28
33.00000000001238 0 0
1 16 0 1
29
27.49999999999885 11.50000000000161 0
1 18 0 1
30
37.50000000002478 32.49999999992566 0
1 20 0 1
31
10 15.5 0
1 22 0 1
32
49.99999999999999 64 0
1 24 0 1
33
12.49999999999999 42.50000000000003 0
1 26 0 1
34
28.4999999999896 57.50000000001732 0
1 28 0 1
35
50.999999999878 13.99999999991867 0
1 30 0 1
36
53.50000000000001 35.49999999999999 0
1 32 0 1
37
12.4999999999967 66.49999999999849 0
2 1000 0 58
38
39
40
41
42
43
44
45
46
47
48
49
50
51
52
53
54
55
56
57
58
59
60
61
62
63
64
65
66
67
68
69
70
71
72
73
74
75
76
77
78
79
80
81
82
83
84
85
86
87
88
89
90
91
92
93
94
95
16.77126676740196 63.03333196428218 0
13.31173161250791 13.63323137493797 0
19.34147014522997 15.26550490189407 0
17.69601612064365 8.283381823910393 0
21.92702504385949 20.22185763718494 0
27.75468189367302 19.60205265403175 0
25.27089034120188 25.58637682537086 0
32.30863457951148 25.5614178038786 0
34.04752386697665 18.42481198091201 0
44.51205085727279 30.50775417391223 0
46.1591509232824 23.46164129725707 0
29.66473071414857 32.43461933642181 0
26.83984367601166 39.07171611068743 0
43.09103557564986 38.15584069843489 0
41.68548247622198 17.49217986325004 0
37.12777136870464 11.9085188443155 0
40.51425317689056 45.35671367205717 0
40.66301484465652 53.24193238089732 0
46.64832142931022 49.64481735924043 0
47.36608764958016 57.6522450527997 0
41.40045182373866 59.67763821284927 0
53.3886796095548 52.52660792454947 0
22.41209378331109 32.59215144669965 0
48.6964172626546 6.698629612905824 0
52.41739119082359 45.79690974575665 0
20.94710853534141 58.58728398191781 0
32.08876080822286 64.79326754258845 0
24.34284899963776 52.19339477008754 0
13.81583360543344 57.41495642378959 0
51.09564134857756 28.76643701881079 0
59.69900862733483 38.44566409843487 0
56.66326131172107 24.85491383767865 0
56.46748317483477 64.37514474699475 0
32.23423159514596 13.58150785299619 0
55.1326674530275 41.22709390428754 0
18.99259189788032 26.08433070962291 0
11.775655101977 28 0
7.855131020395397 36.49999999999628 0
20.36961336812613 40.47929600927117 0
17.53686502703531 47.46207855377674 0
8.235563446588365 22.12676050310148 0
35.20599091653066 57.58831308966039 0
38.65858194029467 65.04242982696759 0
46.03749436752828 43.78936112177382 0
48.43974555630004 34.58600637823158 0
57.46410161505331 10.8038475772879 0
29.3072874711589 15.62167449758831 0
51.97724124256265 20.9754831378728 0
38.76483772627432 7.321429691444266 0
23.57023055941815 11.35271243677566 0
27.29208865148149 45.74615561119325 0
18.14424271306151 53.3611761403502 0
47.39820547636187 18.17226720616862 0
57.72368728560069 47.33107437811581 0
11.38608375534786 61.51936092838989 0
8.440383472156261 56.85353013710338 0
58.68988355793215 54.88969175937683 0
44.7053853714779 62.9661476180045 0
$EndNodes
$Elements
14 206 1 206
1 12 1 3
1 3 23 
2 23 24 
3 24 4 
1 13 1 2
4 4 25 
5 25 5 
1 14 1 3
6 5 26 
7 26 27 
8 27 6 
1 15 1 2
9 6 28 
10 28 3 
1 16 1 2
11 2 29 
12 29 1 
1 18 1 2
13 7 30 
14 30 8 
1 20 1 2
15 9 31 
16 31 10 
1 22 1 2
17 11 32 
18 32 12 
1 24 1 2
19 13 33 
20 33 14 
1 26 1 2
21 15 34 
22 34 16 
1 28 1 2
23 17 35 
24 35 18 
1 30 1 2
25 19 36 
26 36 20 
1 32 1 2
27 21 37 
28 37 22 
2 1000 2 178
29 25 4 22 
30 5 12 70 
31 9 3 41 
32 45 30 49 
33 25 15 64 
34 53 1 86 
35 11 32 57 
36 60 50 76 
37 77 76 88 
38 7 30 45 
39 49 50 60 
40 60 14 73 
41 65 77 88 
42 18 27 69 
43 17 52 53 
44 49 8 50 
45 29 1 71 
46 16 8 54 
47 30 8 49 
48 7 45 46 
49 27 20 69 
50 7 46 52 
51 61 17 86 
52 11 57 59 
53 44 45 49 
54 79 58 80 
55 10 39 40 
56 14 60 76 
57 52 46 53 
58 76 50 88 
59 55 54 56 
60 73 14 74 
61 8 16 88 
62 44 49 60 
63 20 36 67 
64 2 40 87 
65 40 2 42 
66 16 54 55 
67 67 36 82 
68 51 19 81 
69 55 56 57 
70 48 7 52 
71 30 47 51 
72 19 51 82 
73 52 17 90 
74 72 68 91 
75 64 79 80 
76 57 32 95 
77 47 7 48 
78 31 9 39 
79 30 7 47 
80 50 8 88 
81 16 34 65 
82 8 51 54 
83 66 13 89 
84 69 67 85 
85 53 46 71 
86 10 40 42 
87 15 34 64 
88 8 30 51 
89 17 35 90 
90 15 22 38 
91 19 62 81 
92 48 52 90 
93 10 31 39 
94 67 48 85 
95 55 57 58 
96 10 42 73 
97 46 43 84 
98 15 38 63 
99 34 15 63 
100 13 77 89 
101 47 48 67 
102 25 64 80 
103 20 67 69 
104 14 33 75 
105 92 21 93 
106 51 47 82 
107 63 38 66 
108 57 56 59 
109 16 65 88 
110 61 6 83 
111 34 63 65 
112 13 66 93 
113 56 54 81 
114 62 56 81 
115 42 2 43 
116 59 62 91 
117 13 33 77 
118 54 51 81 
119 45 43 46 
120 12 80 95 
121 74 23 78 
122 33 14 76 
123 47 67 82 
124 42 44 73 
125 71 46 84 
126 16 55 79 
127 23 74 75 
128 44 60 73 
129 58 57 95 
130 34 16 79 
131 35 18 85 
132 44 43 45 
133 24 13 93 
134 80 58 95 
135 59 56 62 
136 10 73 74 
137 66 38 92 
138 36 19 82 
139 43 2 84 
140 64 34 79 
141 42 43 44 
142 19 36 72 
143 33 76 77 
144 29 71 84 
145 55 58 79 
146 65 63 89 
147 17 53 86 
148 59 91 94 
149 62 19 72 
150 18 69 85 
151 36 20 68 
152 66 92 93 
153 11 59 94 
154 40 39 41 
155 74 14 75 
156 2 29 84 
157 37 21 92 
158 31 10 78 
159 29 2 87 
160 40 41 87 
161 22 37 38 
162 32 12 95 
163 35 85 90 
164 1 28 86 
165 63 66 89 
166 18 35 83 
167 35 17 61 
168 32 11 70 
169 10 74 78 
170 77 65 89 
171 36 68 72 
172 62 72 91 
173 38 37 92 
174 85 48 90 
175 35 61 83 
176 91 26 94 
177 6 27 83 
178 27 18 83 
179 68 26 91 
180 26 70 94 
181 28 61 86 
182 28 1 41 
183 1 29 87 
184 41 1 87 
185 1 53 71 
186 23 3 9 
187 3 28 41 
188 4 24 21 
189 37 4 21 
190 4 37 22 
191 5 25 12 
192 26 5 70 
193 28 6 61 
194 23 9 78 
195 9 31 78 
196 39 9 41 
197 70 11 94 
198 12 25 80 
199 12 32 70 
200 13 24 33 
201 25 22 15 
202 20 27 68 
203 21 24 93 
204 24 23 75 
205 33 24 75 
206 27 26 68 
$EndElements
