$MeshFormat
4.1 0 8
$EndMeshFormat
$PhysicalNames
5
1 2 "inlet"
1 3 "outlet"
1 4 "noflux"
2 1 "k11"
2 6 "Vugs"
$EndPhysicalNames
$Entities
43 36 4 0
1 178 128 0 0 
2 168 131 0 0 
3 158 145 0 0 
4 160 166 0 0 
5 170 176 0 0 
6 189 176 0 0 
7 201 162 0 0 
8 200 142 0 0 
9 188 129 0 0 
10 101 43 0 0 
11 85 48 0 0 
12 66 68 0 0 
13 62 76 0 0 
14 61 97 0 0 
15 69 118 0 0 
16 89 134 0 0 
17 101 137 0 0 
18 125 132 0 0 
19 144 112 0 0 
20 149 97 0 0 
21 147 74 0 0 
22 142 64 0 0 
23 121 46 0 0 
24 108 43 0 0 
25 21 23 0 0 
26 13 31 0 0 
27 20 44 0 0 
28 31 37 0 0 
29 30 28 0 0 
30 25 24 0 0 
31 24 23 0 0 
32 166 22 0 0 
33 155 31 0 0 
34 156 47 0 0 
35 168 54 0 0 
36 177 52 0 0 
37 184 43 0 0 
38 182 28 0 0 
39 173 22 0 0 
48 0 0 0 0 
49 0 224 0 0 
50 225 224 0 0 
51 225 0 0 0 
1 168 128 0 178 131 0 0 2 1 -2 
2 158 131 0 168 145 0 0 2 2 -3 
3 158 145 0 160 166 0 0 2 3 -4 
4 160 166 0 170 176 0 0 2 4 -5 
5 170 176 0 189 176 0 0 2 5 -6 
6 189 162 0 201 176 0 0 2 6 -7 
7 200 142 0 201 162 0 0 2 7 -8 
8 188 129 0 200 142 0 0 2 8 -9 
9 178 128 0 188 129 0 0 2 9 -1 
10 85 43 0 101 48 0 0 2 10 -11 
11 66 48 0 85 68 0 0 2 11 -12 
12 62 68 0 66 76 0 0 2 12 -13 
13 61 76 0 62 97 0 0 2 13 -14 
14 61 97 0 69 118 0 0 2 14 -15 
15 69 118 0 89 134 0 0 2 15 -16 
16 89 134 0 101 137 0 0 2 16 -17 
17 101 132 0 125 137 0 0 2 17 -18 
18 125 112 0 144 132 0 0 2 18 -19 
19 144 97 0 149 112 0 0 2 19 -20 
20 147 74 0 149 97 0 0 2 20 -21 
21 142 64 0 147 74 0 0 2 21 -22 
22 121 46 0 142 64 0 0 2 22 -23 
23 108 43 0 121 46 0 0 2 23 -24 
24 101 43 0 108 43 0 0 2 24 -10 
32 155 22 0 166 31 0 0 2 32 -33 
33 155 31 0 156 47 0 0 2 33 -34 
34 156 47 0 168 54 0 0 2 34 -35 
35 168 52 0 177 54 0 0 2 35 -36 
36 177 43 0 184 52 0 0 2 36 -37 
37 182 28 0 184 43 0 0 2 37 -38 
38 173 22 0 182 28 0 0 2 38 -39 
39 166 22 0 173 22 0 0 2 39 -32 
48 0 0 0 0 224 0 1 3 2 48 -49 
49 0 224 0 225 224 0 1 4 2 49 -50 
50 225 0 0 225 224 0 1 2 2 50 -51 
51 0 0 0 225 0 0 1 4 2 51 -48 
44 158 128 0 201 176 0 1 6 9 1 2 3 4 5 6 7 8 9 
45 61 43 0 149 137 0 1 6 15 10 11 12 13 14 15 16 17 18 19 20 21 22 23 24 
47 155 22 0 184 54 0 1 6 8 32 33 34 35 36 37 38 39 
1000 0 0 0 225 224 0 1 1 36 1 2 3 4 5 6 7 8 9 -24 -23 -22 -21 -20 -19 -18 -17 -16 -15 -14 -13 -12 -11 -10 -39 -38 -37 -36 -35 -34 -33 -32 -51 -50 -49 -48 
$EndEntities
$Nodes
44 139 1 139
0 1 0 1
1
178 128 0
0 2 0 1
2
168 131 0
0 3 0 1
3
158 145 0
0 4 0 1
4
160 166 0
0 5 0 1
5
170 176 0
0 6 0 1
6
189 176 0
0 7 0 1
7
201 162 0
0 8 0 1
8
200 142 0
0 9 0 1
9
188 129 0
0 10 0 1
10
101 43 0
0 11 0 1
11
85 48 0
0 12 0 1
12
66 68 0
0 13 0 1
13
62 76 0
0 14 0 1
14
61 97 0
0 15 0 1
15
69 118 0
0 16 0 1
16
89 134 0
0 17 0 1
17
101 137 0
0 18 0 1
18
125 132 0
0 19 0 1
19
144 112 0
0 20 0 1
20
149 97 0
0 21 0 1
21
147 74 0
0 22 0 1
22
142 64 0
0 23 0 1
23
121 46 0
0 24 0 1
24
108 43 0
0 32 0 1
25
166 22 0
0 33 0 1
26
155 31 0
0 34 0 1
27
156 47 0
0 35 0 1
28
168 54 0
0 36 0 1
29
177 52 0
0 37 0 1
30
184 43 0
0 38 0 1
31
182 28 0
0 39 0 1
32
173 22 0
0 48 0 1
33
0 0 0
0 49 0 1
34
0 224 0
0 50 0 1
35
225 224 0
0 51 0 1
36
225 0 0
1 48 0 2
37
38
0 74.66666666663417 0
0 149.3333333333698 0
1 49 0 2
39
40
74.99999999999943 224 0
150.0000000000469 224 0
1 50 0 2
41
42
225 149.3333333333685 0
225 74.6666666666315 0
1 51 0 2
43
44
150.0000000000314 0 0
74.99999999996854 0 0
2 44 0 6
45
46
47
48
49
50
176.6239288533311 139.4710567129178 0
173.6602540378444 162.3397459621556 0
186.0030446525127 152.1052261622366 0
187.3651624313754 140.7273338995809 0
170.3722651671227 150.9720922465495 0
185.4574233829635 164.5351364996389 0
2 45 0 27
51
52
53
54
55
56
57
58
59
60
61
62
63
64
65
66
67
68
69
70
71
72
73
74
75
76
77
102.7453912706696 52.68308516652642 0
135.4112128743851 86.26109957540598 0
96.01717014492283 123.5010897120418 0
73.85574153848421 76.58836298950632 0
124.1999813776746 63.60431876681804 0
124.3264553236513 109.4220964097327 0
79.24854538077659 102.6610713980087 0
81.73919994965622 66.22554147049856 0
88.59126272335254 76.28506743276904 0
95.16073128858558 63.75148358006181 0
103.397152142556 76.61685498935987 0
96.67291130484371 88.43988553587793 0
110.6231963311854 88.97496252406336 0
102.9424079356239 102.3405581580298 0
110.5544118536922 65.15252672460329 0
84.9157578441833 116.8059013330723 0
83.45208232559345 88.52768307668421 0
133.8733893489833 73.25755803720385 0
120.2797953137024 78.10186498017147 0
135.3273782930953 99.50578604577696 0
123.8992232674402 92.84573424374607 0
94.21623267785549 110.3000250983815 0
108.7427392468242 116.922265764462 0
114.106804420945 102.1011234200068 0
71.91127384897085 88.15542349283986 0
113.2999569004073 54.08798613158955 0
91.30643592493864 98.45384465339644 0
2 47 0 6
78
79
80
81
82
83
173.2205781736933 31.4191327394601 0
170.8433679987429 45.50399450009883 0
164.116934021574 30.92069713747935 0
175.7390633470193 39.58819944990702 0
163.5760499239094 40.18753739225643 0
169.2879479840902 26.687400736592 0
2 1000 0 56
84
85
86
87
88
89
90
91
92
93
94
95
96
97
98
99
100
101
102
103
104
105
106
107
108
109
110
111
112
113
114
115
116
117
118
119
120
121
122
123
124
125
126
127
128
129
130
131
132
133
134
135
136
137
138
139
159.6697658094701 84.71598703316249 0
114.3095648029979 153.0672401819236 0
170.4505032628641 121.0016775428805 0
117.8425740581776 34.41906397299705 0
68.0399784377838 45.62191506940044 0
54.86798878063868 65.55266694902825 0
180.661155167291 118.2722415441263 0
144.5238543872343 156.7604569971211 0
129.844519740608 35.94595530369766 0
206.1418120332817 121.8600492659734 0
147.7499086070428 174.7742792385035 0
128.9762192479664 23.25126731611782 0
108.0841005903811 23.18058386436151 0
187.5000000000157 16.18181818178101 0
153.19860636723 64.82273899223559 0
149.5294878926201 130.4539291463613 0
89.75240473580835 35.10769515458674 0
161.3465896668493 109.313428147539 0
136.775246220954 47.83467026492544 0
38.86482361765179 46.08140996373172 0
128.3812118351325 166.5247031572915 0
126.3913997536842 193.9737408401476 0
96.30338069591166 176.538295871527 0
145.4374270793785 25.09341261393829 0
46.48732747862006 118.6159860258163 0
69.45714690843265 137.9285663644592 0
36.93947637162916 89.90431163378541 0
145.2141801529062 40.28969685661276 0
52.74235613388356 180.6728717011315 0
96.84080633066824 157.2597772064585 0
141.6300559934018 142.9011050070372 0
158.9927319241301 73.30438203062498 0
169.1612590365267 76.15120761020796 0
172.6225163915636 90.37554723937444 0
187.2874402461069 76.57319434152473 0
188.6409431741515 94.71973136804111 0
201.9891908952638 62.08417038471462 0
161.6234747380362 96.67718194309266 0
173.2832233436658 101.9701360522074 0
163.7387121557074 64.16277150677227 0
175.1792583621276 62.99274474603885 0
158.6653161644667 120.7538069673562 0
148.5455462432705 53.75299059337566 0
157.8965729532416 56.74770021847672 0
188.4950155931884 57.31738355839205 0
206.3147930024065 39.98615157066893 0
45.94228070828686 147.7159572059516 0
130.7689374037533 150.2507010686747 0
86.26885942947933 145.0520626862623 0
74.59247170111037 157.5279218392983 0
173.5501034098691 111.6319746907227 0
181.7688970522772 108.1788659969929 0
194.3707799793312 109.645017384934 0
168.0235513934623 194.7913366797752 0
193.9425179438739 30.47649064221253 0
203.189327736574 21.66111509866562 0
$EndNodes
$Elements
8 276 1 276
1 48 1 3
1 33 37 
2 37 38 
3 38 34 
1 49 1 3
4 34 39 
5 39 40 
6 40 35 
1 50 1 3
7 35 41 
8 41 42 
9 42 36 
1 51 1 3
10 36 43 
11 43 44 
12 44 33 
2 44 2 19
13 3 4 49 
14 2 3 45 
15 9 1 45 
16 45 47 48 
17 8 9 48 
18 4 46 49 
19 46 5 50 
20 47 45 49 
21 9 45 48 
22 5 6 50 
23 45 3 49 
24 7 8 47 
25 46 47 49 
26 4 5 46 
27 47 8 48 
28 47 46 50 
29 6 7 50 
30 1 2 45 
31 7 47 50 
2 45 2 67
32 56 19 70 
33 23 24 76 
34 13 14 75 
35 51 11 60 
36 14 15 57 
37 65 61 69 
38 16 53 66 
39 24 51 76 
40 22 55 68 
41 14 57 75 
42 55 65 69 
43 57 72 77 
44 57 15 66 
45 18 56 73 
46 11 58 60 
47 64 73 74 
48 57 66 72 
49 61 63 69 
50 58 54 59 
51 52 21 68 
52 57 67 75 
53 12 54 58 
54 52 68 69 
55 63 62 64 
56 61 59 62 
57 60 59 61 
58 52 69 71 
59 58 59 60 
60 51 60 65 
61 61 62 63 
62 73 56 74 
63 16 17 53 
64 68 55 69 
65 56 70 71 
66 67 57 77 
67 59 54 67 
68 64 72 73 
69 62 67 77 
70 62 59 67 
71 20 52 70 
72 60 61 65 
73 19 20 70 
74 54 13 75 
75 66 53 72 
76 69 63 71 
77 72 53 73 
78 56 71 74 
79 64 62 77 
80 51 65 76 
81 21 22 68 
82 70 52 71 
83 63 64 74 
84 12 13 54 
85 72 64 77 
86 67 54 75 
87 65 55 76 
88 71 63 74 
89 24 10 51 
90 15 16 66 
91 10 11 51 
92 11 12 58 
93 17 18 73 
94 53 17 73 
95 18 19 56 
96 20 21 52 
97 22 23 55 
98 55 23 76 
2 47 2 18
99 30 31 81 
100 81 78 82 
101 79 81 82 
102 79 29 81 
103 25 26 80 
104 27 28 82 
105 29 30 81 
106 31 32 78 
107 78 80 82 
108 31 78 81 
109 26 27 82 
110 78 32 83 
111 28 29 79 
112 25 80 83 
113 32 25 83 
114 80 26 82 
115 80 78 83 
116 28 79 82 
2 1000 2 160
117 35 137 6 
118 38 110 108 
119 25 107 43 
120 4 91 3 
121 88 100 11 
122 36 139 97 
123 39 105 40 
124 24 96 87 
125 19 125 99 
126 21 115 84 
127 39 106 105 
128 42 119 118 
129 101 134 86 
130 1 90 9 
131 33 103 37 
132 14 110 13 
133 111 126 102 
134 85 113 17 
135 13 110 89 
136 30 128 29 
137 32 97 31 
138 37 110 38 
139 116 124 118 
140 27 126 111 
141 27 111 26 
142 102 126 22 
143 16 109 15 
144 86 125 101 
145 96 100 44 
146 3 99 2 
147 123 124 116 
148 5 137 94 
149 24 87 23 
150 16 132 109 
151 30 129 128 
152 108 130 38 
153 28 127 27 
154 20 101 19 
155 104 106 85 
156 10 100 96 
157 101 125 19 
158 8 93 41 
159 118 120 42 
160 124 128 118 
161 123 127 28 
162 119 122 117 
163 2 125 86 
164 38 112 34 
165 15 109 108 
166 90 136 9 
167 113 132 17 
168 41 7 8 
169 84 121 20 
170 38 130 112 
171 99 125 2 
172 122 134 101 
173 103 110 37 
174 92 111 102 
175 119 135 122 
176 22 98 21 
177 106 113 85 
178 86 90 1 
179 2 86 1 
180 92 102 23 
181 20 121 101 
182 121 122 101 
183 98 115 21 
184 117 122 121 
185 34 112 39 
186 26 111 107 
187 98 127 123 
188 9 93 8 
189 117 121 84 
190 28 124 123 
191 107 111 92 
192 31 138 30 
193 91 114 3 
194 97 138 31 
195 11 100 10 
196 116 117 84 
197 18 131 85 
198 114 131 18 
199 12 89 88 
200 98 123 115 
201 87 92 23 
202 105 137 40 
203 30 138 129 
204 120 129 42 
205 4 94 91 
206 109 133 130 
207 118 128 120 
208 29 128 124 
209 29 124 28 
210 22 126 98 
211 106 133 113 
212 9 136 93 
213 112 133 106 
214 104 131 91 
215 91 131 114 
216 85 131 104 
217 3 114 99 
218 39 112 106 
219 126 127 98 
220 109 130 108 
221 115 123 116 
222 118 119 117 
223 94 104 91 
224 15 108 14 
225 115 116 84 
226 95 107 92 
227 105 106 104 
228 17 132 16 
229 87 95 92 
230 86 134 90 
231 89 103 88 
232 128 129 120 
233 132 133 109 
234 116 118 117 
235 94 137 105 
236 27 127 126 
237 97 139 138 
238 108 110 14 
239 130 133 112 
240 87 96 95 
241 94 105 104 
242 135 136 90 
243 134 135 90 
244 119 136 135 
245 122 135 134 
246 113 133 132 
247 13 89 12 
248 138 139 129 
249 12 88 11 
250 23 102 22 
251 42 129 36 
252 129 139 36 
253 41 93 42 
254 5 94 4 
255 6 137 5 
256 35 6 7 
257 35 7 41 
258 10 96 24 
259 18 85 17 
260 19 99 18 
261 99 114 18 
262 21 84 20 
263 26 107 25 
264 32 25 43 
265 43 97 32 
266 44 103 33 
267 40 137 35 
268 36 97 43 
269 93 136 42 
270 42 136 119 
271 43 96 44 
272 95 96 43 
273 43 107 95 
274 44 100 88 
275 88 103 44 
276 89 110 103 
$EndElements
