$MeshFormat
4.1 0 8
$EndMeshFormat
$PhysicalNames
6
0 10 "FracEnds"
1 2 "inlet"
1 3 "outlet"
1 4 "noflux"
1 5 "SmallFract"
2 1 "k11"
$EndPhysicalNames
$Entities
6 6 1 0
1 0 0 0 0 
2 70 0 0 0 
3 70 80 0 0 
4 0 80 0 0 
5 20 40 0 1 10 
6 50 40 0 1 10 
1 0 0 0 70 0 0 1 4 2 1 -2 
2 70 0 0 70 80 0 1 3 2 2 -3 
3 0 80 0 70 80 0 1 4 2 3 -4 
4 0 0 0 0 80 0 1 2 2 4 -1 
5 20 40 0 50 40 0 1 5 2 5 -6 
6 20 40 0 50 40 0 1 5 2 6 -5 
1 0 0 0 70 80 0 1 1 4 1 2 3 4 
$EndEntities
$Nodes
13 210 1 210
0 1 0 1
1
0 0 0
0 2 0 1
2
70 0 0
0 3 0 1
3
70 80 0
0 4 0 1
4
0 80 0
0 5 0 1
5
20 40 0
0 6 0 1
6
50 40 0
1 1 0 8
7
8
9
10
11
12
13
14
7.777777777754023 0 0
15.55555555550748 0 0
23.33333333324265 0 0
31.11111111097635 0 0
38.88888888874951 0 0
46.66666666656214 0 0
54.44444444437476 0 0
62.22222222218738 0 0
1 2 0 13
15
16
17
18
19
20
21
22
23
24
25
26
27
70 5.714285714280821 0
70 11.42857142855937 0
70 17.1428571428284 0
70 22.85714285709742 0
70 28.57142857136644 0
70 34.28571428564479 0
70 39.99999999993919 0
70 45.7142857142336 0
70 51.428571428528 0
70 57.1428571428224 0
70 62.8571428571168 0
70 68.57142857141119 0
70 74.28571428570561 0
1 3 0 8
28
29
30
31
32
33
34
35
62.22222222220985 80 0
54.44444444447799 80 0
46.66666666674615 80 0
38.88888888901431 80 0
31.11111111124302 80 0
23.33333333343226 80 0
15.5555555556215 80 0
7.777777777810748 80 0
1 4 0 13
36
37
38
39
40
41
42
43
44
45
46
47
48
0 74.28571428571428 0
0 68.57142857142856 0
0 62.85714285714283 0
0 57.1428571428571 0
0 51.42857142857139 0
0 45.71428571428569 0
0 39.99999999999997 0
0 34.28571428571426 0
0 28.57142857142855 0
0 22.85714285714284 0
0 17.14285714285712 0
0 11.42857142857142 0
0 5.714285714285708 0
1 5 0 29
49
50
51
52
53
54
55
56
57
58
59
60
61
62
63
64
65
66
67
68
69
70
71
72
73
74
75
76
77
20.99999999999681 40 0
21.99999999999362 40 0
22.99999999999043 40 0
23.99999999998723 40 0
24.99999999998404 40 0
25.99999999998085 40 0
26.99999999997766 40 0
27.99999999997428 40 0
28.99999999996045 40 0
29.99999999994542 40 0
30.99999999993038 40 0
31.99999999991535 40 0
32.99999999990031 40 0
33.99999999988528 40 0
34.99999999987163 40 0
35.9999999998789 40 0
36.99999999988755 40 0
37.9999999998962 40 0
38.99999999990484 40 0
39.9999999999135 40 0
40.99999999992215 40 0
41.99999999993079 40 0
42.99999999993945 40 0
43.9999999999481 40 0
44.99999999995674 40 0
45.9999999999654 40 0
46.99999999997405 40 0
47.99999999998271 40 0
48.99999999999135 40 0
1 6 0 29
78
79
80
81
82
83
84
85
86
87
88
89
90
91
92
93
94
95
96
97
98
99
100
101
102
103
104
105
106
49.00000000000708 40 0
48.00000000001416 40 0
47.00000000002124 40 0
46.00000000002832 40 0
45.0000000000354 40 0
44.00000000004248 40 0
43.00000000004955 40 0
42.00000000005663 40 0
41.00000000006371 40 0
40.00000000007079 40 0
39.00000000007787 40 0
38.00000000008495 40 0
37.00000000009203 40 0
36.00000000009911 40 0
35.0000000001048 40 0
34.00000000008959 40 0
33.00000000007297 40 0
32.00000000005748 40 0
31.00000000005243 40 0
30.00000000004767 40 0
29.0000000000429 40 0
28.00000000003814 40 0
27.00000000003337 40 0
26.00000000002861 40 0
25.00000000002384 40 0
24.00000000001907 40 0
23.0000000000143 40 0
22.00000000000954 40 0
21.00000000000477 40 0
2 1 0 104
107
108
109
110
111
112
113
114
115
116
117
118
119
120
121
122
123
124
125
126
127
128
129
130
131
132
133
134
135
136
137
138
139
140
141
142
143
144
145
146
147
148
149
150
151
152
153
154
155
156
157
158
159
160
161
162
163
164
165
166
167
168
169
170
171
172
173
174
175
176
177
178
179
180
181
182
183
184
185
186
187
188
189
190
191
192
193
194
195
196
197
198
199
200
201
202
203
204
205
206
207
208
209
210
7.777777777758075 5.714285714285165 0
7.777777777762126 11.42857142857008 0
7.777777777766179 17.14285714285394 0
7.777777777770231 22.8571428571378 0
7.777777777774284 28.57142857142165 0
7.777777777778335 34.28571428570653 0
7.777777777782385 39.99999999999321 0
7.777777777786437 45.71428571427991 0
7.777777777790487 51.42857142856657 0
7.777777777794541 57.14285714285324 0
7.777777777798591 62.85714285713993 0
7.777777777802644 68.57142857142662 0
7.777777777806694 74.28571428571333 0
15.55555555551563 5.714285714284624 0
15.55555555552377 11.42857142856874 0
15.55555555553191 17.14285714285074 0
15.55555555554006 22.85714285713275 0
15.5555555555482 28.57142857141475 0
15.55555555555635 34.28571428569884 0
15.55555555556449 39.99999999998648 0
15.55555555557263 45.71428571427411 0
15.55555555558077 51.42857142856175 0
15.55555555558892 57.14285714284939 0
15.55555555559706 62.85714285713704 0
15.55555555560521 68.57142857142469 0
15.55555555561335 74.28571428571236 0
23.3333333332562 5.71428571428408 0
23.33333333326974 11.4285714285674 0
23.33333333328328 17.14285714284755 0
23.33333333329681 22.8571428571277 0
23.33333333331037 28.57142857140784 0
23.33333333332391 34.28571428569111 0
23.33333333333745 39.99999999997972 0
23.33333333335099 45.71428571426833 0
23.33333333336454 51.42857142855692 0
23.33333333337809 57.14285714284552 0
23.33333333339163 62.85714285713415 0
23.33333333340518 68.57142857142274 0
23.33333333341871 74.28571428571139 0
31.1111111109954 5.714285714283537 0
31.11111111101444 11.42857142856606 0
31.11111111103349 17.14285714284436 0
31.11111111105255 22.85714285712265 0
31.11111111107159 28.57142857140095 0
31.11111111109063 34.28571428568338 0
31.11111111110969 39.99999999997296 0
31.11111111112873 45.71428571426254 0
31.11111111114778 51.4285714285521 0
31.11111111116683 57.14285714284168 0
31.11111111118588 62.85714285713127 0
31.11111111120493 68.57142857142084 0
31.11111111122397 74.28571428571043 0
38.88888888876843 5.714285714282993 0
38.88888888878733 11.42857142856473 0
38.88888888880626 17.14285714284116 0
38.88888888882517 22.85714285711761 0
38.88888888884408 28.57142857139404 0
38.88888888886299 34.28571428567567 0
38.88888888888191 39.99999999996622 0
38.88888888890082 45.71428571425675 0
38.88888888891974 51.42857142854729 0
38.88888888893865 57.14285714283783 0
38.88888888895757 62.85714285712837 0
38.88888888897647 68.57142857141891 0
38.8888888889954 74.28571428570946 0
46.66666666657527 5.714285714282449 0
46.66666666658843 11.42857142856339 0
46.66666666660156 17.14285714283797 0
46.66666666661473 22.85714285711255 0
46.66666666662786 28.57142857138714 0
46.66666666664099 34.28571428566794 0
46.66666666665414 39.99999999995946 0
46.6666666666673 45.71428571425096 0
46.66666666668043 51.42857142854248 0
46.66666666669357 57.14285714283395 0
46.66666666670672 62.85714285712547 0
46.66666666671986 68.571428571417 0
46.66666666673301 74.28571428570849 0
54.44444444438214 5.714285714281909 0
54.44444444438952 11.42857142856205 0
54.44444444439688 17.14285714283478 0
54.44444444440425 22.85714285710751 0
54.44444444441162 28.57142857138025 0
54.44444444441901 34.28571428566023 0
54.44444444442638 39.9999999999527 0
54.44444444443374 45.71428571424519 0
54.44444444444113 51.42857142853764 0
54.44444444444849 57.14285714283012 0
54.44444444445587 62.85714285712258 0
54.44444444446324 68.57142857141507 0
54.44444444447062 74.28571428570753 0
62.22222222218898 5.714285714281364 0
62.2222222221906 11.42857142856071 0
62.22222222219219 17.14285714283159 0
62.22222222219381 22.85714285710247 0
62.2222222221954 28.57142857137334 0
62.222222222197 34.28571428565251 0
62.22222222219861 39.99999999994596 0
62.22222222220023 45.71428571423938 0
62.22222222220182 51.42857142853283 0
62.22222222220343 57.14285714282625 0
62.22222222220503 62.8571428571197 0
62.22222222220665 68.57142857141314 0
62.22222222220825 74.28571428570655 0
$EndNodes
$Elements
9 234 1 234
0 5 15 1
1 5 
0 6 15 1
2 6 
1 1 1 9
3 1 7 
4 7 8 
5 8 9 
6 9 10 
7 10 11 
8 11 12 
9 12 13 
10 13 14 
11 14 2 
1 2 1 14
12 2 15 
13 15 16 
14 16 17 
15 17 18 
16 18 19 
17 19 20 
18 20 21 
19 21 22 
20 22 23 
21 23 24 
22 24 25 
23 25 26 
24 26 27 
25 27 3 
1 3 1 9
26 3 28 
27 28 29 
28 29 30 
29 30 31 
30 31 32 
31 32 33 
32 33 34 
33 34 35 
34 35 4 
1 4 1 14
35 4 36 
36 36 37 
37 37 38 
38 38 39 
39 39 40 
40 40 41 
41 41 42 
42 42 43 
43 43 44 
44 44 45 
45 45 46 
46 46 47 
47 47 48 
48 48 1 
1 5 1 30
49 5 49 
50 49 50 
51 50 51 
52 51 52 
53 52 53 
54 53 54 
55 54 55 
56 55 56 
57 56 57 
58 57 58 
59 58 59 
60 59 60 
61 60 61 
62 61 62 
63 62 63 
64 63 64 
65 64 65 
66 65 66 
67 66 67 
68 67 68 
69 68 69 
70 69 70 
71 70 71 
72 71 72 
73 72 73 
74 73 74 
75 74 75 
76 75 76 
77 76 77 
78 77 6 
1 6 1 30
79 6 78 
80 78 79 
81 79 80 
82 80 81 
83 81 82 
84 82 83 
85 83 84 
86 84 85 
87 85 86 
88 86 87 
89 87 88 
90 88 89 
91 89 90 
92 90 91 
93 91 92 
94 92 93 
95 93 94 
96 94 95 
97 95 96 
98 96 97 
99 97 98 
100 98 99 
101 99 100 
102 100 101 
103 101 102 
104 102 103 
105 103 104 
106 104 105 
107 105 106 
108 106 5 
2 1 3 126
109 1 7 107 48 
110 48 107 108 47 
111 47 108 109 46 
112 46 109 110 45 
113 45 110 111 44 
114 44 111 112 43 
115 43 112 113 42 
116 42 113 114 41 
117 41 114 115 40 
118 40 115 116 39 
119 39 116 117 38 
120 38 117 118 37 
121 37 118 119 36 
122 36 119 35 4 
123 7 8 120 107 
124 107 120 121 108 
125 108 121 122 109 
126 109 122 123 110 
127 110 123 124 111 
128 111 124 125 112 
129 112 125 126 113 
130 113 126 127 114 
131 114 127 128 115 
132 115 128 129 116 
133 116 129 130 117 
134 117 130 131 118 
135 118 131 132 119 
136 119 132 34 35 
137 8 9 133 120 
138 120 133 134 121 
139 121 134 135 122 
140 122 135 136 123 
141 123 136 137 124 
142 124 137 138 125 
143 125 138 139 126 
144 126 139 140 127 
145 127 140 141 128 
146 128 141 142 129 
147 129 142 143 130 
148 130 143 144 131 
149 131 144 145 132 
150 132 145 33 34 
151 9 10 146 133 
152 133 146 147 134 
153 134 147 148 135 
154 135 148 149 136 
155 136 149 150 137 
156 137 150 151 138 
157 138 151 152 139 
158 139 152 153 140 
159 140 153 154 141 
160 141 154 155 142 
161 142 155 156 143 
162 143 156 157 144 
163 144 157 158 145 
164 145 158 32 33 
165 10 11 159 146 
166 146 159 160 147 
167 147 160 161 148 
168 148 161 162 149 
169 149 162 163 150 
170 150 163 164 151 
171 151 164 165 152 
172 152 165 166 153 
173 153 166 167 154 
174 154 167 168 155 
175 155 168 169 156 
176 156 169 170 157 
177 157 170 171 158 
178 158 171 31 32 
179 11 12 172 159 
180 159 172 173 160 
181 160 173 174 161 
182 161 174 175 162 
183 162 175 176 163 
184 163 176 177 164 
185 164 177 178 165 
186 165 178 179 166 
187 166 179 180 167 
188 167 180 181 168 
189 168 181 182 169 
190 169 182 183 170 
191 170 183 184 171 
192 171 184 30 31 
193 12 13 185 172 
194 172 185 186 173 
195 173 186 187 174 
196 174 187 188 175 
197 175 188 189 176 
198 176 189 190 177 
199 177 190 191 178 
200 178 191 192 179 
201 179 192 193 180 
202 180 193 194 181 
203 181 194 195 182 
204 182 195 196 183 
205 183 196 197 184 
206 184 197 29 30 
207 13 14 198 185 
208 185 198 199 186 
209 186 199 200 187 
210 187 200 201 188 
211 188 201 202 189 
212 189 202 203 190 
213 190 203 204 191 
214 191 204 205 192 
215 192 205 206 193 
216 193 206 207 194 
217 194 207 208 195 
218 195 208 209 196 
219 196 209 210 197 
220 197 210 28 29 
221 14 2 15 198 
222 198 15 16 199 
223 199 16 17 200 
224 200 17 18 201 
225 201 18 19 202 
226 202 19 20 203 
227 203 20 21 204 
228 204 21 22 205 
229 205 22 23 206 
230 206 23 24 207 
231 207 24 25 208 
232 208 25 26 209 
233 209 26 27 210 
234 210 27 3 28 
$EndElements
