$MeshFormat
4.1 0 8
$EndMeshFormat
$PhysicalNames
6
1 2 "inlet"
1 3 "outlet"
1 4 "Top"
1 5 "SmallFract"
2 1 "Darcy"
2 6 "Vugs"
$EndPhysicalNames
$Entities
36 36 5 0
1 115 107 0 0 
2 79 183 0 0 
3 230 263 0 0 
4 228 281 0 0 
5 202 299 0 0 
6 204 312 0 0 
7 171 322 0 0 
8 166 342 0 0 
9 181 343 0 0 
10 180 362 0 0 
11 191 365 0 0 
12 178 379 0 0 
13 200 374 0 0 
14 205 360 0 0 
15 198 348 0 0 
16 202 340 0 0 
17 259 342 0 0 
18 295 317 0 0 
19 300 296 0 0 
20 254 280 0 0 
21 242 267 0 0 
22 241 257 0 0 
23 512 250 0 0 
24 500 260 0 0 
25 483 283 0 0 
26 446 315 0 0 
27 476 316 0 0 
28 483 328 0 0 
29 500 326 0 0 
30 501 284 0 0 
41 0 0 0 0 
42 0 676 0 0 
43 616 676 0 0 
44 616 0 0 0 
45 500 550 0 0 
46 350 380 0 0 
1 79 107 0 115 183 0 1 5 2 1 -2 
2 79 107 0 115 183 0 1 5 2 2 -1 
3 228 263 0 230 281 0 0 2 3 -4 
4 202 281 0 228 299 0 0 2 4 -5 
5 202 299 0 204 312 0 0 2 5 -6 
6 171 312 0 204 322 0 0 2 6 -7 
7 166 322 0 171 342 0 0 2 7 -8 
8 166 342 0 181 343 0 0 2 8 -9 
9 180 343 0 181 362 0 0 2 9 -10 
10 180 362 0 191 365 0 0 2 10 -11 
11 178 365 0 191 379 0 0 2 11 -12 
12 178 374 0 200 379 0 0 2 12 -13 
13 200 360 0 205 374 0 0 2 13 -14 
14 198 348 0 205 360 0 0 2 14 -15 
15 198 340 0 202 348 0 0 2 15 -16 
16 202 340 0 259 342 0 0 2 16 -17 
17 259 317 0 295 342 0 0 2 17 -18 
18 295 296 0 300 317 0 0 2 18 -19 
19 254 280 0 300 296 0 0 2 19 -20 
20 242 267 0 254 280 0 0 2 20 -21 
21 241 257 0 242 267 0 0 2 21 -22 
22 230 257 0 241 263 0 0 2 22 -3 
23 500 250 0 512 260 0 0 2 23 -24 
24 483 260 0 500 283 0 0 2 24 -25 
25 446 283 0 483 315 0 0 2 25 -26 
26 446 315 0 476 316 0 0 2 26 -27 
27 476 316 0 483 328 0 0 2 27 -28 
28 483 326 0 500 328 0 0 2 28 -29 
29 500 284 0 501 326 0 0 2 29 -30 
30 501 250 0 512 284 0 0 2 30 -23 
41 0 0 0 0 676 0 1 2 2 41 -42 
42 0 676 0 616 676 0 1 4 2 42 -43 
43 616 0 0 616 676 0 1 3 2 43 -44 
44 0 0 0 616 0 0 1 4 2 44 -41 
45 350 380 0 500 550 0 1 5 2 45 -46 
46 350 380 0 500 550 0 1 5 2 46 -45 
37 79 107 0 115 183 0 0 2 1 2 
38 166 257 0 300 379 0 1 6 20 3 4 5 6 7 8 9 10 11 12 13 14 15 16 17 18 19 20 21 22 
39 446 250 0 512 328 0 1 6 8 23 24 25 26 27 28 29 30 
90 350 380 0 500 550 0 0 2 45 46 
1000 0 0 0 616 676 0 1 1 36 1 2 45 46 -22 -21 -20 -19 -18 -17 -16 -15 -14 -13 -12 -11 -10 -9 -8 -7 -6 -5 -4 -3 -30 -29 -28 -27 -26 -25 -24 -23 -44 -43 -42 -41 
$EndEntities
$Nodes
48 501 1 501
0 1 0 1
1
115 107 0
0 2 0 1
2
79 183 0
0 3 0 1
3
230 263 0
0 4 0 1
4
228 281 0
0 5 0 1
5
202 299 0
0 6 0 1
6
204 312 0
0 7 0 1
7
171 322 0
0 8 0 1
8
166 342 0
0 9 0 1
9
181 343 0
0 10 0 1
10
180 362 0
0 11 0 1
11
191 365 0
0 12 0 1
12
178 379 0
0 13 0 1
13
200 374 0
0 14 0 1
14
205 360 0
0 15 0 1
15
198 348 0
0 16 0 1
16
202 340 0
0 17 0 1
17
259 342 0
0 18 0 1
18
295 317 0
0 19 0 1
19
300 296 0
0 20 0 1
20
254 280 0
0 21 0 1
21
242 267 0
0 22 0 1
22
241 257 0
0 23 0 1
23
512 250 0
0 24 0 1
24
500 260 0
0 25 0 1
25
483 283 0
0 26 0 1
26
446 315 0
0 27 0 1
27
476 316 0
0 28 0 1
28
483 328 0
0 29 0 1
29
500 326 0
0 30 0 1
30
501 284 0
0 41 0 1
31
0 0 0
0 42 0 1
32
0 676 0
0 43 0 1
33
616 676 0
0 44 0 1
34
616 0 0
0 45 0 1
35
500 550 0
0 46 0 1
36
350 380 0
1 1 0 1
37
96.99999999992376 145.000000000161 0
1 2 0 1
38
96.99999999992374 145.000000000161 0
1 16 0 1
39
230.4999999992959 340.9999999999753 0
1 41 0 13
40
41
42
43
44
45
46
47
48
49
50
51
52
0 48.28571428566379 0
0 96.57142857133456 0
0 144.8571428569728 0
0 193.1428571425421 0
0 241.4285714281113 0
0 289.7142857138218 0
0 337.999999999594 0
0 386.2857142853663 0
0 434.5714285711386 0
0 482.8571428569109 0
0 531.1428571426832 0
0 579.4285714284555 0
0 627.7142857142277 0
1 42 0 12
53
54
55
56
57
58
59
60
61
62
63
64
47.38461538456973 676 0
94.7692307691382 676 0
142.1538461536721 676 0
189.5384615382816 676 0
236.9230769228911 676 0
284.3076923073767 676 0
331.6923076919862 676 0
379.0769230768143 676 0
426.4615384616424 676 0
473.8461538464705 676 0
521.2307692312183 676 0
568.6153846156092 676 0
1 43 0 13
65
66
67
68
69
70
71
72
73
74
75
76
77
616 627.7142857142857 0
616 579.4285714285714 0
616 531.1428571428571 0
616 482.8571428571429 0
616 434.5714285714286 0
616 386.2857142857143 0
616 338 0
616 289.7142857142857 0
616 241.4285714285714 0
616 193.1428571428571 0
616 144.8571428571429 0
616 96.57142857142856 0
616 48.28571428571422 0
1 44 0 12
78
79
80
81
82
83
84
85
86
87
88
89
568.6153846155298 0 0
521.2307692310596 0 0
473.8461538465894 0 0
426.4615384621192 0 0
379.076923077649 0 0
331.6923076931788 0 0
284.3076923084899 0 0
236.9230769235825 0 0
189.538461538675 0 0
142.1538461537676 0 0
94.76923076894047 0 0
47.38461538447018 0 0
1 45 0 4
90
91
92
93
470.000000000392 516.0000000004443 0
440.000000000784 482.0000000008885 0
410.0000000006452 448.0000000007311 0
380.0000000001056 414.0000000001196 0
1 46 0 4
94
95
96
97
379.999999999608 413.9999999995558 0
409.999999999216 447.9999999991115 0
439.9999999993548 481.9999999992689 0
469.9999999998944 515.9999999998804 0
2 38 0 14
98
99
100
101
102
103
104
105
106
107
108
109
110
111
266.218128518982 314.3105088346495 0
219.8972663865387 305.3609880328518 0
190.0509698113774 328.5875150215395 0
189.1975793971843 352.8588607527518 0
216.7243749996483 326.9803124999748 0
234.0702529922506 315.6718134553819 0
234.7381032912662 296.5123042859635 0
191.2307692307692 339.6153846153846 0
273.4875428801092 301.0895877458278 0
196.026286263306 356.5782583823172 0
252.2195858815639 298.1374298944897 0
203.0240798261178 326.3221904923129 0
242.191537834566 284.5299468360906 0
250.104210544001 323.8829435032918 0
2 39 0 2
112
113
490.7210376777721 302.7262728779329 0
487.4302594194431 318.1815682194832 0
2 1000 0 388
114
115
116
117
118
119
120
121
122
123
124
125
126
127
128
129
130
131
132
133
134
135
136
137
138
139
140
141
142
143
144
145
146
147
148
149
150
151
152
153
154
155
156
157
158
159
160
161
162
163
164
165
166
167
168
169
170
171
172
173
174
175
176
177
178
179
180
181
182
183
184
185
186
187
188
189
190
191
192
193
194
195
196
197
198
199
200
201
202
203
204
205
206
207
208
209
210
211
212
213
214
215
216
217
218
219
220
221
222
223
224
225
226
227
228
229
230
231
232
233
234
235
236
237
238
239
240
241
242
243
244
245
246
247
248
249
250
251
252
253
254
255
256
257
258
259
260
261
262
263
264
265
266
267
268
269
270
271
272
273
274
275
276
277
278
279
280
281
282
283
284
285
286
287
288
289
290
291
292
293
294
295
296
297
298
299
300
301
302
303
304
305
306
307
308
309
310
311
312
313
314
315
316
317
318
319
320
321
322
323
324
325
326
327
328
329
330
331
332
333
334
335
336
337
338
339
340
341
342
343
344
345
346
347
348
349
350
351
352
353
354
355
356
357
358
359
360
361
362
363
364
365
366
367
368
369
370
371
372
373
374
375
376
377
378
379
380
381
382
383
384
385
386
387
388
389
390
391
392
393
394
395
396
397
398
399
400
401
402
403
404
405
406
407
408
409
410
411
412
413
414
415
416
417
418
419
420
421
422
423
424
425
426
427
428
429
430
431
432
433
434
435
436
437
438
439
440
441
442
443
444
445
446
447
448
449
450
451
452
453
454
455
456
457
458
459
460
461
462
463
464
465
466
467
468
469
470
471
472
473
474
475
476
477
478
479
480
481
482
483
484
485
486
487
488
489
490
491
492
493
494
495
496
497
498
499
500
501
476.1013612557793 260.1183974499239 0
192.5735219267583 390.580546026526 0
174.3861186101315 397.2745165598377 0
189.3169580676976 408.8035219659843 0
309.9050856854357 37.78668501054963 0
174.2121648187036 415.3415437091697 0
187.3990559392875 428.900408019129 0
158.5216962914784 383.745885578468 0
207.1592850185193 420.3629253347279 0
205.4183899236501 443.8777376860448 0
182.000070248875 453.2405963067939 0
446.0025201719619 37.50915224670652 0
202.3571467212926 470.6954482893005 0
495.0487271683653 344.8610514035364 0
174.8633928938685 480.7491376641176 0
134.3181171049236 142.0726093319296 0
230.6602875439344 250.767226648803 0
218.9471078909826 256.6614675847289 0
220.1285938670123 243.1098422229648 0
232.7745063600215 237.6619544380987 0
207.4261806502267 249.059421797275 0
221.3144117367387 228.5628608636535 0
236.0985735217365 222.7542891020624 0
308.519320361468 637.0679066939728 0
152.1623835410596 328.412808153518 0
155.4165978840717 307.3659131133992 0
198.5519403816751 500.8233526104598 0
227.046113725193 488.6676021647939 0
222.5815378064801 212.3557481841441 0
239.1723635855769 205.548933911939 0
253.3363164855681 217.5118741077445 0
257.2779476911892 198.4470802166165 0
272.2954280929895 212.2784626116415 0
277.181619150827 191.0314934564256 0
294.3177272898267 205.8193206320717 0
259.4231151528608 178.2958943236171 0
299.3538455960236 182.755261774197 0
317.7830468498286 198.7321303919006 0
323.1741832656342 173.2434891414687 0
342.1630019307756 190.8898735130266 0
350.2303994546868 164.0134236962876 0
367.5874861396042 183.3236340162174 0
361.4544728634002 207.3738316570572 0
386.4446608070654 200.1459234537125 0
167.8432700412792 511.5903293405479 0
391.8330018612588 175.4802205827032 0
411.2305754399547 192.4631476004492 0
405.3095828088221 217.020269840731 0
136.3591322388554 315.6841726001538 0
416.406965869009 166.9376270606535 0
436.5260763594212 184.5229640382015 0
139.2573890000281 293.4738877408922 0
575.9295322095038 116.5796504575936 0
441.7814493439735 157.9235101254701 0
462.1920323659193 176.6184509940613 0
301.6652710599502 154.3342663650367 0
228.9413339729821 433.9003876973637 0
395.5551362707387 490.9807621126137 0
393.016585745716 146.8829702993373 0
193.9234063806772 533.5234170217863 0
133.1000803752553 338.3541428866082 0
154.1574388260897 459.8198347650846 0
224.6500382182555 194.1617139215095 0
205.5488676612044 201.4569020377712 0
161.0125247212284 545.0092165165415 0
469.4542818330688 148.0830407804466 0
113.3740309028679 323.6150705462547 0
110.5227880855051 351.0093495862471 0
134.2331165904138 521.4284544155676 0
473.3494276702207 346.0388206924462 0
486.8781744358049 366.6099035434513 0
484.4448637288743 473.0192378874728 0
212.369260682696 372.518843846777 0
207.9945868186577 39.56669451411927 0
311.8218551047532 222.5624532891054 0
208.8010144765514 178.7133481612164 0
517.749496056525 342.084352980095 0
493.6699365324972 173.3747594359167 0
126.2488463164869 557.3090005030105 0
407.4565181637284 638.2341451942697 0
337.1264973600744 423.5847440167955 0
317.6235401966393 311.5441017840321 0
324.4351222960473 287.1902171302743 0
343.583497806594 305.1580922962273 0
157.6282785756143 284.70874105011 0
141.4794120062259 268.7590867776109 0
119.5701963741974 278.6119846180501 0
350.3536899993882 279.1547496487709 0
265.0621979693854 234.5674315357154 0
42.7262904934368 460.6555066045166 0
455.9641969865043 201.8011632409118 0
188.2810738169561 568.5568646179225 0
222.7112359439878 555.7913623139032 0
370.3936510889042 297.5182227426494 0
571.6911330330514 410.1146294681498 0
459.846013072998 367.0963338969664 0
186.2593897377652 189.333122952027 0
186.9692583636455 211.0882895827697 0
164.6494445882306 199.3527687825531 0
496.6651354409228 243.271190005892 0
509.8857814589708 230.055212778733 0
530.5602931484261 239.5979982523857 0
526.972116928622 214.8737947870962 0
446.4946458874809 128.120095733362 0
477.4741546228651 117.1804601652637 0
123.2275256164832 251.5389457504904 0
96.22471665118239 261.2588995401659 0
476.0147948281827 390.2201421812226 0
70.53952565806824 638.3530818136591 0
376.0186632441537 271.0764232131601 0
87.11708965062684 332.9840788604394 0
82.99968925645376 362.9677071369888 0
108.6923449190611 381.0215437289226 0
206.5058215071538 264.407525502025 0
192.2690842162337 254.3247469853003 0
99.04100691743474 530.5186135454417 0
530.0711901801415 260.0314806154267 0
545.8191005947779 635.9184948201571 0
292.1312941223675 349.8804977234721 0
158.3841827337137 110.8217009733661 0
287.4244165973741 264.341509934864 0
505.2918499990706 388.6369629872167 0
525.0626507403933 305.5848250176284 0
454.0652137069456 557.5493248587022 0
217.2212983661796 592.9305835349838 0
253.3603248681954 578.9478001972145 0
258.3395706062339 540.8715669030619 0
289.7608832483047 563.9909159320587 0
295.0184166300659 524.5657878839619 0
327.4595344551068 549.0741899401387 0
108.6826874385791 490.7117688882427 0
252.7685502715468 263.2183335790606 0
186.3436298414161 162.6754508750801 0
213.8746070717481 152.3726567606782 0
79.48131926485817 394.9480443525736 0
106.4742654974437 413.1957748133696 0
492.2444895153827 224.9456285119163 0
396.6807255641167 289.3853575511598 0
390.8026477836517 316.948944308013 0
400.6209753654501 264.0577724687999 0
544.0045142890858 36.894704106205 0
575.2391538449808 504.9030672795907 0
192.4274575816922 274.3885540186904 0
226.6648776600403 405.6620477574632 0
253.7122803873216 421.738389851711 0
70.27690539988754 37.70961472744422 0
549.2196645040717 224.2356752066493 0
550.0068574561392 198.2459586281732 0
252.6423937018559 393.3561746694725 0
179.8202949194735 604.2911339066004 0
150.4045894536123 243.6544387238361 0
131.3048574554318 224.7975297201303 0
445.8202125406962 392.6805717001184 0
428.0919566949889 369.2960878190378 0
446.0655972065147 282.0505962226994 0
480.7417494276555 594.9047899864362 0
353.1579779805659 254.8778472366884 0
72.23658294647916 110.2926281124686 0
82.99905107294994 568.7260439887559 0
119.5975898340084 594.2243249897774 0
133.1881221309419 70.90620100596527 0
331.2311219913498 508.1265445919873 0
301.6810811809607 485.6040219204127 0
494.5209409721612 416.0836781562414 0
252.2258166192877 449.5346986275663 0
279.3351904890828 405.4429369644949 0
179.5553600803629 262.2474812799077 0
451.2468539206241 95.45286246690804 0
486.4481859680373 83.59250175886622 0
417.9131127515781 110.347106216195 0
511.6338469587484 108.2966566853949 0
36.65527579317748 262.7385214764836 0
189.8248850065249 133.4443882331581 0
219.1217489675128 122.969200328905 0
242.6802954635577 142.6737112154493 0
250.1604619482743 112.4239682139839 0
246.0145864068249 620.6172354860405 0
250.2874895435244 249.2848782742468 0
69.77534371026478 504.5926957700947 0
574.1833447886943 313.8571428571428 0
59.05279649370159 341.5370505978326 0
583.2807909232911 267.2285773547044 0
95.00652480542732 300.2349173474515 0
267.4503728252303 254.9025564973828 0
335.3387047183066 331.3664042558289 0
226.3694363068733 91.75856143281875 0
258.2502598454007 79.90278523184963 0
282.1999775045886 105.2804084290337 0
372.1326815917949 528.3522350399519 0
360.727954607341 575.9567770182026 0
571.2841895906423 360.3973970323753 0
526.7462249518601 413.2056528127992 0
480.8359498160706 240.4694528482454 0
174.3182484958974 245.4939873066185 0
452.6573679740312 446.5841357314152 0
208.2231281946301 280.1336837909449 0
407.8594516915103 564.2860852796595 0
187.0416082176586 304.375044268432 0
530.4128389819548 584.1381999578185 0
522.4524738893343 186.7757080584889 0
543.7438318585188 167.8990125168227 0
430.7692218570052 209.3741028343956 0
425.2843560834368 233.6422864223156 0
447.6940595349514 225.7774223683071 0
442.1626954314296 249.3984603542052 0
209.9327878689268 386.8592168412151 0
77.09839000710168 432.9059277496681 0
105.9169189606291 449.6817456182623 0
42.16298026471038 414.1908788951392 0
380.8719218647568 223.3281730711473 0
36.86424484550718 553.9160331832177 0
576.7142847175746 458.8417757746073 0
533.3897032470858 478.6169976847435 0
132.8246774815481 396.667798429096 0
135.7987414292482 365.6008904481225 0
154.8234884423684 363.2149475519257 0
133.9065322502204 428.2966734821281 0
119.053534972288 173.9907163913068 0
174.196905162735 69.14476815670369 0
335.5254176084369 467.6261330045944 0
493.4258390768093 42.56033547431054 0
42.95697589306066 216.3772026206906 0
353.4004085929947 39.68511509898208 0
332.5184628314979 74.13323988874198 0
368.8641149014995 79.17803307058932 0
351.3882263189055 110.5869708314636 0
395.4929792829217 44.98964336166364 0
536.5260646573323 382.2251844168259 0
336.2197814035623 214.763870619625 0
331.916997504252 238.6662338830785 0
305.4020332077758 247.6562326382571 0
186.3561756970433 290.5949333967566 0
432.1855749043181 599.1536954503158 0
262.0574351072657 500.8619341896158 0
357.4390603388758 627.2645217005353 0
480.1168919883301 200.0374087622195 0
423.0709753655361 280.8896502098139 0
228.2070702993216 380.5631070400738 0
574.1833447886943 555.2857142857147 0
260.1516909741974 41.50901984430774 0
571.6431969995891 71.86468245824206 0
512.9534852546387 446.1913942009452 0
469.346244751373 222.508582250379 0
428.0481299826498 74.53161055798603 0
44.48321767059041 601.9348467355226 0
579.7815323684457 178.213048532479 0
53.57740016846743 147.0181454253728 0
282.3270089744159 246.1627881736948 0
210.805504424869 349.4485317991457 0
389.8374078933255 373.9441403414246 0
274.2879551954576 137.1656295519269 0
164.0201261317075 224.2248572237603 0
193.895102576202 232.5142223118084 0
423.2687472100397 523.194734548346 0
321.3935813631279 592.7258918775005 0
244.250766952089 364.8249948614928 0
500.3674097060222 634.8915165598771 0
272.441264757433 373.8208088026086 0
308.2315519676989 387.0432273725244 0
37.34672081481062 309.3535606152138 0
577.3141244961678 603.9510733946273 0
417.2660116854508 306.4707799546148 0
414.2695595811883 338.1374117773249 0
545.2116238033188 335.6464413998965 0
156.7760309996035 172.5904812946494 0
246.2561392702528 234.7615170743452 0
41.02421867560621 73.12491735053777 0
314.9178013404745 104.5114844434167 0
329.2150407648708 139.437498944181 0
363.5008991081863 139.3603446780094 0
384.7365343951867 115.2408104583737 0
282.0614114527046 605.9413918770206 0
447.8089688596424 343.3819831814016 0
363.5439433207737 324.7262118337966 0
536.2146331217554 529.4123376203065 0
195.3253472645422 99.6259351072033 0
287.8484242677702 226.940228553469 0
117.1473633881041 634.0497256361643 0
465.2316793059726 329.6841607747696 0
154.3577899323303 579.5573294491988 0
402.4491206687686 240.8004224291913 0
207.0503909942506 219.6100869043361 0
578.5061484136121 222.1780135345696 0
234.63184496906 169.1418912606071 0
143.9608897278287 490.2871353341875 0
306.0322120969767 448.1747618759227 0
204.6575497398136 634.889140684959 0
521.7660589313848 71.88192286209743 0
309.4760489175589 271.753472033118 0
224.9320621970222 521.7530774380234 0
218.6035639428981 269.5533649108214 0
101.4439838212253 232.554814066415 0
71.22248592352419 244.309765844009 0
330.118672486597 263.5794004621946 0
91.37155081584422 72.99473515586899 0
114.0077628442985 36.48529357524891 0
383.6925615750939 343.266294601942 0
53.6718818228657 375.7786518075722 0
420.090194116993 140.3698084105373 0
164.1543167933217 431.7873399644917 0
323.5960107575519 356.5716589616202 0
279.8653590048366 167.1402414055751 0
292.2893773126912 72.87742101570028 0
227.8111835996168 460.7667489274248 0
158.427580285231 639.4958911821293 0
500.4669200097113 139.9771995364619 0
534.0285311698221 135.1110126331917 0
80.83992612200228 467.7095289261569 0
155.4532189368587 407.7873473969449 0
67.02614493313111 282.0145971548993 0
243.0310619233885 189.1191027268578 0
172.8601398601399 352.0979020979021 0
503.8686903453445 205.0563468031706 0
300.4462946197068 129.1692524051943 0
209.962935964886 234.5712868200076 0
452.5509732475681 638.2040978831599 0
160.1799474415126 36.01715954200618 0
108.1496044900291 203.7138498234711 0
377.8686959097319 247.2481508203117 0
370.5124983110177 454.5623568534077 0
311.5222930374949 334.8133936824091 0
412.3601272074682 401.4725607066275 0
165.1293691372364 144.3209261416366 0
552.876866753805 290.3996394006396 0
546.3328109556421 98.06053108582266 0
356.9149745877115 231.043017881318 0
33.36764035811056 114.3728524633373 0
393.0488428956854 600.0022357455621 0
278.4087087069344 436.9678471536363 0
150.1293218213457 347.3370096052901 0
517.324059724563 161.2700033695201 0
32.13779960675161 508.1856105060734 0
461.3683947567686 242.8485424204561 0
457.2216915664525 260.8064384111527 0
120.1624233558001 302.5390535917434 0
373.3729596589295 161.4128866858641 0
240.1956845435466 245.8951152870987 0
423.7948581108831 259.1430480566868 0
126.8492909639594 467.8225265143611 0
171.8518653912494 298.280287945403 0
546.0495238581434 440.211998582822 0
168.4625256309118 367.3641239058688 0
221.8554337263785 361.392579591244 0
35.28635674402183 180.3108087334646 0
504.5963879762487 507.72980946013 0
259.8761753654205 157.6681517125033 0
511.6053799098609 364.0557585282762 0
69.10985533953949 313.2248409151673 0
205.1294861083885 402.4536515851833 0
275.2139257244534 466.5113138111055 0
86.80929672597063 606.5224995546233 0
80.55461002556785 215.9911264709172 0
273.3197724683069 642.2986010753372 0
33.78379334851066 642.2340271828137 0
461.6777300057493 280.1950864167551 0
140.6589331062151 199.7783672059785 0
31.73714789199279 31.82404927272916 0
536.4753508035359 356.8818268714938 0
581.9336328971525 33.9016377742763 0
361.3830948997128 490.2536004895195 0
433.1006460643755 296.102756596782 0
581.4694626115798 641.2211741612166 0
488.4006116281931 250.9647600760153 0
30.01427982627558 350.1909954611158 0
174.3410864903928 278.3933636093274 0
464.6574156601882 417.9516451461784 0
399.0109742627671 84.85744073296154 0
357.6681047108419 351.645784999102 0
552.0515816482873 254.5456748105611 0
272.3286679388302 271.6924800022614 0
437.0990246766058 421.3377826570141 0
569.8966855212581 148.531973399446 0
482.937698190418 441.9731461424767 0
231.3641798710046 64.47081050827272 0
206.1943294633715 71.9715361079506 0
161.2851297525407 352.5823210726049 0
303.5414427694909 419.669659462235 0
248.8708949551634 473.2684595441013 0
67.08172183994594 536.1636123668246 0
161.6038917835064 262.8087547932909 0
145.8701236718294 610.3236810327741 0
403.9391067523684 128.2101738461108 0
460.9338387598822 67.10494245676782 0
197.2516903683414 286.029292801598 0
438.4631635361632 266.4576386509116 0
530.8788040285239 283.1722907231761 0
527.1086531613461 324.5936257698303 0
547.5194952064929 313.6525094515317 0
$EndNodes
$Elements
11 1004 1 1004
1 1 1 2
1 1 37 
2 37 2 
1 2 1 2
3 2 38 
4 38 1 
1 41 1 14
5 31 40 
6 40 41 
7 41 42 
8 42 43 
9 43 44 
10 44 45 
11 45 46 
12 46 47 
13 47 48 
14 48 49 
15 49 50 
16 50 51 
17 51 52 
18 52 32 
1 42 1 13
19 32 53 
20 53 54 
21 54 55 
22 55 56 
23 56 57 
24 57 58 
25 58 59 
26 59 60 
27 60 61 
28 61 62 
29 62 63 
30 63 64 
31 64 33 
1 43 1 14
32 33 65 
33 65 66 
34 66 67 
35 67 68 
36 68 69 
37 69 70 
38 70 71 
39 71 72 
40 72 73 
41 73 74 
42 74 75 
43 75 76 
44 76 77 
45 77 34 
1 44 1 13
46 34 78 
47 78 79 
48 79 80 
49 80 81 
50 81 82 
51 82 83 
52 83 84 
53 84 85 
54 85 86 
55 86 87 
56 87 88 
57 88 89 
58 89 31 
1 45 1 5
59 35 90 
60 90 91 
61 91 92 
62 92 93 
63 93 36 
1 46 1 5
64 36 94 
65 94 95 
66 95 96 
67 96 97 
68 97 35 
2 38 2 47
69 8 9 7 
70 9 100 7 
71 18 106 98 
72 39 102 16 
73 13 14 11 
74 99 104 4 
75 15 105 101 
76 22 3 21 
77 106 108 98 
78 98 111 17 
79 6 102 99 
80 4 110 21 
81 14 107 11 
82 15 107 14 
83 102 103 99 
84 9 105 100 
85 11 101 10 
86 103 111 108 
87 101 105 9 
88 100 109 6 
89 101 107 15 
90 103 108 104 
91 39 111 103 
92 16 109 105 
93 39 103 102 
94 103 104 99 
95 108 111 98 
96 17 111 39 
97 108 110 104 
98 102 109 16 
99 11 107 101 
100 105 109 100 
101 6 99 5 
102 104 110 4 
103 6 109 102 
104 19 106 18 
105 21 110 20 
106 20 110 108 
107 16 105 15 
108 5 99 4 
109 7 100 6 
110 10 101 9 
111 3 4 21 
112 12 13 11 
113 18 98 17 
114 20 106 19 
115 20 108 106 
2 39 2 10
116 25 30 24 
117 112 27 113 
118 30 25 112 
119 27 28 113 
120 28 29 113 
121 24 30 23 
122 29 112 113 
123 26 27 25 
124 25 27 112 
125 29 30 112 
2 1000 2 879
126 327 328 121 
127 328 329 121 
128 295 482 396 
129 236 500 29 
130 210 378 246 
131 332 430 187 
132 348 368 303 
133 13 115 12 
134 171 367 302 
135 187 430 86 
136 265 469 365 
137 330 422 413 
138 169 382 152 
139 186 456 351 
140 125 340 81 
141 212 378 210 
142 351 456 369 
143 231 370 312 
144 365 366 307 
145 312 388 352 
146 208 341 304 
147 291 379 202 
148 202 297 291 
149 286 436 233 
150 302 367 310 
151 313 426 191 
152 23 230 30 
153 152 382 154 
154 169 415 364 
155 26 474 268 
156 272 358 324 
157 211 366 365 
158 237 346 310 
159 312 370 269 
160 57 400 290 
161 200 296 220 
162 396 482 260 
163 250 356 349 
164 303 441 348 
165 316 451 394 
166 234 402 19 
167 27 392 26 
168 137 368 348 
169 125 357 340 
170 174 443 328 
171 35 388 312 
172 272 464 358 
173 48 322 203 
174 26 386 376 
175 370 429 269 
176 233 389 286 
177 290 466 57 
178 174 328 181 
179 26 376 375 
180 208 304 70 
181 228 366 134 
182 305 341 208 
183 114 446 306 
184 295 396 73 
185 363 376 267 
186 269 429 346 
187 381 416 337 
188 369 456 39 
189 47 411 322 
190 380 408 271 
191 328 443 329 
192 330 413 175 
193 301 416 381 
194 415 459 364 
195 232 372 371 
196 234 361 344 
197 56 418 400 
198 47 322 48 
199 175 452 330 
200 203 421 292 
201 85 353 187 
202 306 446 356 
203 346 441 310 
204 240 403 347 
205 10 455 425 
206 347 403 141 
207 336 337 118 
208 81 340 82 
209 203 322 320 
210 394 451 253 
211 292 445 203 
212 478 493 280 
213 160 315 161 
214 227 309 256 
215 349 426 250 
216 344 402 234 
217 198 493 478 
218 257 462 319 
219 181 328 226 
220 383 384 172 
221 321 452 244 
222 185 355 326 
223 56 400 57 
224 83 336 118 
225 17 371 369 
226 233 436 129 
227 114 447 446 
228 356 446 317 
229 47 477 411 
230 353 487 187 
231 232 414 372 
232 293 295 72 
233 320 421 203 
234 44 335 285 
235 397 459 149 
236 194 372 36 
237 315 316 161 
238 359 485 75 
239 71 304 293 
240 310 367 237 
241 255 326 325 
242 482 499 230 
243 338 339 337 
244 121 422 327 
245 354 438 401 
246 168 349 204 
247 363 410 376 
248 259 408 380 
249 317 318 316 
250 129 331 38 
251 315 317 316 
252 349 356 204 
253 232 371 17 
254 384 495 172 
255 400 418 263 
256 360 457 42 
257 294 477 373 
258 364 427 169 
259 265 365 264 
260 296 423 220 
261 169 427 382 
262 74 359 75 
263 226 328 327 
264 307 366 228 
265 455 489 425 
266 71 293 72 
267 354 401 254 
268 344 390 188 
269 250 426 214 
270 432 439 323 
271 336 338 337 
272 189 397 176 
273 204 315 164 
274 255 325 68 
275 254 334 79 
276 208 454 305 
277 164 315 160 
278 1 129 38 
279 297 361 234 
280 200 448 296 
281 312 374 231 
282 2 465 335 
283 69 208 70 
284 270 407 343 
285 168 204 164 
286 204 317 315 
287 306 476 114 
288 7 453 311 
289 44 285 45 
290 91 308 185 
291 352 374 312 
292 244 421 321 
293 330 452 321 
294 42 440 360 
295 6 311 5 
296 21 245 20 
297 69 325 208 
298 83 118 84 
299 311 345 5 
300 234 483 297 
301 341 471 304 
302 137 348 59 
303 223 432 253 
304 82 340 336 
305 261 396 260 
306 1 233 129 
307 326 458 185 
308 82 336 83 
309 72 295 73 
310 160 161 157 
311 75 166 76 
312 17 369 39 
313 204 356 317 
314 361 390 344 
315 338 384 339 
316 357 480 340 
317 80 125 81 
318 319 351 257 
319 343 407 344 
320 70 304 71 
321 91 185 90 
322 48 203 49 
323 8 138 7 
324 38 331 2 
325 94 194 36 
326 122 462 257 
327 43 335 44 
328 382 383 154 
329 80 334 125 
330 329 455 121 
331 187 488 332 
332 348 441 193 
333 335 457 2 
334 214 426 216 
335 194 490 372 
336 340 480 338 
337 437 499 482 
338 304 377 293 
339 194 433 333 
340 242 347 276 
341 85 187 86 
342 267 435 363 
343 378 436 246 
344 58 137 59 
345 202 361 297 
346 337 416 118 
347 373 477 46 
348 92 308 91 
349 129 378 331 
350 223 253 251 
351 242 276 275 
352 335 406 285 
353 321 421 320 
354 352 388 255 
355 3 130 22 
356 139 453 7 
357 344 407 402 
358 191 349 168 
359 50 324 51 
360 4 404 3 
361 240 347 242 
362 190 500 377 
363 302 473 171 
364 201 270 223 
365 53 222 54 
366 226 327 249 
367 86 430 87 
368 288 459 397 
369 155 157 156 
370 166 354 76 
371 253 432 394 
372 60 348 193 
373 157 323 156 
374 293 437 295 
375 67 352 255 
376 332 389 233 
377 88 259 89 
378 151 342 188 
379 59 348 60 
380 304 471 377 
381 79 334 80 
382 201 223 207 
383 155 156 153 
384 68 325 69 
385 376 386 267 
386 153 342 151 
387 78 254 79 
388 327 422 330 
389 318 451 316 
390 253 350 251 
391 339 381 337 
392 366 428 134 
393 323 439 156 
394 222 391 54 
395 151 188 148 
396 161 323 157 
397 201 407 270 
398 45 373 46 
399 118 353 84 
400 257 351 262 
401 67 255 68 
402 309 497 256 
403 66 352 67 
404 247 397 189 
405 343 344 188 
406 156 342 153 
407 289 364 288 
408 203 445 49 
409 342 343 188 
410 351 369 262 
411 334 401 282 
412 254 401 334 
413 94 433 194 
414 301 364 289 
415 63 231 64 
416 343 439 270 
417 287 288 247 
418 333 399 194 
419 443 489 329 
420 60 193 61 
421 84 353 85 
422 75 485 166 
423 266 435 267 
424 172 449 383 
425 249 330 321 
426 285 373 45 
427 96 171 95 
428 316 394 161 
429 282 496 334 
430 206 240 239 
431 159 160 157 
432 223 251 207 
433 276 333 275 
434 324 358 51 
435 271 440 380 
436 346 429 193 
437 230 499 30 
438 51 358 52 
439 163 164 160 
440 193 441 346 
441 136 379 133 
442 76 354 77 
443 300 301 289 
444 13 319 115 
445 35 237 97 
446 18 434 232 
447 222 464 391 
448 63 370 231 
449 152 153 151 
450 353 416 300 
451 229 244 182 
452 50 445 324 
453 154 155 153 
454 177 395 211 
455 336 340 338 
456 219 264 199 
457 96 367 171 
458 35 312 269 
459 165 198 139 
460 191 444 313 
461 116 422 121 
462 324 492 272 
463 291 450 379 
464 379 450 133 
465 35 269 237 
466 227 404 309 
467 196 201 197 
468 262 371 279 
469 269 346 237 
470 177 211 210 
471 137 385 368 
472 339 382 381 
473 12 455 10 
474 65 374 66 
475 167 168 164 
476 201 207 197 
477 155 159 157 
478 237 367 97 
479 445 492 324 
480 264 365 307 
481 213 306 250 
482 327 330 249 
483 93 435 92 
484 181 226 225 
485 371 372 279 
486 359 396 261 
487 188 390 148 
488 244 398 182 
489 206 403 240 
490 87 409 88 
491 288 397 247 
492 240 242 241 
493 37 271 1 
494 217 283 281 
495 274 332 233 
496 119 422 116 
497 217 412 283 
498 242 275 243 
499 150 151 148 
500 97 367 96 
501 302 310 303 
502 19 402 196 
503 391 464 273 
504 2 360 37 
505 276 399 333 
506 179 419 191 
507 270 439 432 
508 55 418 56 
509 302 303 243 
510 66 374 352 
511 128 398 175 
512 240 241 239 
513 249 321 320 
514 226 249 248 
515 62 370 63 
516 255 388 326 
517 173 206 205 
518 206 239 238 
519 307 493 264 
520 211 395 366 
521 275 302 243 
522 334 496 125 
523 331 431 2 
524 309 404 4 
525 171 433 95 
526 372 414 36 
527 42 457 43 
528 243 368 241 
529 36 363 93 
530 339 383 382 
531 431 469 265 
532 158 398 128 
533 193 429 61 
534 285 423 373 
535 242 243 241 
536 57 466 58 
537 326 454 325 
538 115 116 12 
539 40 380 41 
540 287 289 288 
541 192 273 272 
542 325 454 208 
543 178 182 158 
544 435 484 92 
545 257 262 258 
546 303 368 243 
547 159 163 160 
548 229 292 244 
549 1 274 233 
550 220 423 406 
551 118 416 353 
552 90 458 35 
553 179 191 168 
554 37 360 271 
555 152 154 153 
556 216 313 261 
557 150 152 151 
558 163 167 164 
559 132 133 130 
560 213 476 306 
561 339 384 383 
562 241 385 239 
563 397 424 176 
564 206 238 205 
565 161 394 323 
566 140 403 173 
567 239 290 238 
568 146 202 144 
569 5 497 309 
570 238 263 205 
571 280 493 307 
572 282 284 218 
573 122 257 170 
574 342 439 343 
575 306 356 250 
576 54 391 55 
577 350 375 251 
578 350 498 268 
579 52 467 32 
580 382 427 381 
581 192 229 182 
582 192 272 229 
583 199 493 198 
584 32 467 53 
585 358 464 222 
586 147 148 146 
587 31 470 40 
588 173 178 158 
589 235 341 305 
590 239 385 290 
591 89 470 31 
592 62 429 370 
593 300 487 353 
594 77 472 34 
595 368 385 241 
596 420 438 166 
597 202 379 144 
598 266 267 209 
599 143 144 136 
600 219 265 264 
601 128 175 124 
602 34 472 78 
603 297 483 245 
604 173 205 178 
605 33 475 65 
606 28 392 27 
607 127 460 184 
608 271 408 1 
609 178 192 182 
610 165 199 198 
611 64 475 33 
612 87 430 409 
613 148 390 146 
614 140 173 158 
615 196 197 195 
616 283 357 281 
617 308 486 185 
618 150 169 152 
619 264 493 199 
620 251 252 207 
621 423 461 373 
622 227 256 228 
623 141 403 140 
624 141 491 347 
625 226 248 225 
626 144 379 136 
627 115 117 116 
628 92 484 308 
629 216 426 313 
630 140 158 128 
631 35 458 388 
632 218 419 179 
633 299 300 289 
634 15 362 14 
635 8 443 138 
636 249 320 248 
637 173 403 206 
638 347 463 276 
639 145 146 144 
640 147 150 148 
641 126 141 140 
642 159 172 163 
643 131 227 134 
644 282 401 284 
645 145 149 147 
646 198 453 139 
647 217 281 218 
648 267 386 209 
649 329 489 455 
650 184 235 221 
651 135 136 133 
652 286 287 247 
653 138 139 7 
654 196 407 201 
655 167 179 168 
656 126 140 128 
657 2 457 360 
658 117 120 119 
659 192 393 273 
660 73 396 74 
661 182 398 158 
662 88 409 259 
663 281 282 218 
664 41 440 42 
665 317 446 318 
666 262 279 258 
667 377 471 190 
668 211 212 210 
669 355 454 326 
670 257 258 170 
671 300 416 301 
672 207 387 197 
673 167 217 179 
674 363 481 410 
675 287 299 289 
676 383 449 154 
677 246 247 189 
678 177 210 189 
679 375 376 252 
680 142 143 136 
681 224 296 180 
682 142 177 176 
683 235 460 341 
684 138 162 139 
685 154 449 155 
686 146 390 202 
687 126 128 124 
688 270 432 223 
689 145 147 146 
690 292 492 445 
691 364 459 288 
692 171 473 433 
693 263 393 205 
694 275 473 302 
695 117 122 120 
696 301 427 364 
697 313 314 261 
698 369 371 262 
699 190 460 127 
700 258 278 170 
701 24 213 23 
702 406 423 285 
703 116 121 12 
704 138 174 162 
705 235 305 277 
706 305 355 277 
707 211 365 212 
708 217 218 179 
709 9 425 8 
710 381 427 301 
711 205 393 178 
712 286 389 287 
713 1 408 274 
714 178 393 192 
715 131 132 130 
716 162 165 139 
717 238 400 263 
718 43 457 335 
719 185 458 90 
720 283 495 384 
721 209 386 183 
722 200 219 199 
723 166 485 420 
724 181 225 224 
725 14 186 13 
726 213 250 214 
727 320 322 248 
728 298 481 414 
729 123 126 124 
730 166 438 354 
731 500 501 377 
732 290 400 238 
733 174 181 180 
734 256 280 228 
735 121 455 12 
736 19 196 195 
737 132 135 133 
738 235 277 221 
739 244 452 398 
740 156 439 342 
741 184 221 209 
742 61 429 62 
743 143 145 144 
744 123 124 120 
745 197 298 195 
746 3 131 130 
747 117 119 116 
748 149 424 397 
749 251 375 252 
750 74 396 359 
751 276 463 399 
752 280 307 228 
753 175 413 124 
754 246 286 247 
755 212 469 378 
756 227 228 134 
757 284 419 218 
758 95 433 94 
759 245 483 20 
760 253 451 350 
761 135 395 142 
762 165 200 199 
763 150 415 169 
764 373 461 294 
765 453 478 345 
766 200 220 219 
767 287 389 299 
768 202 390 361 
769 210 246 189 
770 135 142 136 
771 221 266 209 
772 126 417 141 
773 338 480 384 
774 273 494 391 
775 358 467 52 
776 142 395 177 
777 122 123 120 
778 36 481 363 
779 274 430 332 
780 58 466 137 
781 120 413 119 
782 181 224 180 
783 225 294 224 
784 177 189 176 
785 354 472 77 
786 284 438 420 
787 268 474 350 
788 380 440 41 
789 49 445 50 
790 131 134 132 
791 408 409 274 
792 292 421 244 
793 167 412 217 
794 213 214 23 
795 252 387 207 
796 222 467 358 
797 174 180 162 
798 296 448 180 
799 310 441 303 
800 26 392 386 
801 30 499 236 
802 142 176 143 
803 412 495 283 
804 122 170 123 
805 409 430 274 
806 19 195 18 
807 163 412 167 
808 385 466 290 
809 314 359 261 
810 195 434 18 
811 46 477 47 
812 65 475 374 
813 149 415 147 
814 391 418 55 
815 260 482 215 
816 375 474 26 
817 184 209 183 
818 272 492 229 
819 53 467 222 
820 3 404 131 
821 39 456 362 
822 147 415 150 
823 386 392 183 
824 296 461 423 
825 123 417 126 
826 279 490 442 
827 172 412 163 
828 197 387 298 
829 131 404 227 
830 254 472 354 
831 198 478 453 
832 384 480 283 
833 437 482 295 
834 219 405 265 
835 125 496 357 
836 259 470 89 
837 376 410 252 
838 360 440 271 
839 220 406 405 
840 402 407 196 
841 137 466 385 
842 388 458 326 
843 277 486 479 
844 394 432 323 
845 145 424 149 
846 259 409 408 
847 29 127 28 
848 216 261 260 
849 248 411 225 
850 78 472 254 
851 130 450 22 
852 345 497 5 
853 401 438 284 
854 256 497 345 
855 22 245 21 
856 159 449 172 
857 279 442 258 
858 419 444 191 
859 363 435 93 
860 278 417 170 
861 420 485 314 
862 414 481 36 
863 332 488 389 
864 155 449 159 
865 214 215 23 
866 215 482 230 
867 357 496 281 
868 231 475 64 
869 258 442 278 
870 124 413 120 
871 133 450 130 
872 420 444 419 
873 220 405 219 
874 374 475 231 
875 311 453 345 
876 398 452 175 
877 284 420 419 
878 25 468 114 
879 433 473 333 
880 138 443 174 
881 283 480 357 
882 380 470 259 
883 129 436 378 
884 417 491 141 
885 399 463 442 
886 186 319 13 
887 451 498 350 
888 143 424 145 
889 335 465 406 
890 117 462 122 
891 225 411 294 
892 322 411 248 
893 314 444 420 
894 277 479 221 
895 135 428 395 
896 22 291 245 
897 170 417 123 
898 214 216 215 
899 391 494 418 
900 252 410 387 
901 331 469 431 
902 246 436 286 
903 305 454 355 
904 313 444 314 
905 278 491 417 
906 405 431 265 
907 186 351 319 
908 232 434 414 
909 273 464 272 
910 165 448 200 
911 442 490 399 
912 184 460 235 
913 347 491 463 
914 333 473 275 
915 216 260 215 
916 127 184 183 
917 345 478 256 
918 40 470 380 
919 132 428 135 
920 176 424 143 
921 8 489 443 
922 350 474 375 
923 114 468 447 
924 236 501 500 
925 236 499 437 
926 185 486 355 
927 134 428 132 
928 389 488 299 
929 224 461 296 
930 294 461 224 
931 24 476 213 
932 115 462 117 
933 372 490 279 
934 127 183 28 
935 149 459 415 
936 162 448 165 
937 446 447 318 
938 447 468 268 
939 298 434 195 
940 378 469 331 
941 22 450 291 
942 183 392 28 
943 291 297 245 
944 399 490 194 
945 460 471 341 
946 355 486 277 
947 319 462 115 
948 180 448 162 
949 414 434 298 
950 479 486 308 
951 29 190 127 
952 221 479 266 
953 229 492 292 
954 437 501 236 
955 377 501 293 
956 268 498 447 
957 406 465 405 
958 215 230 23 
959 442 463 278 
960 418 494 263 
961 431 465 2 
962 299 487 300 
963 281 496 282 
964 395 428 366 
965 256 478 280 
966 263 494 393 
967 393 494 273 
968 410 481 387 
969 387 481 298 
970 405 465 431 
971 266 484 435 
972 411 477 294 
973 314 485 359 
974 463 491 278 
975 190 471 460 
976 425 489 8 
977 318 498 451 
978 16 362 15 
979 14 456 186 
980 293 501 437 
981 29 500 190 
982 447 498 318 
983 172 495 412 
984 362 456 14 
985 299 488 487 
986 479 484 266 
987 308 484 479 
988 487 488 187 
989 10 425 9 
990 39 362 16 
991 18 232 17 
992 20 483 19 
993 19 483 234 
994 5 309 4 
995 7 311 6 
996 12 10 11 
997 25 114 24 
998 114 476 24 
999 26 468 25 
1000 268 468 26 
1001 30 236 29 
1002 413 422 119 
1003 191 426 349 
1004 365 469 212 
$EndElements
