$MeshFormat
4.1 0 8
$EndMeshFormat
$PhysicalNames
6
1 2 "inlet"
1 3 "outlet"
1 4 "noflux"
1 5 "SmallFract"
2 1 "k11"
2 6 "Vugs"
$EndPhysicalNames
$Entities
30 24 9 0
1 30 8 0 0 
5 25 15 0 0 
12 0 0 0 0 
13 0 77 0 0 
14 66 77 0 0 
15 66 0 0 0 
22 10 50 0 0 
23 15 35 0 0 
24 24 65 0 0 
25 33 50 0 0 
26 45 10 0 0 
27 57 18 0 0 
28 50 40 0 0 
29 57 31 0 0 
30 7 64 0 0 
31 18 69 0 0 
200 41 40 0 0 
201 45 44 0 0 
202 43 51 0 0 
203 41 55 0 0 
204 39 56 0 0 
205 39 44 0 0 
230 17 25 0 0 
240 36 22 0 0 
250 35 28 0 0 
260 33 27 0 0 
270 34 31 0 0 
280 33 32 0 0 
290 30 32 0 0 
300 21 28 0 0 
12 0 0 0 0 77 0 1 3 2 12 -13 
13 0 77 0 66 77 0 1 4 2 13 -14 
14 66 0 0 66 77 0 1 2 2 14 -15 
15 0 0 0 66 0 0 1 4 2 15 -12 
16 25 8 0 30 15 0 2 5 -5 2 5 -1 
24 10 35 0 15 50 0 2 5 -5 2 22 -23 
26 24 50 0 33 65 0 2 5 -5 2 24 -25 
28 45 10 0 57 18 0 2 5 -5 2 26 -27 
30 50 31 0 57 40 0 2 5 -5 2 28 -29 
32 7 64 0 18 69 0 2 5 -5 2 30 -31 
100 41 40 0 45 44 0 0 2 200 -201 
110 43 44 0 45 51 0 0 2 201 -202 
120 41 51 0 43 55 0 0 2 202 -203 
130 39 55 0 41 56 0 0 2 203 -204 
140 39 44 0 39 56 0 0 2 204 -205 
150 39 40 0 41 44 0 0 2 205 -200 
230 17 22 0 36 25 0 0 2 230 -240 
240 35 22 0 36 28 0 0 2 240 -250 
250 33 27 0 35 28 0 0 2 250 -260 
260 33 27 0 34 31 0 0 2 260 -270 
270 33 31 0 34 32 0 0 2 270 -280 
280 30 32 0 33 32 0 0 2 280 -290 
290 21 28 0 30 32 0 0 2 290 -300 
300 17 25 0 21 28 0 0 2 300 -230 
11 25 8 0 30 15 0 0 2 16 -16 
15 10 35 0 15 50 0 0 2 24 -24 
16 24 50 0 33 65 0 0 2 26 -26 
17 45 10 0 57 18 0 0 2 28 -28 
18 50 31 0 57 40 0 0 2 30 -30 
19 7 64 0 18 69 0 0 2 32 -32 
390 17 22 0 36 32 0 1 6 8 230 240 250 260 270 280 290 300 
400 39 40 0 45 56 0 1 6 6 100 110 120 130 140 150 
1000 0 0 0 66 77 0 1 1 30 16 -16 24 -24 26 -26 28 -28 30 -30 32 -32 110 120 130 140 150 100 230 240 250 260 270 280 290 300 -15 -14 -13 -12 
$EndEntities
$Nodes
43 103 1 103
0 1 0 1
1
30 8 0
0 5 0 1
2
25 15 0
0 12 0 1
3
0 0 0
0 13 0 1
4
0 77 0
0 14 0 1
5
66 77 0
0 15 0 1
6
66 0 0
0 22 0 1
7
10 50 0
0 23 0 1
8
15 35 0
0 24 0 1
9
24 65 0
0 25 0 1
10
33 50 0
0 26 0 1
11
45 10 0
0 27 0 1
12
57 18 0
0 28 0 1
13
50 40 0
0 29 0 1
14
57 31 0
0 30 0 1
15
7 64 0
0 31 0 1
16
18 69 0
0 200 0 1
17
41 40 0
0 201 0 1
18
45 44 0
0 202 0 1
19
43 51 0
0 203 0 1
20
41 55 0
0 204 0 1
21
39 56 0
0 205 0 1
22
39 44 0
0 230 0 1
23
17 25 0
0 240 0 1
24
36 22 0
0 250 0 1
25
35 28 0
0 260 0 1
26
33 27 0
0 270 0 1
27
34 31 0
0 280 0 1
28
33 32 0
0 290 0 1
29
30 32 0
0 300 0 1
30
21 28 0
1 12 0 2
31
32
0 25.66666666664392 0
0 51.33333333333744 0
1 13 0 1
33
32.99999999990993 77 0
1 14 0 2
34
35
66 51.333333333412 0
66 25.66666666670557 0
1 15 0 1
36
33.00000000001238 0 0
1 16 0 1
37
27.49999999999885 11.50000000000161 0
1 24 0 1
38
12.49999999999999 42.50000000000003 0
1 26 0 1
39
28.4999999999896 57.50000000001732 0
1 28 0 1
40
50.999999999878 13.99999999991867 0
1 30 0 1
41
53.50000000000001 35.49999999999999 0
1 32 0 1
42
12.4999999999967 66.49999999999849 0
2 390 0 3
43
44
45
27.35893164412484 26.94652637258444 0
31.9149440690869 30.14707213358178 0
30.56846892830293 29.02339962654155 0
2 400 0 1
46
41.5 48.75 0
2 1000 0 57
47
48
49
50
51
52
53
54
55
56
57
58
59
60
61
62
63
64
65
66
67
68
69
70
71
72
73
74
75
76
77
78
79
80
81
82
83
84
85
86
87
88
89
90
91
92
93
94
95
96
97
98
99
100
101
102
103
48.21722616528285 48.70492176150938 0
31.57182439133861 34.54113764270794 0
41.71801320670398 59.17001742605774 0
41.11344745576115 25.58762146799234 0
16.53185402907057 62.84554695394284 0
34.96531505300686 34.95956113597838 0
27.64841545308745 36.61730785110417 0
32.05724857786225 38.34034309044262 0
24.97315915172506 49.05211972132754 0
35.48176518401478 62.05793579482822 0
44.42815145092205 67.38528674285985 0
40.15367111689486 30.98440751896429 0
46.31335387123296 29.82074581080253 0
27.67601347483744 41.69384536589031 0
47.58326551288386 22.9904842550834 0
22.26265171592296 39.30539196663686 0
20.6172760169023 57.06794516819834 0
11.79626311031842 56.82372436175675 0
7.730789235703707 37.01836618375476 0
22.31423580836239 33.95505223282733 0
43.32224825718576 34.93963077837103 0
36.97952144259936 38.57386924614286 0
52.11608619028013 27.02601677594928 0
58.58804729213232 37.70045666360936 0
57.41608233424635 24.87119173988017 0
16.76803166755981 50.26792479148958 0
9.360341227112801 14.53703821570103 0
56.64803840760138 64.16666666670599 0
56.6818352688471 46.83171788881677 0
45.5 39.11031283065257 0
48.32296663139488 35.19314974016427 0
17.46434260652639 16.56670985154361 0
33.00537935017563 44.21505457049705 0
18.35072348467384 44.49039508216154 0
38.83425172886362 35.31195171183401 0
35.99220631646089 32.04265339446277 0
42.12137849599523 19.33702124381769 0
36.02983539046614 13.70149911837165 0
30.97000624979226 17.07854772185408 0
21.45387384625966 19.08832071269304 0
20.33209769052149 9.371964009606605 0
26.08477601921039 19.63337368690943 0
30.71277346268408 13.22295834222961 0
30.56765848674368 68.35927744984367 0
53.02308680745767 21.37753855416631 0
57.46410161507676 10.8038475772527 0
49.40582268092889 7.069957120800116 0
47.67793370392037 61.96900283655503 0
47.84900667890795 55.26318951137785 0
41.72420435042996 13.75742454600833 0
39.03096502859491 8.25455805222774 0
33.85975634302471 57.51829440120988 0
11.95702928484642 62.54231782892452 0
49.82069843728445 44.75137534261694 0
29.11569677741911 62.96941806646324 0
51.45048133858159 31.70798246538321 0
23.44510408559151 44.13795723647073 0
$EndNodes
$Elements
13 216 1 216
1 12 1 3
1 3 31 
2 31 32 
3 32 4 
1 13 1 2
4 4 33 
5 33 5 
1 14 1 3
6 5 34 
7 34 35 
8 35 6 
1 15 1 2
9 6 36 
10 36 3 
1 16 1 2
11 2 37 
12 37 1 
1 24 1 2
13 7 38 
14 38 8 
1 26 1 2
15 9 39 
16 39 10 
1 28 1 2
17 11 40 
18 40 12 
1 30 1 2
19 13 41 
20 41 14 
1 32 1 2
21 15 42 
22 42 16 
2 390 2 12
23 26 44 45 
24 25 26 24 
25 28 29 44 
26 44 29 45 
27 27 28 44 
28 23 24 43 
29 30 23 43 
30 24 26 43 
31 29 43 45 
32 26 27 44 
33 43 26 45 
34 29 30 43 
2 400 2 6
35 19 21 46 
36 18 22 17 
37 22 18 46 
38 18 19 46 
39 20 21 19 
40 21 22 46 
2 1000 2 176
41 15 32 64 
42 7 32 65 
43 85 24 88 
44 55 60 79 
45 31 23 65 
46 40 61 83 
47 84 1 97 
48 14 35 70 
49 40 83 96 
50 21 49 56 
51 75 74 95 
52 23 30 8 
53 20 19 95 
54 11 40 96 
55 12 35 71 
56 52 28 82 
57 9 51 63 
58 8 62 80 
59 68 22 79 
60 70 34 75 
61 60 55 103 
62 61 40 91 
63 10 55 79 
64 54 68 79 
65 37 2 87 
66 19 18 47 
67 38 8 80 
68 34 5 74 
69 49 20 95 
70 85 2 89 
71 53 48 54 
72 39 9 63 
73 17 68 81 
74 13 70 75 
75 35 14 71 
76 63 51 64 
77 17 22 68 
78 25 58 82 
79 73 3 87 
80 67 17 81 
81 23 73 78 
82 37 1 89 
83 23 31 73 
84 56 57 90 
85 53 54 60 
86 7 38 72 
87 21 56 98 
88 72 38 80 
89 9 16 51 
90 10 21 98 
91 13 75 100 
92 64 7 72 
93 22 10 79 
94 78 2 86 
95 10 39 55 
96 55 39 63 
97 9 39 101 
98 83 84 96 
99 13 18 76 
100 62 8 66 
101 63 64 72 
102 18 17 76 
103 48 28 52 
104 40 12 91 
105 56 49 57 
106 6 92 93 
107 25 50 58 
108 14 69 71 
109 57 33 90 
110 83 24 84 
111 84 24 85 
112 59 61 69 
113 75 47 100 
114 59 50 61 
115 17 67 76 
116 58 59 67 
117 2 78 87 
118 19 47 95 
119 55 63 72 
120 34 74 75 
121 53 60 62 
122 64 51 99 
123 39 10 98 
124 2 85 88 
125 41 13 77 
126 1 36 97 
127 18 13 100 
128 54 52 68 
129 84 85 89 
130 53 62 66 
131 14 41 102 
132 69 14 102 
133 55 72 80 
134 60 54 79 
135 55 80 103 
136 58 50 59 
137 86 2 88 
138 68 52 81 
139 13 76 77 
140 25 24 50 
141 61 50 83 
142 76 67 77 
143 8 38 65 
144 98 56 101 
145 12 71 91 
146 16 42 51 
147 71 69 91 
148 42 15 99 
149 67 59 77 
150 58 67 81 
151 78 73 87 
152 12 40 92 
153 40 11 93 
154 69 61 91 
155 41 14 70 
156 59 69 102 
157 23 78 86 
158 56 90 101 
159 90 9 101 
160 74 94 95 
161 39 98 101 
162 48 52 54 
163 94 49 95 
164 29 48 53 
165 57 49 94 
166 29 28 48 
167 51 42 99 
168 62 60 103 
169 77 59 102 
170 41 77 102 
171 81 52 82 
172 96 84 97 
173 47 18 100 
174 21 20 49 
175 50 24 83 
176 11 96 97 
177 80 62 103 
178 92 40 93 
179 58 81 82 
180 31 3 73 
181 3 36 87 
182 5 57 74 
183 35 12 92 
184 24 23 88 
185 23 86 88 
186 35 34 70 
187 36 93 97 
188 36 1 87 
189 1 37 87 
190 1 84 89 
191 2 37 89 
192 4 32 15 
193 42 4 15 
194 33 4 16 
195 4 42 16 
196 5 33 57 
197 6 35 92 
198 36 6 93 
199 32 7 64 
200 38 7 65 
201 23 8 65 
202 8 30 66 
203 16 9 90 
204 10 22 21 
205 93 11 97 
206 13 41 70 
207 15 64 99 
208 33 16 90 
209 27 26 25 
210 27 25 82 
211 28 27 82 
212 30 29 66 
213 29 53 66 
214 32 31 65 
215 47 75 95 
216 74 57 94 
$EndElements
