$MeshFormat
4.1 0 8
$EndMeshFormat
$PhysicalNames
6
1 2 "inlet"
1 3 "outlet"
1 4 "Top"
1 5 "SmallFract"
2 1 "Darcy"
2 6 "Vugs"
$EndPhysicalNames
$Entities
36 34 3 0
1 115 107 0 0 
2 79 183 0 0 
3 230 263 0 0 
4 228 281 0 0 
5 202 299 0 0 
6 204 312 0 0 
7 171 322 0 0 
8 166 342 0 0 
9 181 343 0 0 
10 180 362 0 0 
11 191 365 0 0 
12 178 379 0 0 
13 200 374 0 0 
14 205 360 0 0 
15 198 348 0 0 
16 202 340 0 0 
17 259 342 0 0 
18 295 317 0 0 
19 300 296 0 0 
20 254 280 0 0 
21 242 267 0 0 
22 241 257 0 0 
23 512 250 0 0 
24 500 260 0 0 
25 483 283 0 0 
26 446 315 0 0 
27 476 316 0 0 
28 483 328 0 0 
29 500 326 0 0 
30 501 284 0 0 
41 0 0 0 0 
42 0 676 0 0 
43 616 676 0 0 
44 616 0 0 0 
45 500 550 0 0 
46 380 415 0 0 
1 79 107 0 115 183 0 2 5 -5 2 1 -2 
3 228 263 0 230 281 0 0 2 3 -4 
4 202 281 0 228 299 0 0 2 4 -5 
5 202 299 0 204 312 0 0 2 5 -6 
6 171 312 0 204 322 0 0 2 6 -7 
7 166 322 0 171 342 0 0 2 7 -8 
8 166 342 0 181 343 0 0 2 8 -9 
9 180 343 0 181 362 0 0 2 9 -10 
10 180 362 0 191 365 0 0 2 10 -11 
11 178 365 0 191 379 0 0 2 11 -12 
12 178 374 0 200 379 0 0 2 12 -13 
13 200 360 0 205 374 0 0 2 13 -14 
14 198 348 0 205 360 0 0 2 14 -15 
15 198 340 0 202 348 0 0 2 15 -16 
16 202 340 0 259 342 0 0 2 16 -17 
17 259 317 0 295 342 0 0 2 17 -18 
18 295 296 0 300 317 0 0 2 18 -19 
19 254 280 0 300 296 0 0 2 19 -20 
20 242 267 0 254 280 0 0 2 20 -21 
21 241 257 0 242 267 0 0 2 21 -22 
22 230 257 0 241 263 0 0 2 22 -3 
23 500 250 0 512 260 0 0 2 23 -24 
24 483 260 0 500 283 0 0 2 24 -25 
25 446 283 0 483 315 0 0 2 25 -26 
26 446 315 0 476 316 0 0 2 26 -27 
27 476 316 0 483 328 0 0 2 27 -28 
28 483 326 0 500 328 0 0 2 28 -29 
29 500 284 0 501 326 0 0 2 29 -30 
30 501 250 0 512 284 0 0 2 30 -23 
41 0 0 0 0 676 0 1 2 2 41 -42 
42 0 676 0 616 676 0 1 4 2 42 -43 
43 616 0 0 616 676 0 1 3 2 43 -44 
44 0 0 0 616 0 0 1 4 2 44 -41 
45 380 415 0 500 550 0 2 5 -5 2 45 -46 
38 166 257 0 300 379 0 1 6 20 3 4 5 6 7 8 9 10 11 12 13 14 15 16 17 18 19 20 21 22 
39 446 250 0 512 328 0 1 6 8 23 24 25 26 27 28 29 30 
1000 0 0 0 616 676 0 1 1 36 3 4 5 6 7 8 9 10 11 12 13 14 15 16 17 18 19 20 21 22 -23 -30 -29 -28 -27 -26 -25 -24 -1 1 -45 45 -44 -43 -42 -41 
$EndEntities
$Nodes
46 513 1 513
0 1 0 1
1
115 107 0
0 2 0 1
2
79 183 0
0 3 0 1
3
230 263 0
0 4 0 1
4
228 281 0
0 5 0 1
5
202 299 0
0 6 0 1
6
204 312 0
0 7 0 1
7
171 322 0
0 8 0 1
8
166 342 0
0 9 0 1
9
181 343 0
0 10 0 1
10
180 362 0
0 11 0 1
11
191 365 0
0 12 0 1
12
178 379 0
0 13 0 1
13
200 374 0
0 14 0 1
14
205 360 0
0 15 0 1
15
198 348 0
0 16 0 1
16
202 340 0
0 17 0 1
17
259 342 0
0 18 0 1
18
295 317 0
0 19 0 1
19
300 296 0
0 20 0 1
20
254 280 0
0 21 0 1
21
242 267 0
0 22 0 1
22
241 257 0
0 23 0 1
23
512 250 0
0 24 0 1
24
500 260 0
0 25 0 1
25
483 283 0
0 26 0 1
26
446 315 0
0 27 0 1
27
476 316 0
0 28 0 1
28
483 328 0
0 29 0 1
29
500 326 0
0 30 0 1
30
501 284 0
0 41 0 1
31
0 0 0
0 42 0 1
32
0 676 0
0 43 0 1
33
616 676 0
0 44 0 1
34
616 0 0
0 45 0 1
35
500 550 0
0 46 0 1
36
380 415 0
1 1 0 1
37
96.99999999992376 145.000000000161 0
1 16 0 1
38
230.4999999992959 340.9999999999753 0
1 41 0 13
39
40
41
42
43
44
45
46
47
48
49
50
51
0 48.28571428566379 0
0 96.57142857133456 0
0 144.8571428569728 0
0 193.1428571425421 0
0 241.4285714281113 0
0 289.7142857138218 0
0 337.999999999594 0
0 386.2857142853663 0
0 434.5714285711386 0
0 482.8571428569109 0
0 531.1428571426832 0
0 579.4285714284555 0
0 627.7142857142277 0
1 42 0 12
52
53
54
55
56
57
58
59
60
61
62
63
47.38461538456973 676 0
94.7692307691382 676 0
142.1538461536721 676 0
189.5384615382816 676 0
236.9230769228911 676 0
284.3076923073767 676 0
331.6923076919862 676 0
379.0769230768143 676 0
426.4615384616424 676 0
473.8461538464705 676 0
521.2307692312183 676 0
568.6153846156092 676 0
1 43 0 13
64
65
66
67
68
69
70
71
72
73
74
75
76
616 627.7142857142857 0
616 579.4285714285714 0
616 531.1428571428571 0
616 482.8571428571429 0
616 434.5714285714286 0
616 386.2857142857143 0
616 338 0
616 289.7142857142857 0
616 241.4285714285714 0
616 193.1428571428571 0
616 144.8571428571429 0
616 96.57142857142856 0
616 48.28571428571422 0
1 44 0 12
77
78
79
80
81
82
83
84
85
86
87
88
568.6153846155298 0 0
521.2307692310596 0 0
473.8461538465894 0 0
426.4615384621192 0 0
379.076923077649 0 0
331.6923076931788 0 0
284.3076923084899 0 0
236.9230769235825 0 0
189.538461538675 0 0
142.1538461537676 0 0
94.76923076894036 0 0
47.38461538447018 0 0
1 45 0 3
89
90
91
470.0000000000001 516.2500000000001 0
440.0000000000002 482.5000000000002 0
410.0000000000001 448.7500000000001 0
2 38 0 14
92
93
94
95
96
97
98
99
100
101
102
103
104
105
266.218128518982 314.3105088346495 0
219.8972663865387 305.3609880328518 0
190.0509698113775 328.5875150215395 0
189.1975793971843 352.8588607527518 0
216.7243749996483 326.9803124999748 0
234.0702529922507 315.6718134553819 0
234.7381032912662 296.5123042859635 0
191.2307692307692 339.6153846153846 0
273.4875428801092 301.0895877458278 0
196.026286263306 356.5782583823172 0
252.2195858815639 298.1374298944897 0
203.0240798261178 326.3221904923129 0
242.191537834566 284.5299468360907 0
250.104210544001 323.8829435032918 0
2 39 0 2
106
107
490.7210376777721 302.7262728779329 0
487.4302594194431 318.1815682194832 0
2 1000 0 406
108
109
110
111
112
113
114
115
116
117
118
119
120
121
122
123
124
125
126
127
128
129
130
131
132
133
134
135
136
137
138
139
140
141
142
143
144
145
146
147
148
149
150
151
152
153
154
155
156
157
158
159
160
161
162
163
164
165
166
167
168
169
170
171
172
173
174
175
176
177
178
179
180
181
182
183
184
185
186
187
188
189
190
191
192
193
194
195
196
197
198
199
200
201
202
203
204
205
206
207
208
209
210
211
212
213
214
215
216
217
218
219
220
221
222
223
224
225
226
227
228
229
230
231
232
233
234
235
236
237
238
239
240
241
242
243
244
245
246
247
248
249
250
251
252
253
254
255
256
257
258
259
260
261
262
263
264
265
266
267
268
269
270
271
272
273
274
275
276
277
278
279
280
281
282
283
284
285
286
287
288
289
290
291
292
293
294
295
296
297
298
299
300
301
302
303
304
305
306
307
308
309
310
311
312
313
314
315
316
317
318
319
320
321
322
323
324
325
326
327
328
329
330
331
332
333
334
335
336
337
338
339
340
341
342
343
344
345
346
347
348
349
350
351
352
353
354
355
356
357
358
359
360
361
362
363
364
365
366
367
368
369
370
371
372
373
374
375
376
377
378
379
380
381
382
383
384
385
386
387
388
389
390
391
392
393
394
395
396
397
398
399
400
401
402
403
404
405
406
407
408
409
410
411
412
413
414
415
416
417
418
419
420
421
422
423
424
425
426
427
428
429
430
431
432
433
434
435
436
437
438
439
440
441
442
443
444
445
446
447
448
449
450
451
452
453
454
455
456
457
458
459
460
461
462
463
464
465
466
467
468
469
470
471
472
473
474
475
476
477
478
479
480
481
482
483
484
485
486
487
488
489
490
491
492
493
494
495
496
497
498
499
500
501
502
503
504
505
506
507
508
509
510
511
512
513
473.0608945543559 261.973114205794 0
192.9405477011668 391.6281756801076 0
174.5309885079232 397.4191156534273 0
189.801452426318 409.5970966898876 0
308.0000000008343 41.0362806716008 0
171.3996860316349 416.263277512162 0
187.0937909146153 429.751019836793 0
158.5093268829881 383.9588380086491 0
207.4268630370707 421.316619321147 0
205.4255325260403 444.129435948039 0
182.11865276936 453.2328811791717 0
449.4611239973577 36.29527048056077 0
202.3911207690719 470.3082415641921 0
495.0366223138024 344.8399989924822 0
175.253497726134 480.3537761538581 0
314.3282321806469 631.4886257493448 0
151.9900134163117 328.4722359746038 0
155.4462871071717 307.4273261241927 0
198.8172076146864 500.0374196528994 0
226.8959519000114 487.7962383726444 0
316.9890552849286 311.1402512583163 0
321.0465154155206 288.0815311701384 0
168.4929325726141 510.8697119336227 0
305.0015918108991 272.6283785399058 0
324.9372364905566 265.6429117963467 0
310.0852300909216 251.600858577905 0
329.4926955527673 244.6153132922227 0
313.9942773484146 230.600369697915 0
334.2934802553586 224.1544649596044 0
350.421159279008 237.7946944959316 0
355.4112615524602 217.3403523857284 0
316.8994135395936 210.0515177758364 0
371.9039457444026 231.0883283875455 0
376.59220770961 209.0523457811694 0
297.6565692031044 216.1503711760642 0
299.1668442503499 193.8684367225136 0
276.4153783441376 202.264287147308 0
230.8180915766157 251.4165012237954 0
218.6003538999752 256.3742546361274 0
218.9330778289055 241.5185868796611 0
203.9246553947934 247.7940422831971 0
205.8269077017331 230.1010388992638 0
279.8128809501996 178.401078819664 0
303.8333727360617 169.6549353620119 0
188.1135082703763 237.6906136885318 0
393.6901804291873 224.196530652711 0
398.7649500557259 201.3226130222077 0
380.4969301295115 184.8615631000382 0
404.5111694795133 176.5011520166338 0
384.7880438844405 158.2873365916348 0
189.3599914153792 216.5163631441009 0
136.2394973597884 315.7440770212262 0
138.7955752338256 293.1156901777142 0
422.4283730914182 194.2121995028516 0
429.4688242655644 168.6093865492725 0
448.767836162747 190.3735446693774 0
455.4537014724868 160.6941411270214 0
474.6298376191093 179.3897152243169 0
482.7935105823167 150.6372044623003 0
338.1540926553212 303.8134380058111 0
228.3727042991809 433.9877651796142 0
284.2530770311753 152.9880296613335 0
258.4659176566882 162.8963146901843 0
262.2004028002453 134.9509138762043 0
233.6021606987528 147.0707352649318 0
194.463268017915 532.4148172329042 0
312.9214269636479 140.6108609599434 0
152.9370827120201 458.0013733815387 0
162.1423248338523 543.313864021243 0
388.4040743442318 246.2246642305665 0
132.7006830712182 338.8987371788744 0
313.3438724905488 339.5719270932397 0
135.2756600741645 520.6781271452944 0
473.8352420390314 345.7385903474693 0
486.9763942479406 365.916794567413 0
241.0511076188882 244.3452176929751 0
252.3266414230585 250.6919542610143 0
222.9846939832288 223.1810516904401 0
410.3506234669901 239.861089661881 0
41.81665521135596 410.4285714282525 0
169.0138709711539 225.8926011236023 0
217.0282528838559 372.0792978280886 0
112.6253579841272 324.1416347201151 0
514.0554055214254 338.8482115201241 0
131.5117365691467 554.9675424238163 0
239.0355161096435 115.9687221275089 0
404.8476952243903 635.7349459117235 0
170.7816875764237 201.8294421882172 0
436.0700231688307 141.5551577296995 0
503.3468702465354 175.7952595329772 0
512.8865642411618 140.8587686550907 0
186.9262511704083 258.1105004520767 0
189.6869921146125 566.4203882555745 0
223.2573048019488 554.1556846225542 0
109.9184712698842 352.2427917697565 0
405.23305537305 262.0530510843278 0
577.3950821447004 458.6131830871742 0
460.0426129608871 366.8636035788965 0
475.582972291803 390.8384775673289 0
504.9059229298834 388.3809551644857 0
492.7577736974476 417.0294561017323 0
206.9957989163708 129.3514642798111 0
34.51406751867496 264.7945056845826 0
497.3184034182322 244.9119233831976 0
510.3090827280016 232.1177242274434 0
532.0427623875813 244.3580537921713 0
574.1833447886943 72.42857142857139 0
426.8524442597936 255.0105322284722 0
213.6648351327386 94.51175731399697 0
43.53503739922487 603.8534536497672 0
252.6238364192918 236.6102437752421 0
265.3352933861047 244.5102014136813 0
100.6292073883434 530.1295071063753 0
382.6692264939685 269.1595673095007 0
86.58687472853164 334.0676608826485 0
529.1937783645203 274.9716141213277 0
488.0311826157534 117.7668776267699 0
146.4724775794688 212.0291824935397 0
192.7173595878781 193.4463242821832 0
173.5642310248314 175.5460088854746 0
400.3276031645385 285.6218963222982 0
544.9230769234136 634.9637193285627 0
527.3445638478545 217.1354137083571 0
469.9078719081194 204.9625202582388 0
431.665703882845 233.7847437855158 0
218.3203270337025 592.9799873493171 0
253.8101658010417 577.2924050192549 0
258.369942018854 539.3008639189433 0
289.7267074371761 561.9007176531715 0
294.5428867925294 522.867794161281 0
326.8897873170908 546.7649508282809 0
331.8859280555088 506.2748616548444 0
299.853939855713 485.9522541991878 0
365.7211418667018 530.9227242142422 0
148.2214445655145 242.2354807815418 0
108.48759258836 493.3907669857064 0
534.6139487228201 167.9409009751599 0
276.9125970384735 102.2116864257903 0
357.1949183330311 167.167786116814 0
363.3582590566131 138.2877194922736 0
226.1890489102409 407.01336758165 0
252.2131917213984 422.1914797227225 0
251.3258538413293 394.8845022996569 0
278.3232468377392 409.5361833248962 0
73.5482463727085 45.59722907218333 0
117.3121380256333 636.2198335314636 0
207.5257865229088 278.6896013251929 0
445.1169793621011 392.4203012932886 0
435.0441614245078 369.3965869385656 0
120.7577378050165 224.7056322425139 0
165.6053966084199 37.91618838416098 0
93.01484143789553 302.139148919849 0
553.6043324544366 228.4787735336276 0
576.7587450646682 363.8741726103149 0
118.7038129849474 254.4699741030555 0
179.3759858046248 601.6740032010455 0
60.04764907529178 315.3491843436208 0
391.4855987800093 129.6750949658577 0
367.4382381747812 108.1754784484722 0
395.9565483508412 95.50924367881287 0
369.5487777625779 71.42334226980971 0
71.16873818074708 504.4145667327553 0
358.9203468054045 570.5843973933512 0
405.3885721656914 555.720929768761 0
80.03639841378418 465.7546113465902 0
527.2975909073043 413.2707523493225 0
512.6723949373351 446.1329943807718 0
81.43869429266832 363.3892946483112 0
108.5148233923082 382.3377471197321 0
179.2221531794244 106.9242653912494 0
275.0776830894175 381.4935804519546 0
306.4284699759773 394.5622453124462 0
523.1458498917052 313.1446590902177 0
93.00502016574825 238.1245103790462 0
159.7451736832129 284.822151828522 0
553.376632580128 301.2415707044535 0
575.2350180592548 549.8445592283658 0
377.4122657011484 292.5920287742209 0
396.0736826025764 310.9458072449972 0
330.3556760884567 461.5287891867359 0
446.7109384056504 248.049880134063 0
442.3932122142319 269.4268327955365 0
250.8659068115795 449.8635362717541 0
233.0188837341834 175.6869196243678 0
520.0068780798297 105.774293473358 0
336.6423032388117 92.08922382642513 0
372.6389169653535 317.175948017205 0
390.6841081118587 337.820555694831 0
365.8157451142047 345.1796955629171 0
507.2950739455703 206.2413730063842 0
292.3859938488951 255.1626676218719 0
360.6140306740665 274.8690713489667 0
493.3395761720909 82.04010784091741 0
463.1271132317146 97.92520818432007 0
66.67581614003845 541.9841209280127 0
266.2583187964882 228.9344390988141 0
251.6914906284378 218.8000991778058 0
248.58576999251 610.6465714417926 0
36.54450932390091 120.2794264367817 0
123.543414561957 195.8640068404659 0
137.4799601127944 154.7640594813023 0
288.465104724945 270.336451633066 0
554.870190480277 263.1238292256808 0
280.2406701103685 239.1619746093822 0
304.9250112530339 428.939110786726 0
385.5663350292473 370.3618009371742 0
353.0364889318787 378.7130128883032 0
451.7413415857511 227.6943951712661 0
187.3594493945822 304.9949329740409 0
187.391280497466 291.1627047221139 0
263.9484727587268 259.7135699155266 0
204.4969185864508 165.4420285010021 0
211.493247852995 388.9907009680811 0
401.4591382461271 40.79859352293615 0
571.0362729434015 411.01187240225 0
474.7272811209801 449.0868210784417 0
336.2933478393526 413.7419366202382 0
323.1635753162454 367.508281370577 0
39.92806470393099 366.9451784059873 0
415.5674905845525 217.7969337880581 0
287.6019789825961 344.1781241581333 0
76.28236887945907 394.5599873807641 0
107.5953818858585 415.6221946036872 0
133.0179423153093 397.6730197640529 0
135.5828560484932 366.1730681371553 0
154.7190475721028 363.3617262682918 0
138.726904149804 428.1677385686596 0
41.40715827332847 217.0668023025189 0
463.6112101555639 244.8721361832857 0
257.1298335001891 41.82011894777462 0
209.2761267754422 36.53190289476479 0
120.1649590845531 38.57297621359088 0
175.4913558060979 142.7348086472107 0
530.5300922342708 71.34347175004783 0
261.3904112570253 499.9221518699458 0
537.8463945966232 380.831448461535 0
361.518183148666 636.8259318332898 0
579.5408800684942 118.6830970572227 0
541.4371060725989 341.5101448350711 0
243.7458644233037 366.8376854481231 0
405.5154704200383 513.4852390926038 0
575.4298717790533 504.3407952608085 0
497.137441721385 41.01959565562596 0
418.3733597359421 326.5224313057632 0
497.663684165248 635.2471018164165 0
521.6024756344071 596.0023913146149 0
474.8108653371544 594.7976018808628 0
450.9976658335472 635.2869728912746 0
429.6623427450064 596.0982141142438 0
350.5863713382304 38.26601317934705 0
489.4787887252594 480.6872465299854 0
42.21393623234209 450.6042168719542 0
328.9266105976578 166.0121616441657 0
340.9036796712977 184.6876722638105 0
369.3874991812279 489.7869548400339 0
229.9564535823449 385.9611108251199 0
255.6424255578579 187.3497089791607 0
234.426898632761 203.7968094304576 0
72.3201907328187 638.1409590412347 0
88.74930264062874 602.9079181309178 0
133.0091339700815 596.0771127642331 0
140.929676398433 269.7769691020654 0
90.24961393135017 270.817501742247 0
366.526003269798 252.8532522691231 0
36.63755794065953 73.71002975147208 0
548.9083069564675 197.7058788958398 0
574.2074707704569 166.3247413714524 0
115.8088911251765 454.417082553248 0
210.6001327653299 349.6179074766478 0
320.69361140901 585.7986017078301 0
452.276067606204 556.7566796320608 0
345.2492270731727 259.1679256109253 0
77.29227195799605 431.8977773640827 0
36.90712811358866 167.0627609970416 0
336.9824440264122 120.1073545052139 0
305.876007790819 110.6208558764267 0
331.9829215501132 324.7646072925731 0
422.3847897424535 277.6745250528486 0
571.7972547418685 599.1881460763881 0
145.4936888074071 79.89405993141192 0
284.0384943519649 601.0753471012952 0
419.6508587536462 301.8062898202696 0
447.7482526251878 342.4492222997289 0
429.5461529178789 80.3599971996542 0
282.3211167474809 69.05885049146421 0
533.651599969735 480.4578422539464 0
535.8876949340707 524.7101061297301 0
413.7507481114831 388.6795697989842 0
465.3166989328438 329.4375625294397 0
580.9320633920174 211.0877795476952 0
164.4314480561707 262.9874425525315 0
214.9624028697893 634.0118280476548 0
410.0365236922556 150.880800616093 0
144.7465805888762 489.9378666915795 0
436.5051125811489 213.4044261031819 0
150.7236148484508 120.0113205914319 0
574.2589953697994 328.0203470115435 0
75.12701021316037 101.1598080019954 0
225.0691979657993 520.5536655319229 0
159.2114551979312 638.7942643788584 0
437.9111370830952 289.3472838931018 0
248.4862179363671 81.84398577777777 0
217.8380284050294 268.390899680748 0
189.1859349321849 70.54515887928595 0
250.6550228363571 262.8811048353082 0
166.2621761810919 436.1813080403181 0
276.610099956345 438.6566528454549 0
210.0440993797271 209.6863543665357 0
239.2165238560144 229.3832888866284 0
227.4088279185777 460.4537169616608 0
172.405966475445 300.8119601480905 0
461.5740079523007 418.6311529864469 0
204.7617865241537 263.3389323480151 0
147.028516470606 185.5633962972175 0
491.7796586802211 224.4073519537107 0
461.4525548281902 133.6820004756666 0
172.8601398601399 352.0979020979021 0
153.7528322890956 404.9449484126001 0
370.3213619466006 451.4897257096349 0
114.9280616877418 281.1514857424186 0
427.0810253810631 419.3846876127989 0
359.7171805286112 195.3951419706115 0
37.59003976996937 518.0839030610151 0
387.2661791368914 599.0278141377343 0
456.9806160069893 261.4301470231067 0
456.5576433097787 280.0295629862565 0
545.3306324570073 35.25475915701108 0
214.9408319842001 189.6116872409093 0
150.0177384352693 347.5020363836312 0
341.1920679820755 281.1656446973761 0
417.3622731055068 118.8224949846475 0
168.2983232227349 367.3699716652935 0
105.8667808955658 74.44481464383631 0
523.6442488589581 191.6361417005697 0
296.4480458592665 236.5039052763377 0
544.5416033006289 131.4494355536083 0
274.1113883946348 466.6947237867914 0
540.9044886739201 563.9490405498196 0
297.8476814330143 363.4961726837214 0
177.5674092515481 276.54953251061 0
544.4105881804952 441.897328894693 0
96.03346976897059 207.7587791813817 0
510.6177194838439 364.6106044473094 0
62.96105514643098 283.8940702766014 0
288.4327023248722 128.2764693599397 0
319.578244382302 188.3582989494925 0
480.5406957124597 242.7624772990972 0
468.4290463395596 225.9071092675762 0
36.15223262012124 640.4351868447673 0
159.1452346584636 572.4905821331824 0
270.4587187753193 641.0029009186246 0
59.90735511082428 342.0866730736693 0
97.31445921254053 566.3314044612075 0
193.8434786240365 275.8528996090173 0
583.2370218178944 32.68371002545972 0
309.5866402735556 81.26903750812497 0
356.8907621157671 298.1198365872717 0
35.30664062057065 561.5177549571488 0
119.1206667406757 303.2584073162647 0
280.4811788307223 222.5291701747941 0
34.53053738850137 34.77882583882777 0
171.3413046067247 245.3833277196568 0
577.1417725862619 241.3792570095719 0
339.7793003532714 345.8067354812768 0
581.46946261158 641.2211741612166 0
31.66249923790419 329.1767262062933 0
37.83705419566039 296.585754444984 0
265.479169466377 215.3525209620233 0
488.3898168465759 197.2761923641647 0
584.1313669242506 290.2471082886818 0
66.31625120260064 575.3189304254108 0
249.885535579485 475.6762839908948 0
442.6764628908688 443.6705323355375 0
65.26142431925311 249.0549497100521 0
442.6462616489808 116.6421226254964 0
550.4361542993295 98.88036349285743 0
437.277730192063 526.0631257096442 0
205.546427559183 404.2128012249522 0
272.2792516816537 359.1440021283582 0
221.374850014357 357.9069781505669 0
276.5315050955636 257.261137759162 0
402.1805971273379 480.7312636595562 0
330.7809261468948 61.41132596381848 0
466.6312996450325 66.23337142152771 0
74.94141450546009 219.0010083145998 0
297.1712231096367 456.3543061609792 0
339.0772894414469 205.3733093563301 0
161.3823995811738 352.5162395616013 0
64.49110108430261 144.0303372434339 0
157.5353996629066 421.3893181334349 0
113.0558908224941 170.5185409145852 0
348.5453105361237 604.74507416431 0
412.8468491503195 353.450904537763 0
46.20182251936855 484.3428881738452 0
252.5494807320989 204.2346092113946 0
486.7839987370096 258.5295029776177 0
230.6006989727305 237.9689292747 0
454.0530620973972 211.6236851245879 0
340.3120079589283 145.1138536847735 0
504.6635849062117 511.148775131968 0
329.7304705158635 388.6313690478911 0
350.8769564590051 322.4767101578424 0
222.2946784997428 66.85705606842728 0
274.3674391525598 273.2392974329491 0
197.6901364111028 286.176301414081 0
399.1276543193562 72.02279416780323 0
$EndNodes
$Elements
9 1030 1 1030
1 1 1 2
1 1 37 
2 37 2 
1 41 1 14
3 31 39 
4 39 40 
5 40 41 
6 41 42 
7 42 43 
8 43 44 
9 44 45 
10 45 46 
11 46 47 
12 47 48 
13 48 49 
14 49 50 
15 50 51 
16 51 32 
1 42 1 13
17 32 52 
18 52 53 
19 53 54 
20 54 55 
21 55 56 
22 56 57 
23 57 58 
24 58 59 
25 59 60 
26 60 61 
27 61 62 
28 62 63 
29 63 33 
1 43 1 14
30 33 64 
31 64 65 
32 65 66 
33 66 67 
34 67 68 
35 68 69 
36 69 70 
37 70 71 
38 71 72 
39 72 73 
40 73 74 
41 74 75 
42 75 76 
43 76 34 
1 44 1 13
44 34 77 
45 77 78 
46 78 79 
47 79 80 
48 80 81 
49 81 82 
50 82 83 
51 83 84 
52 84 85 
53 85 86 
54 86 87 
55 87 88 
56 88 31 
1 45 1 4
57 35 89 
58 89 90 
59 90 91 
60 91 36 
2 38 2 47
61 9 7 8 
62 9 94 7 
63 18 100 92 
64 38 96 16 
65 14 11 13 
66 93 98 4 
67 15 99 95 
68 22 3 21 
69 100 102 92 
70 92 105 17 
71 6 96 93 
72 4 104 21 
73 14 101 11 
74 15 101 14 
75 96 97 93 
76 9 99 94 
77 11 95 10 
78 97 105 102 
79 95 99 9 
80 94 103 6 
81 95 101 15 
82 97 102 98 
83 38 105 97 
84 16 103 99 
85 38 97 96 
86 97 98 93 
87 102 105 92 
88 17 105 38 
89 102 104 98 
90 96 103 16 
91 11 101 95 
92 99 103 94 
93 6 93 5 
94 98 104 4 
95 6 103 96 
96 19 100 18 
97 21 104 20 
98 20 104 102 
99 16 99 15 
100 5 93 4 
101 7 94 6 
102 10 95 9 
103 21 3 4 
104 13 11 12 
105 18 92 17 
106 20 100 19 
107 20 102 100 
2 39 2 10
108 25 30 24 
109 106 27 107 
110 30 25 106 
111 27 28 107 
112 28 29 107 
113 24 30 23 
114 29 106 107 
115 26 27 25 
116 25 27 106 
117 29 30 106 
2 1000 2 913
118 365 304 416 
119 24 25 503 
120 213 260 310 
121 172 291 319 
122 310 470 477 
123 115 331 332 
124 12 13 109 
125 185 365 416 
126 330 375 380 
127 115 332 333 
128 326 275 329 
129 223 213 310 
130 438 391 482 
131 287 312 324 
132 30 223 280 
133 399 305 458 
134 430 302 465 
135 2 335 381 
136 330 334 375 
137 191 346 450 
138 470 72 477 
139 308 1 403 
140 332 178 436 
141 280 223 283 
142 321 268 357 
143 90 323 358 
144 26 27 396 
145 432 108 433 
146 187 326 329 
147 209 172 319 
148 375 175 401 
149 37 1 308 
150 287 324 426 
151 333 332 436 
152 346 343 450 
153 334 175 375 
154 267 391 438 
155 23 213 223 
156 278 250 347 
157 387 277 403 
158 383 245 463 
159 261 322 343 
160 56 399 458 
161 4 254 410 
162 202 178 332 
163 322 273 343 
164 49 430 465 
165 335 2 492 
166 278 347 486 
167 347 189 487 
168 422 454 455 
169 227 308 340 
170 70 404 477 
171 413 334 497 
172 89 90 358 
173 81 321 357 
174 454 336 455 
175 335 42 381 
176 391 301 482 
177 231 422 455 
178 192 368 460 
179 175 334 413 
180 26 408 433 
181 263 399 407 
182 298 309 488 
183 345 74 374 
184 261 343 346 
185 25 108 503 
186 245 392 463 
187 424 10 439 
188 319 291 435 
189 386 353 445 
190 345 374 443 
191 127 342 406 
192 261 69 322 
193 342 235 406 
194 276 202 332 
195 189 347 363 
196 308 227 421 
197 263 233 399 
198 243 375 401 
199 277 387 411 
200 312 287 493 
201 1 37 405 
202 313 36 314 
203 1 387 403 
204 422 231 476 
205 72 71 477 
206 317 418 447 
207 405 252 440 
208 375 272 380 
209 368 367 460 
210 331 115 425 
211 365 185 415 
212 366 217 367 
213 83 112 337 
214 193 216 409 
215 372 252 405 
216 197 297 476 
217 209 319 340 
218 30 23 223 
219 320 248 485 
220 35 353 354 
221 258 85 338 
222 399 55 407 
223 367 217 478 
224 108 25 433 
225 405 37 496 
226 325 179 471 
227 336 108 432 
228 179 325 446 
229 71 70 477 
230 331 276 332 
231 161 163 402 
232 314 36 324 
233 123 377 499 
234 229 353 386 
235 119 79 350 
236 356 271 378 
237 324 36 426 
238 374 244 443 
239 488 309 511 
240 359 187 380 
241 70 69 261 
242 36 395 428 
243 316 7 418 
244 35 354 378 
245 280 283 346 
246 233 305 399 
247 150 144 364 
248 3 4 410 
249 424 439 495 
250 268 321 513 
251 398 242 469 
252 349 284 394 
253 20 21 412 
254 179 384 471 
255 47 46 187 
256 284 386 445 
257 395 313 500 
258 245 193 409 
259 132 131 133 
260 351 390 500 
261 44 43 210 
262 133 131 298 
263 210 43 335 
264 129 131 132 
265 163 165 231 
266 115 333 439 
267 293 382 383 
268 256 395 500 
269 368 263 407 
270 471 384 509 
271 369 242 398 
272 252 87 339 
273 258 338 411 
274 248 320 363 
275 74 73 374 
276 304 365 502 
277 273 322 448 
278 80 119 321 
279 84 337 338 
280 83 82 112 
281 277 209 340 
282 272 359 380 
283 58 123 344 
284 214 75 345 
285 382 174 383 
286 36 313 395 
287 268 293 490 
288 187 46 326 
289 402 163 505 
290 91 36 428 
291 84 83 337 
292 68 204 322 
293 378 271 484 
294 80 79 119 
295 48 359 501 
296 328 179 446 
297 344 123 499 
298 187 329 380 
299 214 341 434 
300 7 8 124 
301 129 19 131 
302 421 307 498 
303 69 68 322 
304 422 211 454 
305 240 237 342 
306 334 331 425 
307 377 123 388 
308 86 258 339 
309 442 311 467 
310 330 276 331 
311 215 232 288 
312 86 85 258 
313 307 449 498 
314 76 75 214 
315 318 20 412 
316 337 112 392 
317 239 237 240 
318 154 161 327 
319 221 299 371 
320 58 57 123 
321 473 44 474 
322 360 246 361 
323 298 311 442 
324 215 186 232 
325 355 194 356 
326 75 74 345 
327 347 250 363 
328 81 80 321 
329 51 50 217 
330 46 45 326 
331 18 179 328 
332 170 150 364 
333 132 133 134 
334 54 53 253 
335 371 299 379 
336 354 352 355 
337 308 421 498 
338 85 84 338 
339 221 285 299 
340 41 40 306 
341 288 336 432 
342 357 268 490 
343 354 355 356 
344 172 170 291 
345 253 366 367 
346 66 284 349 
347 131 19 309 
348 43 42 335 
349 89 35 378 
350 323 90 480 
351 194 59 344 
352 352 61 355 
353 418 282 447 
354 88 87 252 
355 237 235 342 
356 297 197 441 
357 38 347 487 
358 79 78 350 
359 59 58 344 
360 369 160 427 
361 296 471 509 
362 112 82 357 
363 430 48 501 
364 47 187 359 
365 151 360 453 
366 291 170 364 
367 334 425 497 
368 87 86 339 
369 337 409 510 
370 142 442 467 
371 301 224 423 
372 229 352 353 
373 143 142 144 
374 288 315 336 
375 353 352 354 
376 203 186 215 
377 204 67 349 
378 338 337 510 
379 66 65 284 
380 242 188 469 
381 177 153 186 
382 262 242 369 
383 186 153 327 
384 60 194 355 
385 229 62 352 
386 68 67 204 
387 194 344 431 
388 275 326 459 
389 63 62 229 
390 253 367 368 
391 394 284 445 
392 153 154 327 
393 82 81 357 
394 67 66 349 
395 61 60 355 
396 60 59 194 
397 239 240 287 
398 253 368 407 
399 62 61 352 
400 73 72 397 
401 140 141 153 
402 137 138 140 
403 70 261 404 
404 288 232 315 
405 234 201 235 
406 137 140 371 
407 139 135 142 
408 340 308 403 
409 140 153 177 
410 174 382 506 
411 275 202 276 
412 161 162 163 
413 253 53 366 
414 48 47 359 
415 390 256 500 
416 133 298 442 
417 360 361 453 
418 144 475 502 
419 134 136 137 
420 38 17 347 
421 306 40 372 
422 250 248 363 
423 40 39 372 
424 53 52 366 
425 42 41 381 
426 180 220 243 
427 154 156 161 
428 339 258 387 
429 321 119 391 
430 330 331 334 
431 374 73 397 
432 10 12 439 
433 125 160 282 
434 351 26 390 
435 318 488 511 
436 291 364 365 
437 65 64 386 
438 243 269 272 
439 26 351 389 
440 252 339 440 
441 271 241 348 
442 300 224 301 
443 210 335 481 
444 283 223 310 
445 119 350 491 
446 45 44 473 
447 215 288 289 
448 354 356 378 
449 325 279 446 
450 266 247 382 
451 358 393 507 
452 243 272 375 
453 269 302 430 
454 298 131 309 
455 128 129 167 
456 364 144 502 
457 348 241 362 
458 180 243 401 
459 55 54 407 
460 235 201 406 
461 329 276 330 
462 365 415 435 
463 346 283 404 
464 236 235 237 
465 293 266 382 
466 134 133 135 
467 239 287 362 
468 246 155 429 
469 140 177 371 
470 241 239 362 
471 234 235 236 
472 226 319 435 
473 134 137 379 
474 41 306 381 
475 139 142 143 
476 262 369 427 
477 151 174 360 
478 293 383 463 
479 238 241 270 
480 361 246 429 
481 115 110 425 
482 284 65 386 
483 270 241 271 
484 32 51 456 
485 137 371 379 
486 163 164 165 
487 238 237 239 
488 238 239 241 
489 311 298 488 
490 128 19 129 
491 177 221 371 
492 233 201 234 
493 109 13 320 
494 204 349 393 
495 200 173 201 
496 221 228 285 
497 232 186 327 
498 175 122 401 
499 77 34 462 
500 142 135 442 
501 393 349 394 
502 52 32 456 
503 350 78 434 
504 251 250 278 
505 157 155 246 
506 139 453 494 
507 249 248 250 
508 163 231 505 
509 236 238 377 
510 393 394 507 
511 268 266 293 
512 177 186 203 
513 449 2 498 
514 245 383 452 
515 57 56 458 
516 341 350 434 
517 50 49 465 
518 12 109 110 
519 236 237 238 
520 153 141 154 
521 140 138 141 
522 122 130 401 
523 137 136 138 
524 110 113 425 
525 169 150 170 
526 34 76 462 
527 161 156 162 
528 143 144 150 
529 271 348 484 
530 130 176 180 
531 431 344 499 
532 263 368 457 
533 132 134 379 
534 243 220 269 
535 168 116 248 
536 238 270 377 
537 203 215 385 
538 285 286 294 
539 177 203 221 
540 259 370 427 
541 301 423 482 
542 246 360 506 
543 108 336 454 
544 163 162 164 
545 397 72 470 
546 214 434 462 
547 392 245 409 
548 257 242 262 
549 279 278 446 
550 221 203 228 
551 167 129 437 
552 233 234 305 
553 275 276 329 
554 200 201 233 
555 173 126 406 
556 273 207 343 
557 259 427 466 
558 282 160 369 
559 18 19 128 
560 327 161 402 
561 390 26 396 
562 333 436 495 
563 225 188 242 
564 277 340 403 
565 182 121 450 
566 22 183 184 
567 152 148 199 
568 56 55 399 
569 22 3 145 
570 387 258 411 
571 234 236 388 
572 134 135 136 
573 200 233 263 
574 180 192 220 
575 271 356 431 
576 39 31 468 
577 269 220 302 
578 281 262 370 
579 295 286 351 
580 294 295 296 
581 31 88 468 
582 130 173 176 
583 171 170 172 
584 158 195 226 
585 54 253 407 
586 64 33 472 
587 18 128 179 
588 285 294 464 
589 176 173 200 
590 294 296 509 
591 118 122 175 
592 157 246 247 
593 285 228 286 
594 33 63 472 
595 168 248 249 
596 317 461 512 
597 180 176 192 
598 297 422 476 
599 130 126 173 
600 206 182 207 
601 14 15 376 
602 216 209 277 
603 128 167 384 
604 193 172 209 
605 167 437 464 
606 144 142 467 
607 314 325 471 
608 310 260 470 
609 306 405 496 
610 342 127 479 
611 326 45 473 
612 236 377 388 
613 198 166 224 
614 341 300 350 
615 292 224 300 
616 248 116 485 
617 360 174 506 
618 305 234 388 
619 126 127 406 
620 322 204 448 
621 154 155 156 
622 261 346 404 
623 44 210 474 
624 110 109 111 
625 154 141 155 
626 240 342 444 
627 314 324 508 
628 251 278 279 
629 157 247 265 
630 171 193 245 
631 208 274 323 
632 125 282 418 
633 226 227 319 
634 199 148 420 
635 228 385 389 
636 373 374 397 
637 228 203 385 
638 353 35 445 
639 122 126 130 
640 292 300 341 
641 136 135 139 
642 265 266 267 
643 329 330 380 
644 124 8 436 
645 358 274 393 
646 201 173 406 
647 151 150 169 
648 348 90 484 
649 151 169 174 
650 126 120 127 
651 265 247 266 
652 306 372 405 
653 156 155 157 
654 147 149 185 
655 294 286 295 
656 143 150 151 
657 190 222 259 
658 249 250 251 
659 164 162 196 
660 198 224 292 
661 351 286 389 
662 323 274 358 
663 392 112 463 
664 215 289 385 
665 122 120 126 
666 113 111 114 
667 193 209 216 
668 169 170 171 
669 165 164 166 
670 146 3 410 
671 301 391 491 
672 343 207 450 
673 114 111 116 
674 251 279 312 
675 267 266 268 
676 411 338 510 
677 312 279 324 
678 453 361 494 
679 373 244 374 
680 171 172 193 
681 356 194 431 
682 165 166 197 
683 270 271 431 
684 130 180 401 
685 287 240 493 
686 347 17 486 
687 168 249 290 
688 190 259 466 
689 37 308 498 
690 247 246 506 
691 121 191 450 
692 214 345 483 
693 296 313 314 
694 205 255 256 
695 296 314 471 
696 26 389 408 
697 184 218 219 
698 5 316 317 
699 159 124 178 
700 118 120 122 
701 368 192 457 
702 257 262 281 
703 400 265 438 
704 197 198 244 
705 282 369 398 
706 196 400 438 
707 409 216 510 
708 165 197 476 
709 319 227 340 
710 225 242 257 
711 132 379 437 
712 315 232 402 
713 12 110 115 
714 317 447 461 
715 216 277 411 
716 8 9 424 
717 158 226 415 
718 222 202 275 
719 197 166 198 
720 205 182 206 
721 439 333 495 
722 286 228 389 
723 208 207 273 
724 181 390 396 
725 190 178 202 
726 7 125 418 
727 388 123 458 
728 379 299 437 
729 23 24 211 
730 13 14 189 
731 118 117 120 
732 225 257 307 
733 226 195 227 
734 90 89 484 
735 147 185 504 
736 13 189 320 
737 179 128 384 
738 111 109 485 
739 219 303 311 
740 36 91 426 
741 212 211 422 
742 149 152 158 
743 125 159 160 
744 158 188 195 
745 206 207 208 
746 114 117 118 
747 181 205 390 
748 12 115 439 
749 305 388 458 
750 387 1 440 
751 362 287 426 
752 110 111 113 
753 37 2 496 
754 147 148 149 
755 232 327 402 
756 118 175 413 
757 125 124 159 
758 157 265 400 
759 208 273 274 
760 398 199 447 
761 162 156 400 
762 385 289 408 
763 205 256 390 
764 7 124 125 
765 256 255 395 
766 114 116 117 
767 297 212 422 
768 370 262 427 
769 127 120 417 
770 2 381 496 
771 259 222 264 
772 296 295 313 
773 230 212 297 
774 205 206 255 
775 302 220 460 
776 117 116 168 
777 195 188 225 
778 158 152 188 
779 149 148 152 
780 49 48 430 
781 219 218 303 
782 123 57 458 
783 200 263 457 
784 341 214 483 
785 481 335 492 
786 317 316 418 
787 350 300 491 
788 78 77 434 
789 190 202 222 
790 156 157 400 
791 382 247 506 
792 129 132 437 
793 389 385 408 
794 90 348 489 
795 372 39 468 
796 2 37 498 
797 22 145 183 
798 51 217 456 
799 208 323 419 
800 383 174 452 
801 303 218 304 
802 196 162 400 
803 113 114 413 
804 76 214 462 
805 217 50 465 
806 464 294 509 
807 147 146 148 
808 291 365 435 
809 185 416 504 
810 171 245 452 
811 218 183 416 
812 155 141 429 
813 192 176 457 
814 339 387 440 
815 365 364 502 
816 159 178 190 
817 224 166 423 
818 337 392 409 
819 386 64 472 
820 463 112 490 
821 391 119 491 
822 120 117 417 
823 181 182 205 
824 198 292 443 
825 23 211 212 
826 251 312 414 
827 252 372 468 
828 21 22 412 
829 231 165 476 
830 184 219 318 
831 184 183 218 
832 146 410 420 
833 109 320 485 
834 376 38 487 
835 22 184 412 
836 145 146 147 
837 289 288 432 
838 366 52 456 
839 112 357 490 
840 88 252 468 
841 249 251 414 
842 290 249 414 
843 410 254 420 
844 393 274 448 
845 143 151 453 
846 28 29 121 
847 141 138 429 
848 197 244 441 
849 437 299 464 
850 185 149 415 
851 299 285 464 
852 174 169 452 
853 320 189 363 
854 149 158 415 
855 168 290 417 
856 35 394 445 
857 362 426 489 
858 91 90 489 
859 260 373 397 
860 336 315 455 
861 279 325 508 
862 90 91 480 
863 135 133 442 
864 419 323 480 
865 63 229 472 
866 426 91 489 
867 5 6 316 
868 164 196 423 
869 114 118 413 
870 225 307 421 
871 136 139 494 
872 206 208 419 
873 20 318 511 
874 23 212 213 
875 229 386 472 
876 178 124 436 
877 117 168 417 
878 359 272 501 
879 404 283 477 
880 127 417 479 
881 217 366 456 
882 1 405 440 
883 417 290 479 
884 265 267 438 
885 325 314 508 
886 216 411 510 
887 292 341 483 
888 211 24 503 
889 255 206 419 
890 166 164 423 
891 219 311 488 
892 35 89 507 
893 244 373 441 
894 428 419 480 
895 227 195 421 
896 244 198 443 
897 145 3 146 
898 304 218 416 
899 207 182 450 
900 195 225 421 
901 260 230 373 
902 148 146 420 
903 282 398 447 
904 391 267 513 
905 370 259 451 
906 289 432 433 
907 191 280 346 
908 176 200 457 
909 274 273 448 
910 169 171 452 
911 408 289 433 
912 188 152 469 
913 395 255 428 
914 257 281 449 
915 181 121 182 
916 184 318 412 
917 139 143 453 
918 89 358 507 
919 89 378 484 
920 307 257 449 
921 436 8 495 
922 191 29 280 
923 220 192 460 
924 447 199 461 
925 283 310 477 
926 443 292 483 
927 144 467 475 
928 199 398 469 
929 213 212 230 
930 199 420 461 
931 394 35 507 
932 348 362 489 
933 415 226 435 
934 213 230 260 
935 302 460 478 
936 429 138 494 
937 230 297 441 
938 28 121 181 
939 313 295 500 
940 381 306 496 
941 290 414 444 
942 264 222 459 
943 300 301 491 
944 444 342 479 
945 270 431 499 
946 204 393 448 
947 222 275 459 
948 27 28 396 
949 167 464 509 
950 328 446 486 
951 255 419 428 
952 210 451 474 
953 370 451 481 
954 159 190 466 
955 461 254 512 
956 427 160 466 
957 17 328 486 
958 311 303 467 
959 324 279 508 
960 160 159 466 
961 451 264 474 
962 121 29 191 
963 116 111 485 
964 420 254 461 
965 152 199 469 
966 5 317 512 
967 281 370 481 
968 259 264 451 
969 272 269 501 
970 2 449 492 
971 373 230 441 
972 15 16 376 
973 455 315 505 
974 377 270 499 
975 138 136 494 
976 451 210 481 
977 321 391 513 
978 416 183 504 
979 28 181 396 
980 295 351 500 
981 361 429 494 
982 434 77 462 
983 467 303 475 
984 446 278 486 
985 459 326 473 
986 303 304 475 
987 269 430 501 
988 260 397 470 
989 384 167 509 
990 231 455 505 
991 345 443 483 
992 414 312 493 
993 264 459 473 
994 267 268 513 
995 145 147 504 
996 315 402 505 
997 281 481 492 
998 264 473 474 
999 444 414 493 
1000 290 444 479 
1001 454 211 503 
1002 465 302 478 
1003 91 428 480 
1004 196 438 482 
1005 318 219 488 
1006 423 196 482 
1007 113 413 497 
1008 8 424 495 
1009 425 113 497 
1010 460 367 478 
1011 449 281 492 
1012 217 465 478 
1013 108 454 503 
1014 293 463 490 
1015 240 444 493 
1016 183 145 504 
1017 189 14 487 
1018 475 304 502 
1019 14 376 487 
1020 6 7 316 
1021 9 10 424 
1022 16 38 376 
1023 309 19 511 
1024 25 26 433 
1025 4 5 254 
1026 254 5 512 
1027 11 12 10 
1028 17 18 328 
1029 19 20 511 
1030 29 30 280 
$EndElements
