$MeshFormat
4.1 0 8
$EndMeshFormat
$PhysicalNames
5
1 2 "inlet"
1 3 "outlet"
1 4 "noflux"
1 6 "SmallFract"
2 1 "k11"
$EndPhysicalNames
$Entities
24 13 9 0
1 30 8 0 0 
5 25 15 0 0 
12 0 0 0 0 
13 0 77 0 0 
14 66 77 0 0 
15 66 0 0 0 
16 4 45 0 0 
17 35 40 0 0 
18 5 10 0 0 
19 15 16 0 0 
20 55 60 0 0 
21 45 68 0 0 
101 10 25 0 0 
102 15 18 0 0 
103 20 15 0 0 
104 25 22 0 0 
105 45 5 0 0 
106 35 18 0 0 
107 40 27 0 0 
108 45 20 0 0 
109 50 10 0 0 
110 55 18 0 0 
111 10 30 0 0 
112 15 38 0 0 
12 0 0 0 0 77 0 1 3 2 12 -13 
13 0 77 0 66 77 0 1 4 2 13 -14 
14 66 0 0 66 77 0 1 2 2 14 -15 
15 0 0 0 66 0 0 1 4 2 15 -12 
16 25 8 0 30 15 0 2 6 -6 2 5 -1 
20 5 10 0 15 16 0 2 6 -6 2 18 -19 
22 45 60 0 55 68 0 2 6 -6 2 20 -21 
101 10 18 0 15 25 0 2 6 -6 2 101 -102 
103 20 15 0 25 22 0 2 6 -6 2 103 -104 
105 35 5 0 45 18 0 2 6 -6 2 105 -106 
107 40 20 0 45 27 0 2 6 -6 2 107 -108 
109 50 10 0 55 18 0 2 6 -6 2 109 -110 
111 10 30 0 15 38 0 2 6 -6 2 111 -112 
1 10 18 0 15 25 0 0 2 101 -101 
2 20 15 0 25 22 0 0 2 103 -103 
4 40 20 0 45 27 0 0 2 107 -107 
5 50 10 0 55 18 0 0 2 109 -109 
6 10 30 0 15 38 0 0 2 111 -111 
11 25 8 0 30 15 0 0 2 16 -16 
13 5 10 0 15 16 0 0 2 20 -20 
14 45 60 0 55 68 0 0 2 22 -22 
1000 0 0 0 66 77 0 1 1 22 16 -16 20 -20 22 -22 101 -101 103 -103 105 -105 107 -107 109 -109 111 -111 -15 -14 -13 -12 
$EndEntities
$Nodes
36 129 1 129
0 1 0 1
1
30 8 0
0 5 0 1
2
25 15 0
0 12 0 1
3
0 0 0
0 13 0 1
4
0 77 0
0 14 0 1
5
66 77 0
0 15 0 1
6
66 0 0
0 18 0 1
7
5 10 0
0 19 0 1
8
15 16 0
0 20 0 1
9
55 60 0
0 21 0 1
10
45 68 0
0 101 0 1
11
10 25 0
0 102 0 1
12
15 18 0
0 103 0 1
13
20 15 0
0 104 0 1
14
25 22 0
0 105 0 1
15
45 5 0
0 106 0 1
16
35 18 0
0 107 0 1
17
40 27 0
0 108 0 1
18
45 20 0
0 109 0 1
19
50 10 0
0 110 0 1
20
55 18 0
0 111 0 1
21
10 30 0
0 112 0 1
22
15 38 0
1 12 0 2
23
24
0 25.66666666664392 0
0 51.33333333333744 0
1 13 0 1
25
32.99999999990993 77 0
1 14 0 2
26
27
66 51.333333333412 0
66 25.66666666670557 0
1 15 0 1
28
33.00000000001238 0 0
1 16 0 1
29
27.49999999999885 11.50000000000161 0
1 20 0 1
30
9.999999999999989 12.99999999999999 0
1 22 0 1
31
49.99999999999999 64 0
1 101 0 1
32
12.5 21.5 0
1 103 0 1
33
22.5000000000018 18.50000000000252 0
1 105 0 0
1 107 0 1
34
42.5 23.5 0
1 109 0 1
35
52.50000000000001 14.00000000000001 0
1 111 0 1
36
12.49999999998004 33.99999999996807 0
2 1000 0 93
37
38
39
40
41
42
43
44
45
46
47
48
49
50
51
52
53
54
55
56
57
58
59
60
61
62
63
64
65
66
67
68
69
70
71
72
73
74
75
76
77
78
79
80
81
82
83
84
85
86
87
88
89
90
91
92
93
94
95
96
97
98
99
100
101
102
103
104
105
106
107
108
109
110
111
112
113
114
115
116
117
118
119
120
121
122
123
124
125
126
127
128
129
49.50000000000619 15.3147769004084 0
54.84133969721807 38.04352886325163 0
45.19037537900471 11.96007750853111 0
39.18922998217883 9.271912359704725 0
22.26278342549759 11.2028283091414 0
18.00505231240682 11.55107723209365 0
17.59588883705875 7.073504469508714 0
49.44936297644734 20.25965216479638 0
55.16101748523543 23.80057562263554 0
50.02073198983109 26.08092142929348 0
57.90000000000001 13.53333333334112 0
26.07173445251351 7.555266555730345 0
55.47670270830573 29.21376292199165 0
18.99316385612147 18.89596021256812 0
20.7118074432969 22.10340107701531 0
22.72902522658314 25.73961953434463 0
27.06688728897518 25.81577678481672 0
24.73998868452269 29.60609458083201 0
29.5545483513903 29.51322436282264 0
26.86886157664974 33.63984922234977 0
32.09578112634601 33.44603427208538 0
29.23025720309278 38.08631861372867 0
34.58725498366736 38.02133221257678 0
31.67267016805071 42.91491158194161 0
26.27374835661801 43.17301960589931 0
37.23728449239869 42.97498208617402 0
34.40182910188283 47.9124467361213 0
40.09684158584528 48.00721152654059 0
37.18963929846593 53.14949414676562 0
30.61675691049323 52.88343378308483 0
40.27569787075804 37.82560073715743 0
33.69753542238916 58.9970578559153 0
25.69085334188147 58.87108418737282 0
43.13828340183109 53.26109245156493 0
31.61098710911856 25.95905488539401 0
18.48004561181546 25.63635783377006 0
22.24080503622216 33.42499907655595 0
46.15701180166117 48.04545594027974 0
49.16711061330908 53.22231362021692 0
52.97981814463216 47.58601451768764 0
22.04488814826219 49.30945650906211 0
13.50601110743406 58.59445613503817 0
12.24880517409355 48.17247701276737 0
45.92268780169285 58.87488771179918 0
29.00197853706139 47.23865364322183 0
30.41907092130566 22.36791124578162 0
16.57409687039771 21.91021730380786 0
11.75361544065512 18.06117524459296 0
14.42743847488278 25.28035490898428 0
16.09023163701903 29.33840440424517 0
7.753411507538041 22.38876156527257 0
24.15572368800555 37.93653089438056 0
20.6762936131343 41.9717173792417 0
20.4136765510595 29.42964069675108 0
19.97343993710722 36.93026809005046 0
42.87782186503198 42.97235576819945 0
46.38210310771913 37.64864576630784 0
42.92553595492483 32.45069770848244 0
37.35744243301078 32.73221363176133 0
44.9181346727249 27.65130034116633 0
49.09409135512063 31.84814283841556 0
34.81636717778504 28.66382586206753 0
31.78108891324496 11.9150635094619 0
17.70302552689799 33.52055204459512 0
8.787559731054138 37.26656907370884 0
56.18147215888473 53.4363646649977 0
14.39221140029753 11.72593944290449 0
27.7806407468092 18.48569634567229 0
36.6013902977777 23.78341411112731 0
40.58391695833051 14.65524977696654 0
34.03101262690484 8.508571471799165 0
9.397620047471253 8.35988878248264 0
40.09197769440738 58.59472569906453 0
37.47285562670037 65.23450653576997 0
29.4123459320106 14.98015197102716 0
40.8981678596475 19.35181380660289 0
46.37764592780067 23.49837478705124 0
30.08377606042795 65.38245782128233 0
6.90140538963863 17.82332069530188 0
45.70369990177684 16.17221895152351 0
48.6476189232525 42.85920017114526 0
6.248398425704641 27.78795890873728 0
17.07441061462574 14.01270353637875 0
50.62339037115247 58.13006643497232 0
55.96410161513776 66.3301270189222 0
12.74969496753478 28.56247035567294 0
36.18474423908801 13.3558814898292 0
17.3482922639041 16.57733236510411 0
16.52531937562132 19.27149047633863 0
42.85546313056759 63.17394962991497 0
20.55763591125885 66.80964052735359 0
15.75150933330884 42.944043994956 0
14.45267074567626 19.98856981454726 0
$EndNodes
$Elements
14 273 1 273
1 12 1 3
1 3 23 
2 23 24 
3 24 4 
1 13 1 2
4 4 25 
5 25 5 
1 14 1 3
6 5 26 
7 26 27 
8 27 6 
1 15 1 2
9 6 28 
10 28 3 
1 16 1 2
11 2 29 
12 29 1 
1 20 1 2
13 7 30 
14 30 8 
1 22 1 2
15 9 31 
16 31 10 
1 101 1 2
17 11 32 
18 32 12 
1 103 1 2
19 13 33 
20 33 14 
1 105 1 1
21 15 16 
1 107 1 2
22 17 34 
23 34 18 
1 109 1 2
24 19 35 
25 35 20 
1 111 1 2
26 21 36 
27 36 22 
2 1000 2 246
28 10 121 5 
29 6 47 19 
30 55 98 57 
31 25 110 10 
32 71 98 55 
33 82 105 71 
34 20 44 37 
35 23 115 87 
36 26 102 76 
37 18 116 44 
38 94 95 17 
39 105 112 34 
40 86 100 36 
41 8 84 30 
42 20 37 35 
43 36 122 86 
44 24 78 4 
45 77 128 89 
46 44 116 37 
47 42 43 41 
48 77 89 61 
49 78 127 4 
50 43 48 41 
51 57 98 95 
52 95 98 17 
53 22 91 89 
54 15 40 28 
55 36 100 22 
56 83 125 50 
57 24 101 79 
58 40 107 28 
59 39 40 15 
60 1 48 28 
61 3 108 7 
62 30 103 8 
63 12 84 8 
64 27 49 45 
65 2 33 13 
66 13 41 2 
67 44 113 18 
68 2 41 29 
69 17 96 94 
70 21 122 36 
71 19 39 15 
72 57 95 59 
73 17 105 34 
74 59 95 67 
75 104 111 16 
76 67 95 94 
77 22 100 91 
78 61 81 77 
79 82 104 16 
80 75 80 70 
81 38 97 49 
82 101 128 79 
83 51 83 50 
84 64 65 63 
85 30 115 7 
86 39 106 40 
87 124 125 12 
88 35 37 19 
89 62 63 60 
90 14 52 51 
91 34 96 17 
92 14 53 52 
93 52 72 51 
94 83 85 32 
95 56 73 54 
96 33 50 13 
97 53 54 52 
98 32 85 11 
99 59 60 58 
100 52 90 72 
101 53 71 55 
102 90 100 86 
103 16 112 105 
104 73 90 54 
105 54 90 52 
106 2 104 33 
107 33 104 14 
108 64 70 65 
109 11 122 21 
110 62 64 63 
111 79 128 77 
112 37 39 19 
113 16 105 82 
114 73 100 90 
115 72 83 51 
116 14 51 33 
117 31 126 80 
118 53 55 54 
119 24 79 78 
120 57 58 56 
121 72 90 86 
122 93 97 38 
123 13 42 41 
124 72 85 83 
125 32 129 83 
126 72 86 85 
127 55 56 54 
128 60 61 58 
129 59 67 62 
130 67 94 93 
131 10 126 31 
132 58 88 56 
133 59 62 60 
134 33 51 50 
135 74 75 70 
136 56 88 73 
137 77 81 66 
138 88 91 73 
139 89 128 22 
140 41 48 29 
141 91 100 73 
142 57 59 58 
143 55 57 56 
144 29 48 1 
145 11 118 87 
146 71 105 98 
147 63 81 60 
148 46 113 44 
149 85 122 11 
150 61 88 58 
151 76 117 38 
152 67 92 62 
153 64 74 70 
154 12 129 84 
155 61 89 88 
156 80 109 70 
157 28 107 1 
158 80 120 31 
159 62 92 64 
160 25 127 114 
161 22 128 101 
162 14 82 53 
163 89 91 88 
164 53 82 71 
165 16 111 99 
166 70 109 65 
167 21 118 11 
168 31 120 9 
169 8 124 12 
170 9 120 102 
171 103 119 8 
172 74 76 75 
173 67 93 92 
174 94 97 93 
175 64 92 74 
176 98 105 17 
177 49 97 46 
178 65 66 63 
179 102 120 75 
180 20 45 44 
181 69 77 66 
182 18 113 34 
183 34 113 96 
184 45 46 44 
185 46 97 96 
186 13 119 42 
187 60 81 61 
188 7 108 30 
189 25 114 110 
190 1 99 29 
191 50 124 13 
192 87 118 23 
193 75 120 80 
194 29 111 2 
195 96 97 94 
196 78 79 77 
197 50 125 124 
198 84 115 30 
199 14 104 82 
200 38 117 93 
201 110 126 10 
202 86 122 85 
203 39 116 106 
204 45 49 46 
205 76 102 75 
206 65 68 66 
207 106 112 16 
208 9 121 31 
209 65 109 68 
210 1 107 99 
211 34 112 18 
212 11 87 32 
213 109 110 68 
214 96 113 46 
215 66 81 63 
216 35 47 20 
217 80 126 109 
218 22 101 36 
219 109 126 110 
220 37 116 39 
221 74 117 76 
222 40 123 107 
223 2 111 104 
224 30 108 103 
225 99 123 16 
226 69 78 77 
227 106 123 40 
228 68 69 66 
229 99 111 29 
230 112 116 18 
231 93 117 92 
232 119 124 8 
233 92 117 74 
234 106 116 112 
235 125 129 12 
236 42 119 103 
237 84 129 32 
238 32 87 84 
239 42 103 43 
240 110 114 68 
241 87 115 84 
242 103 108 43 
243 107 123 99 
244 13 124 119 
245 68 114 69 
246 83 129 125 
247 69 127 78 
248 16 123 106 
249 114 127 69 
250 43 108 3 
251 4 127 25 
252 23 118 101 
253 28 48 43 
254 3 7 23 
255 28 43 3 
256 25 10 5 
257 5 121 26 
258 19 15 6 
259 28 6 15 
260 27 47 6 
261 7 115 23 
262 9 102 26 
263 26 121 9 
264 31 121 10 
265 19 47 35 
266 27 45 20 
267 20 47 27 
268 36 101 21 
269 101 118 21 
270 23 101 24 
271 26 38 27 
272 26 76 38 
273 38 49 27 
$EndElements
