$MeshFormat
4.1 0 8
$EndMeshFormat
$PhysicalNames
6
0 10 "FracEnds"
1 2 "inlet"
1 3 "outlet"
1 4 "noflux"
1 5 "SmallFract"
2 1 "k11"
$EndPhysicalNames
$Entities
14 14 2 0
1 30 8 0 1 10 
5 25 57 0 1 10 
12 0 0 0 0 
13 0 77 0 0 
14 66 77 0 0 
15 66 0 0 0 
16 25.6 51.9 0 0 
17 25.9 47 0 0 
18 26.6 41.5 0 0 
19 27.1 37 -0.1 0 
20 27.7 29.7 -0.2 0 
21 28.2 25.5 -0.2 0 
22 28.8 19.4 -0.3 0 
23 29.4 14.3 -0.4 0 
12 0 0 0 0 77 0 1 3 2 12 -13 
13 0 77 0 66 77 0 1 4 2 13 -14 
14 66 0 0 66 77 0 1 2 2 14 -15 
15 0 0 0 66 0 0 1 4 2 15 -12 
16 25 8 0 30 57 0 1 5 2 5 -1 
17 25 51.9 0 25.6 57 0 1 5 2 5 -16 
18 25.6 47 0 25.9 51.9 0 1 5 2 16 -17 
19 25.9 41.5 0 26.6 47 0 1 5 2 17 -18 
20 26.6 37 -0.1 27.1 41.5 0 1 5 2 18 -19 
21 27.1 29.7 -0.2 27.7 37 -0.1 1 5 2 19 -20 
22 27.7 25.5 -0.2 28.2 29.7 -0.2 1 5 2 20 -21 
23 28.2 19.4 -0.3 28.8 25.5 -0.2 1 5 2 21 -22 
24 28.8 14.3 -0.4 29.4 19.4 -0.3 0 2 22 -23 
25 29.4 8 -0.4 30 14.3 0 0 2 23 -1 
11 0 0 0 0 0 0 0 0 
1000 0 0 0 66 77 0 1 1 6 16 -16 -15 -14 -13 -12 
$EndEntities
$Nodes
26 330 1 330
0 1 0 1
1
30 8 0
0 5 0 1
2
25 57 0
0 12 0 1
3
0 0 0
0 13 0 1
4
0 77 0
0 14 0 1
5
66 77 0
0 15 0 1
6
66 0 0
0 16 0 1
7
25.6 51.9 0
0 17 0 1
8
25.9 47 -0
0 18 0 1
9
26.6 41.5 -0
0 19 0 1
10
27.1 37 -0.1
0 20 0 1
11
27.7 29.7 -0.2
0 21 0 1
12
28.2 25.5 -0.2
0 22 0 1
13
28.8 19.4 -0.3
1 12 0 15
14
15
16
17
18
19
20
21
22
23
24
25
26
27
28
0 4.812499999994604 0
0 9.624999999993483 0
0 14.43749999998212 0
0 19.24999999997806 0
0 24.06249999997746 0
0 28.87499999997685 0
0 33.68749999996932 0
0 38.4999999999479 0
0 43.31249999996811 0
0 48.12499999998973 0
0 52.93750000001133 0
0 57.75000000003292 0
0 62.56250000005453 0
0 67.3750000000456 0
0 72.18750000002281 0
1 13 0 13
29
30
31
32
33
34
35
36
37
38
39
40
41
4.714285714272073 77 0
9.428571428545492 77 0
14.14285714281891 77 0
18.85714285709233 77 0
23.57142857136575 77 0
28.28571428563917 77 0
32.99999999990981 77 0
37.71428571420723 77 0
42.42857142850602 77 0
47.14285714280481 77 0
51.85714285710362 77 0
56.57142857140241 77 0
61.28571428570121 77 0
1 14 0 15
42
43
44
45
46
47
48
49
50
51
52
53
54
55
56
66 72.18750000001475 0
66 67.37500000002949 0
66 62.56250000004424 0
66 57.75000000005898 0
66 52.93750000007373 0
66 48.12500000008847 0
66 43.31250000010322 0
66 38.50000000011657 0
66 33.68750000008829 0
66 28.87500000005863 0
66 24.06250000002896 0
66 19.24999999999931 0
66 14.43749999996965 0
66 9.624999999970512 0
66 4.812499999985249 0
1 15 0 13
57
58
59
60
61
62
63
64
65
66
67
68
69
61.28571428573173 0 0
56.57142857144403 0 0
51.85714285715633 0 0
47.14285714286864 0 0
42.42857142858094 0 0
37.71428571429324 0 0
33.00000000001249 0 0
28.28571428572618 0 0
23.57142857143848 0 0
18.85714285715078 0 0
14.14285714286309 0 0
9.428571428575388 0 0
4.714285714287691 0 0
1 16 0 9
70
71
72
73
74
75
76
77
78
25.5 52.09999999999999 0
26 47.2 0
26.5 42.3 0
27 37.39999999999999 0
27.5 32.49999999999999 0
28 27.59999999999999 0
28.5 22.7 0
29 17.8 0
29.5 12.9 0
1 17 0 2
79
80
25.26998958096291 54.70508856181527 0
25.46259664653748 53.06792850443143 0
1 18 0 4
81
82
83
84
25.65999999999975 50.9200000000041 0
25.71999999999947 49.9400000000086 0
25.77999999999934 48.96000000001084 0
25.83999999999974 47.98000000000427 0
1 19 0 5
85
86
87
88
89
26.01666666666667 46.08333333333334 0
26.13333333333331 45.16666666666684 0
26.24999999999998 44.25000000000018 0
26.36666666666667 43.33333333333334 0
26.48333333333331 42.41666666666684 0
1 20 0 4
90
91
92
93
26.7 40.6 -0.01999999999999996
26.8 39.7 -0.03999999999999995
26.9 38.8 -0.05999999999999996
27 37.9 -0.07999999999999996
1 21 0 7
94
95
96
97
98
99
100
27.17499999999966 36.08750000000411 -0.1124999999999438
27.24999999999931 35.17500000000838 -0.1249999999998852
27.32499999999898 34.26250000001237 -0.1374999999998305
27.39999999999864 33.3500000000166 -0.1499999999997726
27.47499999999897 32.43750000001254 -0.1624999999998282
27.54999999999921 31.52500000000964 -0.1749999999998679
27.62499999999959 30.61250000000496 -0.187499999999932
1 22 0 4
101
102
103
104
27.80000000000005 28.85999999999959 -0.2
27.9 28.02 -0.2
27.99999999999982 27.18000000000151 -0.2
28.09999999999995 26.34000000000041 -0.2
1 23 0 6
105
106
107
108
109
110
28.28571428571401 24.62857142857417 -0.2142857142856694
28.37142857142831 23.75714285714554 -0.2285714285713846
28.4571428571422 22.885714285721 -0.2428571428570328
28.54285714285602 22.01428571429714 -0.2571428571426698
28.62857142857036 21.14285714286805 -0.2714285714283927
28.71428571428516 20.27142857143421 -0.2857142857141932
2 1000 0 220
111
112
113
114
115
116
117
118
119
120
121
122
123
124
125
126
127
128
129
130
131
132
133
134
135
136
137
138
139
140
141
142
143
144
145
146
147
148
149
150
151
152
153
154
155
156
157
158
159
160
161
162
163
164
165
166
167
168
169
170
171
172
173
174
175
176
177
178
179
180
181
182
183
184
185
186
187
188
189
190
191
192
193
194
195
196
197
198
199
200
201
202
203
204
205
206
207
208
209
210
211
212
213
214
215
216
217
218
219
220
221
222
223
224
225
226
227
228
229
230
231
232
233
234
235
236
237
238
239
240
241
242
243
244
245
246
247
248
249
250
251
252
253
254
255
256
257
258
259
260
261
262
263
264
265
266
267
268
269
270
271
272
273
274
275
276
277
278
279
280
281
282
283
284
285
286
287
288
289
290
291
292
293
294
295
296
297
298
299
300
301
302
303
304
305
306
307
308
309
310
311
312
313
314
315
316
317
318
319
320
321
322
323
324
325
326
327
328
329
330
61.83983096317499 55.45591161705036 0
61.8698005128948 40.94701192263062 0
61.83767006562591 26.46812775891527 0
44.29800702464202 72.77585392474224 0
49.45722910374412 4.221493700426747 0
4.159279951581576 16.6731582134722 0
4.143088324830895 31.20178475672435 0
16.68114794601462 4.364103235014198 0
4.16249276350583 45.68758951356701 0
61.83629839959344 16.84167902464173 0
4.169729692585517 60.15862108543704 0
35.21004747704607 72.81400425147184 0
61.865385283007 65.00476040058787 0
16.57714265601178 72.70448300501097 0
40.44293807288884 4.185493906440152 0
25.34743747143735 72.49232239117177 0
54.55647595399263 72.7508065952069 0
3.96555360301715 7.194259135681857 0
4.051718365905364 69.61212107194535 0
61.9475656946819 7.413963947667562 0
25.67446797318216 4.344793454702948 0
61.8579212592695 12.06401217584843 0
57.6810163115268 14.43849527360125 0
57.67294333638011 19.24273235897806 0
53.51385235728007 16.82994461381237 0
53.50578259151992 21.65324206354706 0
49.33140143082404 19.22827056090092 0
49.32280327064906 24.06928762458328 0
45.24177037837919 21.66902872801767 0
45.17474274403992 26.49341261016346 0
49.33120509462126 28.91894693026246 0
45.16211494676735 31.34428145495081 0
49.3309513876744 33.77490641737927 0
45.12283766525693 36.20192616131379 0
49.32465525071682 38.6344705514597 0
45.11295613719594 41.06198715750378 0
49.32304770914995 43.49410283313508 0
45.11403290842484 45.92452102500069 0
49.32160138529904 48.35600612307137 0
45.12011836047402 50.78255499101513 0
49.31477901690035 53.20456207900481 0
45.12261426781161 55.62961476973083 0
49.30790874024036 58.04368870827879 0
40.92802396796616 53.20831711744039 0
40.93378324364964 58.05307867944273 0
41.21031883634876 43.61651592451574 0
45.2094129686123 16.92939390598809 0
40.90270659254274 33.76892127706214 0
40.71105783797012 23.97143245682332 0
36.736919159132 55.63661342034518 0
36.75402702444006 60.47421255432599 0
40.93291644968852 62.87955368598139 0
53.52447231700133 45.92686027824126 0
53.52500883931138 31.34300804216878 0
36.79164101591283 50.9076206272435 0
53.53091213298229 12.02498816241542 0
53.47925144322091 55.62899338515481 0
53.49675980141383 60.42658706382099 0
49.30047725013775 62.85783273187479 0
53.42575140331727 65.03351210493393 0
36.83987631674048 65.16660736596137 0
32.5979260506416 62.87717236509462 0
49.3293031021186 67.40061907326987 0
32.59868356339568 53.22899701953079 0
33.22181953612713 48.26017338685823 0
41.45179686111288 68.21186305061251 0
32.74685535042345 68.27427405691424 0
28.55608973426576 65.25004376379388 0
57.6674011518641 57.97800349475551 0
45.08089620191778 65.28704070638105 0
45.12112477949479 60.46642446274066 0
57.70541405134119 9.670551376892607 0
53.53628627423633 7.237841200437539 0
49.3702067120116 9.37332932879681 0
45.01142917970748 6.875115036381342 0
45.11475046959903 11.96181131846671 0
40.97575245908649 9.074860826045869 0
36.74305654823056 7.617954023896357 0
37.26879882999837 12.35205171035531 0
49.34508934521822 14.39128964839672 0
53.49065999124651 50.78461235287455 0
57.69429849979197 48.28546546752685 0
57.70430055847805 43.41406074531392 0
58.22314676798632 4.453041852243223 0
53.51578078865899 41.03716287824758 0
53.51805864916123 36.1843189899507 0
57.69925602277345 33.73567137069599 0
4.157584625275416 64.95693473138506 0
8.350687912188704 62.58167429222647 0
8.349779886947877 57.74717226041522 0
12.52783059298378 60.16718455896886 0
12.53835973950281 55.328704901465 0
12.5196572430571 65.00054680812467 0
16.70605824683509 62.58735859930673 0
8.355138168414285 52.91978311203908 0
12.55084287900495 50.4838325675595 0
16.69417329568871 52.91170192606781 0
16.74343581767017 48.04564634643387 0
12.54562388922529 45.61557802479842 0
16.89505970999292 43.17371396085684 0
12.56117471795943 40.73827065363947 0
16.92049641160162 38.3001658612211 0
12.57407670378699 35.88446440009056 0
16.78452957053543 33.43060888088189 0
12.55142295602293 31.01325119412902 0
16.75497339229328 28.55919138063623 0
12.5318754207366 26.12459908273049 0
16.64642812896126 23.68561816912837 0
12.53391694812064 21.2540145612266 0
16.62149818830874 18.81682518059257 0
12.53394587024178 16.39005518895089 0
16.71248348748107 13.95984504448671 0
12.64139821033018 11.73082568207403 0
8.328160304608856 23.8120916926453 0
8.342599659058083 38.38776460001935 0
20.67963648909038 16.55182053559276 0
20.84470841096475 11.56082732895068 0
20.76271952522753 26.14278630582607 0
20.97721050270546 35.86061167184987 0
16.670768207941 67.52346773572457 0
20.74208621874861 65.077573244696 0
20.85135415169802 69.83531919369027 0
12.36457517771686 69.79665175586392 0
21.48119291367255 45.32299085095317 0
20.76304482558907 60.12119306241969 0
8.370669100204736 14.08097658997464 0
21.81126840132893 40.733300681185 0
30.94574825945863 40.18317703895003 0
16.81912333784409 9.338126154102072 0
21.05480677160903 6.940779467704917 0
25.18253718012254 9.28518370561981 0
8.282355780528933 67.35961695052883 0
8.342499435868504 43.21636191520931 0
8.332012369623484 28.69316794850664 0
53.5067823583446 26.48694786749127 0
62.04114483055193 69.74935097062604 0
31.48052098069899 35.37318764628785 0
35.21376988310595 38.24376205016039 0
34.13724896455337 43.16916409363062 0
36.2419557920938 33.22464629038968 0
32.03158209524319 30.47220715497565 0
36.49196031143403 28.05872106711276 0
61.83567602369649 21.6536738214564 0
32.41841152622644 25.52302718320546 0
32.89996759902253 20.68925278805041 0
33.23479596509529 15.54316834591505 0
37.49274614731647 18.71084198379539 0
24.50647552145625 19.81698729810777 0
4.173125884992845 55.34072107632267 0
49.40749711972091 72.17647138270416 0
28.7522420015505 60.30064547290193 0
61.8513457922794 31.28969738967385 0
41.04933411442314 38.63503655367977 0
11.51139822531899 4.21539263962281 0
4.176024296067195 50.51596820029662 0
39.72180369491185 72.85435409211706 0
20.85489166171056 30.98947765837363 0
30.6428571427745 72.91730881074353 0
57.6740249278659 24.06380984642842 0
41.05088882199325 48.51868401527173 0
16.65002006113198 57.74734298038487 0
8.358280349388396 48.07662268251305 0
32.6586723774296 58.04761936505269 0
57.68234800103343 28.89787704589559 0
57.3314561554035 68.20919227202072 0
7.734411410035934 72.58701679253861 0
4.13088120620546 40.89585789028677 0
61.85162045897523 36.11713502430906 0
21.02638130662468 50.36602690478441 0
4.147652119054246 36.05195692996212 0
57.69313616515695 38.5725601551913 0
61.85957874839407 60.23918170381866 0
8.348475355396104 33.53873163823867 0
61.86533963921634 45.76921468929068 0
61.83047672512294 50.63504497919699 0
57.66698646240357 53.12800521609319 0
4.122022946368107 26.40783266639922 0
8.713596938166846 8.687830605300713 0
4.178786478432415 21.50455691813356 0
4.201516598828384 11.78312075740083 0
8.350793108865 18.95247552740053 0
57.60772209056663 62.81520617332293 0
41.27926478464596 14.73596197797049 0
24.94198120410436 14.2045709983611 0
40.87936272885029 29.31547893264264 0
58.8813633262602 73.03188331511102 0
7.124792689680371 3.950245878724994 0
20.93893658150574 55.04104414560945 0
24.69851476855895 67.4871421859515 0
36.00282868439392 23.39065509579747 0
30.64285714286934 3.678571428572321 0
24.7507594233197 62.73303841524363 0
20.43782475107774 21.31155645655855 0
30.01895924797391 45.31801296194948 0
33.30403965889312 10.44374446256825 0
28.31503451883709 69.43585107458358 0
28.96975611168002 55.24547085162389 0
35.31274378788516 3.487873719357994 0
41.98685042338481 19.20333181051899 0
37.22811366395685 69.32440332587591 0
24.46231191155071 24.17057288859139 0
37.41352713734461 45.92128631633683 0
21.04090114152105 73.80642491797458 0
53.92904671491343 3.182475350621502 0
52.81009674691057 69.11412028562711 0
11.7857142856822 73.87989165722487 0
29.36317516734132 50.38833405064066 0
45.91350006190244 69.17036962754196 0
24.23755474198475 29.13666002414629 0
13.23041470014821 7.680896763215721 0
44.78571428572481 2.998908886536655 0
21.20218479529849 2.990295476185136 0
62.57518230363661 73.57749282420171 0
62.48634088239465 3.539163887800428 0
3.513659117614055 3.539163887806599 0
3.513659117600616 73.46083611220732 0
24.11393138128015 33.17734987087395 0
37.97988347998331 41.00902563581571 0
33.14031763939225 6.451504956281656 0
38.34037584982576 36.20035179998253 0
$EndNodes
$Elements
15 631 1 631
0 1 15 1
1 1 
0 5 15 1
2 2 
1 12 1 16
3 3 14 
4 14 15 
5 15 16 
6 16 17 
7 17 18 
8 18 19 
9 19 20 
10 20 21 
11 21 22 
12 22 23 
13 23 24 
14 24 25 
15 25 26 
16 26 27 
17 27 28 
18 28 4 
1 13 1 14
19 4 29 
20 29 30 
21 30 31 
22 31 32 
23 32 33 
24 33 34 
25 34 35 
26 35 36 
27 36 37 
28 37 38 
29 38 39 
30 39 40 
31 40 41 
32 41 5 
1 14 1 16
33 5 42 
34 42 43 
35 43 44 
36 44 45 
37 45 46 
38 46 47 
39 47 48 
40 48 49 
41 49 50 
42 50 51 
43 51 52 
44 52 53 
45 53 54 
46 54 55 
47 55 56 
48 56 6 
1 15 1 14
49 6 57 
50 57 58 
51 58 59 
52 59 60 
53 60 61 
54 61 62 
55 62 63 
56 63 64 
57 64 65 
58 65 66 
59 66 67 
60 67 68 
61 68 69 
62 69 3 
1 16 1 10
63 2 70 
64 70 71 
65 71 72 
66 72 73 
67 73 74 
68 74 75 
69 75 76 
70 76 77 
71 77 78 
72 78 1 
1 17 1 3
73 2 79 
74 79 80 
75 80 7 
1 18 1 5
76 7 81 
77 81 82 
78 82 83 
79 83 84 
80 84 8 
1 19 1 6
81 8 85 
82 85 86 
83 86 87 
84 87 88 
85 88 89 
86 89 9 
1 20 1 5
87 9 90 
88 90 91 
89 91 92 
90 92 93 
91 93 10 
1 21 1 8
92 10 94 
93 94 95 
94 95 96 
95 96 97 
96 97 98 
97 98 99 
98 99 100 
99 100 11 
1 22 1 5
100 11 101 
101 101 102 
102 102 103 
103 103 104 
104 104 12 
1 23 1 7
105 12 105 
106 105 106 
107 106 107 
108 107 108 
109 108 109 
110 109 110 
111 110 13 
2 1000 2 520
112 127 275 296 
113 158 250 295 
114 250 252 295 
115 176 114 266 
116 256 189 257 
117 275 127 315 
118 187 186 293 
119 229 73 237 
120 257 189 293 
121 114 176 318 
122 72 71 234 
123 264 288 297 
124 189 187 293 
125 72 234 237 
126 177 122 268 
127 126 232 299 
128 58 57 194 
129 257 159 300 
130 159 257 309 
131 252 159 295 
132 71 304 317 
133 77 258 294 
134 30 29 276 
135 159 252 300 
136 288 264 320 
137 234 71 279 
138 73 72 237 
139 304 175 317 
140 194 57 324 
141 125 185 187 
142 210 212 237 
143 235 2 302 
144 124 230 232 
145 73 229 327 
146 71 70 279 
147 276 29 326 
148 115 183 184 
149 115 184 185 
150 131 1 241 
151 186 157 293 
152 1 78 241 
153 232 126 313 
154 240 131 241 
155 230 124 233 
156 258 226 294 
157 122 177 310 
158 185 125 321 
159 279 70 298 
160 2 261 302 
161 275 246 296 
162 241 78 294 
163 70 2 298 
164 212 229 237 
165 234 210 237 
166 157 186 190 
167 249 175 304 
168 239 118 240 
169 78 77 294 
170 175 249 312 
171 173 260 318 
172 1 131 301 
173 131 240 322 
174 186 184 190 
175 288 128 297 
176 203 230 233 
177 126 299 306 
178 177 268 306 
179 224 289 291 
180 289 116 291 
181 156 312 328 
182 260 173 315 
183 192 285 286 
184 203 233 242 
185 185 184 186 
186 236 116 290 
187 170 168 292 
188 189 256 305 
189 285 111 286 
190 117 244 283 
191 116 236 291 
192 244 215 283 
193 193 195 281 
194 198 199 242 
195 169 173 180 
196 179 111 282 
197 224 244 287 
198 124 232 313 
199 312 249 328 
200 224 287 289 
201 129 198 242 
202 169 180 181 
203 112 193 281 
204 199 203 242 
205 255 77 256 
206 116 16 290 
207 128 288 290 
208 222 223 239 
209 119 243 272 
210 243 209 272 
211 125 187 188 
212 162 155 181 
213 260 114 318 
214 77 78 256 
215 155 152 181 
216 197 164 274 
217 111 179 286 
218 152 153 181 
219 254 76 255 
220 76 77 255 
221 288 236 290 
222 182 183 194 
223 227 222 239 
224 255 256 257 
225 182 166 183 
226 133 166 182 
227 111 45 282 
228 222 221 223 
229 180 162 181 
230 171 162 176 
231 137 157 190 
232 280 117 283 
233 192 193 284 
234 130 55 132 
235 227 239 240 
236 167 151 191 
237 225 243 277 
238 161 155 162 
239 230 231 232 
240 130 132 182 
241 153 169 181 
242 196 164 197 
243 169 170 173 
244 130 182 194 
245 275 170 292 
246 151 149 191 
247 161 162 171 
248 143 164 196 
249 150 151 152 
250 169 168 170 
251 220 221 222 
252 152 151 153 
253 193 163 195 
254 192 284 285 
255 132 133 182 
256 223 221 236 
257 150 149 151 
258 163 147 195 
259 153 168 169 
260 213 211 225 
261 75 76 254 
262 219 217 224 
263 56 55 130 
264 211 209 243 
265 203 204 230 
266 191 163 192 
267 176 162 180 
268 217 215 244 
269 238 247 248 
270 149 163 191 
271 77 76 258 
272 15 14 128 
273 123 43 246 
274 28 27 129 
275 225 211 243 
276 183 166 184 
277 238 248 249 
278 138 136 245 
279 224 217 244 
280 141 138 245 
281 153 167 168 
282 248 247 250 
283 54 120 132 
284 74 75 251 
285 133 135 166 
286 220 219 221 
287 149 147 163 
288 147 145 195 
289 145 143 196 
290 164 141 245 
291 132 120 133 
292 185 186 187 
293 148 149 150 
294 226 222 227 
295 238 73 247 
296 172 171 177 
297 195 145 196 
298 43 42 246 
299 55 54 132 
300 262 197 274 
301 44 43 123 
302 143 141 164 
303 154 152 155 
304 244 117 287 
305 72 73 238 
306 218 217 219 
307 153 151 167 
308 192 163 193 
309 250 251 252 
310 205 200 259 
311 199 201 203 
312 216 215 217 
313 225 277 280 
314 214 213 215 
315 54 53 120 
316 129 27 198 
317 73 74 247 
318 212 211 213 
319 168 167 179 
320 210 209 211 
321 251 75 254 
322 148 147 149 
323 160 155 161 
324 230 204 231 
325 146 145 147 
326 144 143 145 
327 208 206 209 
328 120 53 253 
329 142 141 143 
330 198 121 199 
331 218 219 220 
332 247 74 251 
333 140 138 141 
334 250 247 251 
335 150 152 154 
336 137 139 157 
337 252 251 254 
338 216 217 218 
339 202 200 205 
340 135 137 190 
341 53 52 253 
342 220 222 226 
343 27 26 198 
344 146 147 148 
345 26 121 198 
346 214 215 216 
347 212 213 214 
348 144 145 146 
349 210 211 212 
350 134 120 253 
351 265 119 272 
352 25 24 259 
353 172 177 178 
354 134 253 269 
355 52 113 253 
356 203 201 204 
357 133 120 134 
358 142 143 144 
359 46 45 111 
360 49 48 112 
361 52 51 113 
362 208 209 210 
363 140 141 142 
364 199 121 200 
365 161 171 172 
366 225 280 283 
367 17 16 116 
368 51 50 262 
369 20 19 117 
370 60 59 115 
371 23 22 119 
372 166 135 190 
373 133 134 135 
374 26 25 121 
375 24 23 265 
376 242 233 276 
377 245 136 269 
378 205 265 272 
379 136 134 269 
380 191 192 286 
381 146 148 156 
382 202 205 206 
383 200 121 259 
384 150 154 270 
385 142 144 158 
386 38 37 114 
387 205 259 265 
388 199 200 201 
389 139 138 140 
390 154 155 160 
391 259 24 265 
392 113 51 262 
393 39 38 260 
394 216 218 228 
395 2 235 298 
396 121 25 259 
397 40 39 127 
398 212 214 229 
399 209 206 272 
400 164 245 274 
401 253 113 269 
402 148 150 270 
403 37 36 266 
404 139 140 159 
405 207 206 208 
406 135 134 136 
407 137 136 138 
408 137 138 139 
409 144 146 263 
410 184 166 190 
411 208 210 234 
412 23 119 265 
413 129 242 276 
414 135 136 137 
415 67 66 118 
416 201 200 202 
417 68 67 264 
418 195 196 281 
419 36 35 122 
420 188 187 189 
421 165 174 175 
422 202 206 207 
423 154 165 270 
424 278 112 281 
425 146 156 263 
426 35 34 268 
427 214 216 267 
428 243 119 277 
429 158 144 263 
430 227 240 241 
431 34 33 126 
432 32 31 124 
433 165 160 174 
434 156 148 270 
435 161 172 273 
436 154 160 165 
437 216 228 267 
438 38 114 260 
439 229 214 267 
440 127 39 260 
441 215 213 283 
442 114 37 266 
443 269 113 274 
444 231 204 235 
445 123 246 275 
446 206 205 272 
447 160 161 273 
448 193 112 284 
449 172 178 261 
450 49 112 278 
451 176 266 310 
452 245 269 274 
453 36 122 266 
454 262 50 278 
455 45 44 282 
456 67 118 264 
457 202 207 271 
458 113 262 274 
459 119 22 277 
460 204 201 271 
461 122 35 268 
462 236 221 291 
463 219 224 291 
464 201 202 271 
465 172 261 273 
466 62 61 125 
467 34 126 268 
468 208 234 279 
469 20 117 280 
470 174 160 273 
471 197 262 278 
472 179 167 286 
473 197 278 281 
474 112 48 284 
475 46 111 285 
476 22 21 277 
477 65 64 131 
478 50 49 278 
479 235 204 271 
480 168 179 292 
481 16 15 290 
482 207 208 279 
483 117 19 287 
484 196 197 281 
485 21 20 280 
486 17 116 289 
487 277 21 280 
488 44 123 282 
489 167 191 286 
490 213 225 283 
491 48 47 284 
492 47 46 285 
493 284 47 285 
494 19 18 287 
495 223 236 288 
496 282 123 292 
497 15 128 290 
498 18 17 289 
499 159 140 295 
500 287 18 289 
501 142 158 295 
502 179 282 292 
503 221 219 291 
504 41 40 296 
505 69 68 297 
506 227 241 294 
507 118 239 320 
508 240 118 322 
509 255 257 300 
510 127 260 315 
511 207 279 298 
512 123 275 292 
513 170 275 315 
514 183 115 314 
515 256 78 305 
516 252 254 300 
517 226 258 303 
518 235 271 298 
519 226 227 294 
520 140 142 295 
521 238 249 304 
522 233 124 316 
523 42 5 323 
524 71 72 304 
525 75 74 319 
526 2 70 307 
527 115 185 321 
528 228 218 303 
529 220 226 303 
530 5 41 323 
531 176 180 318 
532 40 127 296 
533 177 171 310 
534 68 264 297 
535 131 64 301 
536 6 56 324 
537 14 3 325 
538 4 28 326 
539 57 6 324 
540 3 69 325 
541 29 4 326 
542 228 303 311 
543 271 207 298 
544 76 75 311 
545 231 235 302 
546 130 194 324 
547 264 118 320 
548 165 175 312 
549 319 74 327 
550 156 270 312 
551 307 70 317 
552 261 2 307 
553 32 124 313 
554 126 33 313 
555 273 261 307 
556 62 125 308 
557 125 188 308 
558 124 31 316 
559 60 115 321 
560 188 189 305 
561 223 288 320 
562 178 177 306 
563 118 66 322 
564 74 73 327 
565 129 276 326 
566 125 61 321 
567 70 71 317 
568 232 231 299 
569 65 131 322 
570 139 159 309 
571 64 63 301 
572 254 255 300 
573 115 59 314 
574 266 122 310 
575 58 194 314 
576 261 178 302 
577 218 220 303 
578 72 238 304 
579 311 75 319 
580 303 258 311 
581 301 63 308 
582 157 139 309 
583 78 1 305 
584 30 276 316 
585 268 126 306 
586 178 299 302 
587 299 231 302 
588 174 273 307 
589 63 62 308 
590 59 58 314 
591 293 157 309 
592 171 176 310 
593 258 76 311 
594 174 307 317 
595 270 165 312 
596 194 183 314 
597 33 32 313 
598 180 173 318 
599 173 170 315 
600 31 30 316 
601 188 305 329 
602 239 223 320 
603 257 293 309 
604 276 233 316 
605 175 174 317 
606 267 228 319 
607 299 178 306 
608 61 60 321 
609 246 42 323 
610 66 65 322 
611 56 130 324 
612 128 14 325 
613 28 129 326 
614 69 297 325 
615 267 319 327 
616 41 296 323 
617 249 248 328 
618 250 158 330 
619 229 267 327 
620 263 156 328 
621 228 311 319 
622 248 250 330 
623 328 248 330 
624 263 328 330 
625 158 263 330 
626 301 308 329 
627 305 1 329 
628 297 128 325 
629 296 246 323 
630 1 301 329 
631 308 188 329 
$EndElements
