$MeshFormat
4.1 0 8
$EndMeshFormat
$PhysicalNames
6
0 10 "FracEnds"
1 2 "inlet"
1 3 "outlet"
1 4 "noflux"
1 5 "SmallFract"
2 1 "k11"
$EndPhysicalNames
$Entities
6 5 2 0
1 20 38 0 1 10 
5 50 38 0 1 10 
12 0 0 0 0 
13 0 77 0 0 
14 66 77 0 0 
15 66 0 0 0 
12 0 0 0 0 77 0 1 3 2 12 -13 
13 0 77 0 66 77 0 1 4 2 13 -14 
14 66 0 0 66 77 0 1 2 2 14 -15 
15 0 0 0 66 0 0 1 4 2 15 -12 
16 20 38 0 50 38 0 2 5 -5 2 5 -1 
11 20 38 0 50 38 0 0 2 16 -16 
1000 0 0 0 66 77 0 1 1 6 16 -16 -15 -14 -13 -12 
$EndEntities
$Nodes
12 19 1 19
0 1 0 1
1
20 38 0
0 5 0 1
2
50 38 0
0 12 0 1
3
0 0 0
0 13 0 1
4
0 77 0
0 14 0 1
5
66 77 0
0 15 0 1
6
66 0 0
1 12 0 2
7
8
0 25.66666666664392 0
0 51.33333333333744 0
1 13 0 1
9
32.99999999990993 77 0
1 14 0 2
10
11
66 51.333333333412 0
66 25.66666666670557 0
1 15 0 1
12
33.00000000001238 0 0
1 16 0 1
13
35.00000000010479 38 0
2 1000 0 6
14
15
16
17
18
19
46.31707656604425 56.36853927152287 0
28.86770976370389 55.32728721852031 0
42.69977636588818 23.48639178894389 0
21.78329606100089 20.85884307593129 0
51.92494409147514 12.28826461391237 0
14.20787552071159 61.90414495427219 0
$EndNodes
$Elements
8 40 1 40
0 1 15 1
1 1 
0 5 15 1
2 2 
1 12 1 3
3 3 7 
4 7 8 
5 8 4 
1 13 1 2
6 4 9 
7 9 5 
1 14 1 3
8 5 10 
9 10 11 
10 11 6 
1 15 1 2
11 6 12 
12 12 3 
1 16 1 2
13 2 13 
14 13 1 
2 1000 2 26
15 13 1 17 
16 11 10 2 
17 8 7 1 
18 8 1 19 
19 1 15 19 
20 16 13 17 
21 13 2 14 
22 11 2 16 
23 5 9 14 
24 12 6 18 
25 1 13 15 
26 9 4 19 
27 10 5 14 
28 3 12 17 
29 13 14 15 
30 1 7 17 
31 2 10 14 
32 7 3 17 
33 6 11 18 
34 11 16 18 
35 12 16 17 
36 16 12 18 
37 4 8 19 
38 2 13 16 
39 14 9 15 
40 15 9 19 
$EndElements
