$MeshFormat
4.1 0 8
$EndMeshFormat
$PhysicalNames
5
1 2 "inlet"
1 3 "outlet"
1 4 "noflux"
1 300 "SmallFract"
2 1 "k11"
$EndPhysicalNames
$Entities
6 5 2 0
1 30 8 0 0 
5 30 57 0 0 
12 0 0 0 0 
13 0 77 0 0 
14 66 77 0 0 
15 66 0 0 0 
12 0 0 0 0 77 0 1 3 2 12 -13 
13 0 77 0 66 77 0 1 4 2 13 -14 
14 66 0 0 66 77 0 1 2 2 14 -15 
15 0 0 0 66 0 0 1 4 2 15 -12 
16 30 8 0 30 57 0 2 300 -300 2 5 -1 
11 30 8 0 30 57 0 0 2 16 -16 
1000 0 0 0 66 77 0 1 1 6 16 -16 -15 -14 -13 -12 
$EndEntities
$Nodes
12 21 1 21
0 1 0 1
1
30 8 0
0 5 0 1
2
30 57 0
0 12 0 1
3
0 0 0
0 13 0 1
4
0 77 0
0 14 0 1
5
66 77 0
0 15 0 1
6
66 0 0
1 12 0 2
7
8
0 25.66666666664392 0
0 51.33333333333744 0
1 13 0 1
9
32.99999999990993 77 0
1 14 0 2
10
11
66 51.333333333412 0
66 25.66666666670557 0
1 15 0 1
12
33.00000000001238 0 0
1 16 0 1
13
30 32.49999999999997 0
2 1000 0 8
14
15
16
17
18
19
20
21
47.45947802198015 10.77380952382304 0
48.14046153845803 61.41666666668239 0
46.39280128204903 41.36111111113331 0
17.41213970693034 10.78333333332878 0
40.65216297311142 23.09193121694364 0
15.14298941797681 62.20238095238212 0
16.53394799210269 41.49206349206057 0
22.43304177869074 23.58899911816281 0
$EndNodes
$Elements
6 42 1 42
1 12 1 3
1 3 7 
2 7 8 
3 8 4 
1 13 1 2
4 4 9 
5 9 5 
1 14 1 3
6 5 10 
7 10 11 
8 11 6 
1 15 1 2
9 6 12 
10 12 3 
1 16 1 2
11 2 13 
12 13 1 
2 1000 2 30
13 11 16 18 
14 14 11 18 
15 1 12 14 
16 20 7 21 
17 13 20 21 
18 11 10 16 
19 2 9 19 
20 7 17 21 
21 1 14 18 
22 6 11 14 
23 9 2 15 
24 16 13 18 
25 2 13 16 
26 8 7 20 
27 7 3 17 
28 13 2 20 
29 10 5 15 
30 17 1 21 
31 4 8 19 
32 15 2 16 
33 10 15 16 
34 2 19 20 
35 1 18 21 
36 19 8 20 
37 18 13 21 
38 12 1 17 
39 3 12 17 
40 9 4 19 
41 5 9 15 
42 12 6 14 
$EndElements
