$MeshFormat
4.1 0 8
$EndMeshFormat
$PhysicalNames
5
1 2 "inlet"
1 3 "outlet"
1 4 "noflux"
2 1 "k11"
2 6 "Vugs"
$EndPhysicalNames
$Entities
13 13 2 0
1 30 8 0 0 
2 20 11 0 0 
3 10 25 0 0 
4 12 46 0 0 
5 25 57 0 0 
6 44 54 0 0 
7 53 42 0 0 
8 52 22 0 0 
9 41 10 0 0 
12 0 0 0 0 
13 0 77 0 0 
14 66 77 0 0 
15 66 0 0 0 
1 20 8 0 30 11 0 0 2 1 -2 
2 10 11 0 20 25 0 0 2 2 -3 
3 10 25 0 12 46 0 0 2 3 -4 
4 12 46 0 25 57 0 0 2 4 -5 
5 25 54 0 44 57 0 0 2 5 -6 
6 44 42 0 53 54 0 0 2 6 -7 
7 52 22 0 53 42 0 0 2 7 -8 
8 41 10 0 52 22 0 0 2 8 -9 
9 30 8 0 41 10 0 0 2 9 -1 
12 0 0 0 0 77 0 1 3 2 12 -13 
13 0 77 0 66 77 0 1 4 2 13 -14 
14 66 0 0 66 77 0 1 2 2 14 -15 
15 0 0 0 66 0 0 1 4 2 15 -12 
11 10 8 0 53 57 0 1 6 9 1 2 3 4 5 6 7 8 9 
1000 0 0 0 66 77 0 1 1 13 1 2 3 4 5 6 7 8 9 -15 -14 -13 -12 
$EndEntities
$Nodes
25 74 1 74
0 1 0 1
1
30 8 0
0 2 0 1
2
20 11 0
0 3 0 1
3
10 25 0
0 4 0 1
4
12 46 0
0 5 0 1
5
25 57 0
0 6 0 1
6
44 54 0
0 7 0 1
7
53 42 0
0 8 0 1
8
52 22 0
0 9 0 1
9
41 10 0
0 12 0 1
10
0 0 0
0 13 0 1
11
0 77 0
0 14 0 1
12
66 77 0
0 15 0 1
13
66 0 0
1 2 0 1
14
14.99999999999097 18.00000000001264 0
1 3 0 1
15
10.99999999998893 35.49999999988377 0
1 4 0 1
16
18.49999999998403 51.49999999998649 0
1 5 0 1
17
34.50000000006433 55.49999999998984 0
1 7 0 1
18
52.5 31.99999999999999 0
1 8 0 1
19
46.5 16 0
1 12 0 5
20
21
22
23
24
0 12.83333333331937 0
0 25.66666666664396 0
0 38.49999999994796 0
0 51.33333333333753 0
0 64.16666666672664 0
1 13 0 4
25
26
27
28
13.19999999996422 77 0
26.39999999992982 77 0
39.59999999992676 77 0
52.79999999996338 77 0
1 14 0 5
29
30
31
32
33
66 64.16666666670596 0
66 51.33333333341196 0
66 38.50000000011653 0
66 25.66666666670547 0
66 12.83333333329486 0
1 15 0 4
34
35
36
37
52.80000000001388 0 0
39.60000000000832 0 0
26.4000000000111 0 0
13.20000000000555 0 0
2 11 0 15
38
39
40
41
42
43
44
45
46
47
48
49
50
51
52
44.60645292172237 36.5241612955741 0
39.14175188850317 19.14524011484364 0
18.7547704895569 29.46383138188832 0
20.01313972079473 43.12083487540823 0
27.71642742567821 35.52457124052719 0
23.56217782648656 18.83012701892851 0
43.51496391434583 26.66416830063136 0
33.88198945275285 26.33865510758425 0
27.97060243040423 49.25271622345116 0
38.57863758512577 45.32173231166252 0
30.8841716496214 15.85408541325617 0
25.90674614214416 26.29363259559967 0
36.54849759746213 35.12634616967147 0
32.00200684811841 41.76746041570706 0
19.76568772240863 35.97772444365182 0
2 1000 0 22
53
54
55
56
57
58
59
60
61
62
63
64
65
66
67
68
69
70
71
72
73
74
16.97387956380724 58.82042071689892 0
30.97454842932039 64.00547338548698 0
46.56153927675161 66.19326952032152 0
56.02676063472909 58.77705219613118 0
54.44615242270663 14.23686027918559 0
9.816238040876355 9.961145085890738 0
11.02776463773178 54.20552138763255 0
48.94755003624143 8.118439418834132 0
21.15623325466658 67.14826260720929 0
57.47765998228881 68.62739767663173 0
6.963247608173467 18.29222901717334 0
8.908268208024259 64.23917210168641 0
59.36475441116389 20.27992768717205 0
38.73934546720513 61.72521944087977 0
59.36297654644257 6.454747933170869 0
57.58769198271192 49.33023854790621 0
5.446806390960782 31.98247130576285 0
23.92687224669513 5.92290748898376 0
36.1208955223886 5.585074626862705 0
59.17295088223278 27.68931887079881 0
37.66063962988927 68.92735429860049 0
6.648734177241655 41.21202531639453 0
$EndNodes
$Elements
6 146 1 146
1 12 1 6
1 10 20 
2 20 21 
3 21 22 
4 22 23 
5 23 24 
6 24 11 
1 13 1 5
7 11 25 
8 25 26 
9 26 27 
10 27 28 
11 28 12 
1 14 1 6
12 12 29 
13 29 30 
14 30 31 
15 31 32 
16 32 33 
17 33 13 
1 15 1 5
18 13 34 
19 34 35 
20 35 36 
21 36 37 
22 37 10 
2 11 2 43
23 8 19 44 
24 14 40 43 
25 19 39 44 
26 14 3 40 
27 15 4 41 
28 9 1 48 
29 2 43 48 
30 41 46 51 
31 42 41 51 
32 39 9 48 
33 47 38 50 
34 47 50 51 
35 1 2 48 
36 18 8 44 
37 41 16 46 
38 16 5 46 
39 44 39 45 
40 45 48 49 
41 15 41 52 
42 48 43 49 
43 43 40 49 
44 3 15 40 
45 38 18 44 
46 5 17 46 
47 45 39 48 
48 7 18 38 
49 41 42 52 
50 44 45 50 
51 17 6 47 
52 38 44 50 
53 42 45 49 
54 46 17 47 
55 45 42 50 
56 4 16 41 
57 2 14 43 
58 40 42 49 
59 42 40 52 
60 19 9 39 
61 40 15 52 
62 46 47 51 
63 50 42 51 
64 6 7 47 
65 7 38 47 
2 1000 2 81
66 18 31 7 
67 11 64 25 
68 18 72 31 
69 6 68 56 
70 24 64 11 
71 6 56 55 
72 25 64 61 
73 61 64 53 
74 35 60 9 
75 36 70 37 
76 37 70 2 
77 10 58 20 
78 2 70 1 
79 23 74 4 
80 37 58 10 
81 36 71 1 
82 31 68 7 
83 59 64 23 
84 4 59 23 
85 21 69 22 
86 34 60 35 
87 55 66 6 
88 31 72 32 
89 54 73 26 
90 2 58 37 
91 23 64 24 
92 5 61 53 
93 27 55 28 
94 29 56 30 
95 21 63 3 
96 20 63 21 
97 26 61 54 
98 54 61 5 
99 30 68 31 
100 22 74 23 
101 12 62 29 
102 28 62 12 
103 9 71 35 
104 26 73 27 
105 17 54 5 
106 25 61 26 
107 56 62 55 
108 5 53 16 
109 4 74 15 
110 15 69 3 
111 19 57 8 
112 16 59 4 
113 9 60 19 
114 14 58 2 
115 29 62 56 
116 3 69 21 
117 3 63 14 
118 32 65 33 
119 56 68 30 
120 8 72 18 
121 55 62 28 
122 27 73 55 
123 33 65 57 
124 15 74 69 
125 58 63 20 
126 69 74 22 
127 13 67 34 
128 53 59 16 
129 6 66 17 
130 17 66 54 
131 1 70 36 
132 33 67 13 
133 57 67 33 
134 19 60 57 
135 60 67 57 
136 14 63 58 
137 57 65 8 
138 53 64 59 
139 34 67 60 
140 66 73 54 
141 55 73 66 
142 65 72 8 
143 32 72 65 
144 1 71 9 
145 35 71 36 
146 7 68 6 
$EndElements
