$MeshFormat
4.1 0 8
$EndMeshFormat
$PhysicalNames
5
2 2 "inlet"
2 3 "outlet"
2 4 "Top"
3 1 "Darcy"
3 6 "Vugs"
$EndPhysicalNames
$Entities
29 126 44 2
1 0.3296988606452942 5.532810688018799 3.604216575622559 0 
2 0.6266739964485168 4.848567008972168 4.667224407196045 0 
3 0.73903489112854 6.476875782012939 2.465672731399536 0 
4 0.8330444693565369 5.608189105987549 1.794805884361267 0 
5 0.8459965586662292 3.654298782348633 3.359054327011108 0 
6 1.30704140663147 7.813997268676758 1.436385035514832 0 
7 1.5645432472229 7.450288772583008 2.468654155731201 0 
8 1.728254437446594 2.667185306549072 4.772466659545898 0 
9 1.742784738540649 2.907804250717163 2.553412199020386 0 
10 2.012658834457397 5.892104148864746 0.6718666553497314 0 
11 2.165145874023438 3.849870681762695 4.826357364654541 0 
12 2.180206775665283 6.1562180519104 3.078006267547607 0 
13 2.663830280303955 1.788381457328796 5.441451549530029 0 
14 3.119677066802979 1.131016492843628 6.962597846984863 0 
15 3.313110113143921 8.50835132598877 1.509635329246521 0 
16 3.348358392715454 0.9915573000907898 4.761690616607666 0 
17 3.366488218307495 4.15487003326416 4.692543029785156 0 
18 3.392960786819458 2.850266218185425 2.478994846343994 0 
19 3.39423680305481 4.573935031890869 1.880391716957092 0 
20 3.403095483779907 6.544513702392578 0.2780250906944275 0 
21 3.41786789894104 2.349126100540161 5.250027179718018 0 
10001 -10 0 0 0 
10002 10 0 0 0 
10003 10 10 0 0 
10004 -10 10 0 0 
10005 -10 0 10 0 
10006 10 0 10 0 
10007 10 10 10 0 
10008 -10 10 10 0 
1 1.742784638540649 2.907804150717163 0.6718665553497315 2.012658934457397 5.892104248864746 2.553412299020386 0 2 10 -9 
2 0.8330443693565369 2.907804150717163 1.794805784361267 1.742784838540649 5.608189205987549 2.553412299020386 0 2 9 -4 
3 0.8330443693565369 5.608189005987549 0.6718665553497315 2.012658934457397 5.892104248864746 1.794805984361267 0 2 4 -10 
4 0.6266738964485169 3.654298682348633 3.359054227011109 0.8459966586662292 4.848567108972168 4.667224507196045 0 2 2 -5 
5 0.8459964586662293 2.667185206549072 3.359054227011109 1.728254537446594 3.654298882348633 4.772466759545899 0 2 5 -8 
6 0.6266738964485169 2.667185206549072 4.667224307196045 1.728254537446594 4.848567108972168 4.772466759545899 0 2 8 -2 
7 0.8459964586662292 2.907804150717163 2.553412099020386 1.742784838540649 3.654298882348633 3.359054427011108 0 2 9 -5 
8 0.8330443693565369 3.654298682348633 1.794805784361267 0.8459966586662292 5.608189205987549 3.359054427011108 0 2 5 -4 
9 0.8330443693565369 2.907804150717163 1.794805784361267 1.742784838540649 5.608189205987549 2.553412299020386 0 2 4 -9 
10 0.8459964586662293 2.667185206549072 3.359054227011109 1.728254537446594 3.654298882348633 4.772466759545899 0 2 8 -5 
11 0.8459964586662293 2.907804150717163 2.553412099020386 1.742784838540649 3.654298882348633 3.359054427011108 0 2 5 -9 
12 1.728254337446594 2.667185206549072 2.553412099020386 1.742784838540649 2.907804350717163 4.772466759545899 0 2 9 -8 
13 0.6266738964485169 3.849870581762695 4.667224307196045 2.165145974023437 4.848567108972168 4.826357464654541 0 2 11 -2 
14 0.6266738964485169 2.667185206549072 4.667224307196045 1.728254537446594 4.848567108972168 4.772466759545899 0 2 2 -8 
15 1.728254337446594 2.667185206549072 4.772466559545898 2.165145974023437 3.849870781762695 4.826357464654541 0 2 8 -11 
16 1.728254337446594 2.667185206549072 2.553412099020386 1.742784838540649 2.907804350717163 4.772466759545899 0 2 8 -9 
17 1.742784638540649 0.9915572000907901 2.553412099020386 3.348358492715454 2.907804350717163 4.761690716607666 0 2 9 -16 
18 1.728254337446594 0.9915572000907898 4.761690516607666 3.348358492715454 2.667185406549072 4.772466759545899 0 2 16 -8 
19 1.728254337446594 2.667185206549072 4.772466559545898 2.165145974023437 3.849870781762695 4.826357464654541 0 2 11 -8 
20 1.728254337446594 1.788381357328796 4.772466559545898 2.663830380303955 2.667185406549072 5.44145164953003 0 2 8 -13 
21 2.165145774023438 1.788381357328796 4.826357264654541 2.663830380303955 3.849870781762695 5.44145164953003 0 2 13 -11 
22 0.7390347911285401 6.476875682012939 1.436384935514831 1.30704150663147 7.813997368676758 2.465672831399536 0 2 3 -6 
23 0.8330443693565369 5.608189005987549 1.436384935514831 1.30704150663147 7.813997368676758 1.794805984361267 0 2 6 -4 
24 0.7390347911285401 5.608189005987549 1.794805784361267 0.8330445693565368 6.47687588201294 2.465672831399536 0 2 4 -3 
25 0.8330443693565369 5.608189005987549 0.6718665553497315 2.012658934457397 5.892104248864746 1.794805984361267 0 2 10 -4 
26 0.8330443693565369 5.608189005987549 1.436384935514831 1.30704150663147 7.813997368676758 1.794805984361267 0 2 4 -6 
27 1.30704130663147 5.892104048864746 0.6718665553497315 2.012658934457397 7.813997368676758 1.436385135514832 0 2 6 -10 
28 1.30704130663147 6.544513602392578 0.2780249906944274 3.403095583779907 7.813997368676758 1.436385135514832 0 2 6 -20 
29 2.012658734457398 5.892104048864746 0.2780249906944275 3.403095583779907 6.544513802392578 0.6718667553497314 0 2 20 -10 
30 1.30704130663147 5.892104048864746 0.6718665553497315 2.012658934457397 7.813997368676758 1.436385135514832 0 2 10 -6 
31 0.6266738964485169 4.848566908972168 1.794805784361267 0.8330445693565368 5.608189205987549 4.667224507196045 0 2 2 -4 
32 0.8330443693565369 3.654298682348633 1.794805784361267 0.8459966586662292 5.608189205987549 3.359054427011108 0 2 4 -5 
33 0.6266738964485169 3.654298682348633 3.359054227011109 0.8459966586662292 4.848567108972168 4.667224507196045 0 2 5 -2 
34 0.3296987606452942 5.532810588018799 1.794805784361267 0.8330445693565368 5.608189205987549 3.604216675622558 0 2 1 -4 
35 0.6266738964485169 4.848566908972168 1.794805784361267 0.8330445693565368 5.608189205987549 4.667224507196045 0 2 4 -2 
36 0.3296987606452942 4.848566908972168 3.604216475622559 0.6266740964485168 5.532810788018799 4.667224507196045 0 2 2 -1 
37 0.3296987606452942 5.532810588018799 1.794805784361267 0.8330445693565368 5.608189205987549 3.604216675622558 0 2 4 -1 
38 0.3296987606452942 5.532810588018799 2.465672631399536 0.73903499112854 6.47687588201294 3.604216675622558 0 2 1 -3 
39 0.7390347911285401 5.608189005987549 1.794805784361267 0.8330445693565368 6.47687588201294 2.465672831399536 0 2 3 -4 
40 0.3296987606452942 4.848566908972168 3.604216475622559 0.6266740964485168 5.532810788018799 4.667224507196045 0 2 1 -2 
41 0.6266738964485169 4.848566908972168 3.078006167547608 2.180206875665283 6.156218151910401 4.667224507196045 0 2 2 -12 
42 0.3296987606452941 5.532810588018799 3.078006167547608 2.180206875665283 6.156218151910401 3.604216675622558 0 2 12 -1 
43 0.7390347911285401 6.1562179519104 2.465672631399536 2.180206875665283 6.47687588201294 3.078006367547607 0 2 12 -3 
44 0.3296987606452942 5.532810588018799 2.465672631399536 0.73903499112854 6.47687588201294 3.604216675622558 0 2 3 -1 
45 0.3296987606452941 5.532810588018799 3.078006167547608 2.180206875665283 6.156218151910401 3.604216675622558 0 2 1 -12 
46 0.7390347911285401 6.476875682012939 2.465672631399536 1.5645433472229 7.450288872583008 2.468654255731201 0 2 7 -3 
47 0.7390347911285401 6.1562179519104 2.465672631399536 2.180206875665283 6.47687588201294 3.078006367547607 0 2 3 -12 
48 1.5645431472229 6.1562179519104 2.468654055731201 2.180206875665283 7.450288872583008 3.078006367547607 0 2 12 -7 
49 2.165145774023438 3.849870581762695 3.078006167547608 2.180206875665283 6.156218151910401 4.826357464654541 0 2 11 -12 
50 0.6266738964485169 4.848566908972168 3.078006167547608 2.180206875665283 6.156218151910401 4.667224507196045 0 2 12 -2 
51 0.6266738964485169 3.849870581762695 4.667224307196045 2.165145974023437 4.848567108972168 4.826357464654541 0 2 2 -11 
52 0.7390347911285401 6.476875682012939 1.436384935514831 1.30704150663147 7.813997368676758 2.465672831399536 0 2 6 -3 
53 0.7390347911285401 6.476875682012939 2.465672631399536 1.5645433472229 7.450288872583008 2.468654255731201 0 2 3 -7 
54 1.30704130663147 7.450288672583008 1.436384935514831 1.5645433472229 7.813997368676758 2.468654255731201 0 2 7 -6 
55 1.742784638540649 0.9915572000907898 2.553412099020386 3.348358492715454 2.907804350717163 4.761690716607666 0 2 16 -9 
56 1.742784638540649 2.850266118185425 2.478994746343994 3.392960886819458 2.907804350717163 2.553412299020386 0 2 9 -18 
57 3.348358292715454 0.9915572000907901 2.478994746343994 3.392960886819458 2.850266318185425 4.761690716607666 0 2 18 -16 
58 1.728254337446594 0.9915572000907898 4.761690516607666 3.348358492715454 2.667185406549072 4.772466759545899 0 2 8 -16 
59 2.663830180303955 0.9915572000907898 4.761690516607666 3.348358492715454 1.788381557328796 5.44145164953003 0 2 16 -13 
60 1.728254337446594 1.788381357328796 4.772466559545898 2.663830380303955 2.667185406549072 5.44145164953003 0 2 13 -8 
61 2.663830180303955 1.788381357328796 5.250027079718017 3.41786799894104 2.349126200540161 5.44145164953003 0 2 21 -13 
62 2.663830180303955 1.131016392843628 5.441451449530029 3.119677166802978 1.788381557328796 6.962597946984864 0 2 13 -14 
63 3.119676966802979 1.131016392843628 5.250027079718017 3.41786799894104 2.349126200540161 6.962597946984864 0 2 14 -21 
64 2.663830180303955 1.131016392843628 5.441451449530029 3.119677166802978 1.788381557328796 6.962597946984864 0 2 14 -13 
65 2.663830180303955 0.99155720009079 4.761690516607666 3.348358492715454 1.788381557328796 5.44145164953003 0 2 13 -16 
66 3.119676966802979 0.9915572000907898 4.761690516607666 3.348358492715454 1.131016592843628 6.962597946984864 0 2 16 -14 
67 3.119676966802979 0.9915572000907898 4.761690516607666 3.348358492715454 1.131016592843628 6.962597946984864 0 2 14 -16 
68 3.348358292715454 0.9915572000907898 4.761690516607666 3.41786799894104 2.349126200540161 5.250027279718018 0 2 16 -21 
69 3.119676966802979 1.131016392843628 5.250027079718017 3.41786799894104 2.349126200540161 6.962597946984864 0 2 21 -14 
70 3.348358292715454 0.9915572000907898 4.761690516607666 3.41786799894104 2.349126200540161 5.250027279718018 0 2 21 -16 
71 3.348358292715454 0.9915572000907898 2.478994746343994 3.392960886819458 2.850266318185425 4.761690716607666 0 2 16 -18 
72 3.392960686819458 2.349126000540161 2.478994746343994 3.41786799894104 2.850266318185425 5.250027279718018 0 2 18 -21 
73 2.012658734457398 2.850266118185425 0.6718665553497315 3.392960886819458 5.892104248864746 2.478994946343994 0 2 10 -18 
74 1.742784638540649 2.850266118185425 2.478994746343994 3.392960886819458 2.907804350717163 2.553412299020386 0 2 18 -9 
75 1.742784638540649 2.907804150717163 0.6718665553497315 2.012658934457397 5.892104248864746 2.553412299020386 0 2 9 -10 
76 3.392960686819458 2.850266118185425 1.880391616957092 3.394236903054809 4.573935131890869 2.478994946343994 0 2 19 -18 
77 2.012658734457398 2.850266118185425 0.6718665553497315 3.392960886819458 5.892104248864746 2.478994946343994 0 2 18 -10 
78 2.012658734457398 4.573934931890869 0.6718665553497315 3.394236903054809 5.892104248864746 1.880391816957092 0 2 10 -19 
79 3.392960686819458 2.349126000540161 2.478994746343994 3.41786799894104 2.850266318185425 5.250027279718018 0 2 21 -18 
80 3.392960686819458 2.850266118185425 1.880391616957092 3.394236903054809 4.573935131890869 2.478994946343994 0 2 18 -19 
81 3.39423670305481 2.349126000540161 1.880391616957092 3.41786799894104 4.573935131890869 5.250027279718018 0 2 19 -21 
82 3.39423670305481 2.349126000540161 1.880391616957092 3.41786799894104 4.573935131890869 5.250027279718018 0 2 21 -19 
83 3.366488118307495 4.15486993326416 1.880391616957092 3.394236903054809 4.573935131890869 4.692543129785157 0 2 19 -17 
84 3.366488118307495 2.349126000540161 4.692542929785156 3.41786799894104 4.15487013326416 5.250027279718018 0 2 17 -21 
85 2.165145774023438 1.788381357328796 4.826357264654541 2.663830380303955 3.849870781762695 5.44145164953003 0 2 11 -13 
86 2.663830180303955 1.788381357328796 5.250027079718017 3.41786799894104 2.349126200540161 5.44145164953003 0 2 13 -21 
87 2.165145774023438 2.349126000540161 4.826357264654541 3.41786799894104 3.849870781762695 5.250027279718018 0 2 21 -11 
88 2.165145774023438 2.349126000540161 4.826357264654541 3.41786799894104 3.849870781762695 5.250027279718018 0 2 11 -21 
89 3.366488118307495 2.349126000540161 4.692542929785156 3.41786799894104 4.15487013326416 5.250027279718018 0 2 21 -17 
90 2.165145774023438 3.849870581762695 4.692542929785156 3.366488318307495 4.15487013326416 4.826357464654541 0 2 17 -11 
91 3.39423670305481 4.573934931890869 0.2780249906944274 3.403095583779907 6.544513802392578 1.880391816957092 0 2 20 -19 
92 2.012658734457398 4.573934931890869 0.6718665553497315 3.394236903054809 5.892104248864746 1.880391816957092 0 2 19 -10 
93 2.012658734457398 5.892104048864746 0.2780249906944275 3.403095583779907 6.544513802392578 0.6718667553497314 0 2 10 -20 
94 3.39423670305481 4.573934931890869 0.2780249906944274 3.403095583779907 6.544513802392578 1.880391816957092 0 2 19 -20 
95 3.366488118307495 4.15486993326416 0.2780249906944277 3.403095583779907 6.544513802392578 4.692543129785157 0 2 20 -17 
96 3.366488118307495 4.15486993326416 1.880391616957092 3.394236903054809 4.573935131890869 4.692543129785157 0 2 17 -19 
97 2.180206675665283 6.1562179519104 1.509635229246521 3.313110213143921 8.508351425988769 3.078006367547607 0 2 15 -12 
98 2.180206675665283 4.15486993326416 3.078006167547608 3.366488318307495 6.156218151910401 4.692543129785157 0 2 12 -17 
99 3.313110013143921 4.15486993326416 1.509635229246521 3.366488318307495 8.508351425988769 4.692543129785157 0 2 17 -15 
100 2.165145774023438 3.849870581762695 3.078006167547608 2.180206875665283 6.156218151910401 4.826357464654541 0 2 12 -11 
101 2.165145774023438 3.849870581762695 4.692542929785156 3.366488318307495 4.15487013326416 4.826357464654541 0 2 11 -17 
102 2.180206675665283 4.15486993326416 3.078006167547608 3.366488318307495 6.156218151910401 4.692543129785157 0 2 17 -12 
103 3.313110013143921 6.544513602392578 0.2780249906944274 3.403095583779907 8.508351425988769 1.509635429246521 0 2 15 -20 
104 1.30704130663147 6.544513602392578 0.2780249906944274 3.403095583779907 7.813997368676758 1.436385135514832 0 2 20 -6 
105 1.30704130663147 7.813997168676758 1.436384935514831 3.313110213143921 8.508351425988769 1.509635429246521 0 2 6 -15 
106 1.30704130663147 7.813997168676758 1.436384935514831 3.313110213143921 8.508351425988769 1.509635429246521 0 2 15 -6 
107 1.30704130663147 7.450288672583008 1.436384935514831 1.5645433472229 7.813997368676758 2.468654255731201 0 2 6 -7 
108 1.5645431472229 7.450288672583008 1.509635229246521 3.313110213143921 8.508351425988769 2.468654255731201 0 2 7 -15 
109 3.313110013143921 6.544513602392578 0.2780249906944274 3.403095583779907 8.508351425988769 1.509635429246521 0 2 20 -15 
110 3.313110013143921 4.15486993326416 1.509635229246521 3.366488318307495 8.508351425988769 4.692543129785157 0 2 15 -17 
111 3.366488118307495 4.15486993326416 0.2780249906944277 3.403095583779907 6.544513802392578 4.692543129785157 0 2 17 -20 
112 1.5645431472229 7.450288672583008 1.509635229246521 3.313110213143921 8.508351425988769 2.468654255731201 0 2 15 -7 
113 1.5645431472229 6.1562179519104 2.468654055731201 2.180206875665283 7.450288872583008 3.078006367547607 0 2 7 -12 
114 2.180206675665283 6.1562179519104 1.509635229246521 3.313110213143921 8.508351425988769 3.078006367547607 0 2 12 -15 
10001 -10.0000001 -1e-07 -1e-07 10.0000001 1e-07 1e-07 0 2 10001 -10002 
10002 9.999999900000001 -1.000000002804313e-07 -1e-07 10.0000001 10.0000001 1e-07 0 2 10002 -10003 
10003 -10.0000001 9.999999900000001 -1e-07 10.0000001 10.0000001 1e-07 0 2 10003 -10004 
10004 -10.0000001 -1.000000002804313e-07 -1e-07 -9.999999900000001 10.0000001 1e-07 0 2 10004 -10001 
10005 -10.0000001 -1e-07 9.999999900000001 10.0000001 1e-07 10.0000001 0 2 10005 -10006 
10006 9.999999900000001 -1.000000002804313e-07 9.999999900000001 10.0000001 10.0000001 10.0000001 0 2 10006 -10007 
10007 -10.0000001 9.999999900000001 9.999999900000001 10.0000001 10.0000001 10.0000001 0 2 10007 -10008 
10008 -10.0000001 -1.000000002804313e-07 9.999999900000001 -9.999999900000001 10.0000001 10.0000001 0 2 10008 -10005 
10009 -10.0000001 -1e-07 -1.000000002804313e-07 -9.999999900000001 1e-07 10.0000001 0 2 10001 -10005 
10010 9.999999900000001 -1e-07 -1.000000002804313e-07 10.0000001 1e-07 10.0000001 0 2 10002 -10006 
10011 9.999999900000001 9.999999900000001 -1.000000002804313e-07 10.0000001 10.0000001 10.0000001 0 2 10003 -10007 
10012 -10.0000001 9.999999900000001 -1.000000002804313e-07 -9.999999900000001 10.0000001 10.0000001 0 2 10004 -10008 
1 0.8330443693565369 2.907804150717163 0.6718665553497315 2.012658934457397 5.892104248864746 2.553412299020386 0 3 1 2 3 
2 0.6266738964485169 2.667185206549072 3.359054227011109 1.728254537446594 4.848567108972168 4.772466759545899 0 3 4 5 6 
3 0.8330443693565369 2.907804150717163 1.794805784361267 1.742784838540649 5.608189205987549 3.359054427011108 0 3 7 8 9 
4 0.8459964586662293 2.667185206549072 2.553412099020386 1.742784838540649 3.654298882348633 4.772466759545899 0 3 10 11 12 
5 0.6266738964485169 2.667185206549072 4.667224307196045 2.165145974023437 4.848567108972168 4.826357464654541 0 3 13 14 15 
6 1.728254337446594 0.9915572000907898 2.553412099020386 3.348358492715454 2.907804350717163 4.772466759545899 0 3 16 17 18 
7 1.728254337446594 1.788381357328796 4.772466559545898 2.663830380303955 3.849870781762695 5.44145164953003 0 3 19 20 21 
8 0.7390347911285401 5.608189005987549 1.436384935514831 1.30704150663147 7.813997368676758 2.465672831399536 0 3 22 23 24 
9 0.8330443693565369 5.608189005987549 0.6718665553497315 2.012658934457397 7.813997368676758 1.794805984361267 0 3 25 26 27 
10 1.30704130663147 5.892104048864746 0.2780249906944274 3.403095583779907 7.813997368676758 1.436385135514832 0 3 28 29 30 
11 0.6266738964485169 3.654298682348633 1.794805784361267 0.8459966586662292 5.608189205987549 4.667224507196045 0 3 31 32 33 
12 0.3296987606452942 4.848566908972168 1.794805784361267 0.8330445693565368 5.608189205987549 4.667224507196045 0 3 34 35 36 
13 0.3296987606452942 5.532810588018799 1.794805784361267 0.8330445693565368 6.47687588201294 3.604216675622558 0 3 37 38 39 
14 0.3296987606452941 4.848566908972168 3.078006167547608 2.180206875665283 6.156218151910401 4.667224507196045 0 3 40 41 42 
15 0.3296987606452941 5.532810588018799 2.465672631399536 2.180206875665283 6.47687588201294 3.604216675622558 0 3 43 44 45 
16 0.7390347911285401 6.1562179519104 2.465672631399536 2.180206875665283 7.450288872583008 3.078006367547607 0 3 46 47 48 
17 0.6266738964485169 3.849870581762695 3.078006167547608 2.180206875665283 6.156218151910401 4.826357464654541 0 3 49 50 51 
18 0.7390347911285401 6.476875682012939 1.436384935514831 1.5645433472229 7.813997368676758 2.468654255731201 0 3 52 53 54 
19 1.742784638540649 0.9915572000907898 2.478994746343994 3.392960886819458 2.907804350717163 4.761690716607666 0 3 55 56 57 
20 1.728254337446594 0.9915572000907898 4.761690516607666 3.348358492715454 2.667185406549072 5.44145164953003 0 3 58 59 60 
21 2.663830180303955 1.131016392843628 5.250027079718017 3.41786799894104 2.349126200540161 6.962597946984864 0 3 61 62 63 
22 2.663830180303955 0.9915572000907898 4.761690516607666 3.348358492715454 1.788381557328796 6.962597946984864 0 3 64 65 66 
23 3.119676966802979 0.9915572000907898 4.761690516607666 3.41786799894104 2.349126200540161 6.962597946984864 0 3 67 68 69 
24 3.348358292715454 0.9915572000907898 2.478994746343994 3.41786799894104 2.850266318185425 5.250027279718018 0 3 70 71 72 
25 1.742784638540649 2.850266118185425 0.6718665553497315 3.392960886819458 5.892104248864746 2.553412299020386 0 3 73 74 75 
26 2.012658734457398 2.850266118185425 0.6718665553497315 3.394236903054809 5.892104248864746 2.478994946343994 0 3 76 77 78 
27 3.392960686819458 2.349126000540161 1.880391616957092 3.41786799894104 4.573935131890869 5.250027279718018 0 3 79 80 81 
28 3.366488118307495 2.349126000540161 1.880391616957092 3.41786799894104 4.573935131890869 5.250027279718018 0 3 82 83 84 
29 2.165145774023438 1.788381357328796 4.826357264654541 3.41786799894104 3.849870781762695 5.44145164953003 0 3 85 86 87 
30 2.165145774023438 2.349126000540161 4.692542929785156 3.41786799894104 4.15487013326416 5.250027279718018 0 3 88 89 90 
31 2.012658734457398 4.573934931890869 0.2780249906944274 3.403095583779907 6.544513802392578 1.880391816957092 0 3 91 92 93 
32 3.366488118307495 4.15486993326416 0.2780249906944277 3.403095583779907 6.544513802392578 4.692543129785157 0 3 94 95 96 
33 2.180206675665283 4.15486993326416 1.509635229246521 3.366488318307495 8.508351425988769 4.692543129785157 0 3 97 98 99 
34 2.165145774023438 3.849870581762695 3.078006167547608 3.366488318307495 6.156218151910401 4.826357464654541 0 3 100 101 102 
35 1.30704130663147 6.544513602392578 0.2780249906944274 3.403095583779907 8.508351425988769 1.509635429246521 0 3 103 104 105 
36 1.30704130663147 7.450288672583008 1.436384935514831 3.313110213143921 8.508351425988769 2.468654255731201 0 3 106 107 108 
37 3.313110013143921 4.15486993326416 0.2780249906944277 3.403095583779907 8.508351425988769 4.692543129785157 0 3 109 110 111 
38 1.5645431472229 6.1562179519104 1.509635229246521 3.313110213143921 8.508351425988769 3.078006367547607 0 3 112 113 114 
10014 -10.0000001 -1.000000002804313e-07 -1e-07 10.0000001 10.0000001 1e-07 1 4 4 10001 10002 10003 10004 
10016 -10.0000001 -1.000000002804313e-07 9.999999900000001 10.0000001 10.0000001 10.0000001 1 4 4 10005 10006 10007 10008 
10018 -10.0000001 -1e-07 -1.000000002804313e-07 10.0000001 1e-07 10.0000001 1 4 4 10001 10010 -10005 -10009 
10020 9.999999900000001 -1.000000002804313e-07 -1.000000002804313e-07 10.0000001 10.0000001 10.0000001 1 3 4 10002 10011 -10006 -10010 
10022 -10.0000001 9.999999900000001 -1.000000002804313e-07 10.0000001 10.0000001 10.0000001 1 4 4 10003 10012 -10007 -10011 
10024 -10.0000001 -1.000000002804313e-07 -1.000000002804313e-07 -9.999999900000001 10.0000001 10.0000001 1 2 4 10004 10009 -10008 -10012 
1 -10.0000001 -1.000000002804313e-07 -1.000000002804313e-07 10.0000001 10.0000001 10.0000001 1 1 44 10014 10016 10018 10020 10022 10024 1 2 3 4 5 6 7 8 9 10 11 12 13 14 15 16 17 18 19 20 21 22 23 24 25 26 27 28 29 30 31 32 33 34 35 36 37 38 
2 0.3296987606452941 0.99155720009079 0.2780249906944277 3.41786799894104 8.508351425988769 6.962597946984864 1 6 38 1 2 3 4 5 6 7 8 9 10 11 12 13 14 15 16 17 18 19 20 21 22 23 24 25 26 27 28 29 30 31 32 33 34 35 36 37 38 
$EndEntities
$Nodes
37 38 1 38
0 1 0 1
1
0.3296988606452942 5.532810688018799 3.604216575622559
0 2 0 1
2
0.6266739964485168 4.848567008972168 4.667224407196045
0 3 0 1
3
0.73903489112854 6.476875782012939 2.465672731399536
0 4 0 1
4
0.8330444693565369 5.608189105987549 1.794805884361267
0 5 0 1
5
0.8459965586662292 3.654298782348633 3.359054327011108
0 6 0 1
6
1.30704140663147 7.813997268676758 1.436385035514832
0 7 0 1
7
1.5645432472229 7.450288772583008 2.468654155731201
0 8 0 1
8
1.728254437446594 2.667185306549072 4.772466659545898
0 9 0 1
9
1.742784738540649 2.907804250717163 2.553412199020386
0 10 0 1
10
2.012658834457397 5.892104148864746 0.6718666553497314
0 11 0 1
11
2.165145874023438 3.849870681762695 4.826357364654541
0 12 0 1
12
2.180206775665283 6.1562180519104 3.078006267547607
0 13 0 1
13
2.663830280303955 1.788381457328796 5.441451549530029
0 14 0 1
14
3.119677066802979 1.131016492843628 6.962597846984863
0 15 0 1
15
3.313110113143921 8.50835132598877 1.509635329246521
0 16 0 1
16
3.348358392715454 0.9915573000907898 4.761690616607666
0 17 0 1
17
3.366488218307495 4.15487003326416 4.692543029785156
0 18 0 1
18
3.392960786819458 2.850266218185425 2.478994846343994
0 19 0 1
19
3.39423680305481 4.573935031890869 1.880391716957092
0 20 0 1
20
3.403095483779907 6.544513702392578 0.2780250906944275
0 21 0 1
21
3.41786789894104 2.349126100540161 5.250027179718018
0 10001 0 1
22
-10 0 0
0 10002 0 1
23
10 0 0
0 10003 0 1
24
10 10 0
0 10004 0 1
25
-10 10 0
0 10005 0 1
26
-10 0 10
0 10006 0 1
27
10 0 10
0 10007 0 1
28
10 10 10
0 10008 0 1
29
-10 10 10
2 10014 0 1
30
0 5 0
2 10016 0 1
31
0 5 10
2 10018 0 1
32
0 0 5
2 10020 0 1
33
10 5 5
2 10022 0 1
34
0 10 5
2 10024 0 1
35
-10 5 5
3 1 0 3
36
37
38
-4.733243026230207 3.036662211276103 4.205132829544859
1.555666723893447 3.284881215346181 7.391168572229217
5.449179920299941 5.762068772923481 7.198322584284308
3 2 0 0
$EndNodes
$Elements
8 177 1 177
2 10014 2 4
1 23 30 22 
2 22 30 25 
3 24 30 23 
4 25 30 24 
2 10016 2 4
5 27 31 26 
6 26 31 29 
7 28 31 27 
8 29 31 28 
2 10018 2 4
9 23 32 22 
10 22 32 26 
11 27 32 23 
12 26 32 27 
2 10020 2 4
13 24 33 23 
14 23 33 27 
15 28 33 24 
16 27 33 28 
2 10022 2 4
17 25 34 24 
18 24 34 28 
19 29 34 25 
20 28 34 29 
2 10024 2 4
21 22 35 25 
22 26 35 22 
23 25 35 29 
24 29 35 26 
3 1 4 116
25 34 29 31 28 
26 18 33 21 16 
27 31 28 27 38 
28 17 20 33 19 
29 21 19 17 33 
30 21 19 33 18 
31 34 1 2 36 
32 10 6 20 30 
33 17 20 15 33 
34 15 12 34 7 
35 30 3 1 4 
36 34 25 6 3 
37 25 6 3 30 
38 14 31 27 38 
39 33 15 17 38 
40 32 2 8 5 
41 7 34 6 3 
42 14 37 31 38 
43 1 12 34 2 
44 9 10 18 30 
45 19 20 33 23 
46 32 8 2 37 
47 16 18 33 23 
48 22 26 32 36 
49 2 5 32 36 
50 2 36 32 37 
51 25 34 35 36 
52 35 34 29 36 
53 33 18 19 23 
54 6 15 34 7 
55 2 8 11 37 
56 34 31 29 36 
57 33 17 21 38 
58 15 24 33 20 
59 30 6 3 4 
60 21 13 14 37 
61 11 8 13 37 
62 9 8 32 16 
63 31 34 28 38 
64 13 14 32 16 
65 5 8 32 9 
66 25 22 30 36 
67 35 34 25 29 
68 13 32 14 37 
69 21 37 14 38 
70 16 33 27 23 
71 21 11 13 37 
72 13 8 32 37 
73 20 24 33 23 
74 17 11 21 37 
75 25 35 22 36 
76 8 13 32 16 
77 5 30 4 9 
78 17 37 21 38 
79 30 10 4 9 
80 22 35 26 36 
81 28 33 27 38 
82 6 30 10 4 
83 30 18 9 23 
84 26 32 14 27 
85 14 31 26 27 
86 34 25 15 6 
87 23 24 30 20 
88 16 27 32 23 
89 32 14 27 16 
90 25 24 34 15 
91 10 30 23 18 
92 23 30 10 20 
93 23 19 10 18 
94 10 19 23 20 
95 23 16 9 32 
96 23 9 16 18 
97 14 26 37 32 
98 14 37 26 31 
99 36 37 26 32 
100 36 26 37 31 
101 1 30 25 3 
102 25 30 1 36 
103 25 34 1 3 
104 1 34 25 36 
105 11 37 34 2 
106 34 37 11 17 
107 34 12 11 2 
108 11 12 34 17 
109 21 33 27 16 
110 27 33 21 38 
111 27 14 21 16 
112 21 14 27 38 
113 15 17 34 12 
114 34 17 15 38 
115 37 34 36 31 
116 37 36 34 2 
117 37 34 38 17 
118 37 38 34 31 
119 34 3 12 1 
120 12 3 34 7 
121 29 36 26 35 
122 26 36 29 31 
123 15 6 24 20 
124 15 24 6 25 
125 30 24 6 20 
126 30 6 24 25 
127 36 2 30 1 
128 36 30 2 5 
129 4 30 2 1 
130 4 2 30 5 
131 24 34 38 28 
132 38 34 24 15 
133 38 33 24 28 
134 24 33 38 15 
135 5 9 36 30 
136 36 9 5 32 
137 9 22 36 30 
138 36 22 9 32 
139 9 23 22 30 
140 22 23 9 32 
3 2 4 37
141 4 2 12 1 
142 5 12 11 19 
143 11 2 12 5 
144 4 2 5 12 
145 5 4 12 19 
146 9 5 11 19 
147 10 4 9 19 
148 18 8 9 16 
149 3 7 12 4 
150 4 5 9 19 
151 12 1 3 4 
152 8 18 21 16 
153 2 11 8 5 
154 21 13 8 16 
155 21 13 11 8 
156 7 20 12 10 
157 12 17 11 19 
158 11 8 5 9 
159 7 6 20 10 
160 10 12 7 4 
161 20 12 15 7 
162 14 13 21 16 
163 9 11 17 19 
164 4 10 12 19 
165 10 20 12 19 
166 6 7 20 15 
167 9 17 18 19 
168 10 9 18 19 
169 21 19 18 17 
170 4 7 6 3 
171 4 6 7 10 
172 17 9 8 11 
173 8 9 17 18 
174 8 21 17 11 
175 17 21 8 18 
176 20 17 12 19 
177 20 12 17 15 
$EndElements
