$MeshFormat
4.1 0 8
$EndMeshFormat
$PhysicalNames
5
2 2 "Fractures"
2 3 "inlet"
2 4 "outlet"
2 5 "noflux"
3 1 "CuboExterno"
$EndPhysicalNames
$Entities
24 28 10 1
1 0 0 0 0 
2 616 0 0 0 
3 616 676 0 0 
4 0 676 0 0 
5 0 0 910 0 
6 616 0 910 0 
7 616 676 910 0 
8 0 676 910 0 
100 150 150 200 0 
101 400 150 300 0 
102 400 350 350 0 
103 150 350 250 0 
110 200 100 600 0 
111 300 300 700 0 
112 350 500 650 0 
113 250 300 550 0 
120 100 500 200 0 
121 300 600 300 0 
122 350 650 500 0 
123 150 550 400 0 
130 400 200 100 0 
131 550 250 300 0 
132 500 450 350 0 
133 350 400 150 0 
1 0 0 0 616 0 0 0 2 1 -2 
2 616 0 0 616 676 0 0 2 2 -3 
3 0 676 0 616 676 0 0 2 3 -4 
4 0 0 0 0 676 0 0 2 4 -1 
5 0 0 910 616 0 910 0 2 5 -6 
6 616 0 910 616 676 910 0 2 6 -7 
7 0 676 910 616 676 910 0 2 7 -8 
8 0 0 910 0 676 910 0 2 8 -5 
9 0 0 0 0 0 910 0 2 1 -5 
10 616 0 0 616 0 910 0 2 2 -6 
11 616 676 0 616 676 910 0 2 3 -7 
12 0 676 0 0 676 910 0 2 4 -8 
100 150 150 200 400 150 300 0 2 100 -101 
101 400 150 300 400 350 350 0 2 101 -102 
102 150 350 250 400 350 350 0 2 102 -103 
103 150 150 200 150 350 250 0 2 103 -100 
110 200 100 600 300 300 700 0 2 110 -111 
111 300 300 650 350 500 700 0 2 111 -112 
112 250 300 550 350 500 650 0 2 112 -113 
113 200 100 550 250 300 600 0 2 113 -110 
120 100 500 200 300 600 300 0 2 120 -121 
121 300 600 300 350 650 500 0 2 121 -122 
122 150 550 400 350 650 500 0 2 122 -123 
123 100 500 200 150 550 400 0 2 123 -120 
130 400 200 100 550 250 300 0 2 130 -131 
131 500 250 300 550 450 350 0 2 131 -132 
132 350 400 150 500 450 350 0 2 132 -133 
133 350 200 100 400 400 150 0 2 133 -130 
14 0 0 0 616 676 0 1 5 4 1 2 3 4 
16 0 0 910 616 676 910 1 5 4 5 6 7 8 
18 0 0 0 616 0 910 1 5 4 1 10 -5 -9 
20 616 0 0 616 676 910 1 3 4 2 11 -6 -10 
22 0 676 0 616 676 910 1 5 4 3 12 -7 -11 
24 0 0 0 0 676 910 1 4 4 4 9 -8 -12 
105 150 150 200 400 350 350 1 2 4 100 101 102 103 
115 200 100 550 350 500 700 1 2 4 110 111 112 113 
125 100 500 200 350 650 500 1 2 4 120 121 122 123 
135 350 200 100 550 450 350 1 2 4 130 131 132 133 
31 0 0 0 616 676 910 1 1 6 14 16 18 20 22 24 
$EndEntities
$Nodes
47 71 1 71
0 1 0 1
1
0 0 0
0 2 0 1
2
616 0 0
0 3 0 1
3
616 676 0
0 4 0 1
4
0 676 0
0 5 0 1
5
0 0 910
0 6 0 1
6
616 0 910
0 7 0 1
7
616 676 910
0 8 0 1
8
0 676 910
0 100 0 1
9
150 150 200
0 101 0 1
10
400 150 300
0 102 0 1
11
400 350 350
0 103 0 1
12
150 350 250
0 110 0 1
13
200 100 600
0 111 0 1
14
300 300 700
0 112 0 1
15
350 500 650
0 113 0 1
16
250 300 550
0 120 0 1
17
100 500 200
0 121 0 1
18
300 600 300
0 122 0 1
19
350 650 500
0 123 0 1
20
150 550 400
0 130 0 1
21
400 200 100
0 131 0 1
22
550 250 300
0 132 0 1
23
500 450 350
0 133 0 1
24
350 400 150
1 1 0 1
25
307.9999999995831 0 0
1 2 0 1
26
616 337.9999999995941 0
1 3 0 1
27
308.000000000933 676 0
1 4 0 1
28
0 338 0
1 5 0 1
29
307.9999999995831 0 910
1 6 0 1
30
616 337.9999999995941 910
1 7 0 1
31
308.000000000933 676 910
1 8 0 1
32
0 338 910
1 9 0 2
33
34
0 0 303.3333333328662
0 0 606.6666666666229
1 10 0 2
35
36
616 0 303.3333333328662
616 0 606.6666666666229
1 11 0 2
37
38
616 676 303.3333333328662
616 676 606.6666666666229
1 12 0 2
39
40
0 676 303.3333333328662
0 676 606.6666666666229
2 14 0 4
41
42
43
44
427.4597464760645 481.2591772619621 0
361.4042207790416 260.6671597633181 0
228.7575937212413 449.7938716141037 0
153.9999999997915 167.354949997167 0
2 16 0 4
45
46
47
48
427.4597464760645 481.2591772619621 910
361.4042207790416 260.6671597633181 910
228.7575937212413 449.7938716141037 910
153.9999999997915 167.354949997167 910
2 18 0 5
49
50
51
52
53
332.805488893139 0 454.9999999998128
227.2277733994807 0 699.385752881047
227.2277733994017 0 210.6142471187459
427.0421676718233 0 186.7933477864964
427.042167671892 0 723.2066522133412
2 20 0 6
54
55
56
57
58
59
616 244.7312547013799 447.450584581127
616 497.1749924041479 454.9999999997444
616 445.1371687180941 680.6523311628441
616 433.4843745174865 226.2417640966951
616 211.8026196516196 696.4905769384627
616 203.2431258436921 195.4051364021377
2 22 0 5
60
61
62
63
64
332.805488893152 675.9999999999999 454.9999999998128
227.2277733996634 675.9999999999999 699.3857528810894
227.2277733995844 675.9999999999999 210.6142471187036
427.042167672038 675.9999999999999 186.7933477866701
427.0421676721068 675.9999999999999 723.2066522131674
2 24 0 6
65
66
67
68
69
70
0 431.2687452985785 447.4505845811273
0 178.8250075958521 454.9999999997444
0 230.8628312818342 680.6523311628104
0 242.5156254824051 226.2417640966952
0 464.1973803483161 696.4905769384791
0 472.7568741561967 195.4051364021377
2 105 0 1
71
275.0000000000001 250.0000000000001 275
2 115 0 0
2 125 0 0
2 135 0 0
3 31 0 0
$EndNodes
$Elements
11 342 1 342
2 14 2 14
1 1 25 44 
2 28 1 44 
3 25 2 42 
4 2 26 42 
5 26 3 41 
6 3 27 41 
7 27 4 43 
8 4 28 43 
9 25 42 44 
10 26 41 42 
11 41 27 43 
12 43 28 44 
13 42 41 43 
14 42 43 44 
2 16 2 14
15 5 29 48 
16 32 5 48 
17 29 6 46 
18 6 30 46 
19 30 7 45 
20 7 31 45 
21 31 8 47 
22 8 32 47 
23 29 46 48 
24 30 45 46 
25 45 31 47 
26 47 32 48 
27 46 45 47 
28 46 47 48 
2 18 2 18
29 1 25 51 
30 33 1 51 
31 25 2 52 
32 2 35 52 
33 29 5 50 
34 5 34 50 
35 6 29 53 
36 36 6 53 
37 51 25 52 
38 29 50 53 
39 34 33 49 
40 49 33 51 
41 34 49 50 
42 35 36 49 
43 35 49 52 
44 49 36 53 
45 50 49 53 
46 49 51 52 
2 20 2 20
47 2 26 59 
48 35 2 59 
49 26 3 57 
50 3 37 57 
51 30 6 58 
52 6 36 58 
53 7 30 56 
54 38 7 56 
55 26 57 59 
56 56 30 58 
57 36 35 54 
58 54 35 59 
59 36 54 58 
60 37 38 55 
61 37 55 57 
62 55 38 56 
63 54 55 56 
64 55 54 57 
65 54 56 58 
66 57 54 59 
2 22 2 18
67 3 27 63 
68 37 3 63 
69 27 4 62 
70 4 39 62 
71 31 7 64 
72 7 38 64 
73 8 31 61 
74 40 8 61 
75 27 62 63 
76 61 31 64 
77 38 37 60 
78 60 37 63 
79 38 60 64 
80 39 40 60 
81 39 60 62 
82 60 40 61 
83 60 61 64 
84 62 60 63 
2 24 2 20
85 28 1 68 
86 1 33 68 
87 4 28 70 
88 39 4 70 
89 5 32 67 
90 34 5 67 
91 32 8 69 
92 8 40 69 
93 28 68 70 
94 67 32 69 
95 33 34 66 
96 33 66 68 
97 66 34 67 
98 40 39 65 
99 65 39 70 
100 40 65 69 
101 65 66 67 
102 66 65 68 
103 65 67 69 
104 68 65 70 
2 105 2 4
105 9 10 71 
106 12 9 71 
107 10 11 71 
108 11 12 71 
2 115 2 2
109 14 16 13 
110 15 16 14 
2 125 2 2
111 18 20 17 
112 19 20 18 
2 135 2 2
113 22 24 21 
114 23 24 22 
3 31 4 228
115 64 38 19 60 
116 16 14 53 58 
117 61 64 19 60 
118 14 13 16 53 
119 16 66 71 13 
120 15 16 11 54 
121 13 66 71 49 
122 20 69 16 15 
123 12 66 71 16 
124 58 53 16 49 
125 15 20 19 11 
126 16 20 15 11 
127 9 71 66 49 
128 53 13 16 49 
129 54 58 16 49 
130 16 11 54 10 
131 11 56 15 54 
132 20 18 19 11 
133 69 20 61 15 
134 14 16 69 15 
135 10 54 16 49 
136 71 16 13 49 
137 23 15 19 11 
138 16 71 12 11 
139 69 65 20 16 
140 55 15 19 23 
141 66 71 9 12 
142 16 12 20 11 
143 58 36 53 49 
144 16 71 11 10 
145 15 45 14 56 
146 14 69 47 15 
147 36 58 54 49 
148 23 19 18 11 
149 16 71 10 49 
150 19 61 20 15 
151 66 12 65 16 
152 15 19 38 55 
153 45 30 14 56 
154 65 12 20 16 
155 12 18 20 11 
156 40 20 39 60 
157 30 58 14 56 
158 14 46 30 45 
159 33 9 66 49 
160 61 47 69 15 
161 13 33 66 49 
162 22 59 57 54 
163 69 67 16 14 
164 24 71 12 42 
165 47 32 69 14 
166 14 46 53 58 
167 48 13 67 14 
168 67 69 32 14 
169 61 40 20 69 
170 34 13 50 49 
171 10 9 71 21 
172 14 46 58 30 
173 48 67 32 14 
174 14 50 13 53 
175 48 50 13 14 
176 49 10 54 35 
177 66 65 67 16 
178 32 47 48 14 
179 42 71 9 21 
180 56 15 38 55 
181 46 50 14 53 
182 34 33 66 13 
183 37 23 18 63 
184 62 39 20 60 
185 19 38 64 15 
186 65 69 67 16 
187 9 33 51 49 
188 42 25 2 21 
189 11 12 18 24 
190 13 34 33 49 
191 17 4 62 27 
192 21 11 71 10 
193 64 45 15 56 
194 16 67 66 13 
195 47 8 61 69 
196 54 36 49 35 
197 14 48 50 46 
198 13 16 67 14 
199 23 18 63 24 
200 53 46 6 58 
201 4 17 43 27 
202 70 28 4 17 
203 19 20 61 60 
204 18 20 17 12 
205 45 14 47 15 
206 42 2 26 21 
207 3 57 63 41 
208 24 11 71 21 
209 50 13 67 48 
210 7 45 64 56 
211 60 18 62 63 
212 12 17 18 24 
213 31 64 45 15 
214 50 67 5 48 
215 9 68 66 12 
216 41 57 63 24 
217 57 23 63 24 
218 18 17 62 24 
219 17 28 4 43 
220 31 45 47 15 
221 59 26 2 21 
222 50 46 29 53 
223 63 18 62 24 
224 57 26 59 21 
225 42 24 71 21 
226 29 46 6 53 
227 58 46 6 30 
228 40 65 20 69 
229 26 57 24 21 
230 71 12 11 24 
231 41 63 27 24 
232 20 40 61 60 
233 45 7 30 56 
234 32 8 47 69 
235 46 48 50 29 
236 47 61 8 31 
237 18 62 20 60 
238 41 3 57 26 
239 63 62 27 24 
240 47 61 31 15 
241 43 28 44 12 
242 15 38 64 56 
243 11 22 54 10 
244 68 9 44 12 
245 23 24 22 11 
246 3 57 37 63 
247 2 59 21 52 
248 18 23 11 24 
249 67 32 5 48 
250 10 22 54 35 
251 18 60 37 63 
252 68 44 1 28 
253 21 25 2 52 
254 31 61 64 15 
255 12 68 66 65 
256 5 34 67 50 
257 38 7 64 56 
258 44 1 9 68 
259 10 9 21 51 
260 13 67 34 50 
261 21 22 11 10 
262 43 17 28 12 
263 11 24 22 21 
264 42 9 44 21 
265 8 40 61 69 
266 63 27 3 41 
267 64 45 7 31 
268 41 27 43 24 
269 12 20 17 65 
270 14 47 48 46 
271 4 17 62 39 
272 23 57 55 54 
273 33 9 1 68 
274 5 50 48 29 
275 1 51 25 44 
276 57 23 37 63 
277 52 59 21 10 
278 51 1 9 44 
279 28 68 44 12 
280 24 41 57 26 
281 52 10 49 35 
282 17 70 28 12 
283 65 20 39 40 
284 36 53 6 58 
285 24 23 22 57 
286 52 21 51 10 
287 52 2 59 35 
288 54 22 59 35 
289 33 1 9 51 
290 17 4 70 39 
291 46 14 47 45 
292 17 70 12 65 
293 19 18 20 60 
294 43 17 12 24 
295 12 70 68 65 
296 51 25 21 52 
297 10 52 59 35 
298 26 24 42 21 
299 53 50 13 49 
300 57 23 22 54 
301 26 24 41 42 
302 17 62 20 18 
303 33 9 68 66 
304 67 34 66 13 
305 19 64 61 15 
306 59 22 10 35 
307 59 22 21 10 
308 68 28 70 12 
309 51 52 10 49 
310 55 57 23 37 
311 17 62 39 20 
312 23 11 22 54 
313 42 44 25 21 
314 43 41 24 42 
315 16 58 56 14 
316 56 58 16 54 
317 56 15 16 14 
318 16 15 56 54 
319 23 54 56 11 
320 56 54 23 55 
321 56 15 23 11 
322 23 15 56 55 
323 9 10 49 51 
324 9 49 10 71 
325 9 42 12 71 
326 12 42 9 44 
327 38 60 55 19 
328 38 55 60 37 
329 27 17 24 62 
330 27 24 17 43 
331 21 57 22 59 
332 21 22 57 24 
333 12 42 43 24 
334 43 42 12 44 
335 19 18 55 23 
336 19 55 18 60 
337 37 55 18 23 
338 37 18 55 60 
339 17 65 39 70 
340 39 65 17 20 
341 51 44 21 25 
342 21 44 51 9 
$EndElements
