$MeshFormat
4.1 0 8
$EndMeshFormat
$PhysicalNames
6
1 10 "FracEnds"
2 2 "inlet"
2 3 "outlet"
2 4 "Top"
2 5 "Fracture"
3 1 "CuboExterno"
$EndPhysicalNames
$Entities
12 16 7 1
1 0 0 0 0 
2 616 0 0 0 
3 616 676 0 0 
4 0 676 0 0 
5 0 0 910 0 
6 616 0 910 0 
7 616 676 910 0 
8 0 676 910 0 
100 200 200 450 0 
101 400 200 350 0 
102 400 400 350 0 
103 200 400 450 0 
1 0 0 0 616 0 0 0 2 1 -2 
2 616 0 0 616 676 0 0 2 2 -3 
3 0 676 0 616 676 0 0 2 3 -4 
4 0 0 0 0 676 0 0 2 4 -1 
5 0 0 910 616 0 910 0 2 5 -6 
6 616 0 910 616 676 910 0 2 6 -7 
7 0 676 910 616 676 910 0 2 7 -8 
8 0 0 910 0 676 910 0 2 8 -5 
9 0 0 0 0 0 910 0 2 1 -5 
10 616 0 0 616 0 910 0 2 2 -6 
11 616 676 0 616 676 910 0 2 3 -7 
12 0 676 0 0 676 910 0 2 4 -8 
100 200 200 350 400 200 450 1 10 2 100 -101 
101 400 200 350 400 400 350 1 10 2 101 -102 
102 200 400 350 400 400 450 1 10 2 102 -103 
103 200 200 450 200 400 450 1 10 2 103 -100 
14 0 0 0 616 676 0 1 4 4 1 2 3 4 
16 0 0 910 616 676 910 1 4 4 5 6 7 8 
18 0 0 0 616 0 910 1 4 4 1 10 -5 -9 
20 616 0 0 616 676 910 1 2 4 2 11 -6 -10 
22 0 676 0 616 676 910 1 4 4 3 12 -7 -11 
24 0 0 0 0 676 910 1 3 4 4 9 -8 -12 
105 200 200 350 400 400 450 1 5 4 100 101 102 103 
31 0 0 0 616 676 910 1 1 7 105 -14 -16 -18 -20 -22 -24 
$EndEntities
$Nodes
36 103 1 103
0 1 0 1
1
0 0 0
0 2 0 1
2
616 0 0
0 3 0 1
3
616 676 0
0 4 0 1
4
0 676 0
0 5 0 1
5
0 0 910
0 6 0 1
6
616 0 910
0 7 0 1
7
616 676 910
0 8 0 1
8
0 676 910
0 100 0 1
9
200 200 450
0 101 0 1
10
400 200 350
0 102 0 1
11
400 400 350
0 103 0 1
12
200 400 450
1 1 0 2
13
14
205.3333333331514 0 0
410.6666666666998 0 0
1 2 0 2
15
16
616 225.3333333329215 0
616 450.6666666663959 0
1 3 0 2
17
18
410.6666666672957 676 0
205.333333333644 676 0
1 4 0 2
19
20
0 450.6666666666667 0
0 225.3333333333334 0
1 5 0 2
21
22
205.3333333331514 0 910
410.6666666666998 0 910
1 6 0 2
23
24
616 225.3333333329215 910
616 450.6666666663959 910
1 7 0 2
25
26
410.6666666672957 676 910
205.333333333644 676 910
1 8 0 2
27
28
0 450.6666666666667 910
0 225.3333333333334 910
1 9 0 3
29
30
31
0 0 227.4999999996215
0 0 454.9999999995673
0 0 682.4999999999673
1 10 0 3
32
33
34
616 0 227.4999999996215
616 0 454.9999999995673
616 0 682.4999999999673
1 11 0 3
35
36
37
616 676 227.4999999996215
616 676 454.9999999995673
616 676 682.4999999999673
1 12 0 3
38
39
40
0 676 227.4999999996215
0 676 454.9999999995673
0 676 682.4999999999673
1 100 0 0
1 101 0 0
1 102 0 0
1 103 0 0
2 14 0 8
41
42
43
44
45
46
47
48
307.9999999999256 177.8238829103116 0
308.0000000004699 498.1761170897331 0
440.9568007986261 337.9999999996587 0
175.0431992015131 338.0000000000001 0
146.4376784975875 523.4473225525753 0
469.5623215030007 523.4473225527784 0
469.562321502544 152.5526774472615 0
146.4376784972829 152.5526774472757 0
2 16 0 8
49
50
51
52
53
54
55
56
307.9999999999256 177.8238829103116 910
308.0000000004699 498.1761170897331 910
440.9568007986261 337.9999999996587 910
175.0431992015131 338.0000000000001 910
146.4376784975875 523.4473225525753 910
469.5623215030007 523.4473225527784 910
469.562321502544 152.5526774472615 910
146.4376784972829 152.5526774472757 910
2 18 0 10
57
58
59
60
61
62
63
64
65
66
307.9999999999256 0 177.8238829103116
315.7678350692311 0 738.671690792769
444.6112810227954 0 586.281847924335
213.5289296990204 0 559.4697938988168
426.9028497016938 0 355.4121352861724
176.4159298083447 0 327.0277296195415
470.0376642503599 0 152.8271167106707
145.9623357495559 0 152.8271167106335
470.0376642504511 0 757.1728832892765
146.9260196202806 0 760.1282969383104
2 20 0 11
67
68
69
70
71
72
73
74
75
76
77
616 337.9999999996587 195.1443909859763
616 326.6729597040861 713.4661608474782
616 494.5624460273843 568.7499999997673
616 498.2269671433579 346.7575802107522
616 290.3943035606592 463.3731826628747
616 161.5387908234268 300.9601664418468
616 157.8890514701633 617.5948788874899
616 511.4178993995165 165.1710012295092
616 511.4178993995884 744.8289987704494
616 145.1370006139823 145.1759828543828
616 134.5417331110498 774.5832675215762
2 22 0 10
78
79
80
81
82
83
84
85
86
87
308.0000000004699 675.9999999999999 177.8238829102669
300.2321649310502 675.9999999999999 738.6716907927481
171.3887189773424 675.9999999999999 586.2818479242754
402.4710703011034 675.9999999999999 559.4697938987999
189.0971502983728 675.9999999999999 355.4121352860478
439.5840701917965 675.9999999999999 327.027729619509
145.9623357498626 675.9999999999999 152.8271167107817
145.9623357497711 675.9999999999999 757.1728832891654
470.03766425067 675.9999999999999 152.8271167105462
469.0739803798898 675.9999999999999 760.1282969383029
2 24 0 11
88
89
90
91
92
93
94
95
96
97
98
0 338.0000000000001 195.1443909860935
0 349.3270402957323 713.4661608475811
0 181.437553972407 568.7499999997673
0 177.7730328564944 346.7575802107873
0 385.6056964391806 463.3731826630064
0 514.461209176452 300.9601664418896
0 518.1109485297659 617.5948788876129
0 164.5821006003091 165.1710012294089
0 164.5821006002374 744.8289987705497
0 530.862999385866 145.1759828543909
0 541.4582668890156 774.5832675218055
2 105 0 1
99
300 300 400
3 31 0 4
100
101
102
103
322.1746126396475 300 669.3492252792951
220.5495586693994 207.8259159142509 207.8259159142508
216.5879263063928 442.846818929002 209.3690574527335
192.5438207324215 470.1113256182176 704.9636856944924
$EndNodes
$Elements
12 470 1 470
1 100 1 1
1 9 10 
1 101 1 1
2 10 11 
1 102 1 1
3 11 12 
1 103 1 1
4 12 9 
2 14 2 26
5 1 13 48 
6 20 1 48 
7 14 2 47 
8 2 15 47 
9 16 3 46 
10 3 17 46 
11 18 4 45 
12 4 19 45 
13 13 14 41 
14 13 41 48 
15 41 14 47 
16 15 16 43 
17 15 43 47 
18 43 16 46 
19 17 18 42 
20 17 42 46 
21 42 18 45 
22 19 20 44 
23 19 44 45 
24 44 20 48 
25 41 43 44 
26 43 41 47 
27 41 44 48 
28 43 42 44 
29 42 43 46 
30 44 42 45 
2 16 2 26
31 5 21 56 
32 28 5 56 
33 22 6 55 
34 6 23 55 
35 24 7 54 
36 7 25 54 
37 26 8 53 
38 8 27 53 
39 21 22 49 
40 21 49 56 
41 49 22 55 
42 23 24 51 
43 23 51 55 
44 51 24 54 
45 25 26 50 
46 25 50 54 
47 50 26 53 
48 27 28 52 
49 27 52 53 
50 52 28 56 
51 49 51 52 
52 51 49 55 
53 49 52 56 
54 51 50 52 
55 50 51 54 
56 52 50 53 
2 18 2 32
57 1 13 64 
58 29 1 64 
59 14 2 63 
60 2 32 63 
61 21 5 66 
62 5 31 66 
63 6 22 65 
64 34 6 65 
65 13 14 57 
66 13 57 64 
67 57 14 63 
68 22 21 58 
69 58 21 66 
70 22 58 65 
71 30 29 62 
72 62 29 64 
73 31 30 60 
74 60 30 62 
75 31 60 66 
76 32 33 61 
77 32 61 63 
78 33 34 59 
79 33 59 61 
80 59 34 65 
81 57 61 62 
82 61 57 63 
83 57 62 64 
84 59 58 60 
85 58 59 65 
86 60 58 66 
87 59 60 61 
88 61 60 62 
2 20 2 34
89 2 15 76 
90 32 2 76 
91 16 3 74 
92 3 35 74 
93 23 6 77 
94 6 34 77 
95 7 24 75 
96 37 7 75 
97 15 16 67 
98 15 67 76 
99 67 16 74 
100 24 23 68 
101 68 23 77 
102 24 68 75 
103 33 32 72 
104 72 32 76 
105 34 33 73 
106 71 33 72 
107 33 71 73 
108 34 73 77 
109 35 36 70 
110 35 70 74 
111 36 37 69 
112 36 69 70 
113 69 37 75 
114 67 70 71 
115 70 67 74 
116 67 71 72 
117 67 72 76 
118 69 68 71 
119 68 69 75 
120 71 68 73 
121 73 68 77 
122 70 69 71 
2 22 2 32
123 3 17 86 
124 35 3 86 
125 18 4 84 
126 4 38 84 
127 25 7 87 
128 7 37 87 
129 8 26 85 
130 40 8 85 
131 17 18 78 
132 17 78 86 
133 78 18 84 
134 26 25 79 
135 79 25 87 
136 26 79 85 
137 36 35 83 
138 83 35 86 
139 37 36 81 
140 81 36 83 
141 37 81 87 
142 38 39 82 
143 38 82 84 
144 39 40 80 
145 39 80 82 
146 80 40 85 
147 78 82 83 
148 82 78 84 
149 78 83 86 
150 80 79 81 
151 79 80 85 
152 81 79 87 
153 80 81 82 
154 82 81 83 
2 24 2 34
155 20 1 95 
156 1 29 95 
157 4 19 97 
158 38 4 97 
159 5 28 96 
160 31 5 96 
161 27 8 98 
162 8 40 98 
163 19 20 88 
164 19 88 97 
165 88 20 95 
166 28 27 89 
167 89 27 98 
168 28 89 96 
169 29 30 91 
170 29 91 95 
171 30 31 90 
172 30 90 91 
173 90 31 96 
174 39 38 93 
175 93 38 97 
176 40 39 94 
177 92 39 93 
178 39 92 94 
179 40 94 98 
180 88 91 92 
181 91 88 95 
182 88 92 93 
183 88 93 97 
184 90 89 92 
185 89 90 96 
186 92 89 94 
187 94 89 98 
188 91 90 92 
2 105 2 4
189 9 10 99 
190 12 9 99 
191 10 11 99 
192 11 12 99 
3 31 4 278
193 87 100 54 103 
194 50 54 100 103 
195 54 87 75 100 
196 50 87 54 103 
197 79 87 50 103 
198 99 11 12 100 
199 9 10 99 100 
200 87 81 100 103 
201 81 11 69 100 
202 87 79 81 103 
203 46 11 86 102 
204 63 10 47 101 
205 81 12 11 100 
206 10 59 73 100 
207 57 47 41 101 
208 63 47 57 101 
209 65 55 77 100 
210 78 42 46 102 
211 66 49 58 100 
212 43 47 10 101 
213 46 86 78 102 
214 12 100 81 103 
215 43 41 47 101 
216 56 66 96 100 
217 11 99 71 100 
218 11 86 74 46 
219 56 49 66 100 
220 11 43 10 101 
221 99 10 71 100 
222 65 77 73 100 
223 63 57 10 101 
224 9 59 10 100 
225 43 101 11 102 
226 9 12 99 101 
227 76 63 10 47 
228 65 58 55 100 
229 49 55 58 100 
230 10 67 76 47 
231 11 71 69 100 
232 51 54 75 100 
233 42 43 46 102 
234 99 101 12 102 
235 89 9 12 100 
236 73 59 65 100 
237 46 43 11 102 
238 66 60 96 100 
239 89 90 9 100 
240 68 75 69 100 
241 10 73 71 100 
242 51 50 54 100 
243 89 100 12 103 
244 58 65 59 100 
245 55 68 77 100 
246 46 74 11 43 
247 90 96 60 100 
248 89 12 9 90 
249 12 9 91 101 
250 90 60 9 100 
251 56 96 52 100 
252 60 66 58 100 
253 96 90 89 100 
254 77 68 73 100 
255 10 99 11 101 
256 67 10 43 47 
257 99 11 101 102 
258 51 75 68 100 
259 67 10 11 43 
260 68 69 71 100 
261 12 91 88 101 
262 12 81 80 103 
263 12 101 88 102 
264 60 59 9 100 
265 96 89 52 100 
266 86 83 11 74 
267 67 11 74 43 
268 58 59 60 100 
269 11 81 69 70 
270 55 51 68 100 
271 99 10 11 71 
272 56 52 49 100 
273 12 11 82 81 
274 44 101 43 102 
275 73 68 71 100 
276 41 43 44 101 
277 63 10 72 76 
278 70 11 81 83 
279 52 100 89 103 
280 73 59 10 33 
281 94 12 80 103 
282 10 9 60 59 
283 11 12 82 102 
284 11 82 81 83 
285 12 9 99 100 
286 83 70 11 74 
287 81 69 70 36 
288 48 57 41 101 
289 10 67 72 76 
290 83 11 82 102 
291 83 82 78 102 
292 10 57 62 101 
293 39 12 80 94 
294 52 50 100 103 
295 64 57 48 101 
296 49 51 55 100 
297 89 92 12 90 
298 80 12 82 81 
299 83 81 70 36 
300 62 9 10 101 
301 88 93 12 102 
302 19 45 97 102 
303 78 45 42 102 
304 84 45 78 102 
305 79 80 81 103 
306 49 21 66 58 
307 25 50 79 87 
308 9 99 10 101 
309 41 48 13 57 
310 57 14 41 47 
311 78 45 18 42 
312 78 17 46 42 
313 68 55 77 23 
314 21 66 56 49 
315 50 25 54 87 
316 48 64 13 57 
317 17 46 86 78 
318 84 45 18 78 
319 14 57 63 47 
320 79 50 53 103 
321 51 52 50 100 
322 10 71 73 33 
323 42 44 43 102 
324 92 89 12 103 
325 48 44 95 101 
326 95 62 64 101 
327 94 92 12 103 
328 92 9 12 90 
329 75 87 37 69 
330 85 79 53 103 
331 60 9 10 61 
332 22 58 49 55 
333 53 79 26 50 
334 59 60 10 61 
335 84 93 97 102 
336 93 82 12 102 
337 88 91 12 92 
338 85 53 79 26 
339 58 22 65 55 
340 95 91 62 101 
341 9 62 91 101 
342 49 52 51 100 
343 94 89 92 103 
344 82 39 12 80 
345 98 53 27 103 
346 12 39 92 94 
347 12 93 39 82 
348 39 93 12 92 
349 69 71 11 70 
350 33 10 71 72 
351 19 97 88 102 
352 99 12 11 102 
353 91 9 12 92 
354 19 44 45 102 
355 93 88 12 92 
356 84 97 45 102 
357 61 10 59 33 
358 48 95 64 101 
359 98 27 89 103 
360 81 37 87 69 
361 23 68 55 51 
362 10 11 71 67 
363 88 95 44 101 
364 62 10 9 61 
365 16 74 46 43 
366 95 48 20 44 
367 67 71 10 72 
368 93 84 82 102 
369 44 88 101 102 
370 24 51 54 75 
371 28 56 96 52 
372 53 52 27 103 
373 29 64 95 62 
374 86 35 83 74 
375 72 61 10 63 
376 14 41 13 57 
377 78 18 17 42 
378 74 70 11 67 
379 58 49 21 22 
380 79 26 50 25 
381 61 57 10 63 
382 94 85 98 103 
383 57 10 62 61 
384 30 9 91 90 
385 85 94 80 103 
386 62 95 29 91 
387 70 83 35 74 
388 27 52 89 103 
389 60 62 9 61 
390 44 19 88 102 
391 91 95 88 101 
392 85 53 98 103 
393 91 62 9 30 
394 97 84 38 93 
395 72 32 63 76 
396 96 89 28 52 
397 51 24 68 75 
398 82 84 78 102 
399 41 44 48 101 
400 30 9 90 60 
401 70 71 11 67 
402 33 61 10 72 
403 62 57 64 101 
404 88 95 20 44 
405 16 67 74 43 
406 85 80 79 103 
407 95 1 48 64 
408 74 86 3 46 
409 5 56 66 96 
410 75 54 7 87 
411 73 34 77 65 
412 40 94 85 98 
413 97 45 4 84 
414 76 2 63 47 
415 92 91 9 90 
416 61 72 32 63 
417 84 38 93 82 
418 34 73 59 65 
419 80 40 94 85 
420 52 53 50 103 
421 6 77 65 55 
422 98 85 8 53 
423 30 62 9 60 
424 88 97 93 102 
425 69 81 37 36 
426 90 31 30 60 
427 44 42 45 102 
428 45 18 4 84 
429 2 14 63 47 
430 53 85 8 26 
431 65 22 6 55 
432 28 89 27 52 
433 68 23 24 51 
434 95 48 1 20 
435 3 74 46 16 
436 64 1 48 13 
437 46 86 3 17 
438 64 95 1 29 
439 86 3 35 74 
440 66 56 5 21 
441 54 25 7 87 
442 70 83 36 35 
443 29 62 91 30 
444 56 5 28 96 
445 54 7 24 75 
446 98 89 94 103 
447 19 88 20 44 
448 67 16 15 43 
449 45 4 19 97 
450 76 15 2 47 
451 4 97 84 38 
452 63 32 2 76 
453 96 66 5 31 
454 87 7 75 37 
455 77 34 6 65 
456 85 8 40 98 
457 8 98 53 27 
458 55 6 77 23 
459 40 39 80 94 
460 59 73 34 33 
461 72 33 61 32 
462 39 93 38 82 
463 96 60 31 90 
464 31 60 96 66 
465 69 87 100 75 
466 69 100 87 81 
467 102 83 86 78 
468 102 86 83 11 
469 67 47 15 76 
470 15 47 67 43 
$EndElements
